<?xml version="1.0" encoding="utf-8" standalone="no"?>
<!DOCTYPE svg PUBLIC "-//W3C//DTD SVG 1.1//EN"
  "http://www.w3.org/Graphics/SVG/1.1/DTD/svg11.dtd">
<!-- Created with matplotlib (http://matplotlib.org/) -->
<svg height="360pt" version="1.1" viewBox="0 0 864 360" width="864pt" xmlns="http://www.w3.org/2000/svg" xmlns:xlink="http://www.w3.org/1999/xlink">
 <defs>
  <style type="text/css">
*{stroke-linecap:butt;stroke-linejoin:round;}
  </style>
 </defs>
 <g id="figure_1">
  <g id="patch_1">
   <path d="M 0 360 
L 864 360 
L 864 0 
L 0 0 
z
" style="fill:#ffffff;"/>
  </g>
  <g id="axes_1">
   <g id="patch_2">
    <path d="M 108 315 
L 777.6 315 
L 777.6 43.2 
L 108 43.2 
z
" style="fill:#ffffff;"/>
   </g>
   <g id="matplotlib.axis_1">
    <g id="xtick_1">
     <g id="line2d_1">
      <path clip-path="url(#pa66f040f1e)" d="M 160.863158 315 
L 160.863158 43.2 
" style="fill:none;stroke:#cccccc;stroke-linecap:round;stroke-width:1.3;"/>
     </g>
     <g id="line2d_2"/>
     <g id="text_1">
      <!-- 25000 -->
      <defs>
       <path d="M 19.1875 8.296875 
L 53.609375 8.296875 
L 53.609375 0 
L 7.328125 0 
L 7.328125 8.296875 
Q 12.9375 14.109375 22.625 23.890625 
Q 32.328125 33.6875 34.8125 36.53125 
Q 39.546875 41.84375 41.421875 45.53125 
Q 43.3125 49.21875 43.3125 52.78125 
Q 43.3125 58.59375 39.234375 62.25 
Q 35.15625 65.921875 28.609375 65.921875 
Q 23.96875 65.921875 18.8125 64.3125 
Q 13.671875 62.703125 7.8125 59.421875 
L 7.8125 69.390625 
Q 13.765625 71.78125 18.9375 73 
Q 24.125 74.21875 28.421875 74.21875 
Q 39.75 74.21875 46.484375 68.546875 
Q 53.21875 62.890625 53.21875 53.421875 
Q 53.21875 48.921875 51.53125 44.890625 
Q 49.859375 40.875 45.40625 35.40625 
Q 44.1875 33.984375 37.640625 27.21875 
Q 31.109375 20.453125 19.1875 8.296875 
z
" id="DejaVuSans-32"/>
       <path d="M 10.796875 72.90625 
L 49.515625 72.90625 
L 49.515625 64.59375 
L 19.828125 64.59375 
L 19.828125 46.734375 
Q 21.96875 47.46875 24.109375 47.828125 
Q 26.265625 48.1875 28.421875 48.1875 
Q 40.625 48.1875 47.75 41.5 
Q 54.890625 34.8125 54.890625 23.390625 
Q 54.890625 11.625 47.5625 5.09375 
Q 40.234375 -1.421875 26.90625 -1.421875 
Q 22.3125 -1.421875 17.546875 -0.640625 
Q 12.796875 0.140625 7.71875 1.703125 
L 7.71875 11.625 
Q 12.109375 9.234375 16.796875 8.0625 
Q 21.484375 6.890625 26.703125 6.890625 
Q 35.15625 6.890625 40.078125 11.328125 
Q 45.015625 15.765625 45.015625 23.390625 
Q 45.015625 31 40.078125 35.4375 
Q 35.15625 39.890625 26.703125 39.890625 
Q 22.75 39.890625 18.8125 39.015625 
Q 14.890625 38.140625 10.796875 36.28125 
z
" id="DejaVuSans-35"/>
       <path d="M 31.78125 66.40625 
Q 24.171875 66.40625 20.328125 58.90625 
Q 16.5 51.421875 16.5 36.375 
Q 16.5 21.390625 20.328125 13.890625 
Q 24.171875 6.390625 31.78125 6.390625 
Q 39.453125 6.390625 43.28125 13.890625 
Q 47.125 21.390625 47.125 36.375 
Q 47.125 51.421875 43.28125 58.90625 
Q 39.453125 66.40625 31.78125 66.40625 
z
M 31.78125 74.21875 
Q 44.046875 74.21875 50.515625 64.515625 
Q 56.984375 54.828125 56.984375 36.375 
Q 56.984375 17.96875 50.515625 8.265625 
Q 44.046875 -1.421875 31.78125 -1.421875 
Q 19.53125 -1.421875 13.0625 8.265625 
Q 6.59375 17.96875 6.59375 36.375 
Q 6.59375 54.828125 13.0625 64.515625 
Q 19.53125 74.21875 31.78125 74.21875 
z
" id="DejaVuSans-30"/>
      </defs>
      <g style="fill:#262626;" transform="translate(131.913783 337.929156)scale(0.182 -0.182)">
       <use xlink:href="#DejaVuSans-32"/>
       <use x="63.623047" xlink:href="#DejaVuSans-35"/>
       <use x="127.246094" xlink:href="#DejaVuSans-30"/>
       <use x="190.869141" xlink:href="#DejaVuSans-30"/>
       <use x="254.492188" xlink:href="#DejaVuSans-30"/>
      </g>
     </g>
    </g>
    <g id="xtick_2">
     <g id="line2d_3">
      <path clip-path="url(#pa66f040f1e)" d="M 248.968421 315 
L 248.968421 43.2 
" style="fill:none;stroke:#cccccc;stroke-linecap:round;stroke-width:1.3;"/>
     </g>
     <g id="line2d_4"/>
     <g id="text_2">
      <!-- 50000 -->
      <g style="fill:#262626;" transform="translate(220.019046 337.929156)scale(0.182 -0.182)">
       <use xlink:href="#DejaVuSans-35"/>
       <use x="63.623047" xlink:href="#DejaVuSans-30"/>
       <use x="127.246094" xlink:href="#DejaVuSans-30"/>
       <use x="190.869141" xlink:href="#DejaVuSans-30"/>
       <use x="254.492188" xlink:href="#DejaVuSans-30"/>
      </g>
     </g>
    </g>
    <g id="xtick_3">
     <g id="line2d_5">
      <path clip-path="url(#pa66f040f1e)" d="M 337.073684 315 
L 337.073684 43.2 
" style="fill:none;stroke:#cccccc;stroke-linecap:round;stroke-width:1.3;"/>
     </g>
     <g id="line2d_6"/>
     <g id="text_3">
      <!-- 75000 -->
      <defs>
       <path d="M 8.203125 72.90625 
L 55.078125 72.90625 
L 55.078125 68.703125 
L 28.609375 0 
L 18.3125 0 
L 43.21875 64.59375 
L 8.203125 64.59375 
z
" id="DejaVuSans-37"/>
      </defs>
      <g style="fill:#262626;" transform="translate(308.124309 337.929156)scale(0.182 -0.182)">
       <use xlink:href="#DejaVuSans-37"/>
       <use x="63.623047" xlink:href="#DejaVuSans-35"/>
       <use x="127.246094" xlink:href="#DejaVuSans-30"/>
       <use x="190.869141" xlink:href="#DejaVuSans-30"/>
       <use x="254.492188" xlink:href="#DejaVuSans-30"/>
      </g>
     </g>
    </g>
    <g id="xtick_4">
     <g id="line2d_7">
      <path clip-path="url(#pa66f040f1e)" d="M 425.178947 315 
L 425.178947 43.2 
" style="fill:none;stroke:#cccccc;stroke-linecap:round;stroke-width:1.3;"/>
     </g>
     <g id="line2d_8"/>
     <g id="text_4">
      <!-- 100000 -->
      <defs>
       <path d="M 12.40625 8.296875 
L 28.515625 8.296875 
L 28.515625 63.921875 
L 10.984375 60.40625 
L 10.984375 69.390625 
L 28.421875 72.90625 
L 38.28125 72.90625 
L 38.28125 8.296875 
L 54.390625 8.296875 
L 54.390625 0 
L 12.40625 0 
z
" id="DejaVuSans-31"/>
      </defs>
      <g style="fill:#262626;" transform="translate(390.439697 337.929156)scale(0.182 -0.182)">
       <use xlink:href="#DejaVuSans-31"/>
       <use x="63.623047" xlink:href="#DejaVuSans-30"/>
       <use x="127.246094" xlink:href="#DejaVuSans-30"/>
       <use x="190.869141" xlink:href="#DejaVuSans-30"/>
       <use x="254.492188" xlink:href="#DejaVuSans-30"/>
       <use x="318.115234" xlink:href="#DejaVuSans-30"/>
      </g>
     </g>
    </g>
    <g id="xtick_5">
     <g id="line2d_9">
      <path clip-path="url(#pa66f040f1e)" d="M 513.284211 315 
L 513.284211 43.2 
" style="fill:none;stroke:#cccccc;stroke-linecap:round;stroke-width:1.3;"/>
     </g>
     <g id="line2d_10"/>
     <g id="text_5">
      <!-- 125000 -->
      <g style="fill:#262626;" transform="translate(478.544961 337.929156)scale(0.182 -0.182)">
       <use xlink:href="#DejaVuSans-31"/>
       <use x="63.623047" xlink:href="#DejaVuSans-32"/>
       <use x="127.246094" xlink:href="#DejaVuSans-35"/>
       <use x="190.869141" xlink:href="#DejaVuSans-30"/>
       <use x="254.492188" xlink:href="#DejaVuSans-30"/>
       <use x="318.115234" xlink:href="#DejaVuSans-30"/>
      </g>
     </g>
    </g>
    <g id="xtick_6">
     <g id="line2d_11">
      <path clip-path="url(#pa66f040f1e)" d="M 601.389474 315 
L 601.389474 43.2 
" style="fill:none;stroke:#cccccc;stroke-linecap:round;stroke-width:1.3;"/>
     </g>
     <g id="line2d_12"/>
     <g id="text_6">
      <!-- 150000 -->
      <g style="fill:#262626;" transform="translate(566.650224 337.929156)scale(0.182 -0.182)">
       <use xlink:href="#DejaVuSans-31"/>
       <use x="63.623047" xlink:href="#DejaVuSans-35"/>
       <use x="127.246094" xlink:href="#DejaVuSans-30"/>
       <use x="190.869141" xlink:href="#DejaVuSans-30"/>
       <use x="254.492188" xlink:href="#DejaVuSans-30"/>
       <use x="318.115234" xlink:href="#DejaVuSans-30"/>
      </g>
     </g>
    </g>
    <g id="xtick_7">
     <g id="line2d_13">
      <path clip-path="url(#pa66f040f1e)" d="M 689.494737 315 
L 689.494737 43.2 
" style="fill:none;stroke:#cccccc;stroke-linecap:round;stroke-width:1.3;"/>
     </g>
     <g id="line2d_14"/>
     <g id="text_7">
      <!-- 175000 -->
      <g style="fill:#262626;" transform="translate(654.755487 337.929156)scale(0.182 -0.182)">
       <use xlink:href="#DejaVuSans-31"/>
       <use x="63.623047" xlink:href="#DejaVuSans-37"/>
       <use x="127.246094" xlink:href="#DejaVuSans-35"/>
       <use x="190.869141" xlink:href="#DejaVuSans-30"/>
       <use x="254.492188" xlink:href="#DejaVuSans-30"/>
       <use x="318.115234" xlink:href="#DejaVuSans-30"/>
      </g>
     </g>
    </g>
    <g id="xtick_8">
     <g id="line2d_15">
      <path clip-path="url(#pa66f040f1e)" d="M 777.6 315 
L 777.6 43.2 
" style="fill:none;stroke:#cccccc;stroke-linecap:round;stroke-width:1.3;"/>
     </g>
     <g id="line2d_16"/>
     <g id="text_8">
      <!-- 200000 -->
      <g style="fill:#262626;" transform="translate(742.86075 337.929156)scale(0.182 -0.182)">
       <use xlink:href="#DejaVuSans-32"/>
       <use x="63.623047" xlink:href="#DejaVuSans-30"/>
       <use x="127.246094" xlink:href="#DejaVuSans-30"/>
       <use x="190.869141" xlink:href="#DejaVuSans-30"/>
       <use x="254.492188" xlink:href="#DejaVuSans-30"/>
       <use x="318.115234" xlink:href="#DejaVuSans-30"/>
      </g>
     </g>
    </g>
    <g id="text_9">
     <!-- Yearly Ernings in US$ -->
     <defs>
      <path d="M -0.203125 72.90625 
L 10.40625 72.90625 
L 30.609375 42.921875 
L 50.6875 72.90625 
L 61.28125 72.90625 
L 35.5 34.71875 
L 35.5 0 
L 25.59375 0 
L 25.59375 34.71875 
z
" id="DejaVuSans-59"/>
      <path d="M 56.203125 29.59375 
L 56.203125 25.203125 
L 14.890625 25.203125 
Q 15.484375 15.921875 20.484375 11.0625 
Q 25.484375 6.203125 34.421875 6.203125 
Q 39.59375 6.203125 44.453125 7.46875 
Q 49.3125 8.734375 54.109375 11.28125 
L 54.109375 2.78125 
Q 49.265625 0.734375 44.1875 -0.34375 
Q 39.109375 -1.421875 33.890625 -1.421875 
Q 20.796875 -1.421875 13.15625 6.1875 
Q 5.515625 13.8125 5.515625 26.8125 
Q 5.515625 40.234375 12.765625 48.109375 
Q 20.015625 56 32.328125 56 
Q 43.359375 56 49.78125 48.890625 
Q 56.203125 41.796875 56.203125 29.59375 
z
M 47.21875 32.234375 
Q 47.125 39.59375 43.09375 43.984375 
Q 39.0625 48.390625 32.421875 48.390625 
Q 24.90625 48.390625 20.390625 44.140625 
Q 15.875 39.890625 15.1875 32.171875 
z
" id="DejaVuSans-65"/>
      <path d="M 34.28125 27.484375 
Q 23.390625 27.484375 19.1875 25 
Q 14.984375 22.515625 14.984375 16.5 
Q 14.984375 11.71875 18.140625 8.90625 
Q 21.296875 6.109375 26.703125 6.109375 
Q 34.1875 6.109375 38.703125 11.40625 
Q 43.21875 16.703125 43.21875 25.484375 
L 43.21875 27.484375 
z
M 52.203125 31.203125 
L 52.203125 0 
L 43.21875 0 
L 43.21875 8.296875 
Q 40.140625 3.328125 35.546875 0.953125 
Q 30.953125 -1.421875 24.3125 -1.421875 
Q 15.921875 -1.421875 10.953125 3.296875 
Q 6 8.015625 6 15.921875 
Q 6 25.140625 12.171875 29.828125 
Q 18.359375 34.515625 30.609375 34.515625 
L 43.21875 34.515625 
L 43.21875 35.40625 
Q 43.21875 41.609375 39.140625 45 
Q 35.0625 48.390625 27.6875 48.390625 
Q 23 48.390625 18.546875 47.265625 
Q 14.109375 46.140625 10.015625 43.890625 
L 10.015625 52.203125 
Q 14.9375 54.109375 19.578125 55.046875 
Q 24.21875 56 28.609375 56 
Q 40.484375 56 46.34375 49.84375 
Q 52.203125 43.703125 52.203125 31.203125 
z
" id="DejaVuSans-61"/>
      <path d="M 41.109375 46.296875 
Q 39.59375 47.171875 37.8125 47.578125 
Q 36.03125 48 33.890625 48 
Q 26.265625 48 22.1875 43.046875 
Q 18.109375 38.09375 18.109375 28.8125 
L 18.109375 0 
L 9.078125 0 
L 9.078125 54.6875 
L 18.109375 54.6875 
L 18.109375 46.1875 
Q 20.953125 51.171875 25.484375 53.578125 
Q 30.03125 56 36.53125 56 
Q 37.453125 56 38.578125 55.875 
Q 39.703125 55.765625 41.0625 55.515625 
z
" id="DejaVuSans-72"/>
      <path d="M 9.421875 75.984375 
L 18.40625 75.984375 
L 18.40625 0 
L 9.421875 0 
z
" id="DejaVuSans-6c"/>
      <path d="M 32.171875 -5.078125 
Q 28.375 -14.84375 24.75 -17.8125 
Q 21.140625 -20.796875 15.09375 -20.796875 
L 7.90625 -20.796875 
L 7.90625 -13.28125 
L 13.1875 -13.28125 
Q 16.890625 -13.28125 18.9375 -11.515625 
Q 21 -9.765625 23.484375 -3.21875 
L 25.09375 0.875 
L 2.984375 54.6875 
L 12.5 54.6875 
L 29.59375 11.921875 
L 46.6875 54.6875 
L 56.203125 54.6875 
z
" id="DejaVuSans-79"/>
      <path id="DejaVuSans-20"/>
      <path d="M 9.8125 72.90625 
L 55.90625 72.90625 
L 55.90625 64.59375 
L 19.671875 64.59375 
L 19.671875 43.015625 
L 54.390625 43.015625 
L 54.390625 34.71875 
L 19.671875 34.71875 
L 19.671875 8.296875 
L 56.78125 8.296875 
L 56.78125 0 
L 9.8125 0 
z
" id="DejaVuSans-45"/>
      <path d="M 54.890625 33.015625 
L 54.890625 0 
L 45.90625 0 
L 45.90625 32.71875 
Q 45.90625 40.484375 42.875 44.328125 
Q 39.84375 48.1875 33.796875 48.1875 
Q 26.515625 48.1875 22.3125 43.546875 
Q 18.109375 38.921875 18.109375 30.90625 
L 18.109375 0 
L 9.078125 0 
L 9.078125 54.6875 
L 18.109375 54.6875 
L 18.109375 46.1875 
Q 21.34375 51.125 25.703125 53.5625 
Q 30.078125 56 35.796875 56 
Q 45.21875 56 50.046875 50.171875 
Q 54.890625 44.34375 54.890625 33.015625 
z
" id="DejaVuSans-6e"/>
      <path d="M 9.421875 54.6875 
L 18.40625 54.6875 
L 18.40625 0 
L 9.421875 0 
z
M 9.421875 75.984375 
L 18.40625 75.984375 
L 18.40625 64.59375 
L 9.421875 64.59375 
z
" id="DejaVuSans-69"/>
      <path d="M 45.40625 27.984375 
Q 45.40625 37.75 41.375 43.109375 
Q 37.359375 48.484375 30.078125 48.484375 
Q 22.859375 48.484375 18.828125 43.109375 
Q 14.796875 37.75 14.796875 27.984375 
Q 14.796875 18.265625 18.828125 12.890625 
Q 22.859375 7.515625 30.078125 7.515625 
Q 37.359375 7.515625 41.375 12.890625 
Q 45.40625 18.265625 45.40625 27.984375 
z
M 54.390625 6.78125 
Q 54.390625 -7.171875 48.1875 -13.984375 
Q 42 -20.796875 29.203125 -20.796875 
Q 24.46875 -20.796875 20.265625 -20.09375 
Q 16.0625 -19.390625 12.109375 -17.921875 
L 12.109375 -9.1875 
Q 16.0625 -11.328125 19.921875 -12.34375 
Q 23.78125 -13.375 27.78125 -13.375 
Q 36.625 -13.375 41.015625 -8.765625 
Q 45.40625 -4.15625 45.40625 5.171875 
L 45.40625 9.625 
Q 42.625 4.78125 38.28125 2.390625 
Q 33.9375 0 27.875 0 
Q 17.828125 0 11.671875 7.65625 
Q 5.515625 15.328125 5.515625 27.984375 
Q 5.515625 40.671875 11.671875 48.328125 
Q 17.828125 56 27.875 56 
Q 33.9375 56 38.28125 53.609375 
Q 42.625 51.21875 45.40625 46.390625 
L 45.40625 54.6875 
L 54.390625 54.6875 
z
" id="DejaVuSans-67"/>
      <path d="M 44.28125 53.078125 
L 44.28125 44.578125 
Q 40.484375 46.53125 36.375 47.5 
Q 32.28125 48.484375 27.875 48.484375 
Q 21.1875 48.484375 17.84375 46.4375 
Q 14.5 44.390625 14.5 40.28125 
Q 14.5 37.15625 16.890625 35.375 
Q 19.28125 33.59375 26.515625 31.984375 
L 29.59375 31.296875 
Q 39.15625 29.25 43.1875 25.515625 
Q 47.21875 21.78125 47.21875 15.09375 
Q 47.21875 7.46875 41.1875 3.015625 
Q 35.15625 -1.421875 24.609375 -1.421875 
Q 20.21875 -1.421875 15.453125 -0.5625 
Q 10.6875 0.296875 5.421875 2 
L 5.421875 11.28125 
Q 10.40625 8.6875 15.234375 7.390625 
Q 20.0625 6.109375 24.8125 6.109375 
Q 31.15625 6.109375 34.5625 8.28125 
Q 37.984375 10.453125 37.984375 14.40625 
Q 37.984375 18.0625 35.515625 20.015625 
Q 33.0625 21.96875 24.703125 23.78125 
L 21.578125 24.515625 
Q 13.234375 26.265625 9.515625 29.90625 
Q 5.8125 33.546875 5.8125 39.890625 
Q 5.8125 47.609375 11.28125 51.796875 
Q 16.75 56 26.8125 56 
Q 31.78125 56 36.171875 55.265625 
Q 40.578125 54.546875 44.28125 53.078125 
z
" id="DejaVuSans-73"/>
      <path d="M 8.6875 72.90625 
L 18.609375 72.90625 
L 18.609375 28.609375 
Q 18.609375 16.890625 22.84375 11.734375 
Q 27.09375 6.59375 36.625 6.59375 
Q 46.09375 6.59375 50.34375 11.734375 
Q 54.59375 16.890625 54.59375 28.609375 
L 54.59375 72.90625 
L 64.5 72.90625 
L 64.5 27.390625 
Q 64.5 13.140625 57.4375 5.859375 
Q 50.390625 -1.421875 36.625 -1.421875 
Q 22.796875 -1.421875 15.734375 5.859375 
Q 8.6875 13.140625 8.6875 27.390625 
z
" id="DejaVuSans-55"/>
      <path d="M 53.515625 70.515625 
L 53.515625 60.890625 
Q 47.90625 63.578125 42.921875 64.890625 
Q 37.9375 66.21875 33.296875 66.21875 
Q 25.25 66.21875 20.875 63.09375 
Q 16.5 59.96875 16.5 54.203125 
Q 16.5 49.359375 19.40625 46.890625 
Q 22.3125 44.4375 30.421875 42.921875 
L 36.375 41.703125 
Q 47.40625 39.59375 52.65625 34.296875 
Q 57.90625 29 57.90625 20.125 
Q 57.90625 9.515625 50.796875 4.046875 
Q 43.703125 -1.421875 29.984375 -1.421875 
Q 24.8125 -1.421875 18.96875 -0.25 
Q 13.140625 0.921875 6.890625 3.21875 
L 6.890625 13.375 
Q 12.890625 10.015625 18.65625 8.296875 
Q 24.421875 6.59375 29.984375 6.59375 
Q 38.421875 6.59375 43.015625 9.90625 
Q 47.609375 13.234375 47.609375 19.390625 
Q 47.609375 24.75 44.3125 27.78125 
Q 41.015625 30.8125 33.5 32.328125 
L 27.484375 33.5 
Q 16.453125 35.6875 11.515625 40.375 
Q 6.59375 45.0625 6.59375 53.421875 
Q 6.59375 63.09375 13.40625 68.65625 
Q 20.21875 74.21875 32.171875 74.21875 
Q 37.3125 74.21875 42.625 73.28125 
Q 47.953125 72.359375 53.515625 70.515625 
z
" id="DejaVuSans-53"/>
      <path d="M 33.796875 -14.703125 
L 28.90625 -14.703125 
L 28.859375 0 
Q 23.734375 0.09375 18.609375 1.1875 
Q 13.484375 2.296875 8.296875 4.5 
L 8.296875 13.28125 
Q 13.28125 10.15625 18.375 8.5625 
Q 23.484375 6.984375 28.90625 6.9375 
L 28.90625 29.203125 
Q 18.109375 30.953125 13.203125 35.15625 
Q 8.296875 39.359375 8.296875 46.6875 
Q 8.296875 54.640625 13.625 59.21875 
Q 18.953125 63.8125 28.90625 64.5 
L 28.90625 75.984375 
L 33.796875 75.984375 
L 33.796875 64.65625 
Q 38.328125 64.453125 42.578125 63.6875 
Q 46.828125 62.9375 50.875 61.625 
L 50.875 53.078125 
Q 46.828125 55.125 42.546875 56.25 
Q 38.28125 57.375 33.796875 57.5625 
L 33.796875 36.71875 
Q 44.875 35.015625 50.09375 30.609375 
Q 55.328125 26.21875 55.328125 18.609375 
Q 55.328125 10.359375 49.78125 5.59375 
Q 44.234375 0.828125 33.796875 0.09375 
z
M 28.90625 37.59375 
L 28.90625 57.625 
Q 23.25 56.984375 20.265625 54.390625 
Q 17.28125 51.8125 17.28125 47.515625 
Q 17.28125 43.3125 20.03125 40.96875 
Q 22.796875 38.625 28.90625 37.59375 
z
M 33.796875 28.21875 
L 33.796875 7.078125 
Q 39.984375 7.90625 43.140625 10.59375 
Q 46.296875 13.28125 46.296875 17.671875 
Q 46.296875 21.96875 43.28125 24.5 
Q 40.28125 27.046875 33.796875 28.21875 
z
" id="DejaVuSans-24"/>
     </defs>
     <g style="fill:#262626;" transform="translate(335.397392 360.926259)scale(0.2002 -0.2002)">
      <use xlink:href="#DejaVuSans-59"/>
      <use x="60.880859" xlink:href="#DejaVuSans-65"/>
      <use x="122.404297" xlink:href="#DejaVuSans-61"/>
      <use x="183.683594" xlink:href="#DejaVuSans-72"/>
      <use x="224.796875" xlink:href="#DejaVuSans-6c"/>
      <use x="252.580078" xlink:href="#DejaVuSans-79"/>
      <use x="311.759766" xlink:href="#DejaVuSans-20"/>
      <use x="343.546875" xlink:href="#DejaVuSans-45"/>
      <use x="406.730469" xlink:href="#DejaVuSans-72"/>
      <use x="447.828125" xlink:href="#DejaVuSans-6e"/>
      <use x="511.207031" xlink:href="#DejaVuSans-69"/>
      <use x="538.990234" xlink:href="#DejaVuSans-6e"/>
      <use x="602.369141" xlink:href="#DejaVuSans-67"/>
      <use x="665.845703" xlink:href="#DejaVuSans-73"/>
      <use x="717.945312" xlink:href="#DejaVuSans-20"/>
      <use x="749.732422" xlink:href="#DejaVuSans-69"/>
      <use x="777.515625" xlink:href="#DejaVuSans-6e"/>
      <use x="840.894531" xlink:href="#DejaVuSans-20"/>
      <use x="872.681641" xlink:href="#DejaVuSans-55"/>
      <use x="945.875" xlink:href="#DejaVuSans-53"/>
      <use x="1009.351562" xlink:href="#DejaVuSans-24"/>
     </g>
    </g>
   </g>
   <g id="matplotlib.axis_2">
    <g id="ytick_1">
     <g id="line2d_17">
      <path clip-path="url(#pa66f040f1e)" d="M 108 315 
L 777.6 315 
" style="fill:none;stroke:#cccccc;stroke-linecap:round;stroke-width:1.3;"/>
     </g>
     <g id="line2d_18"/>
     <g id="text_10">
      <!-- 0.000000 -->
      <defs>
       <path d="M 10.6875 12.40625 
L 21 12.40625 
L 21 0 
L 10.6875 0 
z
" id="DejaVuSans-2e"/>
      </defs>
      <g style="fill:#262626;" transform="translate(12.057563 321.914578)scale(0.182 -0.182)">
       <use xlink:href="#DejaVuSans-30"/>
       <use x="63.623047" xlink:href="#DejaVuSans-2e"/>
       <use x="95.410156" xlink:href="#DejaVuSans-30"/>
       <use x="159.033203" xlink:href="#DejaVuSans-30"/>
       <use x="222.65625" xlink:href="#DejaVuSans-30"/>
       <use x="286.279297" xlink:href="#DejaVuSans-30"/>
       <use x="349.902344" xlink:href="#DejaVuSans-30"/>
       <use x="413.525391" xlink:href="#DejaVuSans-30"/>
      </g>
     </g>
    </g>
    <g id="ytick_2">
     <g id="line2d_19">
      <path clip-path="url(#pa66f040f1e)" d="M 108 262.972318 
L 777.6 262.972318 
" style="fill:none;stroke:#cccccc;stroke-linecap:round;stroke-width:1.3;"/>
     </g>
     <g id="line2d_20"/>
     <g id="text_11">
      <!-- 0.000005 -->
      <g style="fill:#262626;" transform="translate(12.057563 269.886896)scale(0.182 -0.182)">
       <use xlink:href="#DejaVuSans-30"/>
       <use x="63.623047" xlink:href="#DejaVuSans-2e"/>
       <use x="95.410156" xlink:href="#DejaVuSans-30"/>
       <use x="159.033203" xlink:href="#DejaVuSans-30"/>
       <use x="222.65625" xlink:href="#DejaVuSans-30"/>
       <use x="286.279297" xlink:href="#DejaVuSans-30"/>
       <use x="349.902344" xlink:href="#DejaVuSans-30"/>
       <use x="413.525391" xlink:href="#DejaVuSans-35"/>
      </g>
     </g>
    </g>
    <g id="ytick_3">
     <g id="line2d_21">
      <path clip-path="url(#pa66f040f1e)" d="M 108 210.944636 
L 777.6 210.944636 
" style="fill:none;stroke:#cccccc;stroke-linecap:round;stroke-width:1.3;"/>
     </g>
     <g id="line2d_22"/>
     <g id="text_12">
      <!-- 0.000010 -->
      <g style="fill:#262626;" transform="translate(12.057563 217.859215)scale(0.182 -0.182)">
       <use xlink:href="#DejaVuSans-30"/>
       <use x="63.623047" xlink:href="#DejaVuSans-2e"/>
       <use x="95.410156" xlink:href="#DejaVuSans-30"/>
       <use x="159.033203" xlink:href="#DejaVuSans-30"/>
       <use x="222.65625" xlink:href="#DejaVuSans-30"/>
       <use x="286.279297" xlink:href="#DejaVuSans-30"/>
       <use x="349.902344" xlink:href="#DejaVuSans-31"/>
       <use x="413.525391" xlink:href="#DejaVuSans-30"/>
      </g>
     </g>
    </g>
    <g id="ytick_4">
     <g id="line2d_23">
      <path clip-path="url(#pa66f040f1e)" d="M 108 158.916955 
L 777.6 158.916955 
" style="fill:none;stroke:#cccccc;stroke-linecap:round;stroke-width:1.3;"/>
     </g>
     <g id="line2d_24"/>
     <g id="text_13">
      <!-- 0.000015 -->
      <g style="fill:#262626;" transform="translate(12.057563 165.831533)scale(0.182 -0.182)">
       <use xlink:href="#DejaVuSans-30"/>
       <use x="63.623047" xlink:href="#DejaVuSans-2e"/>
       <use x="95.410156" xlink:href="#DejaVuSans-30"/>
       <use x="159.033203" xlink:href="#DejaVuSans-30"/>
       <use x="222.65625" xlink:href="#DejaVuSans-30"/>
       <use x="286.279297" xlink:href="#DejaVuSans-30"/>
       <use x="349.902344" xlink:href="#DejaVuSans-31"/>
       <use x="413.525391" xlink:href="#DejaVuSans-35"/>
      </g>
     </g>
    </g>
    <g id="ytick_5">
     <g id="line2d_25">
      <path clip-path="url(#pa66f040f1e)" d="M 108 106.889273 
L 777.6 106.889273 
" style="fill:none;stroke:#cccccc;stroke-linecap:round;stroke-width:1.3;"/>
     </g>
     <g id="line2d_26"/>
     <g id="text_14">
      <!-- 0.000020 -->
      <g style="fill:#262626;" transform="translate(12.057563 113.803851)scale(0.182 -0.182)">
       <use xlink:href="#DejaVuSans-30"/>
       <use x="63.623047" xlink:href="#DejaVuSans-2e"/>
       <use x="95.410156" xlink:href="#DejaVuSans-30"/>
       <use x="159.033203" xlink:href="#DejaVuSans-30"/>
       <use x="222.65625" xlink:href="#DejaVuSans-30"/>
       <use x="286.279297" xlink:href="#DejaVuSans-30"/>
       <use x="349.902344" xlink:href="#DejaVuSans-32"/>
       <use x="413.525391" xlink:href="#DejaVuSans-30"/>
      </g>
     </g>
    </g>
    <g id="ytick_6">
     <g id="line2d_27">
      <path clip-path="url(#pa66f040f1e)" d="M 108 54.861591 
L 777.6 54.861591 
" style="fill:none;stroke:#cccccc;stroke-linecap:round;stroke-width:1.3;"/>
     </g>
     <g id="line2d_28"/>
     <g id="text_15">
      <!-- 0.000025 -->
      <g style="fill:#262626;" transform="translate(12.057563 61.776169)scale(0.182 -0.182)">
       <use xlink:href="#DejaVuSans-30"/>
       <use x="63.623047" xlink:href="#DejaVuSans-2e"/>
       <use x="95.410156" xlink:href="#DejaVuSans-30"/>
       <use x="159.033203" xlink:href="#DejaVuSans-30"/>
       <use x="222.65625" xlink:href="#DejaVuSans-30"/>
       <use x="286.279297" xlink:href="#DejaVuSans-30"/>
       <use x="349.902344" xlink:href="#DejaVuSans-32"/>
       <use x="413.525391" xlink:href="#DejaVuSans-35"/>
      </g>
     </g>
    </g>
   </g>
   <g id="patch_3">
    <path clip-path="url(#pa66f040f1e)" d="M 108.003524 315 
L 134.646415 315 
L 134.646415 123.176423 
L 108.003524 123.176423 
z
" style="fill:#1f77b4;opacity:0.4;"/>
   </g>
   <g id="patch_4">
    <path clip-path="url(#pa66f040f1e)" d="M 134.646415 315 
L 161.289305 315 
L 161.289305 56.142857 
L 134.646415 56.142857 
z
" style="fill:#1f77b4;opacity:0.4;"/>
   </g>
   <g id="patch_5">
    <path clip-path="url(#pa66f040f1e)" d="M 161.289305 315 
L 187.932196 315 
L 187.932196 126.938337 
L 161.289305 126.938337 
z
" style="fill:#1f77b4;opacity:0.4;"/>
   </g>
   <g id="patch_6">
    <path clip-path="url(#pa66f040f1e)" d="M 187.932196 315 
L 214.575087 315 
L 214.575087 118.801708 
L 187.932196 118.801708 
z
" style="fill:#1f77b4;opacity:0.4;"/>
   </g>
   <g id="patch_7">
    <path clip-path="url(#pa66f040f1e)" d="M 214.575087 315 
L 241.217977 315 
L 241.217977 216.390187 
L 214.575087 216.390187 
z
" style="fill:#1f77b4;opacity:0.4;"/>
   </g>
   <g id="patch_8">
    <path clip-path="url(#pa66f040f1e)" d="M 241.217977 315 
L 267.860868 315 
L 267.860868 186.584252 
L 241.217977 186.584252 
z
" style="fill:#1f77b4;opacity:0.4;"/>
   </g>
   <g id="patch_9">
    <path clip-path="url(#pa66f040f1e)" d="M 267.860868 315 
L 294.503758 315 
L 294.503758 245.242877 
L 267.860868 245.242877 
z
" style="fill:#1f77b4;opacity:0.4;"/>
   </g>
   <g id="patch_10">
    <path clip-path="url(#pa66f040f1e)" d="M 294.503758 315 
L 321.146649 315 
L 321.146649 253.056083 
L 294.503758 253.056083 
z
" style="fill:#1f77b4;opacity:0.4;"/>
   </g>
   <g id="patch_11">
    <path clip-path="url(#pa66f040f1e)" d="M 321.146649 315 
L 347.78954 315 
L 347.78954 277.976637 
L 321.146649 277.976637 
z
" style="fill:#1f77b4;opacity:0.4;"/>
   </g>
   <g id="patch_12">
    <path clip-path="url(#pa66f040f1e)" d="M 347.78954 315 
L 374.43243 315 
L 374.43243 281.772595 
L 347.78954 281.772595 
z
" style="fill:#1f77b4;opacity:0.4;"/>
   </g>
   <g id="patch_13">
    <path clip-path="url(#pa66f040f1e)" d="M 374.43243 315 
L 401.075321 315 
L 401.075321 295.560606 
L 374.43243 295.560606 
z
" style="fill:#1f77b4;opacity:0.4;"/>
   </g>
   <g id="patch_14">
    <path clip-path="url(#pa66f040f1e)" d="M 401.075321 315 
L 427.718212 315 
L 427.718212 282.964152 
L 401.075321 282.964152 
z
" style="fill:#1f77b4;opacity:0.4;"/>
   </g>
   <g id="patch_15">
    <path clip-path="url(#pa66f040f1e)" d="M 427.718212 315 
L 454.361102 315 
L 454.361102 307.459149 
L 427.718212 307.459149 
z
" style="fill:#1f77b4;opacity:0.4;"/>
   </g>
   <g id="patch_16">
    <path clip-path="url(#pa66f040f1e)" d="M 454.361102 315 
L 481.003993 315 
L 481.003993 306.284615 
L 454.361102 306.284615 
z
" style="fill:#1f77b4;opacity:0.4;"/>
   </g>
   <g id="patch_17">
    <path clip-path="url(#pa66f040f1e)" d="M 481.003993 315 
L 507.646883 315 
L 507.646883 305.17817 
L 481.003993 305.17817 
z
" style="fill:#1f77b4;opacity:0.4;"/>
   </g>
   <g id="patch_18">
    <path clip-path="url(#pa66f040f1e)" d="M 507.646883 315 
L 534.289774 315 
L 534.289774 306.727193 
L 507.646883 306.727193 
z
" style="fill:#1f77b4;opacity:0.4;"/>
   </g>
   <g id="patch_19">
    <path clip-path="url(#pa66f040f1e)" d="M 534.289774 315 
L 560.932665 315 
L 560.932665 312.821154 
L 534.289774 312.821154 
z
" style="fill:#1f77b4;opacity:0.4;"/>
   </g>
   <g id="patch_20">
    <path clip-path="url(#pa66f040f1e)" d="M 560.932665 315 
L 587.575555 315 
L 587.575555 310.114618 
L 560.932665 310.114618 
z
" style="fill:#1f77b4;opacity:0.4;"/>
   </g>
   <g id="patch_21">
    <path clip-path="url(#pa66f040f1e)" d="M 587.575555 315 
L 614.218446 315 
L 614.218446 304.87177 
L 587.575555 304.87177 
z
" style="fill:#1f77b4;opacity:0.4;"/>
   </g>
   <g id="patch_22">
    <path clip-path="url(#pa66f040f1e)" d="M 614.218446 315 
L 640.861336 315 
L 640.861336 312.242398 
L 614.218446 312.242398 
z
" style="fill:#1f77b4;opacity:0.4;"/>
   </g>
   <g id="patch_23">
    <path clip-path="url(#pa66f040f1e)" d="M 640.861336 315 
L 667.504227 315 
L 667.504227 313.995688 
L 640.861336 313.995688 
z
" style="fill:#1f77b4;opacity:0.4;"/>
   </g>
   <g id="patch_24">
    <path clip-path="url(#pa66f040f1e)" d="M 667.504227 315 
L 694.147118 315 
L 694.147118 312.497731 
L 667.504227 312.497731 
z
" style="fill:#1f77b4;opacity:0.4;"/>
   </g>
   <g id="patch_25">
    <path clip-path="url(#pa66f040f1e)" d="M 694.147118 315 
L 720.790008 315 
L 720.790008 313.195643 
L 694.147118 313.195643 
z
" style="fill:#1f77b4;opacity:0.4;"/>
   </g>
   <g id="patch_26">
    <path clip-path="url(#pa66f040f1e)" d="M 720.790008 315 
L 747.432899 315 
L 747.432899 313.944621 
L 720.790008 313.944621 
z
" style="fill:#1f77b4;opacity:0.4;"/>
   </g>
   <g id="patch_27">
    <path clip-path="url(#pa66f040f1e)" d="M 747.432899 315 
L 774.075789 315 
L 774.075789 314.659555 
L 747.432899 314.659555 
z
" style="fill:#1f77b4;opacity:0.4;"/>
   </g>
   <g id="line2d_29">
    <path clip-path="url(#pa66f040f1e)" d="M 81.157305 314.851611 
L 86.824744 313.947719 
L 92.492182 309.677016 
L 98.159621 295.669812 
L 103.82706 263.996378 
L 109.494498 214.914602 
L 115.161937 162.870449 
L 120.829375 124.900162 
L 126.496814 105.340951 
L 132.164253 95.903767 
L 137.831691 88.458622 
L 143.49913 85.171541 
L 154.834007 91.434711 
L 160.501446 93.474844 
L 166.168884 97.440371 
L 171.836323 100.461335 
L 177.503762 104.397935 
L 183.1712 115.116948 
L 188.838639 128.068185 
L 194.506077 136.842752 
L 200.173516 142.389834 
L 205.840955 145.675386 
L 211.508393 149.291394 
L 217.175832 159.317211 
L 222.84327 174.461786 
L 228.510709 186.540044 
L 234.178148 191.227272 
L 239.845586 189.246493 
L 245.513025 186.183334 
L 251.180463 191.569857 
L 256.847902 207.39139 
L 262.515341 224.560622 
L 268.182779 235.060911 
L 273.850218 237.22838 
L 279.517656 234.208972 
L 285.185095 234.290385 
L 290.852534 242.048599 
L 296.519972 251.915643 
L 302.187411 258.795511 
L 307.85485 262.642888 
L 313.522288 263.386249 
L 319.189727 263.256309 
L 324.857165 265.453659 
L 330.524604 268.598578 
L 336.192043 271.159017 
L 341.859481 273.906024 
L 347.52692 276.182154 
L 353.194358 278.236074 
L 358.861797 282.092267 
L 364.529236 287.008412 
L 370.196674 290.622593 
L 375.864113 292.452499 
L 381.531551 292.950463 
L 387.19899 293.035878 
L 392.866429 294.333601 
L 398.533867 296.88215 
L 404.201306 298.388519 
L 409.868744 296.39169 
L 415.536183 290.233199 
L 421.203622 283.329611 
L 426.87106 282.268402 
L 432.538499 289.064206 
L 438.205938 298.077292 
L 443.873376 303.728486 
L 449.540815 305.454573 
L 455.208253 305.281263 
L 460.875692 305.419826 
L 466.543131 306.773524 
L 472.210569 308.264052 
L 477.878008 308.53657 
L 483.545446 307.156942 
L 489.212885 304.700693 
L 494.880324 303.126154 
L 500.547762 303.86694 
L 506.215201 305.735187 
L 511.882639 307.101982 
L 517.550078 307.876924 
L 528.884955 308.742821 
L 534.552394 309.525039 
L 540.219833 310.611886 
L 545.887271 311.389859 
L 551.55471 311.487799 
L 557.222148 310.945858 
L 562.889587 310.270068 
L 568.557026 310.243881 
L 574.224464 310.946911 
L 579.891903 311.42468 
L 585.559341 310.492941 
L 591.22678 307.612174 
L 596.894219 304.07777 
L 602.561657 302.969231 
L 608.229096 305.630475 
L 613.896534 309.649209 
L 619.563973 312.202145 
L 625.231412 312.792178 
L 630.89885 312.363781 
L 636.566289 312.054171 
L 642.233727 312.405367 
L 647.901166 313.032939 
L 653.568605 313.421136 
L 659.236043 313.508416 
L 676.238359 313.178685 
L 698.908114 312.555176 
L 704.575552 312.573277 
L 710.242991 312.857397 
L 721.577868 313.85876 
L 727.245307 314.107594 
L 738.580184 314.136471 
L 749.915061 314.273457 
L 772.584815 314.8395 
L 789.587131 314.98964 
L 800.922009 314.984654 
L 800.922009 314.984654 
" style="fill:none;stroke:#1f77b4;stroke-linecap:round;stroke-width:2.275;"/>
   </g>
   <g id="patch_28">
    <path d="M 108 315 
L 108 43.2 
" style="fill:none;stroke:#cccccc;stroke-linecap:square;stroke-linejoin:miter;"/>
   </g>
   <g id="patch_29">
    <path d="M 777.6 315 
L 777.6 43.2 
" style="fill:none;stroke:#cccccc;stroke-linecap:square;stroke-linejoin:miter;"/>
   </g>
   <g id="patch_30">
    <path d="M 108 315 
L 777.6 315 
" style="fill:none;stroke:#cccccc;stroke-linecap:square;stroke-linejoin:miter;"/>
   </g>
   <g id="patch_31">
    <path d="M 108 43.2 
L 777.6 43.2 
" style="fill:none;stroke:#cccccc;stroke-linecap:square;stroke-linejoin:miter;"/>
   </g>
  </g>
  <g id="axes_2">
   <g id="matplotlib.axis_3">
    <g id="ytick_7">
     <g id="line2d_30">
      <path clip-path="url(#pa66f040f1e)" d="M 108 315 
L 777.6 315 
" style="fill:none;stroke:#cccccc;stroke-linecap:round;stroke-width:1.3;"/>
     </g>
     <g id="line2d_31"/>
     <g id="text_16">
      <!-- 0.0 -->
      <g style="fill:#262626;" transform="translate(786.7 321.914578)scale(0.182 -0.182)">
       <use xlink:href="#DejaVuSans-30"/>
       <use x="63.623047" xlink:href="#DejaVuSans-2e"/>
       <use x="95.410156" xlink:href="#DejaVuSans-30"/>
      </g>
     </g>
    </g>
    <g id="ytick_8">
     <g id="line2d_32">
      <path clip-path="url(#pa66f040f1e)" d="M 108 263.228571 
L 777.6 263.228571 
" style="fill:none;stroke:#cccccc;stroke-linecap:round;stroke-width:1.3;"/>
     </g>
     <g id="line2d_33"/>
     <g id="text_17">
      <!-- 0.2 -->
      <g style="fill:#262626;" transform="translate(786.7 270.14315)scale(0.182 -0.182)">
       <use xlink:href="#DejaVuSans-30"/>
       <use x="63.623047" xlink:href="#DejaVuSans-2e"/>
       <use x="95.410156" xlink:href="#DejaVuSans-32"/>
      </g>
     </g>
    </g>
    <g id="ytick_9">
     <g id="line2d_34">
      <path clip-path="url(#pa66f040f1e)" d="M 108 211.457143 
L 777.6 211.457143 
" style="fill:none;stroke:#cccccc;stroke-linecap:round;stroke-width:1.3;"/>
     </g>
     <g id="line2d_35"/>
     <g id="text_18">
      <!-- 0.4 -->
      <defs>
       <path d="M 37.796875 64.3125 
L 12.890625 25.390625 
L 37.796875 25.390625 
z
M 35.203125 72.90625 
L 47.609375 72.90625 
L 47.609375 25.390625 
L 58.015625 25.390625 
L 58.015625 17.1875 
L 47.609375 17.1875 
L 47.609375 0 
L 37.796875 0 
L 37.796875 17.1875 
L 4.890625 17.1875 
L 4.890625 26.703125 
z
" id="DejaVuSans-34"/>
      </defs>
      <g style="fill:#262626;" transform="translate(786.7 218.371721)scale(0.182 -0.182)">
       <use xlink:href="#DejaVuSans-30"/>
       <use x="63.623047" xlink:href="#DejaVuSans-2e"/>
       <use x="95.410156" xlink:href="#DejaVuSans-34"/>
      </g>
     </g>
    </g>
    <g id="ytick_10">
     <g id="line2d_36">
      <path clip-path="url(#pa66f040f1e)" d="M 108 159.685714 
L 777.6 159.685714 
" style="fill:none;stroke:#cccccc;stroke-linecap:round;stroke-width:1.3;"/>
     </g>
     <g id="line2d_37"/>
     <g id="text_19">
      <!-- 0.6 -->
      <defs>
       <path d="M 33.015625 40.375 
Q 26.375 40.375 22.484375 35.828125 
Q 18.609375 31.296875 18.609375 23.390625 
Q 18.609375 15.53125 22.484375 10.953125 
Q 26.375 6.390625 33.015625 6.390625 
Q 39.65625 6.390625 43.53125 10.953125 
Q 47.40625 15.53125 47.40625 23.390625 
Q 47.40625 31.296875 43.53125 35.828125 
Q 39.65625 40.375 33.015625 40.375 
z
M 52.59375 71.296875 
L 52.59375 62.3125 
Q 48.875 64.0625 45.09375 64.984375 
Q 41.3125 65.921875 37.59375 65.921875 
Q 27.828125 65.921875 22.671875 59.328125 
Q 17.53125 52.734375 16.796875 39.40625 
Q 19.671875 43.65625 24.015625 45.921875 
Q 28.375 48.1875 33.59375 48.1875 
Q 44.578125 48.1875 50.953125 41.515625 
Q 57.328125 34.859375 57.328125 23.390625 
Q 57.328125 12.15625 50.6875 5.359375 
Q 44.046875 -1.421875 33.015625 -1.421875 
Q 20.359375 -1.421875 13.671875 8.265625 
Q 6.984375 17.96875 6.984375 36.375 
Q 6.984375 53.65625 15.1875 63.9375 
Q 23.390625 74.21875 37.203125 74.21875 
Q 40.921875 74.21875 44.703125 73.484375 
Q 48.484375 72.75 52.59375 71.296875 
z
" id="DejaVuSans-36"/>
      </defs>
      <g style="fill:#262626;" transform="translate(786.7 166.600292)scale(0.182 -0.182)">
       <use xlink:href="#DejaVuSans-30"/>
       <use x="63.623047" xlink:href="#DejaVuSans-2e"/>
       <use x="95.410156" xlink:href="#DejaVuSans-36"/>
      </g>
     </g>
    </g>
    <g id="ytick_11">
     <g id="line2d_38">
      <path clip-path="url(#pa66f040f1e)" d="M 108 107.914286 
L 777.6 107.914286 
" style="fill:none;stroke:#cccccc;stroke-linecap:round;stroke-width:1.3;"/>
     </g>
     <g id="line2d_39"/>
     <g id="text_20">
      <!-- 0.8 -->
      <defs>
       <path d="M 31.78125 34.625 
Q 24.75 34.625 20.71875 30.859375 
Q 16.703125 27.09375 16.703125 20.515625 
Q 16.703125 13.921875 20.71875 10.15625 
Q 24.75 6.390625 31.78125 6.390625 
Q 38.8125 6.390625 42.859375 10.171875 
Q 46.921875 13.96875 46.921875 20.515625 
Q 46.921875 27.09375 42.890625 30.859375 
Q 38.875 34.625 31.78125 34.625 
z
M 21.921875 38.8125 
Q 15.578125 40.375 12.03125 44.71875 
Q 8.5 49.078125 8.5 55.328125 
Q 8.5 64.0625 14.71875 69.140625 
Q 20.953125 74.21875 31.78125 74.21875 
Q 42.671875 74.21875 48.875 69.140625 
Q 55.078125 64.0625 55.078125 55.328125 
Q 55.078125 49.078125 51.53125 44.71875 
Q 48 40.375 41.703125 38.8125 
Q 48.828125 37.15625 52.796875 32.3125 
Q 56.78125 27.484375 56.78125 20.515625 
Q 56.78125 9.90625 50.3125 4.234375 
Q 43.84375 -1.421875 31.78125 -1.421875 
Q 19.734375 -1.421875 13.25 4.234375 
Q 6.78125 9.90625 6.78125 20.515625 
Q 6.78125 27.484375 10.78125 32.3125 
Q 14.796875 37.15625 21.921875 38.8125 
z
M 18.3125 54.390625 
Q 18.3125 48.734375 21.84375 45.5625 
Q 25.390625 42.390625 31.78125 42.390625 
Q 38.140625 42.390625 41.71875 45.5625 
Q 45.3125 48.734375 45.3125 54.390625 
Q 45.3125 60.0625 41.71875 63.234375 
Q 38.140625 66.40625 31.78125 66.40625 
Q 25.390625 66.40625 21.84375 63.234375 
Q 18.3125 60.0625 18.3125 54.390625 
z
" id="DejaVuSans-38"/>
      </defs>
      <g style="fill:#262626;" transform="translate(786.7 114.828864)scale(0.182 -0.182)">
       <use xlink:href="#DejaVuSans-30"/>
       <use x="63.623047" xlink:href="#DejaVuSans-2e"/>
       <use x="95.410156" xlink:href="#DejaVuSans-38"/>
      </g>
     </g>
    </g>
    <g id="ytick_12">
     <g id="line2d_40">
      <path clip-path="url(#pa66f040f1e)" d="M 108 56.142857 
L 777.6 56.142857 
" style="fill:none;stroke:#cccccc;stroke-linecap:round;stroke-width:1.3;"/>
     </g>
     <g id="line2d_41"/>
     <g id="text_21">
      <!-- 1.0 -->
      <g style="fill:#262626;" transform="translate(786.7 63.057435)scale(0.182 -0.182)">
       <use xlink:href="#DejaVuSans-31"/>
       <use x="63.623047" xlink:href="#DejaVuSans-2e"/>
       <use x="95.410156" xlink:href="#DejaVuSans-30"/>
      </g>
     </g>
    </g>
   </g>
   <g id="patch_32">
    <path clip-path="url(#pa66f040f1e)" d="M 108.003524 315 
L 121.32497 315 
L 121.32497 300.014528 
L 108.003524 300.014528 
z
" style="fill:#800080;opacity:0.4;"/>
   </g>
   <g id="patch_33">
    <path clip-path="url(#pa66f040f1e)" d="M 121.32497 315 
L 134.646415 315 
L 134.646415 278.924101 
L 121.32497 278.924101 
z
" style="fill:#800080;opacity:0.4;"/>
   </g>
   <g id="patch_34">
    <path clip-path="url(#pa66f040f1e)" d="M 134.646415 315 
L 147.96786 315 
L 147.96786 254.43385 
L 134.646415 254.43385 
z
" style="fill:#800080;opacity:0.4;"/>
   </g>
   <g id="patch_35">
    <path clip-path="url(#pa66f040f1e)" d="M 147.96786 315 
L 161.289305 315 
L 161.289305 230.241325 
L 147.96786 230.241325 
z
" style="fill:#800080;opacity:0.4;"/>
   </g>
   <g id="patch_36">
    <path clip-path="url(#pa66f040f1e)" d="M 161.289305 315 
L 174.610751 315 
L 174.610751 217.612039 
L 161.289305 217.612039 
z
" style="fill:#800080;opacity:0.4;"/>
   </g>
   <g id="patch_37">
    <path clip-path="url(#pa66f040f1e)" d="M 174.610751 315 
L 187.932196 315 
L 187.932196 194.872922 
L 174.610751 194.872922 
z
" style="fill:#800080;opacity:0.4;"/>
   </g>
   <g id="patch_38">
    <path clip-path="url(#pa66f040f1e)" d="M 187.932196 315 
L 201.253641 315 
L 201.253641 176.955022 
L 187.932196 176.955022 
z
" style="fill:#800080;opacity:0.4;"/>
   </g>
   <g id="patch_39">
    <path clip-path="url(#pa66f040f1e)" d="M 201.253641 315 
L 214.575087 315 
L 214.575087 157.974278 
L 201.253641 157.974278 
z
" style="fill:#800080;opacity:0.4;"/>
   </g>
   <g id="patch_40">
    <path clip-path="url(#pa66f040f1e)" d="M 214.575087 315 
L 227.896532 315 
L 227.896532 149.73723 
L 214.575087 149.73723 
z
" style="fill:#800080;opacity:0.4;"/>
   </g>
   <g id="patch_41">
    <path clip-path="url(#pa66f040f1e)" d="M 227.896532 315 
L 241.217977 315 
L 241.217977 139.428916 
L 227.896532 139.428916 
z
" style="fill:#800080;opacity:0.4;"/>
   </g>
   <g id="patch_42">
    <path clip-path="url(#pa66f040f1e)" d="M 241.217977 315 
L 254.539423 315 
L 254.539423 124.244961 
L 241.217977 124.244961 
z
" style="fill:#800080;opacity:0.4;"/>
   </g>
   <g id="patch_43">
    <path clip-path="url(#pa66f040f1e)" d="M 254.539423 315 
L 267.860868 315 
L 267.860868 115.278008 
L 254.539423 115.278008 
z
" style="fill:#800080;opacity:0.4;"/>
   </g>
   <g id="patch_44">
    <path clip-path="url(#pa66f040f1e)" d="M 267.860868 315 
L 281.182313 315 
L 281.182313 111.333957 
L 267.860868 111.333957 
z
" style="fill:#800080;opacity:0.4;"/>
   </g>
   <g id="patch_45">
    <path clip-path="url(#pa66f040f1e)" d="M 281.182313 315 
L 294.503758 315 
L 294.503758 102.158917 
L 281.182313 102.158917 
z
" style="fill:#800080;opacity:0.4;"/>
   </g>
   <g id="patch_46">
    <path clip-path="url(#pa66f040f1e)" d="M 294.503758 315 
L 307.825204 315 
L 307.825204 96.470136 
L 294.503758 96.470136 
z
" style="fill:#800080;opacity:0.4;"/>
   </g>
   <g id="patch_47">
    <path clip-path="url(#pa66f040f1e)" d="M 307.825204 315 
L 321.146649 315 
L 321.146649 90.509241 
L 307.825204 90.509241 
z
" style="fill:#800080;opacity:0.4;"/>
   </g>
   <g id="patch_48">
    <path clip-path="url(#pa66f040f1e)" d="M 321.146649 315 
L 334.468094 315 
L 334.468094 88.242692 
L 321.146649 88.242692 
z
" style="fill:#800080;opacity:0.4;"/>
   </g>
   <g id="patch_49">
    <path clip-path="url(#pa66f040f1e)" d="M 334.468094 315 
L 347.78954 315 
L 347.78954 83.546327 
L 334.468094 83.546327 
z
" style="fill:#800080;opacity:0.4;"/>
   </g>
   <g id="patch_50">
    <path clip-path="url(#pa66f040f1e)" d="M 347.78954 315 
L 361.110985 315 
L 361.110985 79.794356 
L 347.78954 79.794356 
z
" style="fill:#800080;opacity:0.4;"/>
   </g>
   <g id="patch_51">
    <path clip-path="url(#pa66f040f1e)" d="M 361.110985 315 
L 374.43243 315 
L 374.43243 77.297311 
L 361.110985 77.297311 
z
" style="fill:#800080;opacity:0.4;"/>
   </g>
   <g id="patch_52">
    <path clip-path="url(#pa66f040f1e)" d="M 374.43243 315 
L 387.753876 315 
L 387.753876 76.272882 
L 374.43243 76.272882 
z
" style="fill:#800080;opacity:0.4;"/>
   </g>
   <g id="patch_53">
    <path clip-path="url(#pa66f040f1e)" d="M 387.753876 315 
L 401.075321 315 
L 401.075321 73.641381 
L 387.753876 73.641381 
z
" style="fill:#800080;opacity:0.4;"/>
   </g>
   <g id="patch_54">
    <path clip-path="url(#pa66f040f1e)" d="M 401.075321 315 
L 414.396766 315 
L 414.396766 72.456885 
L 401.075321 72.456885 
z
" style="fill:#800080;opacity:0.4;"/>
   </g>
   <g id="patch_55">
    <path clip-path="url(#pa66f040f1e)" d="M 414.396766 315 
L 427.718212 315 
L 427.718212 67.616459 
L 414.396766 67.616459 
z
" style="fill:#800080;opacity:0.4;"/>
   </g>
   <g id="patch_56">
    <path clip-path="url(#pa66f040f1e)" d="M 427.718212 315 
L 441.039657 315 
L 441.039657 67.017809 
L 427.718212 67.017809 
z
" style="fill:#800080;opacity:0.4;"/>
   </g>
   <g id="patch_57">
    <path clip-path="url(#pa66f040f1e)" d="M 441.039657 315 
L 454.361102 315 
L 454.361102 66.198266 
L 441.039657 66.198266 
z
" style="fill:#800080;opacity:0.4;"/>
   </g>
   <g id="patch_58">
    <path clip-path="url(#pa66f040f1e)" d="M 454.361102 315 
L 467.682547 315 
L 467.682547 65.036179 
L 454.361102 65.036179 
z
" style="fill:#800080;opacity:0.4;"/>
   </g>
   <g id="patch_59">
    <path clip-path="url(#pa66f040f1e)" d="M 467.682547 315 
L 481.003993 315 
L 481.003993 64.55918 
L 467.682547 64.55918 
z
" style="fill:#800080;opacity:0.4;"/>
   </g>
   <g id="patch_60">
    <path clip-path="url(#pa66f040f1e)" d="M 481.003993 315 
L 494.325438 315 
L 494.325438 64.283865 
L 481.003993 64.283865 
z
" style="fill:#800080;opacity:0.4;"/>
   </g>
   <g id="patch_61">
    <path clip-path="url(#pa66f040f1e)" d="M 494.325438 315 
L 507.646883 315 
L 507.646883 62.712007 
L 494.325438 62.712007 
z
" style="fill:#800080;opacity:0.4;"/>
   </g>
   <g id="patch_62">
    <path clip-path="url(#pa66f040f1e)" d="M 507.646883 315 
L 520.968329 315 
L 520.968329 61.892464 
L 507.646883 61.892464 
z
" style="fill:#800080;opacity:0.4;"/>
   </g>
   <g id="patch_63">
    <path clip-path="url(#pa66f040f1e)" d="M 520.968329 315 
L 534.289774 315 
L 534.289774 61.156155 
L 520.968329 61.156155 
z
" style="fill:#800080;opacity:0.4;"/>
   </g>
   <g id="patch_64">
    <path clip-path="url(#pa66f040f1e)" d="M 534.289774 315 
L 547.611219 315 
L 547.611219 61.050511 
L 534.289774 61.050511 
z
" style="fill:#800080;opacity:0.4;"/>
   </g>
   <g id="patch_65">
    <path clip-path="url(#pa66f040f1e)" d="M 547.611219 315 
L 560.932665 315 
L 560.932665 60.746384 
L 547.611219 60.746384 
z
" style="fill:#800080;opacity:0.4;"/>
   </g>
   <g id="patch_66">
    <path clip-path="url(#pa66f040f1e)" d="M 560.932665 315 
L 574.25411 315 
L 574.25411 60.061297 
L 560.932665 60.061297 
z
" style="fill:#800080;opacity:0.4;"/>
   </g>
   <g id="patch_67">
    <path clip-path="url(#pa66f040f1e)" d="M 574.25411 315 
L 587.575555 315 
L 587.575555 59.827599 
L 574.25411 59.827599 
z
" style="fill:#800080;opacity:0.4;"/>
   </g>
   <g id="patch_68">
    <path clip-path="url(#pa66f040f1e)" d="M 587.575555 315 
L 600.897001 315 
L 600.897001 59.769975 
L 587.575555 59.769975 
z
" style="fill:#800080;opacity:0.4;"/>
   </g>
   <g id="patch_69">
    <path clip-path="url(#pa66f040f1e)" d="M 600.897001 315 
L 614.218446 315 
L 614.218446 57.922802 
L 600.897001 57.922802 
z
" style="fill:#800080;opacity:0.4;"/>
   </g>
   <g id="patch_70">
    <path clip-path="url(#pa66f040f1e)" d="M 614.218446 315 
L 627.539891 315 
L 627.539891 57.804353 
L 614.218446 57.804353 
z
" style="fill:#800080;opacity:0.4;"/>
   </g>
   <g id="patch_71">
    <path clip-path="url(#pa66f040f1e)" d="M 627.539891 315 
L 640.861336 315 
L 640.861336 57.404185 
L 627.539891 57.404185 
z
" style="fill:#800080;opacity:0.4;"/>
   </g>
   <g id="patch_72">
    <path clip-path="url(#pa66f040f1e)" d="M 640.861336 315 
L 654.182782 315 
L 654.182782 57.372172 
L 640.861336 57.372172 
z
" style="fill:#800080;opacity:0.4;"/>
   </g>
   <g id="patch_73">
    <path clip-path="url(#pa66f040f1e)" d="M 654.182782 315 
L 667.504227 315 
L 667.504227 57.215306 
L 654.182782 57.215306 
z
" style="fill:#800080;opacity:0.4;"/>
   </g>
   <g id="patch_74">
    <path clip-path="url(#pa66f040f1e)" d="M 667.504227 315 
L 680.825672 315 
L 680.825672 57.016823 
L 667.504227 57.016823 
z
" style="fill:#800080;opacity:0.4;"/>
   </g>
   <g id="patch_75">
    <path clip-path="url(#pa66f040f1e)" d="M 680.825672 315 
L 694.147118 315 
L 694.147118 56.744709 
L 680.825672 56.744709 
z
" style="fill:#800080;opacity:0.4;"/>
   </g>
   <g id="patch_76">
    <path clip-path="url(#pa66f040f1e)" d="M 694.147118 315 
L 707.468563 315 
L 707.468563 56.418172 
L 694.147118 56.418172 
z
" style="fill:#800080;opacity:0.4;"/>
   </g>
   <g id="patch_77">
    <path clip-path="url(#pa66f040f1e)" d="M 707.468563 315 
L 720.790008 315 
L 720.790008 56.405367 
L 707.468563 56.405367 
z
" style="fill:#800080;opacity:0.4;"/>
   </g>
   <g id="patch_78">
    <path clip-path="url(#pa66f040f1e)" d="M 720.790008 315 
L 734.111454 315 
L 734.111454 56.318931 
L 720.790008 56.318931 
z
" style="fill:#800080;opacity:0.4;"/>
   </g>
   <g id="patch_79">
    <path clip-path="url(#pa66f040f1e)" d="M 734.111454 315 
L 747.432899 315 
L 747.432899 56.206884 
L 734.111454 56.206884 
z
" style="fill:#800080;opacity:0.4;"/>
   </g>
   <g id="patch_80">
    <path clip-path="url(#pa66f040f1e)" d="M 747.432899 315 
L 760.754344 315 
L 760.754344 56.155663 
L 747.432899 56.155663 
z
" style="fill:#800080;opacity:0.4;"/>
   </g>
   <g id="patch_81">
    <path clip-path="url(#pa66f040f1e)" d="M 760.754344 315 
L 774.075789 315 
L 774.075789 56.142857 
L 760.754344 56.142857 
z
" style="fill:#800080;opacity:0.4;"/>
   </g>
   <g id="line2d_42">
    <path clip-path="url(#pa66f040f1e)" d="M 81.157305 314.997554 
L 92.492182 314.871378 
L 98.159621 314.424927 
L 103.82706 313.086684 
L 109.494498 310.118693 
L 115.161937 305.07286 
L 120.829375 298.167627 
L 126.496814 290.089964 
L 132.164253 281.454739 
L 143.49913 263.398727 
L 154.834007 245.288369 
L 166.168884 227.585273 
L 177.503762 210.459053 
L 183.1712 202.221019 
L 188.838639 194.471418 
L 194.506077 187.173309 
L 200.173516 180.173014 
L 211.508393 166.640045 
L 217.175832 160.153542 
L 222.84327 154.205682 
L 228.510709 148.855166 
L 245.513025 133.765666 
L 251.180463 128.647061 
L 256.847902 123.994621 
L 262.515341 120.065079 
L 268.182779 116.700826 
L 279.517656 110.396888 
L 285.185095 107.138267 
L 290.852534 104.049581 
L 296.519972 101.340512 
L 302.187411 98.971462 
L 313.522288 94.744822 
L 324.857165 90.659374 
L 336.192043 86.927791 
L 347.52692 83.633063 
L 358.861797 80.711004 
L 364.529236 79.488075 
L 375.864113 77.51759 
L 392.866429 74.883251 
L 404.201306 73.424247 
L 409.868744 72.744166 
L 415.536183 71.891502 
L 421.203622 70.744078 
L 426.87106 69.412302 
L 432.538499 68.21422 
L 438.205938 67.367232 
L 443.873376 66.823692 
L 466.543131 65.291551 
L 489.212885 64.094152 
L 506.215201 62.76975 
L 523.217517 61.853771 
L 540.219833 61.158009 
L 585.559341 59.862226 
L 591.22678 59.630387 
L 602.561657 58.783589 
L 608.229096 58.345562 
L 613.896534 58.05408 
L 625.231412 57.80307 
L 670.570921 57.135167 
L 704.575552 56.615407 
L 721.577868 56.391959 
L 766.917377 56.159333 
L 800.922009 56.142864 
L 800.922009 56.142864 
" style="fill:none;stroke:#800080;stroke-linecap:round;stroke-width:2.275;"/>
   </g>
   <g id="line2d_43">
    <path clip-path="url(#pa66f040f1e)" d="M 72.757895 185.571429 
L 777.6 185.571429 
" style="fill:none;stroke:#ff0000;stroke-dasharray:2.275,3.75375;stroke-dashoffset:0;stroke-width:2.275;"/>
   </g>
   <g id="patch_82">
    <path d="M 108 315 
L 108 43.2 
" style="fill:none;stroke:#cccccc;stroke-linecap:square;stroke-linejoin:miter;"/>
   </g>
   <g id="patch_83">
    <path d="M 777.6 315 
L 777.6 43.2 
" style="fill:none;stroke:#cccccc;stroke-linecap:square;stroke-linejoin:miter;"/>
   </g>
   <g id="patch_84">
    <path d="M 108 315 
L 777.6 315 
" style="fill:none;stroke:#cccccc;stroke-linecap:square;stroke-linejoin:miter;"/>
   </g>
   <g id="patch_85">
    <path d="M 108 43.2 
L 777.6 43.2 
" style="fill:none;stroke:#cccccc;stroke-linecap:square;stroke-linejoin:miter;"/>
   </g>
   <g id="text_22">
    <!-- Salary Distribution -->
    <defs>
     <path d="M 19.671875 64.796875 
L 19.671875 8.109375 
L 31.59375 8.109375 
Q 46.6875 8.109375 53.6875 14.9375 
Q 60.6875 21.78125 60.6875 36.53125 
Q 60.6875 51.171875 53.6875 57.984375 
Q 46.6875 64.796875 31.59375 64.796875 
z
M 9.8125 72.90625 
L 30.078125 72.90625 
Q 51.265625 72.90625 61.171875 64.09375 
Q 71.09375 55.28125 71.09375 36.53125 
Q 71.09375 17.671875 61.125 8.828125 
Q 51.171875 0 30.078125 0 
L 9.8125 0 
z
" id="DejaVuSans-44"/>
     <path d="M 18.3125 70.21875 
L 18.3125 54.6875 
L 36.8125 54.6875 
L 36.8125 47.703125 
L 18.3125 47.703125 
L 18.3125 18.015625 
Q 18.3125 11.328125 20.140625 9.421875 
Q 21.96875 7.515625 27.59375 7.515625 
L 36.8125 7.515625 
L 36.8125 0 
L 27.59375 0 
Q 17.1875 0 13.234375 3.875 
Q 9.28125 7.765625 9.28125 18.015625 
L 9.28125 47.703125 
L 2.6875 47.703125 
L 2.6875 54.6875 
L 9.28125 54.6875 
L 9.28125 70.21875 
z
" id="DejaVuSans-74"/>
     <path d="M 48.6875 27.296875 
Q 48.6875 37.203125 44.609375 42.84375 
Q 40.53125 48.484375 33.40625 48.484375 
Q 26.265625 48.484375 22.1875 42.84375 
Q 18.109375 37.203125 18.109375 27.296875 
Q 18.109375 17.390625 22.1875 11.75 
Q 26.265625 6.109375 33.40625 6.109375 
Q 40.53125 6.109375 44.609375 11.75 
Q 48.6875 17.390625 48.6875 27.296875 
z
M 18.109375 46.390625 
Q 20.953125 51.265625 25.265625 53.625 
Q 29.59375 56 35.59375 56 
Q 45.5625 56 51.78125 48.09375 
Q 58.015625 40.1875 58.015625 27.296875 
Q 58.015625 14.40625 51.78125 6.484375 
Q 45.5625 -1.421875 35.59375 -1.421875 
Q 29.59375 -1.421875 25.265625 0.953125 
Q 20.953125 3.328125 18.109375 8.203125 
L 18.109375 0 
L 9.078125 0 
L 9.078125 75.984375 
L 18.109375 75.984375 
z
" id="DejaVuSans-62"/>
     <path d="M 8.5 21.578125 
L 8.5 54.6875 
L 17.484375 54.6875 
L 17.484375 21.921875 
Q 17.484375 14.15625 20.5 10.265625 
Q 23.53125 6.390625 29.59375 6.390625 
Q 36.859375 6.390625 41.078125 11.03125 
Q 45.3125 15.671875 45.3125 23.6875 
L 45.3125 54.6875 
L 54.296875 54.6875 
L 54.296875 0 
L 45.3125 0 
L 45.3125 8.40625 
Q 42.046875 3.421875 37.71875 1 
Q 33.40625 -1.421875 27.6875 -1.421875 
Q 18.265625 -1.421875 13.375 4.4375 
Q 8.5 10.296875 8.5 21.578125 
z
M 31.109375 56 
z
" id="DejaVuSans-75"/>
     <path d="M 30.609375 48.390625 
Q 23.390625 48.390625 19.1875 42.75 
Q 14.984375 37.109375 14.984375 27.296875 
Q 14.984375 17.484375 19.15625 11.84375 
Q 23.34375 6.203125 30.609375 6.203125 
Q 37.796875 6.203125 41.984375 11.859375 
Q 46.1875 17.53125 46.1875 27.296875 
Q 46.1875 37.015625 41.984375 42.703125 
Q 37.796875 48.390625 30.609375 48.390625 
z
M 30.609375 56 
Q 42.328125 56 49.015625 48.375 
Q 55.71875 40.765625 55.71875 27.296875 
Q 55.71875 13.875 49.015625 6.21875 
Q 42.328125 -1.421875 30.609375 -1.421875 
Q 18.84375 -1.421875 12.171875 6.21875 
Q 5.515625 13.875 5.515625 27.296875 
Q 5.515625 40.765625 12.171875 48.375 
Q 18.84375 56 30.609375 56 
z
" id="DejaVuSans-6f"/>
    </defs>
    <g style="fill:#262626;" transform="translate(341.322488 37.2)scale(0.2184 -0.2184)">
     <use xlink:href="#DejaVuSans-53"/>
     <use x="63.476562" xlink:href="#DejaVuSans-61"/>
     <use x="124.755859" xlink:href="#DejaVuSans-6c"/>
     <use x="152.539062" xlink:href="#DejaVuSans-61"/>
     <use x="213.818359" xlink:href="#DejaVuSans-72"/>
     <use x="254.931641" xlink:href="#DejaVuSans-79"/>
     <use x="314.111328" xlink:href="#DejaVuSans-20"/>
     <use x="345.898438" xlink:href="#DejaVuSans-44"/>
     <use x="422.900391" xlink:href="#DejaVuSans-69"/>
     <use x="450.683594" xlink:href="#DejaVuSans-73"/>
     <use x="502.783203" xlink:href="#DejaVuSans-74"/>
     <use x="541.992188" xlink:href="#DejaVuSans-72"/>
     <use x="583.105469" xlink:href="#DejaVuSans-69"/>
     <use x="610.888672" xlink:href="#DejaVuSans-62"/>
     <use x="674.365234" xlink:href="#DejaVuSans-75"/>
     <use x="737.744141" xlink:href="#DejaVuSans-74"/>
     <use x="776.953125" xlink:href="#DejaVuSans-69"/>
     <use x="804.736328" xlink:href="#DejaVuSans-6f"/>
     <use x="865.917969" xlink:href="#DejaVuSans-6e"/>
    </g>
   </g>
  </g>
 </g>
 <defs>
  <clipPath id="pa66f040f1e">
   <rect height="271.8" width="669.6" x="108" y="43.2"/>
  </clipPath>
 </defs>
</svg>
