<?xml version="1.0" encoding="utf-8" standalone="no"?>
<!DOCTYPE svg PUBLIC "-//W3C//DTD SVG 1.1//EN"
  "http://www.w3.org/Graphics/SVG/1.1/DTD/svg11.dtd">
<!-- Created with matplotlib (http://matplotlib.org/) -->
<svg height="847.453125pt" version="1.1" viewBox="0 0 1162.258125 847.453125" width="1162.258125pt" xmlns="http://www.w3.org/2000/svg" xmlns:xlink="http://www.w3.org/1999/xlink">
 <defs>
  <style type="text/css">
*{stroke-linecap:butt;stroke-linejoin:round;}
  </style>
 </defs>
 <g id="figure_1">
  <g id="patch_1">
   <path d="M 0 847.453125 
L 1162.258125 847.453125 
L 1162.258125 0 
L 0 0 
z
" style="fill:#ffffff;"/>
  </g>
  <g id="axes_1">
   <g id="patch_2">
    <path d="M 485.458125 792.47625 
L 1155.058125 792.47625 
L 1155.058125 31.43625 
L 485.458125 31.43625 
z
" style="fill:#eaeaf2;"/>
   </g>
   <g id="matplotlib.axis_1">
    <g id="xtick_1">
     <g id="line2d_1">
      <path clip-path="url(#p01cc0f2218)" d="M 485.458125 792.47625 
L 485.458125 31.43625 
" style="fill:none;stroke:#ffffff;stroke-linecap:round;"/>
     </g>
     <g id="line2d_2"/>
     <g id="text_1">
      <!-- 0 -->
      <defs>
       <path d="M 31.78125 66.40625 
Q 24.171875 66.40625 20.328125 58.90625 
Q 16.5 51.421875 16.5 36.375 
Q 16.5 21.390625 20.328125 13.890625 
Q 24.171875 6.390625 31.78125 6.390625 
Q 39.453125 6.390625 43.28125 13.890625 
Q 47.125 21.390625 47.125 36.375 
Q 47.125 51.421875 43.28125 58.90625 
Q 39.453125 66.40625 31.78125 66.40625 
z
M 31.78125 74.21875 
Q 44.046875 74.21875 50.515625 64.515625 
Q 56.984375 54.828125 56.984375 36.375 
Q 56.984375 17.96875 50.515625 8.265625 
Q 44.046875 -1.421875 31.78125 -1.421875 
Q 19.53125 -1.421875 13.0625 8.265625 
Q 6.59375 17.96875 6.59375 36.375 
Q 6.59375 54.828125 13.0625 64.515625 
Q 19.53125 74.21875 31.78125 74.21875 
z
" id="DejaVuSans-30"/>
      </defs>
      <g style="fill:#262626;" transform="translate(479.731875 813.153437)scale(0.18 -0.18)">
       <use xlink:href="#DejaVuSans-30"/>
      </g>
     </g>
    </g>
    <g id="xtick_2">
     <g id="line2d_3">
      <path clip-path="url(#p01cc0f2218)" d="M 562.648777 792.47625 
L 562.648777 31.43625 
" style="fill:none;stroke:#ffffff;stroke-linecap:round;"/>
     </g>
     <g id="line2d_4"/>
     <g id="text_2">
      <!-- 10000 -->
      <defs>
       <path d="M 12.40625 8.296875 
L 28.515625 8.296875 
L 28.515625 63.921875 
L 10.984375 60.40625 
L 10.984375 69.390625 
L 28.421875 72.90625 
L 38.28125 72.90625 
L 38.28125 8.296875 
L 54.390625 8.296875 
L 54.390625 0 
L 12.40625 0 
z
" id="DejaVuSans-31"/>
      </defs>
      <g style="fill:#262626;" transform="translate(534.017527 813.153437)scale(0.18 -0.18)">
       <use xlink:href="#DejaVuSans-31"/>
       <use x="63.623047" xlink:href="#DejaVuSans-30"/>
       <use x="127.246094" xlink:href="#DejaVuSans-30"/>
       <use x="190.869141" xlink:href="#DejaVuSans-30"/>
       <use x="254.492188" xlink:href="#DejaVuSans-30"/>
      </g>
     </g>
    </g>
    <g id="xtick_3">
     <g id="line2d_5">
      <path clip-path="url(#p01cc0f2218)" d="M 639.839429 792.47625 
L 639.839429 31.43625 
" style="fill:none;stroke:#ffffff;stroke-linecap:round;"/>
     </g>
     <g id="line2d_6"/>
     <g id="text_3">
      <!-- 20000 -->
      <defs>
       <path d="M 19.1875 8.296875 
L 53.609375 8.296875 
L 53.609375 0 
L 7.328125 0 
L 7.328125 8.296875 
Q 12.9375 14.109375 22.625 23.890625 
Q 32.328125 33.6875 34.8125 36.53125 
Q 39.546875 41.84375 41.421875 45.53125 
Q 43.3125 49.21875 43.3125 52.78125 
Q 43.3125 58.59375 39.234375 62.25 
Q 35.15625 65.921875 28.609375 65.921875 
Q 23.96875 65.921875 18.8125 64.3125 
Q 13.671875 62.703125 7.8125 59.421875 
L 7.8125 69.390625 
Q 13.765625 71.78125 18.9375 73 
Q 24.125 74.21875 28.421875 74.21875 
Q 39.75 74.21875 46.484375 68.546875 
Q 53.21875 62.890625 53.21875 53.421875 
Q 53.21875 48.921875 51.53125 44.890625 
Q 49.859375 40.875 45.40625 35.40625 
Q 44.1875 33.984375 37.640625 27.21875 
Q 31.109375 20.453125 19.1875 8.296875 
z
" id="DejaVuSans-32"/>
      </defs>
      <g style="fill:#262626;" transform="translate(611.208179 813.153437)scale(0.18 -0.18)">
       <use xlink:href="#DejaVuSans-32"/>
       <use x="63.623047" xlink:href="#DejaVuSans-30"/>
       <use x="127.246094" xlink:href="#DejaVuSans-30"/>
       <use x="190.869141" xlink:href="#DejaVuSans-30"/>
       <use x="254.492188" xlink:href="#DejaVuSans-30"/>
      </g>
     </g>
    </g>
    <g id="xtick_4">
     <g id="line2d_7">
      <path clip-path="url(#p01cc0f2218)" d="M 717.030081 792.47625 
L 717.030081 31.43625 
" style="fill:none;stroke:#ffffff;stroke-linecap:round;"/>
     </g>
     <g id="line2d_8"/>
     <g id="text_4">
      <!-- 30000 -->
      <defs>
       <path d="M 40.578125 39.3125 
Q 47.65625 37.796875 51.625 33 
Q 55.609375 28.21875 55.609375 21.1875 
Q 55.609375 10.40625 48.1875 4.484375 
Q 40.765625 -1.421875 27.09375 -1.421875 
Q 22.515625 -1.421875 17.65625 -0.515625 
Q 12.796875 0.390625 7.625 2.203125 
L 7.625 11.71875 
Q 11.71875 9.328125 16.59375 8.109375 
Q 21.484375 6.890625 26.8125 6.890625 
Q 36.078125 6.890625 40.9375 10.546875 
Q 45.796875 14.203125 45.796875 21.1875 
Q 45.796875 27.640625 41.28125 31.265625 
Q 36.765625 34.90625 28.71875 34.90625 
L 20.21875 34.90625 
L 20.21875 43.015625 
L 29.109375 43.015625 
Q 36.375 43.015625 40.234375 45.921875 
Q 44.09375 48.828125 44.09375 54.296875 
Q 44.09375 59.90625 40.109375 62.90625 
Q 36.140625 65.921875 28.71875 65.921875 
Q 24.65625 65.921875 20.015625 65.03125 
Q 15.375 64.15625 9.8125 62.3125 
L 9.8125 71.09375 
Q 15.4375 72.65625 20.34375 73.4375 
Q 25.25 74.21875 29.59375 74.21875 
Q 40.828125 74.21875 47.359375 69.109375 
Q 53.90625 64.015625 53.90625 55.328125 
Q 53.90625 49.265625 50.4375 45.09375 
Q 46.96875 40.921875 40.578125 39.3125 
z
" id="DejaVuSans-33"/>
      </defs>
      <g style="fill:#262626;" transform="translate(688.398831 813.153437)scale(0.18 -0.18)">
       <use xlink:href="#DejaVuSans-33"/>
       <use x="63.623047" xlink:href="#DejaVuSans-30"/>
       <use x="127.246094" xlink:href="#DejaVuSans-30"/>
       <use x="190.869141" xlink:href="#DejaVuSans-30"/>
       <use x="254.492188" xlink:href="#DejaVuSans-30"/>
      </g>
     </g>
    </g>
    <g id="xtick_5">
     <g id="line2d_9">
      <path clip-path="url(#p01cc0f2218)" d="M 794.220732 792.47625 
L 794.220732 31.43625 
" style="fill:none;stroke:#ffffff;stroke-linecap:round;"/>
     </g>
     <g id="line2d_10"/>
     <g id="text_5">
      <!-- 40000 -->
      <defs>
       <path d="M 37.796875 64.3125 
L 12.890625 25.390625 
L 37.796875 25.390625 
z
M 35.203125 72.90625 
L 47.609375 72.90625 
L 47.609375 25.390625 
L 58.015625 25.390625 
L 58.015625 17.1875 
L 47.609375 17.1875 
L 47.609375 0 
L 37.796875 0 
L 37.796875 17.1875 
L 4.890625 17.1875 
L 4.890625 26.703125 
z
" id="DejaVuSans-34"/>
      </defs>
      <g style="fill:#262626;" transform="translate(765.589482 813.153437)scale(0.18 -0.18)">
       <use xlink:href="#DejaVuSans-34"/>
       <use x="63.623047" xlink:href="#DejaVuSans-30"/>
       <use x="127.246094" xlink:href="#DejaVuSans-30"/>
       <use x="190.869141" xlink:href="#DejaVuSans-30"/>
       <use x="254.492188" xlink:href="#DejaVuSans-30"/>
      </g>
     </g>
    </g>
    <g id="xtick_6">
     <g id="line2d_11">
      <path clip-path="url(#p01cc0f2218)" d="M 871.411384 792.47625 
L 871.411384 31.43625 
" style="fill:none;stroke:#ffffff;stroke-linecap:round;"/>
     </g>
     <g id="line2d_12"/>
     <g id="text_6">
      <!-- 50000 -->
      <defs>
       <path d="M 10.796875 72.90625 
L 49.515625 72.90625 
L 49.515625 64.59375 
L 19.828125 64.59375 
L 19.828125 46.734375 
Q 21.96875 47.46875 24.109375 47.828125 
Q 26.265625 48.1875 28.421875 48.1875 
Q 40.625 48.1875 47.75 41.5 
Q 54.890625 34.8125 54.890625 23.390625 
Q 54.890625 11.625 47.5625 5.09375 
Q 40.234375 -1.421875 26.90625 -1.421875 
Q 22.3125 -1.421875 17.546875 -0.640625 
Q 12.796875 0.140625 7.71875 1.703125 
L 7.71875 11.625 
Q 12.109375 9.234375 16.796875 8.0625 
Q 21.484375 6.890625 26.703125 6.890625 
Q 35.15625 6.890625 40.078125 11.328125 
Q 45.015625 15.765625 45.015625 23.390625 
Q 45.015625 31 40.078125 35.4375 
Q 35.15625 39.890625 26.703125 39.890625 
Q 22.75 39.890625 18.8125 39.015625 
Q 14.890625 38.140625 10.796875 36.28125 
z
" id="DejaVuSans-35"/>
      </defs>
      <g style="fill:#262626;" transform="translate(842.780134 813.153437)scale(0.18 -0.18)">
       <use xlink:href="#DejaVuSans-35"/>
       <use x="63.623047" xlink:href="#DejaVuSans-30"/>
       <use x="127.246094" xlink:href="#DejaVuSans-30"/>
       <use x="190.869141" xlink:href="#DejaVuSans-30"/>
       <use x="254.492188" xlink:href="#DejaVuSans-30"/>
      </g>
     </g>
    </g>
    <g id="xtick_7">
     <g id="line2d_13">
      <path clip-path="url(#p01cc0f2218)" d="M 948.602036 792.47625 
L 948.602036 31.43625 
" style="fill:none;stroke:#ffffff;stroke-linecap:round;"/>
     </g>
     <g id="line2d_14"/>
     <g id="text_7">
      <!-- 60000 -->
      <defs>
       <path d="M 33.015625 40.375 
Q 26.375 40.375 22.484375 35.828125 
Q 18.609375 31.296875 18.609375 23.390625 
Q 18.609375 15.53125 22.484375 10.953125 
Q 26.375 6.390625 33.015625 6.390625 
Q 39.65625 6.390625 43.53125 10.953125 
Q 47.40625 15.53125 47.40625 23.390625 
Q 47.40625 31.296875 43.53125 35.828125 
Q 39.65625 40.375 33.015625 40.375 
z
M 52.59375 71.296875 
L 52.59375 62.3125 
Q 48.875 64.0625 45.09375 64.984375 
Q 41.3125 65.921875 37.59375 65.921875 
Q 27.828125 65.921875 22.671875 59.328125 
Q 17.53125 52.734375 16.796875 39.40625 
Q 19.671875 43.65625 24.015625 45.921875 
Q 28.375 48.1875 33.59375 48.1875 
Q 44.578125 48.1875 50.953125 41.515625 
Q 57.328125 34.859375 57.328125 23.390625 
Q 57.328125 12.15625 50.6875 5.359375 
Q 44.046875 -1.421875 33.015625 -1.421875 
Q 20.359375 -1.421875 13.671875 8.265625 
Q 6.984375 17.96875 6.984375 36.375 
Q 6.984375 53.65625 15.1875 63.9375 
Q 23.390625 74.21875 37.203125 74.21875 
Q 40.921875 74.21875 44.703125 73.484375 
Q 48.484375 72.75 52.59375 71.296875 
z
" id="DejaVuSans-36"/>
      </defs>
      <g style="fill:#262626;" transform="translate(919.970786 813.153437)scale(0.18 -0.18)">
       <use xlink:href="#DejaVuSans-36"/>
       <use x="63.623047" xlink:href="#DejaVuSans-30"/>
       <use x="127.246094" xlink:href="#DejaVuSans-30"/>
       <use x="190.869141" xlink:href="#DejaVuSans-30"/>
       <use x="254.492188" xlink:href="#DejaVuSans-30"/>
      </g>
     </g>
    </g>
    <g id="xtick_8">
     <g id="line2d_15">
      <path clip-path="url(#p01cc0f2218)" d="M 1025.792688 792.47625 
L 1025.792688 31.43625 
" style="fill:none;stroke:#ffffff;stroke-linecap:round;"/>
     </g>
     <g id="line2d_16"/>
     <g id="text_8">
      <!-- 70000 -->
      <defs>
       <path d="M 8.203125 72.90625 
L 55.078125 72.90625 
L 55.078125 68.703125 
L 28.609375 0 
L 18.3125 0 
L 43.21875 64.59375 
L 8.203125 64.59375 
z
" id="DejaVuSans-37"/>
      </defs>
      <g style="fill:#262626;" transform="translate(997.161438 813.153437)scale(0.18 -0.18)">
       <use xlink:href="#DejaVuSans-37"/>
       <use x="63.623047" xlink:href="#DejaVuSans-30"/>
       <use x="127.246094" xlink:href="#DejaVuSans-30"/>
       <use x="190.869141" xlink:href="#DejaVuSans-30"/>
       <use x="254.492188" xlink:href="#DejaVuSans-30"/>
      </g>
     </g>
    </g>
    <g id="xtick_9">
     <g id="line2d_17">
      <path clip-path="url(#p01cc0f2218)" d="M 1102.98334 792.47625 
L 1102.98334 31.43625 
" style="fill:none;stroke:#ffffff;stroke-linecap:round;"/>
     </g>
     <g id="line2d_18"/>
     <g id="text_9">
      <!-- 80000 -->
      <defs>
       <path d="M 31.78125 34.625 
Q 24.75 34.625 20.71875 30.859375 
Q 16.703125 27.09375 16.703125 20.515625 
Q 16.703125 13.921875 20.71875 10.15625 
Q 24.75 6.390625 31.78125 6.390625 
Q 38.8125 6.390625 42.859375 10.171875 
Q 46.921875 13.96875 46.921875 20.515625 
Q 46.921875 27.09375 42.890625 30.859375 
Q 38.875 34.625 31.78125 34.625 
z
M 21.921875 38.8125 
Q 15.578125 40.375 12.03125 44.71875 
Q 8.5 49.078125 8.5 55.328125 
Q 8.5 64.0625 14.71875 69.140625 
Q 20.953125 74.21875 31.78125 74.21875 
Q 42.671875 74.21875 48.875 69.140625 
Q 55.078125 64.0625 55.078125 55.328125 
Q 55.078125 49.078125 51.53125 44.71875 
Q 48 40.375 41.703125 38.8125 
Q 48.828125 37.15625 52.796875 32.3125 
Q 56.78125 27.484375 56.78125 20.515625 
Q 56.78125 9.90625 50.3125 4.234375 
Q 43.84375 -1.421875 31.78125 -1.421875 
Q 19.734375 -1.421875 13.25 4.234375 
Q 6.78125 9.90625 6.78125 20.515625 
Q 6.78125 27.484375 10.78125 32.3125 
Q 14.796875 37.15625 21.921875 38.8125 
z
M 18.3125 54.390625 
Q 18.3125 48.734375 21.84375 45.5625 
Q 25.390625 42.390625 31.78125 42.390625 
Q 38.140625 42.390625 41.71875 45.5625 
Q 45.3125 48.734375 45.3125 54.390625 
Q 45.3125 60.0625 41.71875 63.234375 
Q 38.140625 66.40625 31.78125 66.40625 
Q 25.390625 66.40625 21.84375 63.234375 
Q 18.3125 60.0625 18.3125 54.390625 
z
" id="DejaVuSans-38"/>
      </defs>
      <g style="fill:#262626;" transform="translate(1074.35209 813.153437)scale(0.18 -0.18)">
       <use xlink:href="#DejaVuSans-38"/>
       <use x="63.623047" xlink:href="#DejaVuSans-30"/>
       <use x="127.246094" xlink:href="#DejaVuSans-30"/>
       <use x="190.869141" xlink:href="#DejaVuSans-30"/>
       <use x="254.492188" xlink:href="#DejaVuSans-30"/>
      </g>
     </g>
    </g>
    <g id="text_10">
     <!-- Mean Earnings in US$ -->
     <defs>
      <path d="M 9.8125 72.90625 
L 24.515625 72.90625 
L 43.109375 23.296875 
L 61.8125 72.90625 
L 76.515625 72.90625 
L 76.515625 0 
L 66.890625 0 
L 66.890625 64.015625 
L 48.09375 14.015625 
L 38.1875 14.015625 
L 19.390625 64.015625 
L 19.390625 0 
L 9.8125 0 
z
" id="DejaVuSans-4d"/>
      <path d="M 56.203125 29.59375 
L 56.203125 25.203125 
L 14.890625 25.203125 
Q 15.484375 15.921875 20.484375 11.0625 
Q 25.484375 6.203125 34.421875 6.203125 
Q 39.59375 6.203125 44.453125 7.46875 
Q 49.3125 8.734375 54.109375 11.28125 
L 54.109375 2.78125 
Q 49.265625 0.734375 44.1875 -0.34375 
Q 39.109375 -1.421875 33.890625 -1.421875 
Q 20.796875 -1.421875 13.15625 6.1875 
Q 5.515625 13.8125 5.515625 26.8125 
Q 5.515625 40.234375 12.765625 48.109375 
Q 20.015625 56 32.328125 56 
Q 43.359375 56 49.78125 48.890625 
Q 56.203125 41.796875 56.203125 29.59375 
z
M 47.21875 32.234375 
Q 47.125 39.59375 43.09375 43.984375 
Q 39.0625 48.390625 32.421875 48.390625 
Q 24.90625 48.390625 20.390625 44.140625 
Q 15.875 39.890625 15.1875 32.171875 
z
" id="DejaVuSans-65"/>
      <path d="M 34.28125 27.484375 
Q 23.390625 27.484375 19.1875 25 
Q 14.984375 22.515625 14.984375 16.5 
Q 14.984375 11.71875 18.140625 8.90625 
Q 21.296875 6.109375 26.703125 6.109375 
Q 34.1875 6.109375 38.703125 11.40625 
Q 43.21875 16.703125 43.21875 25.484375 
L 43.21875 27.484375 
z
M 52.203125 31.203125 
L 52.203125 0 
L 43.21875 0 
L 43.21875 8.296875 
Q 40.140625 3.328125 35.546875 0.953125 
Q 30.953125 -1.421875 24.3125 -1.421875 
Q 15.921875 -1.421875 10.953125 3.296875 
Q 6 8.015625 6 15.921875 
Q 6 25.140625 12.171875 29.828125 
Q 18.359375 34.515625 30.609375 34.515625 
L 43.21875 34.515625 
L 43.21875 35.40625 
Q 43.21875 41.609375 39.140625 45 
Q 35.0625 48.390625 27.6875 48.390625 
Q 23 48.390625 18.546875 47.265625 
Q 14.109375 46.140625 10.015625 43.890625 
L 10.015625 52.203125 
Q 14.9375 54.109375 19.578125 55.046875 
Q 24.21875 56 28.609375 56 
Q 40.484375 56 46.34375 49.84375 
Q 52.203125 43.703125 52.203125 31.203125 
z
" id="DejaVuSans-61"/>
      <path d="M 54.890625 33.015625 
L 54.890625 0 
L 45.90625 0 
L 45.90625 32.71875 
Q 45.90625 40.484375 42.875 44.328125 
Q 39.84375 48.1875 33.796875 48.1875 
Q 26.515625 48.1875 22.3125 43.546875 
Q 18.109375 38.921875 18.109375 30.90625 
L 18.109375 0 
L 9.078125 0 
L 9.078125 54.6875 
L 18.109375 54.6875 
L 18.109375 46.1875 
Q 21.34375 51.125 25.703125 53.5625 
Q 30.078125 56 35.796875 56 
Q 45.21875 56 50.046875 50.171875 
Q 54.890625 44.34375 54.890625 33.015625 
z
" id="DejaVuSans-6e"/>
      <path id="DejaVuSans-20"/>
      <path d="M 9.8125 72.90625 
L 55.90625 72.90625 
L 55.90625 64.59375 
L 19.671875 64.59375 
L 19.671875 43.015625 
L 54.390625 43.015625 
L 54.390625 34.71875 
L 19.671875 34.71875 
L 19.671875 8.296875 
L 56.78125 8.296875 
L 56.78125 0 
L 9.8125 0 
z
" id="DejaVuSans-45"/>
      <path d="M 41.109375 46.296875 
Q 39.59375 47.171875 37.8125 47.578125 
Q 36.03125 48 33.890625 48 
Q 26.265625 48 22.1875 43.046875 
Q 18.109375 38.09375 18.109375 28.8125 
L 18.109375 0 
L 9.078125 0 
L 9.078125 54.6875 
L 18.109375 54.6875 
L 18.109375 46.1875 
Q 20.953125 51.171875 25.484375 53.578125 
Q 30.03125 56 36.53125 56 
Q 37.453125 56 38.578125 55.875 
Q 39.703125 55.765625 41.0625 55.515625 
z
" id="DejaVuSans-72"/>
      <path d="M 9.421875 54.6875 
L 18.40625 54.6875 
L 18.40625 0 
L 9.421875 0 
z
M 9.421875 75.984375 
L 18.40625 75.984375 
L 18.40625 64.59375 
L 9.421875 64.59375 
z
" id="DejaVuSans-69"/>
      <path d="M 45.40625 27.984375 
Q 45.40625 37.75 41.375 43.109375 
Q 37.359375 48.484375 30.078125 48.484375 
Q 22.859375 48.484375 18.828125 43.109375 
Q 14.796875 37.75 14.796875 27.984375 
Q 14.796875 18.265625 18.828125 12.890625 
Q 22.859375 7.515625 30.078125 7.515625 
Q 37.359375 7.515625 41.375 12.890625 
Q 45.40625 18.265625 45.40625 27.984375 
z
M 54.390625 6.78125 
Q 54.390625 -7.171875 48.1875 -13.984375 
Q 42 -20.796875 29.203125 -20.796875 
Q 24.46875 -20.796875 20.265625 -20.09375 
Q 16.0625 -19.390625 12.109375 -17.921875 
L 12.109375 -9.1875 
Q 16.0625 -11.328125 19.921875 -12.34375 
Q 23.78125 -13.375 27.78125 -13.375 
Q 36.625 -13.375 41.015625 -8.765625 
Q 45.40625 -4.15625 45.40625 5.171875 
L 45.40625 9.625 
Q 42.625 4.78125 38.28125 2.390625 
Q 33.9375 0 27.875 0 
Q 17.828125 0 11.671875 7.65625 
Q 5.515625 15.328125 5.515625 27.984375 
Q 5.515625 40.671875 11.671875 48.328125 
Q 17.828125 56 27.875 56 
Q 33.9375 56 38.28125 53.609375 
Q 42.625 51.21875 45.40625 46.390625 
L 45.40625 54.6875 
L 54.390625 54.6875 
z
" id="DejaVuSans-67"/>
      <path d="M 44.28125 53.078125 
L 44.28125 44.578125 
Q 40.484375 46.53125 36.375 47.5 
Q 32.28125 48.484375 27.875 48.484375 
Q 21.1875 48.484375 17.84375 46.4375 
Q 14.5 44.390625 14.5 40.28125 
Q 14.5 37.15625 16.890625 35.375 
Q 19.28125 33.59375 26.515625 31.984375 
L 29.59375 31.296875 
Q 39.15625 29.25 43.1875 25.515625 
Q 47.21875 21.78125 47.21875 15.09375 
Q 47.21875 7.46875 41.1875 3.015625 
Q 35.15625 -1.421875 24.609375 -1.421875 
Q 20.21875 -1.421875 15.453125 -0.5625 
Q 10.6875 0.296875 5.421875 2 
L 5.421875 11.28125 
Q 10.40625 8.6875 15.234375 7.390625 
Q 20.0625 6.109375 24.8125 6.109375 
Q 31.15625 6.109375 34.5625 8.28125 
Q 37.984375 10.453125 37.984375 14.40625 
Q 37.984375 18.0625 35.515625 20.015625 
Q 33.0625 21.96875 24.703125 23.78125 
L 21.578125 24.515625 
Q 13.234375 26.265625 9.515625 29.90625 
Q 5.8125 33.546875 5.8125 39.890625 
Q 5.8125 47.609375 11.28125 51.796875 
Q 16.75 56 26.8125 56 
Q 31.78125 56 36.171875 55.265625 
Q 40.578125 54.546875 44.28125 53.078125 
z
" id="DejaVuSans-73"/>
      <path d="M 8.6875 72.90625 
L 18.609375 72.90625 
L 18.609375 28.609375 
Q 18.609375 16.890625 22.84375 11.734375 
Q 27.09375 6.59375 36.625 6.59375 
Q 46.09375 6.59375 50.34375 11.734375 
Q 54.59375 16.890625 54.59375 28.609375 
L 54.59375 72.90625 
L 64.5 72.90625 
L 64.5 27.390625 
Q 64.5 13.140625 57.4375 5.859375 
Q 50.390625 -1.421875 36.625 -1.421875 
Q 22.796875 -1.421875 15.734375 5.859375 
Q 8.6875 13.140625 8.6875 27.390625 
z
" id="DejaVuSans-55"/>
      <path d="M 53.515625 70.515625 
L 53.515625 60.890625 
Q 47.90625 63.578125 42.921875 64.890625 
Q 37.9375 66.21875 33.296875 66.21875 
Q 25.25 66.21875 20.875 63.09375 
Q 16.5 59.96875 16.5 54.203125 
Q 16.5 49.359375 19.40625 46.890625 
Q 22.3125 44.4375 30.421875 42.921875 
L 36.375 41.703125 
Q 47.40625 39.59375 52.65625 34.296875 
Q 57.90625 29 57.90625 20.125 
Q 57.90625 9.515625 50.796875 4.046875 
Q 43.703125 -1.421875 29.984375 -1.421875 
Q 24.8125 -1.421875 18.96875 -0.25 
Q 13.140625 0.921875 6.890625 3.21875 
L 6.890625 13.375 
Q 12.890625 10.015625 18.65625 8.296875 
Q 24.421875 6.59375 29.984375 6.59375 
Q 38.421875 6.59375 43.015625 9.90625 
Q 47.609375 13.234375 47.609375 19.390625 
Q 47.609375 24.75 44.3125 27.78125 
Q 41.015625 30.8125 33.5 32.328125 
L 27.484375 33.5 
Q 16.453125 35.6875 11.515625 40.375 
Q 6.59375 45.0625 6.59375 53.421875 
Q 6.59375 63.09375 13.40625 68.65625 
Q 20.21875 74.21875 32.171875 74.21875 
Q 37.3125 74.21875 42.625 73.28125 
Q 47.953125 72.359375 53.515625 70.515625 
z
" id="DejaVuSans-53"/>
      <path d="M 33.796875 -14.703125 
L 28.90625 -14.703125 
L 28.859375 0 
Q 23.734375 0.09375 18.609375 1.1875 
Q 13.484375 2.296875 8.296875 4.5 
L 8.296875 13.28125 
Q 13.28125 10.15625 18.375 8.5625 
Q 23.484375 6.984375 28.90625 6.9375 
L 28.90625 29.203125 
Q 18.109375 30.953125 13.203125 35.15625 
Q 8.296875 39.359375 8.296875 46.6875 
Q 8.296875 54.640625 13.625 59.21875 
Q 18.953125 63.8125 28.90625 64.5 
L 28.90625 75.984375 
L 33.796875 75.984375 
L 33.796875 64.65625 
Q 38.328125 64.453125 42.578125 63.6875 
Q 46.828125 62.9375 50.875 61.625 
L 50.875 53.078125 
Q 46.828125 55.125 42.546875 56.25 
Q 38.28125 57.375 33.796875 57.5625 
L 33.796875 36.71875 
Q 44.875 35.015625 50.09375 30.609375 
Q 55.328125 26.21875 55.328125 18.609375 
Q 55.328125 10.359375 49.78125 5.59375 
Q 44.234375 0.828125 33.796875 0.09375 
z
M 28.90625 37.59375 
L 28.90625 57.625 
Q 23.25 56.984375 20.265625 54.390625 
Q 17.28125 51.8125 17.28125 47.515625 
Q 17.28125 43.3125 20.03125 40.96875 
Q 22.796875 38.625 28.90625 37.59375 
z
M 33.796875 28.21875 
L 33.796875 7.078125 
Q 39.984375 7.90625 43.140625 10.59375 
Q 46.296875 13.28125 46.296875 17.671875 
Q 46.296875 21.96875 43.28125 24.5 
Q 40.28125 27.046875 33.796875 28.21875 
z
" id="DejaVuSans-24"/>
     </defs>
     <g style="fill:#262626;" transform="translate(710.764375 836.09375)scale(0.2 -0.2)">
      <use xlink:href="#DejaVuSans-4d"/>
      <use x="86.279297" xlink:href="#DejaVuSans-65"/>
      <use x="147.802734" xlink:href="#DejaVuSans-61"/>
      <use x="209.082031" xlink:href="#DejaVuSans-6e"/>
      <use x="272.460938" xlink:href="#DejaVuSans-20"/>
      <use x="304.248047" xlink:href="#DejaVuSans-45"/>
      <use x="367.431641" xlink:href="#DejaVuSans-61"/>
      <use x="428.710938" xlink:href="#DejaVuSans-72"/>
      <use x="469.808594" xlink:href="#DejaVuSans-6e"/>
      <use x="533.1875" xlink:href="#DejaVuSans-69"/>
      <use x="560.970703" xlink:href="#DejaVuSans-6e"/>
      <use x="624.349609" xlink:href="#DejaVuSans-67"/>
      <use x="687.826172" xlink:href="#DejaVuSans-73"/>
      <use x="739.925781" xlink:href="#DejaVuSans-20"/>
      <use x="771.712891" xlink:href="#DejaVuSans-69"/>
      <use x="799.496094" xlink:href="#DejaVuSans-6e"/>
      <use x="862.875" xlink:href="#DejaVuSans-20"/>
      <use x="894.662109" xlink:href="#DejaVuSans-55"/>
      <use x="967.855469" xlink:href="#DejaVuSans-53"/>
      <use x="1031.332031" xlink:href="#DejaVuSans-24"/>
     </g>
    </g>
   </g>
   <g id="matplotlib.axis_2">
    <g id="ytick_1">
     <g id="line2d_19"/>
     <g id="text_11">
      <!-- Less than 1st grade -->
      <defs>
       <path d="M 9.8125 72.90625 
L 19.671875 72.90625 
L 19.671875 8.296875 
L 55.171875 8.296875 
L 55.171875 0 
L 9.8125 0 
z
" id="DejaVuSans-4c"/>
       <path d="M 18.3125 70.21875 
L 18.3125 54.6875 
L 36.8125 54.6875 
L 36.8125 47.703125 
L 18.3125 47.703125 
L 18.3125 18.015625 
Q 18.3125 11.328125 20.140625 9.421875 
Q 21.96875 7.515625 27.59375 7.515625 
L 36.8125 7.515625 
L 36.8125 0 
L 27.59375 0 
Q 17.1875 0 13.234375 3.875 
Q 9.28125 7.765625 9.28125 18.015625 
L 9.28125 47.703125 
L 2.6875 47.703125 
L 2.6875 54.6875 
L 9.28125 54.6875 
L 9.28125 70.21875 
z
" id="DejaVuSans-74"/>
       <path d="M 54.890625 33.015625 
L 54.890625 0 
L 45.90625 0 
L 45.90625 32.71875 
Q 45.90625 40.484375 42.875 44.328125 
Q 39.84375 48.1875 33.796875 48.1875 
Q 26.515625 48.1875 22.3125 43.546875 
Q 18.109375 38.921875 18.109375 30.90625 
L 18.109375 0 
L 9.078125 0 
L 9.078125 75.984375 
L 18.109375 75.984375 
L 18.109375 46.1875 
Q 21.34375 51.125 25.703125 53.5625 
Q 30.078125 56 35.796875 56 
Q 45.21875 56 50.046875 50.171875 
Q 54.890625 44.34375 54.890625 33.015625 
z
" id="DejaVuSans-68"/>
       <path d="M 45.40625 46.390625 
L 45.40625 75.984375 
L 54.390625 75.984375 
L 54.390625 0 
L 45.40625 0 
L 45.40625 8.203125 
Q 42.578125 3.328125 38.25 0.953125 
Q 33.9375 -1.421875 27.875 -1.421875 
Q 17.96875 -1.421875 11.734375 6.484375 
Q 5.515625 14.40625 5.515625 27.296875 
Q 5.515625 40.1875 11.734375 48.09375 
Q 17.96875 56 27.875 56 
Q 33.9375 56 38.25 53.625 
Q 42.578125 51.265625 45.40625 46.390625 
z
M 14.796875 27.296875 
Q 14.796875 17.390625 18.875 11.75 
Q 22.953125 6.109375 30.078125 6.109375 
Q 37.203125 6.109375 41.296875 11.75 
Q 45.40625 17.390625 45.40625 27.296875 
Q 45.40625 37.203125 41.296875 42.84375 
Q 37.203125 48.484375 30.078125 48.484375 
Q 22.953125 48.484375 18.875 42.84375 
Q 14.796875 37.203125 14.796875 27.296875 
z
" id="DejaVuSans-64"/>
      </defs>
      <g style="fill:#262626;" transform="translate(300.291875 62.057344)scale(0.18 -0.18)">
       <use xlink:href="#DejaVuSans-4c"/>
       <use x="55.697266" xlink:href="#DejaVuSans-65"/>
       <use x="117.220703" xlink:href="#DejaVuSans-73"/>
       <use x="169.320312" xlink:href="#DejaVuSans-73"/>
       <use x="221.419922" xlink:href="#DejaVuSans-20"/>
       <use x="253.207031" xlink:href="#DejaVuSans-74"/>
       <use x="292.416016" xlink:href="#DejaVuSans-68"/>
       <use x="355.794922" xlink:href="#DejaVuSans-61"/>
       <use x="417.074219" xlink:href="#DejaVuSans-6e"/>
       <use x="480.453125" xlink:href="#DejaVuSans-20"/>
       <use x="512.240234" xlink:href="#DejaVuSans-31"/>
       <use x="575.863281" xlink:href="#DejaVuSans-73"/>
       <use x="627.962891" xlink:href="#DejaVuSans-74"/>
       <use x="667.171875" xlink:href="#DejaVuSans-20"/>
       <use x="698.958984" xlink:href="#DejaVuSans-67"/>
       <use x="762.435547" xlink:href="#DejaVuSans-72"/>
       <use x="803.548828" xlink:href="#DejaVuSans-61"/>
       <use x="864.828125" xlink:href="#DejaVuSans-64"/>
       <use x="928.304688" xlink:href="#DejaVuSans-65"/>
      </g>
     </g>
    </g>
    <g id="ytick_2">
     <g id="line2d_20"/>
     <g id="text_12">
      <!-- 1st, 2nd, 3rd, or 4th grade -->
      <defs>
       <path d="M 11.71875 12.40625 
L 22.015625 12.40625 
L 22.015625 4 
L 14.015625 -11.625 
L 7.71875 -11.625 
L 11.71875 4 
z
" id="DejaVuSans-2c"/>
       <path d="M 30.609375 48.390625 
Q 23.390625 48.390625 19.1875 42.75 
Q 14.984375 37.109375 14.984375 27.296875 
Q 14.984375 17.484375 19.15625 11.84375 
Q 23.34375 6.203125 30.609375 6.203125 
Q 37.796875 6.203125 41.984375 11.859375 
Q 46.1875 17.53125 46.1875 27.296875 
Q 46.1875 37.015625 41.984375 42.703125 
Q 37.796875 48.390625 30.609375 48.390625 
z
M 30.609375 56 
Q 42.328125 56 49.015625 48.375 
Q 55.71875 40.765625 55.71875 27.296875 
Q 55.71875 13.875 49.015625 6.21875 
Q 42.328125 -1.421875 30.609375 -1.421875 
Q 18.84375 -1.421875 12.171875 6.21875 
Q 5.515625 13.875 5.515625 27.296875 
Q 5.515625 40.765625 12.171875 48.375 
Q 18.84375 56 30.609375 56 
z
" id="DejaVuSans-6f"/>
      </defs>
      <g style="fill:#262626;" transform="translate(239.553125 109.622344)scale(0.18 -0.18)">
       <use xlink:href="#DejaVuSans-31"/>
       <use x="63.623047" xlink:href="#DejaVuSans-73"/>
       <use x="115.722656" xlink:href="#DejaVuSans-74"/>
       <use x="154.931641" xlink:href="#DejaVuSans-2c"/>
       <use x="186.71875" xlink:href="#DejaVuSans-20"/>
       <use x="218.505859" xlink:href="#DejaVuSans-32"/>
       <use x="282.128906" xlink:href="#DejaVuSans-6e"/>
       <use x="345.507812" xlink:href="#DejaVuSans-64"/>
       <use x="408.984375" xlink:href="#DejaVuSans-2c"/>
       <use x="440.771484" xlink:href="#DejaVuSans-20"/>
       <use x="472.558594" xlink:href="#DejaVuSans-33"/>
       <use x="536.181641" xlink:href="#DejaVuSans-72"/>
       <use x="577.279297" xlink:href="#DejaVuSans-64"/>
       <use x="640.755859" xlink:href="#DejaVuSans-2c"/>
       <use x="672.542969" xlink:href="#DejaVuSans-20"/>
       <use x="704.330078" xlink:href="#DejaVuSans-6f"/>
       <use x="765.511719" xlink:href="#DejaVuSans-72"/>
       <use x="806.625" xlink:href="#DejaVuSans-20"/>
       <use x="838.412109" xlink:href="#DejaVuSans-34"/>
       <use x="902.035156" xlink:href="#DejaVuSans-74"/>
       <use x="941.244141" xlink:href="#DejaVuSans-68"/>
       <use x="1004.623047" xlink:href="#DejaVuSans-20"/>
       <use x="1036.410156" xlink:href="#DejaVuSans-67"/>
       <use x="1099.886719" xlink:href="#DejaVuSans-72"/>
       <use x="1141" xlink:href="#DejaVuSans-61"/>
       <use x="1202.279297" xlink:href="#DejaVuSans-64"/>
       <use x="1265.755859" xlink:href="#DejaVuSans-65"/>
      </g>
     </g>
    </g>
    <g id="ytick_3">
     <g id="line2d_21"/>
     <g id="text_13">
      <!-- 5th or 6th grade -->
      <g style="fill:#262626;" transform="translate(330.689375 157.187344)scale(0.18 -0.18)">
       <use xlink:href="#DejaVuSans-35"/>
       <use x="63.623047" xlink:href="#DejaVuSans-74"/>
       <use x="102.832031" xlink:href="#DejaVuSans-68"/>
       <use x="166.210938" xlink:href="#DejaVuSans-20"/>
       <use x="197.998047" xlink:href="#DejaVuSans-6f"/>
       <use x="259.179688" xlink:href="#DejaVuSans-72"/>
       <use x="300.292969" xlink:href="#DejaVuSans-20"/>
       <use x="332.080078" xlink:href="#DejaVuSans-36"/>
       <use x="395.703125" xlink:href="#DejaVuSans-74"/>
       <use x="434.912109" xlink:href="#DejaVuSans-68"/>
       <use x="498.291016" xlink:href="#DejaVuSans-20"/>
       <use x="530.078125" xlink:href="#DejaVuSans-67"/>
       <use x="593.554688" xlink:href="#DejaVuSans-72"/>
       <use x="634.667969" xlink:href="#DejaVuSans-61"/>
       <use x="695.947266" xlink:href="#DejaVuSans-64"/>
       <use x="759.423828" xlink:href="#DejaVuSans-65"/>
      </g>
     </g>
    </g>
    <g id="ytick_4">
     <g id="line2d_22"/>
     <g id="text_14">
      <!-- 7th and 8th grade -->
      <g style="fill:#262626;" transform="translate(315.2375 204.752344)scale(0.18 -0.18)">
       <use xlink:href="#DejaVuSans-37"/>
       <use x="63.623047" xlink:href="#DejaVuSans-74"/>
       <use x="102.832031" xlink:href="#DejaVuSans-68"/>
       <use x="166.210938" xlink:href="#DejaVuSans-20"/>
       <use x="197.998047" xlink:href="#DejaVuSans-61"/>
       <use x="259.277344" xlink:href="#DejaVuSans-6e"/>
       <use x="322.65625" xlink:href="#DejaVuSans-64"/>
       <use x="386.132812" xlink:href="#DejaVuSans-20"/>
       <use x="417.919922" xlink:href="#DejaVuSans-38"/>
       <use x="481.542969" xlink:href="#DejaVuSans-74"/>
       <use x="520.751953" xlink:href="#DejaVuSans-68"/>
       <use x="584.130859" xlink:href="#DejaVuSans-20"/>
       <use x="615.917969" xlink:href="#DejaVuSans-67"/>
       <use x="679.394531" xlink:href="#DejaVuSans-72"/>
       <use x="720.507812" xlink:href="#DejaVuSans-61"/>
       <use x="781.787109" xlink:href="#DejaVuSans-64"/>
       <use x="845.263672" xlink:href="#DejaVuSans-65"/>
      </g>
     </g>
    </g>
    <g id="ytick_5">
     <g id="line2d_23"/>
     <g id="text_15">
      <!-- 9th grade -->
      <defs>
       <path d="M 10.984375 1.515625 
L 10.984375 10.5 
Q 14.703125 8.734375 18.5 7.8125 
Q 22.3125 6.890625 25.984375 6.890625 
Q 35.75 6.890625 40.890625 13.453125 
Q 46.046875 20.015625 46.78125 33.40625 
Q 43.953125 29.203125 39.59375 26.953125 
Q 35.25 24.703125 29.984375 24.703125 
Q 19.046875 24.703125 12.671875 31.3125 
Q 6.296875 37.9375 6.296875 49.421875 
Q 6.296875 60.640625 12.9375 67.421875 
Q 19.578125 74.21875 30.609375 74.21875 
Q 43.265625 74.21875 49.921875 64.515625 
Q 56.59375 54.828125 56.59375 36.375 
Q 56.59375 19.140625 48.40625 8.859375 
Q 40.234375 -1.421875 26.421875 -1.421875 
Q 22.703125 -1.421875 18.890625 -0.6875 
Q 15.09375 0.046875 10.984375 1.515625 
z
M 30.609375 32.421875 
Q 37.25 32.421875 41.125 36.953125 
Q 45.015625 41.5 45.015625 49.421875 
Q 45.015625 57.28125 41.125 61.84375 
Q 37.25 66.40625 30.609375 66.40625 
Q 23.96875 66.40625 20.09375 61.84375 
Q 16.21875 57.28125 16.21875 49.421875 
Q 16.21875 41.5 20.09375 36.953125 
Q 23.96875 32.421875 30.609375 32.421875 
z
" id="DejaVuSans-39"/>
      </defs>
      <g style="fill:#262626;" transform="translate(390.460625 252.317344)scale(0.18 -0.18)">
       <use xlink:href="#DejaVuSans-39"/>
       <use x="63.623047" xlink:href="#DejaVuSans-74"/>
       <use x="102.832031" xlink:href="#DejaVuSans-68"/>
       <use x="166.210938" xlink:href="#DejaVuSans-20"/>
       <use x="197.998047" xlink:href="#DejaVuSans-67"/>
       <use x="261.474609" xlink:href="#DejaVuSans-72"/>
       <use x="302.587891" xlink:href="#DejaVuSans-61"/>
       <use x="363.867188" xlink:href="#DejaVuSans-64"/>
       <use x="427.34375" xlink:href="#DejaVuSans-65"/>
      </g>
     </g>
    </g>
    <g id="ytick_6">
     <g id="line2d_24"/>
     <g id="text_16">
      <!-- 10th grade -->
      <g style="fill:#262626;" transform="translate(379.008125 299.882344)scale(0.18 -0.18)">
       <use xlink:href="#DejaVuSans-31"/>
       <use x="63.623047" xlink:href="#DejaVuSans-30"/>
       <use x="127.246094" xlink:href="#DejaVuSans-74"/>
       <use x="166.455078" xlink:href="#DejaVuSans-68"/>
       <use x="229.833984" xlink:href="#DejaVuSans-20"/>
       <use x="261.621094" xlink:href="#DejaVuSans-67"/>
       <use x="325.097656" xlink:href="#DejaVuSans-72"/>
       <use x="366.210938" xlink:href="#DejaVuSans-61"/>
       <use x="427.490234" xlink:href="#DejaVuSans-64"/>
       <use x="490.966797" xlink:href="#DejaVuSans-65"/>
      </g>
     </g>
    </g>
    <g id="ytick_7">
     <g id="line2d_25"/>
     <g id="text_17">
      <!-- 11th grade -->
      <g style="fill:#262626;" transform="translate(379.008125 347.447344)scale(0.18 -0.18)">
       <use xlink:href="#DejaVuSans-31"/>
       <use x="63.623047" xlink:href="#DejaVuSans-31"/>
       <use x="127.246094" xlink:href="#DejaVuSans-74"/>
       <use x="166.455078" xlink:href="#DejaVuSans-68"/>
       <use x="229.833984" xlink:href="#DejaVuSans-20"/>
       <use x="261.621094" xlink:href="#DejaVuSans-67"/>
       <use x="325.097656" xlink:href="#DejaVuSans-72"/>
       <use x="366.210938" xlink:href="#DejaVuSans-61"/>
       <use x="427.490234" xlink:href="#DejaVuSans-64"/>
       <use x="490.966797" xlink:href="#DejaVuSans-65"/>
      </g>
     </g>
    </g>
    <g id="ytick_8">
     <g id="line2d_26"/>
     <g id="text_18">
      <!-- 12th grade no diploma -->
      <defs>
       <path d="M 18.109375 8.203125 
L 18.109375 -20.796875 
L 9.078125 -20.796875 
L 9.078125 54.6875 
L 18.109375 54.6875 
L 18.109375 46.390625 
Q 20.953125 51.265625 25.265625 53.625 
Q 29.59375 56 35.59375 56 
Q 45.5625 56 51.78125 48.09375 
Q 58.015625 40.1875 58.015625 27.296875 
Q 58.015625 14.40625 51.78125 6.484375 
Q 45.5625 -1.421875 35.59375 -1.421875 
Q 29.59375 -1.421875 25.265625 0.953125 
Q 20.953125 3.328125 18.109375 8.203125 
z
M 48.6875 27.296875 
Q 48.6875 37.203125 44.609375 42.84375 
Q 40.53125 48.484375 33.40625 48.484375 
Q 26.265625 48.484375 22.1875 42.84375 
Q 18.109375 37.203125 18.109375 27.296875 
Q 18.109375 17.390625 22.1875 11.75 
Q 26.265625 6.109375 33.40625 6.109375 
Q 40.53125 6.109375 44.609375 11.75 
Q 48.6875 17.390625 48.6875 27.296875 
z
" id="DejaVuSans-70"/>
       <path d="M 9.421875 75.984375 
L 18.40625 75.984375 
L 18.40625 0 
L 9.421875 0 
z
" id="DejaVuSans-6c"/>
       <path d="M 52 44.1875 
Q 55.375 50.25 60.0625 53.125 
Q 64.75 56 71.09375 56 
Q 79.640625 56 84.28125 50.015625 
Q 88.921875 44.046875 88.921875 33.015625 
L 88.921875 0 
L 79.890625 0 
L 79.890625 32.71875 
Q 79.890625 40.578125 77.09375 44.375 
Q 74.3125 48.1875 68.609375 48.1875 
Q 61.625 48.1875 57.5625 43.546875 
Q 53.515625 38.921875 53.515625 30.90625 
L 53.515625 0 
L 44.484375 0 
L 44.484375 32.71875 
Q 44.484375 40.625 41.703125 44.40625 
Q 38.921875 48.1875 33.109375 48.1875 
Q 26.21875 48.1875 22.15625 43.53125 
Q 18.109375 38.875 18.109375 30.90625 
L 18.109375 0 
L 9.078125 0 
L 9.078125 54.6875 
L 18.109375 54.6875 
L 18.109375 46.1875 
Q 21.1875 51.21875 25.484375 53.609375 
Q 29.78125 56 35.6875 56 
Q 41.65625 56 45.828125 52.96875 
Q 50 49.953125 52 44.1875 
z
" id="DejaVuSans-6d"/>
      </defs>
      <g style="fill:#262626;" transform="translate(272.7125 395.012344)scale(0.18 -0.18)">
       <use xlink:href="#DejaVuSans-31"/>
       <use x="63.623047" xlink:href="#DejaVuSans-32"/>
       <use x="127.246094" xlink:href="#DejaVuSans-74"/>
       <use x="166.455078" xlink:href="#DejaVuSans-68"/>
       <use x="229.833984" xlink:href="#DejaVuSans-20"/>
       <use x="261.621094" xlink:href="#DejaVuSans-67"/>
       <use x="325.097656" xlink:href="#DejaVuSans-72"/>
       <use x="366.210938" xlink:href="#DejaVuSans-61"/>
       <use x="427.490234" xlink:href="#DejaVuSans-64"/>
       <use x="490.966797" xlink:href="#DejaVuSans-65"/>
       <use x="552.490234" xlink:href="#DejaVuSans-20"/>
       <use x="584.277344" xlink:href="#DejaVuSans-6e"/>
       <use x="647.65625" xlink:href="#DejaVuSans-6f"/>
       <use x="708.837891" xlink:href="#DejaVuSans-20"/>
       <use x="740.625" xlink:href="#DejaVuSans-64"/>
       <use x="804.101562" xlink:href="#DejaVuSans-69"/>
       <use x="831.884766" xlink:href="#DejaVuSans-70"/>
       <use x="895.361328" xlink:href="#DejaVuSans-6c"/>
       <use x="923.144531" xlink:href="#DejaVuSans-6f"/>
       <use x="984.326172" xlink:href="#DejaVuSans-6d"/>
       <use x="1081.738281" xlink:href="#DejaVuSans-61"/>
      </g>
     </g>
    </g>
    <g id="ytick_9">
     <g id="line2d_27"/>
     <g id="text_19">
      <!-- High school graduate - high school diploma or -->
      <defs>
       <path d="M 9.8125 72.90625 
L 19.671875 72.90625 
L 19.671875 43.015625 
L 55.515625 43.015625 
L 55.515625 72.90625 
L 65.375 72.90625 
L 65.375 0 
L 55.515625 0 
L 55.515625 34.71875 
L 19.671875 34.71875 
L 19.671875 0 
L 9.8125 0 
z
" id="DejaVuSans-48"/>
       <path d="M 48.78125 52.59375 
L 48.78125 44.1875 
Q 44.96875 46.296875 41.140625 47.34375 
Q 37.3125 48.390625 33.40625 48.390625 
Q 24.65625 48.390625 19.8125 42.84375 
Q 14.984375 37.3125 14.984375 27.296875 
Q 14.984375 17.28125 19.8125 11.734375 
Q 24.65625 6.203125 33.40625 6.203125 
Q 37.3125 6.203125 41.140625 7.25 
Q 44.96875 8.296875 48.78125 10.40625 
L 48.78125 2.09375 
Q 45.015625 0.34375 40.984375 -0.53125 
Q 36.96875 -1.421875 32.421875 -1.421875 
Q 20.0625 -1.421875 12.78125 6.34375 
Q 5.515625 14.109375 5.515625 27.296875 
Q 5.515625 40.671875 12.859375 48.328125 
Q 20.21875 56 33.015625 56 
Q 37.15625 56 41.109375 55.140625 
Q 45.0625 54.296875 48.78125 52.59375 
z
" id="DejaVuSans-63"/>
       <path d="M 8.5 21.578125 
L 8.5 54.6875 
L 17.484375 54.6875 
L 17.484375 21.921875 
Q 17.484375 14.15625 20.5 10.265625 
Q 23.53125 6.390625 29.59375 6.390625 
Q 36.859375 6.390625 41.078125 11.03125 
Q 45.3125 15.671875 45.3125 23.6875 
L 45.3125 54.6875 
L 54.296875 54.6875 
L 54.296875 0 
L 45.3125 0 
L 45.3125 8.40625 
Q 42.046875 3.421875 37.71875 1 
Q 33.40625 -1.421875 27.6875 -1.421875 
Q 18.265625 -1.421875 13.375 4.4375 
Q 8.5 10.296875 8.5 21.578125 
z
M 31.109375 56 
z
" id="DejaVuSans-75"/>
       <path d="M 4.890625 31.390625 
L 31.203125 31.390625 
L 31.203125 23.390625 
L 4.890625 23.390625 
z
" id="DejaVuSans-2d"/>
      </defs>
      <g style="fill:#262626;" transform="translate(63.184062 432.499313)scale(0.18 -0.18)">
       <use xlink:href="#DejaVuSans-48"/>
       <use x="75.195312" xlink:href="#DejaVuSans-69"/>
       <use x="102.978516" xlink:href="#DejaVuSans-67"/>
       <use x="166.455078" xlink:href="#DejaVuSans-68"/>
       <use x="229.833984" xlink:href="#DejaVuSans-20"/>
       <use x="261.621094" xlink:href="#DejaVuSans-73"/>
       <use x="313.720703" xlink:href="#DejaVuSans-63"/>
       <use x="368.701172" xlink:href="#DejaVuSans-68"/>
       <use x="432.080078" xlink:href="#DejaVuSans-6f"/>
       <use x="493.261719" xlink:href="#DejaVuSans-6f"/>
       <use x="554.443359" xlink:href="#DejaVuSans-6c"/>
       <use x="582.226562" xlink:href="#DejaVuSans-20"/>
       <use x="614.013672" xlink:href="#DejaVuSans-67"/>
       <use x="677.490234" xlink:href="#DejaVuSans-72"/>
       <use x="718.603516" xlink:href="#DejaVuSans-61"/>
       <use x="779.882812" xlink:href="#DejaVuSans-64"/>
       <use x="843.359375" xlink:href="#DejaVuSans-75"/>
       <use x="906.738281" xlink:href="#DejaVuSans-61"/>
       <use x="968.017578" xlink:href="#DejaVuSans-74"/>
       <use x="1007.226562" xlink:href="#DejaVuSans-65"/>
       <use x="1068.75" xlink:href="#DejaVuSans-20"/>
       <use x="1100.537109" xlink:href="#DejaVuSans-2d"/>
       <use x="1136.621094" xlink:href="#DejaVuSans-20"/>
       <use x="1168.408203" xlink:href="#DejaVuSans-68"/>
       <use x="1231.787109" xlink:href="#DejaVuSans-69"/>
       <use x="1259.570312" xlink:href="#DejaVuSans-67"/>
       <use x="1323.046875" xlink:href="#DejaVuSans-68"/>
       <use x="1386.425781" xlink:href="#DejaVuSans-20"/>
       <use x="1418.212891" xlink:href="#DejaVuSans-73"/>
       <use x="1470.3125" xlink:href="#DejaVuSans-63"/>
       <use x="1525.292969" xlink:href="#DejaVuSans-68"/>
       <use x="1588.671875" xlink:href="#DejaVuSans-6f"/>
       <use x="1649.853516" xlink:href="#DejaVuSans-6f"/>
       <use x="1711.035156" xlink:href="#DejaVuSans-6c"/>
       <use x="1738.818359" xlink:href="#DejaVuSans-20"/>
       <use x="1770.605469" xlink:href="#DejaVuSans-64"/>
       <use x="1834.082031" xlink:href="#DejaVuSans-69"/>
       <use x="1861.865234" xlink:href="#DejaVuSans-70"/>
       <use x="1925.341797" xlink:href="#DejaVuSans-6c"/>
       <use x="1953.125" xlink:href="#DejaVuSans-6f"/>
       <use x="2014.306641" xlink:href="#DejaVuSans-6d"/>
       <use x="2111.71875" xlink:href="#DejaVuSans-61"/>
       <use x="2172.998047" xlink:href="#DejaVuSans-20"/>
       <use x="2204.785156" xlink:href="#DejaVuSans-6f"/>
       <use x="2265.966797" xlink:href="#DejaVuSans-72"/>
      </g>
      <!-- Equivalent -->
      <defs>
       <path d="M 14.796875 27.296875 
Q 14.796875 17.390625 18.875 11.75 
Q 22.953125 6.109375 30.078125 6.109375 
Q 37.203125 6.109375 41.296875 11.75 
Q 45.40625 17.390625 45.40625 27.296875 
Q 45.40625 37.203125 41.296875 42.84375 
Q 37.203125 48.484375 30.078125 48.484375 
Q 22.953125 48.484375 18.875 42.84375 
Q 14.796875 37.203125 14.796875 27.296875 
z
M 45.40625 8.203125 
Q 42.578125 3.328125 38.25 0.953125 
Q 33.9375 -1.421875 27.875 -1.421875 
Q 17.96875 -1.421875 11.734375 6.484375 
Q 5.515625 14.40625 5.515625 27.296875 
Q 5.515625 40.1875 11.734375 48.09375 
Q 17.96875 56 27.875 56 
Q 33.9375 56 38.25 53.625 
Q 42.578125 51.265625 45.40625 46.390625 
L 45.40625 54.6875 
L 54.390625 54.6875 
L 54.390625 -20.796875 
L 45.40625 -20.796875 
z
" id="DejaVuSans-71"/>
       <path d="M 2.984375 54.6875 
L 12.5 54.6875 
L 29.59375 8.796875 
L 46.6875 54.6875 
L 56.203125 54.6875 
L 35.6875 0 
L 23.484375 0 
z
" id="DejaVuSans-76"/>
      </defs>
      <g style="fill:#262626;" transform="translate(383.024375 452.655375)scale(0.18 -0.18)">
       <use xlink:href="#DejaVuSans-45"/>
       <use x="63.183594" xlink:href="#DejaVuSans-71"/>
       <use x="126.660156" xlink:href="#DejaVuSans-75"/>
       <use x="190.039062" xlink:href="#DejaVuSans-69"/>
       <use x="217.822266" xlink:href="#DejaVuSans-76"/>
       <use x="277.001953" xlink:href="#DejaVuSans-61"/>
       <use x="338.28125" xlink:href="#DejaVuSans-6c"/>
       <use x="366.064453" xlink:href="#DejaVuSans-65"/>
       <use x="427.587891" xlink:href="#DejaVuSans-6e"/>
       <use x="490.966797" xlink:href="#DejaVuSans-74"/>
      </g>
     </g>
    </g>
    <g id="ytick_10">
     <g id="line2d_28"/>
     <g id="text_20">
      <!-- Some college but no degree -->
      <defs>
       <path d="M 48.6875 27.296875 
Q 48.6875 37.203125 44.609375 42.84375 
Q 40.53125 48.484375 33.40625 48.484375 
Q 26.265625 48.484375 22.1875 42.84375 
Q 18.109375 37.203125 18.109375 27.296875 
Q 18.109375 17.390625 22.1875 11.75 
Q 26.265625 6.109375 33.40625 6.109375 
Q 40.53125 6.109375 44.609375 11.75 
Q 48.6875 17.390625 48.6875 27.296875 
z
M 18.109375 46.390625 
Q 20.953125 51.265625 25.265625 53.625 
Q 29.59375 56 35.59375 56 
Q 45.5625 56 51.78125 48.09375 
Q 58.015625 40.1875 58.015625 27.296875 
Q 58.015625 14.40625 51.78125 6.484375 
Q 45.5625 -1.421875 35.59375 -1.421875 
Q 29.59375 -1.421875 25.265625 0.953125 
Q 20.953125 3.328125 18.109375 8.203125 
L 18.109375 0 
L 9.078125 0 
L 9.078125 75.984375 
L 18.109375 75.984375 
z
" id="DejaVuSans-62"/>
      </defs>
      <g style="fill:#262626;" transform="translate(224.2475 490.142344)scale(0.18 -0.18)">
       <use xlink:href="#DejaVuSans-53"/>
       <use x="63.476562" xlink:href="#DejaVuSans-6f"/>
       <use x="124.658203" xlink:href="#DejaVuSans-6d"/>
       <use x="222.070312" xlink:href="#DejaVuSans-65"/>
       <use x="283.59375" xlink:href="#DejaVuSans-20"/>
       <use x="315.380859" xlink:href="#DejaVuSans-63"/>
       <use x="370.361328" xlink:href="#DejaVuSans-6f"/>
       <use x="431.542969" xlink:href="#DejaVuSans-6c"/>
       <use x="459.326172" xlink:href="#DejaVuSans-6c"/>
       <use x="487.109375" xlink:href="#DejaVuSans-65"/>
       <use x="548.632812" xlink:href="#DejaVuSans-67"/>
       <use x="612.109375" xlink:href="#DejaVuSans-65"/>
       <use x="673.632812" xlink:href="#DejaVuSans-20"/>
       <use x="705.419922" xlink:href="#DejaVuSans-62"/>
       <use x="768.896484" xlink:href="#DejaVuSans-75"/>
       <use x="832.275391" xlink:href="#DejaVuSans-74"/>
       <use x="871.484375" xlink:href="#DejaVuSans-20"/>
       <use x="903.271484" xlink:href="#DejaVuSans-6e"/>
       <use x="966.650391" xlink:href="#DejaVuSans-6f"/>
       <use x="1027.832031" xlink:href="#DejaVuSans-20"/>
       <use x="1059.619141" xlink:href="#DejaVuSans-64"/>
       <use x="1123.095703" xlink:href="#DejaVuSans-65"/>
       <use x="1184.619141" xlink:href="#DejaVuSans-67"/>
       <use x="1248.095703" xlink:href="#DejaVuSans-72"/>
       <use x="1289.177734" xlink:href="#DejaVuSans-65"/>
       <use x="1350.701172" xlink:href="#DejaVuSans-65"/>
      </g>
     </g>
    </g>
    <g id="ytick_11">
     <g id="line2d_29"/>
     <g id="text_21">
      <!-- Associate degree in college - occupation/vocation -->
      <defs>
       <path d="M 34.1875 63.1875 
L 20.796875 26.90625 
L 47.609375 26.90625 
z
M 28.609375 72.90625 
L 39.796875 72.90625 
L 67.578125 0 
L 57.328125 0 
L 50.6875 18.703125 
L 17.828125 18.703125 
L 11.1875 0 
L 0.78125 0 
z
" id="DejaVuSans-41"/>
       <path d="M 25.390625 72.90625 
L 33.6875 72.90625 
L 8.296875 -9.28125 
L 0 -9.28125 
z
" id="DejaVuSans-2f"/>
      </defs>
      <g style="fill:#262626;" transform="translate(30.55625 527.629313)scale(0.18 -0.18)">
       <use xlink:href="#DejaVuSans-41"/>
       <use x="68.408203" xlink:href="#DejaVuSans-73"/>
       <use x="120.507812" xlink:href="#DejaVuSans-73"/>
       <use x="172.607422" xlink:href="#DejaVuSans-6f"/>
       <use x="233.789062" xlink:href="#DejaVuSans-63"/>
       <use x="288.769531" xlink:href="#DejaVuSans-69"/>
       <use x="316.552734" xlink:href="#DejaVuSans-61"/>
       <use x="377.832031" xlink:href="#DejaVuSans-74"/>
       <use x="417.041016" xlink:href="#DejaVuSans-65"/>
       <use x="478.564453" xlink:href="#DejaVuSans-20"/>
       <use x="510.351562" xlink:href="#DejaVuSans-64"/>
       <use x="573.828125" xlink:href="#DejaVuSans-65"/>
       <use x="635.351562" xlink:href="#DejaVuSans-67"/>
       <use x="698.828125" xlink:href="#DejaVuSans-72"/>
       <use x="739.910156" xlink:href="#DejaVuSans-65"/>
       <use x="801.433594" xlink:href="#DejaVuSans-65"/>
       <use x="862.957031" xlink:href="#DejaVuSans-20"/>
       <use x="894.744141" xlink:href="#DejaVuSans-69"/>
       <use x="922.527344" xlink:href="#DejaVuSans-6e"/>
       <use x="985.90625" xlink:href="#DejaVuSans-20"/>
       <use x="1017.693359" xlink:href="#DejaVuSans-63"/>
       <use x="1072.673828" xlink:href="#DejaVuSans-6f"/>
       <use x="1133.855469" xlink:href="#DejaVuSans-6c"/>
       <use x="1161.638672" xlink:href="#DejaVuSans-6c"/>
       <use x="1189.421875" xlink:href="#DejaVuSans-65"/>
       <use x="1250.945312" xlink:href="#DejaVuSans-67"/>
       <use x="1314.421875" xlink:href="#DejaVuSans-65"/>
       <use x="1375.945312" xlink:href="#DejaVuSans-20"/>
       <use x="1407.732422" xlink:href="#DejaVuSans-2d"/>
       <use x="1443.816406" xlink:href="#DejaVuSans-20"/>
       <use x="1475.603516" xlink:href="#DejaVuSans-6f"/>
       <use x="1536.785156" xlink:href="#DejaVuSans-63"/>
       <use x="1591.765625" xlink:href="#DejaVuSans-63"/>
       <use x="1646.746094" xlink:href="#DejaVuSans-75"/>
       <use x="1710.125" xlink:href="#DejaVuSans-70"/>
       <use x="1773.601562" xlink:href="#DejaVuSans-61"/>
       <use x="1834.880859" xlink:href="#DejaVuSans-74"/>
       <use x="1874.089844" xlink:href="#DejaVuSans-69"/>
       <use x="1901.873047" xlink:href="#DejaVuSans-6f"/>
       <use x="1963.054688" xlink:href="#DejaVuSans-6e"/>
       <use x="2026.433594" xlink:href="#DejaVuSans-2f"/>
       <use x="2060.125" xlink:href="#DejaVuSans-76"/>
       <use x="2119.304688" xlink:href="#DejaVuSans-6f"/>
       <use x="2180.486328" xlink:href="#DejaVuSans-63"/>
       <use x="2235.466797" xlink:href="#DejaVuSans-61"/>
       <use x="2296.746094" xlink:href="#DejaVuSans-74"/>
       <use x="2335.955078" xlink:href="#DejaVuSans-69"/>
       <use x="2363.738281" xlink:href="#DejaVuSans-6f"/>
       <use x="2424.919922" xlink:href="#DejaVuSans-6e"/>
      </g>
      <!-- Program -->
      <defs>
       <path d="M 19.671875 64.796875 
L 19.671875 37.40625 
L 32.078125 37.40625 
Q 38.96875 37.40625 42.71875 40.96875 
Q 46.484375 44.53125 46.484375 51.125 
Q 46.484375 57.671875 42.71875 61.234375 
Q 38.96875 64.796875 32.078125 64.796875 
z
M 9.8125 72.90625 
L 32.078125 72.90625 
Q 44.34375 72.90625 50.609375 67.359375 
Q 56.890625 61.8125 56.890625 51.125 
Q 56.890625 40.328125 50.609375 34.8125 
Q 44.34375 29.296875 32.078125 29.296875 
L 19.671875 29.296875 
L 19.671875 0 
L 9.8125 0 
z
" id="DejaVuSans-50"/>
      </defs>
      <g style="fill:#262626;" transform="translate(401.809062 547.785375)scale(0.18 -0.18)">
       <use xlink:href="#DejaVuSans-50"/>
       <use x="60.287109" xlink:href="#DejaVuSans-72"/>
       <use x="101.369141" xlink:href="#DejaVuSans-6f"/>
       <use x="162.550781" xlink:href="#DejaVuSans-67"/>
       <use x="226.027344" xlink:href="#DejaVuSans-72"/>
       <use x="267.140625" xlink:href="#DejaVuSans-61"/>
       <use x="328.419922" xlink:href="#DejaVuSans-6d"/>
      </g>
     </g>
    </g>
    <g id="ytick_12">
     <g id="line2d_30"/>
     <g id="text_22">
      <!-- Associate degree in college - academic program -->
      <g style="fill:#262626;" transform="translate(43.007187 585.272344)scale(0.18 -0.18)">
       <use xlink:href="#DejaVuSans-41"/>
       <use x="68.408203" xlink:href="#DejaVuSans-73"/>
       <use x="120.507812" xlink:href="#DejaVuSans-73"/>
       <use x="172.607422" xlink:href="#DejaVuSans-6f"/>
       <use x="233.789062" xlink:href="#DejaVuSans-63"/>
       <use x="288.769531" xlink:href="#DejaVuSans-69"/>
       <use x="316.552734" xlink:href="#DejaVuSans-61"/>
       <use x="377.832031" xlink:href="#DejaVuSans-74"/>
       <use x="417.041016" xlink:href="#DejaVuSans-65"/>
       <use x="478.564453" xlink:href="#DejaVuSans-20"/>
       <use x="510.351562" xlink:href="#DejaVuSans-64"/>
       <use x="573.828125" xlink:href="#DejaVuSans-65"/>
       <use x="635.351562" xlink:href="#DejaVuSans-67"/>
       <use x="698.828125" xlink:href="#DejaVuSans-72"/>
       <use x="739.910156" xlink:href="#DejaVuSans-65"/>
       <use x="801.433594" xlink:href="#DejaVuSans-65"/>
       <use x="862.957031" xlink:href="#DejaVuSans-20"/>
       <use x="894.744141" xlink:href="#DejaVuSans-69"/>
       <use x="922.527344" xlink:href="#DejaVuSans-6e"/>
       <use x="985.90625" xlink:href="#DejaVuSans-20"/>
       <use x="1017.693359" xlink:href="#DejaVuSans-63"/>
       <use x="1072.673828" xlink:href="#DejaVuSans-6f"/>
       <use x="1133.855469" xlink:href="#DejaVuSans-6c"/>
       <use x="1161.638672" xlink:href="#DejaVuSans-6c"/>
       <use x="1189.421875" xlink:href="#DejaVuSans-65"/>
       <use x="1250.945312" xlink:href="#DejaVuSans-67"/>
       <use x="1314.421875" xlink:href="#DejaVuSans-65"/>
       <use x="1375.945312" xlink:href="#DejaVuSans-20"/>
       <use x="1407.732422" xlink:href="#DejaVuSans-2d"/>
       <use x="1443.816406" xlink:href="#DejaVuSans-20"/>
       <use x="1475.603516" xlink:href="#DejaVuSans-61"/>
       <use x="1536.882812" xlink:href="#DejaVuSans-63"/>
       <use x="1591.863281" xlink:href="#DejaVuSans-61"/>
       <use x="1653.142578" xlink:href="#DejaVuSans-64"/>
       <use x="1716.619141" xlink:href="#DejaVuSans-65"/>
       <use x="1778.142578" xlink:href="#DejaVuSans-6d"/>
       <use x="1875.554688" xlink:href="#DejaVuSans-69"/>
       <use x="1903.337891" xlink:href="#DejaVuSans-63"/>
       <use x="1958.318359" xlink:href="#DejaVuSans-20"/>
       <use x="1990.105469" xlink:href="#DejaVuSans-70"/>
       <use x="2053.582031" xlink:href="#DejaVuSans-72"/>
       <use x="2094.664062" xlink:href="#DejaVuSans-6f"/>
       <use x="2155.845703" xlink:href="#DejaVuSans-67"/>
       <use x="2219.322266" xlink:href="#DejaVuSans-72"/>
       <use x="2260.435547" xlink:href="#DejaVuSans-61"/>
       <use x="2321.714844" xlink:href="#DejaVuSans-6d"/>
      </g>
     </g>
    </g>
    <g id="ytick_13">
     <g id="line2d_31"/>
     <g id="text_23">
      <!-- Bachelor's degree (for example: BA, AB, BS) -->
      <defs>
       <path d="M 19.671875 34.8125 
L 19.671875 8.109375 
L 35.5 8.109375 
Q 43.453125 8.109375 47.28125 11.40625 
Q 51.125 14.703125 51.125 21.484375 
Q 51.125 28.328125 47.28125 31.5625 
Q 43.453125 34.8125 35.5 34.8125 
z
M 19.671875 64.796875 
L 19.671875 42.828125 
L 34.28125 42.828125 
Q 41.5 42.828125 45.03125 45.53125 
Q 48.578125 48.25 48.578125 53.8125 
Q 48.578125 59.328125 45.03125 62.0625 
Q 41.5 64.796875 34.28125 64.796875 
z
M 9.8125 72.90625 
L 35.015625 72.90625 
Q 46.296875 72.90625 52.390625 68.21875 
Q 58.5 63.53125 58.5 54.890625 
Q 58.5 48.1875 55.375 44.234375 
Q 52.25 40.28125 46.1875 39.3125 
Q 53.46875 37.75 57.5 32.78125 
Q 61.53125 27.828125 61.53125 20.40625 
Q 61.53125 10.640625 54.890625 5.3125 
Q 48.25 0 35.984375 0 
L 9.8125 0 
z
" id="DejaVuSans-42"/>
       <path d="M 17.921875 72.90625 
L 17.921875 45.796875 
L 9.625 45.796875 
L 9.625 72.90625 
z
" id="DejaVuSans-27"/>
       <path d="M 31 75.875 
Q 24.46875 64.65625 21.28125 53.65625 
Q 18.109375 42.671875 18.109375 31.390625 
Q 18.109375 20.125 21.3125 9.0625 
Q 24.515625 -2 31 -13.1875 
L 23.1875 -13.1875 
Q 15.875 -1.703125 12.234375 9.375 
Q 8.59375 20.453125 8.59375 31.390625 
Q 8.59375 42.28125 12.203125 53.3125 
Q 15.828125 64.359375 23.1875 75.875 
z
" id="DejaVuSans-28"/>
       <path d="M 37.109375 75.984375 
L 37.109375 68.5 
L 28.515625 68.5 
Q 23.6875 68.5 21.796875 66.546875 
Q 19.921875 64.59375 19.921875 59.515625 
L 19.921875 54.6875 
L 34.71875 54.6875 
L 34.71875 47.703125 
L 19.921875 47.703125 
L 19.921875 0 
L 10.890625 0 
L 10.890625 47.703125 
L 2.296875 47.703125 
L 2.296875 54.6875 
L 10.890625 54.6875 
L 10.890625 58.5 
Q 10.890625 67.625 15.140625 71.796875 
Q 19.390625 75.984375 28.609375 75.984375 
z
" id="DejaVuSans-66"/>
       <path d="M 54.890625 54.6875 
L 35.109375 28.078125 
L 55.90625 0 
L 45.3125 0 
L 29.390625 21.484375 
L 13.484375 0 
L 2.875 0 
L 24.125 28.609375 
L 4.6875 54.6875 
L 15.28125 54.6875 
L 29.78125 35.203125 
L 44.28125 54.6875 
z
" id="DejaVuSans-78"/>
       <path d="M 11.71875 12.40625 
L 22.015625 12.40625 
L 22.015625 0 
L 11.71875 0 
z
M 11.71875 51.703125 
L 22.015625 51.703125 
L 22.015625 39.3125 
L 11.71875 39.3125 
z
" id="DejaVuSans-3a"/>
       <path d="M 8.015625 75.875 
L 15.828125 75.875 
Q 23.140625 64.359375 26.78125 53.3125 
Q 30.421875 42.28125 30.421875 31.390625 
Q 30.421875 20.453125 26.78125 9.375 
Q 23.140625 -1.703125 15.828125 -13.1875 
L 8.015625 -13.1875 
Q 14.5 -2 17.703125 9.0625 
Q 20.90625 20.125 20.90625 31.390625 
Q 20.90625 42.671875 17.703125 53.65625 
Q 14.5 64.65625 8.015625 75.875 
z
" id="DejaVuSans-29"/>
      </defs>
      <g style="fill:#262626;" transform="translate(79.96625 632.837344)scale(0.18 -0.18)">
       <use xlink:href="#DejaVuSans-42"/>
       <use x="68.603516" xlink:href="#DejaVuSans-61"/>
       <use x="129.882812" xlink:href="#DejaVuSans-63"/>
       <use x="184.863281" xlink:href="#DejaVuSans-68"/>
       <use x="248.242188" xlink:href="#DejaVuSans-65"/>
       <use x="309.765625" xlink:href="#DejaVuSans-6c"/>
       <use x="337.548828" xlink:href="#DejaVuSans-6f"/>
       <use x="398.730469" xlink:href="#DejaVuSans-72"/>
       <use x="439.84375" xlink:href="#DejaVuSans-27"/>
       <use x="467.333984" xlink:href="#DejaVuSans-73"/>
       <use x="519.433594" xlink:href="#DejaVuSans-20"/>
       <use x="551.220703" xlink:href="#DejaVuSans-64"/>
       <use x="614.697266" xlink:href="#DejaVuSans-65"/>
       <use x="676.220703" xlink:href="#DejaVuSans-67"/>
       <use x="739.697266" xlink:href="#DejaVuSans-72"/>
       <use x="780.779297" xlink:href="#DejaVuSans-65"/>
       <use x="842.302734" xlink:href="#DejaVuSans-65"/>
       <use x="903.826172" xlink:href="#DejaVuSans-20"/>
       <use x="935.613281" xlink:href="#DejaVuSans-28"/>
       <use x="974.626953" xlink:href="#DejaVuSans-66"/>
       <use x="1009.832031" xlink:href="#DejaVuSans-6f"/>
       <use x="1071.013672" xlink:href="#DejaVuSans-72"/>
       <use x="1112.126953" xlink:href="#DejaVuSans-20"/>
       <use x="1143.914062" xlink:href="#DejaVuSans-65"/>
       <use x="1205.421875" xlink:href="#DejaVuSans-78"/>
       <use x="1264.601562" xlink:href="#DejaVuSans-61"/>
       <use x="1325.880859" xlink:href="#DejaVuSans-6d"/>
       <use x="1423.292969" xlink:href="#DejaVuSans-70"/>
       <use x="1486.769531" xlink:href="#DejaVuSans-6c"/>
       <use x="1514.552734" xlink:href="#DejaVuSans-65"/>
       <use x="1576.076172" xlink:href="#DejaVuSans-3a"/>
       <use x="1609.767578" xlink:href="#DejaVuSans-20"/>
       <use x="1641.554688" xlink:href="#DejaVuSans-42"/>
       <use x="1710.158203" xlink:href="#DejaVuSans-41"/>
       <use x="1778.566406" xlink:href="#DejaVuSans-2c"/>
       <use x="1810.353516" xlink:href="#DejaVuSans-20"/>
       <use x="1842.140625" xlink:href="#DejaVuSans-41"/>
       <use x="1910.548828" xlink:href="#DejaVuSans-42"/>
       <use x="1979.152344" xlink:href="#DejaVuSans-2c"/>
       <use x="2010.939453" xlink:href="#DejaVuSans-20"/>
       <use x="2042.726562" xlink:href="#DejaVuSans-42"/>
       <use x="2111.314453" xlink:href="#DejaVuSans-53"/>
       <use x="2174.791016" xlink:href="#DejaVuSans-29"/>
      </g>
     </g>
    </g>
    <g id="ytick_14">
     <g id="line2d_32"/>
     <g id="text_24">
      <!-- Master's degree (for example: MA, MS, MENG, -->
      <defs>
       <path d="M 9.8125 72.90625 
L 23.09375 72.90625 
L 55.421875 11.921875 
L 55.421875 72.90625 
L 64.984375 72.90625 
L 64.984375 0 
L 51.703125 0 
L 19.390625 60.984375 
L 19.390625 0 
L 9.8125 0 
z
" id="DejaVuSans-4e"/>
       <path d="M 59.515625 10.40625 
L 59.515625 29.984375 
L 43.40625 29.984375 
L 43.40625 38.09375 
L 69.28125 38.09375 
L 69.28125 6.78125 
Q 63.578125 2.734375 56.6875 0.65625 
Q 49.8125 -1.421875 42 -1.421875 
Q 24.90625 -1.421875 15.25 8.5625 
Q 5.609375 18.5625 5.609375 36.375 
Q 5.609375 54.25 15.25 64.234375 
Q 24.90625 74.21875 42 74.21875 
Q 49.125 74.21875 55.546875 72.453125 
Q 61.96875 70.703125 67.390625 67.28125 
L 67.390625 56.78125 
Q 61.921875 61.421875 55.765625 63.765625 
Q 49.609375 66.109375 42.828125 66.109375 
Q 29.4375 66.109375 22.71875 58.640625 
Q 16.015625 51.171875 16.015625 36.375 
Q 16.015625 21.625 22.71875 14.15625 
Q 29.4375 6.6875 42.828125 6.6875 
Q 48.046875 6.6875 52.140625 7.59375 
Q 56.25 8.5 59.515625 10.40625 
z
" id="DejaVuSans-47"/>
      </defs>
      <g style="fill:#262626;" transform="translate(62.953437 670.324313)scale(0.18 -0.18)">
       <use xlink:href="#DejaVuSans-4d"/>
       <use x="86.279297" xlink:href="#DejaVuSans-61"/>
       <use x="147.558594" xlink:href="#DejaVuSans-73"/>
       <use x="199.658203" xlink:href="#DejaVuSans-74"/>
       <use x="238.867188" xlink:href="#DejaVuSans-65"/>
       <use x="300.390625" xlink:href="#DejaVuSans-72"/>
       <use x="341.503906" xlink:href="#DejaVuSans-27"/>
       <use x="368.994141" xlink:href="#DejaVuSans-73"/>
       <use x="421.09375" xlink:href="#DejaVuSans-20"/>
       <use x="452.880859" xlink:href="#DejaVuSans-64"/>
       <use x="516.357422" xlink:href="#DejaVuSans-65"/>
       <use x="577.880859" xlink:href="#DejaVuSans-67"/>
       <use x="641.357422" xlink:href="#DejaVuSans-72"/>
       <use x="682.439453" xlink:href="#DejaVuSans-65"/>
       <use x="743.962891" xlink:href="#DejaVuSans-65"/>
       <use x="805.486328" xlink:href="#DejaVuSans-20"/>
       <use x="837.273438" xlink:href="#DejaVuSans-28"/>
       <use x="876.287109" xlink:href="#DejaVuSans-66"/>
       <use x="911.492188" xlink:href="#DejaVuSans-6f"/>
       <use x="972.673828" xlink:href="#DejaVuSans-72"/>
       <use x="1013.787109" xlink:href="#DejaVuSans-20"/>
       <use x="1045.574219" xlink:href="#DejaVuSans-65"/>
       <use x="1107.082031" xlink:href="#DejaVuSans-78"/>
       <use x="1166.261719" xlink:href="#DejaVuSans-61"/>
       <use x="1227.541016" xlink:href="#DejaVuSans-6d"/>
       <use x="1324.953125" xlink:href="#DejaVuSans-70"/>
       <use x="1388.429688" xlink:href="#DejaVuSans-6c"/>
       <use x="1416.212891" xlink:href="#DejaVuSans-65"/>
       <use x="1477.736328" xlink:href="#DejaVuSans-3a"/>
       <use x="1511.427734" xlink:href="#DejaVuSans-20"/>
       <use x="1543.214844" xlink:href="#DejaVuSans-4d"/>
       <use x="1629.494141" xlink:href="#DejaVuSans-41"/>
       <use x="1697.902344" xlink:href="#DejaVuSans-2c"/>
       <use x="1729.689453" xlink:href="#DejaVuSans-20"/>
       <use x="1761.476562" xlink:href="#DejaVuSans-4d"/>
       <use x="1847.755859" xlink:href="#DejaVuSans-53"/>
       <use x="1911.232422" xlink:href="#DejaVuSans-2c"/>
       <use x="1943.019531" xlink:href="#DejaVuSans-20"/>
       <use x="1974.806641" xlink:href="#DejaVuSans-4d"/>
       <use x="2061.085938" xlink:href="#DejaVuSans-45"/>
       <use x="2124.269531" xlink:href="#DejaVuSans-4e"/>
       <use x="2199.074219" xlink:href="#DejaVuSans-47"/>
       <use x="2276.564453" xlink:href="#DejaVuSans-2c"/>
      </g>
      <!-- MED, MSW, MBA) -->
      <defs>
       <path d="M 19.671875 64.796875 
L 19.671875 8.109375 
L 31.59375 8.109375 
Q 46.6875 8.109375 53.6875 14.9375 
Q 60.6875 21.78125 60.6875 36.53125 
Q 60.6875 51.171875 53.6875 57.984375 
Q 46.6875 64.796875 31.59375 64.796875 
z
M 9.8125 72.90625 
L 30.078125 72.90625 
Q 51.265625 72.90625 61.171875 64.09375 
Q 71.09375 55.28125 71.09375 36.53125 
Q 71.09375 17.671875 61.125 8.828125 
Q 51.171875 0 30.078125 0 
L 9.8125 0 
z
" id="DejaVuSans-44"/>
       <path d="M 3.328125 72.90625 
L 13.28125 72.90625 
L 28.609375 11.28125 
L 43.890625 72.90625 
L 54.984375 72.90625 
L 70.3125 11.28125 
L 85.59375 72.90625 
L 95.609375 72.90625 
L 77.296875 0 
L 64.890625 0 
L 49.515625 63.28125 
L 33.984375 0 
L 21.578125 0 
z
" id="DejaVuSans-57"/>
      </defs>
      <g style="fill:#262626;" transform="translate(322.839687 690.480375)scale(0.18 -0.18)">
       <use xlink:href="#DejaVuSans-4d"/>
       <use x="86.279297" xlink:href="#DejaVuSans-45"/>
       <use x="149.462891" xlink:href="#DejaVuSans-44"/>
       <use x="226.464844" xlink:href="#DejaVuSans-2c"/>
       <use x="258.251953" xlink:href="#DejaVuSans-20"/>
       <use x="290.039062" xlink:href="#DejaVuSans-4d"/>
       <use x="376.318359" xlink:href="#DejaVuSans-53"/>
       <use x="439.794922" xlink:href="#DejaVuSans-57"/>
       <use x="538.671875" xlink:href="#DejaVuSans-2c"/>
       <use x="570.458984" xlink:href="#DejaVuSans-20"/>
       <use x="602.246094" xlink:href="#DejaVuSans-4d"/>
       <use x="688.525391" xlink:href="#DejaVuSans-42"/>
       <use x="757.128906" xlink:href="#DejaVuSans-41"/>
       <use x="825.537109" xlink:href="#DejaVuSans-29"/>
      </g>
     </g>
    </g>
    <g id="ytick_15">
     <g id="line2d_33"/>
     <g id="text_25">
      <!-- Professional school degree (for example: MD, -->
      <g style="fill:#262626;" transform="translate(69.050937 717.889313)scale(0.18 -0.18)">
       <use xlink:href="#DejaVuSans-50"/>
       <use x="60.287109" xlink:href="#DejaVuSans-72"/>
       <use x="101.369141" xlink:href="#DejaVuSans-6f"/>
       <use x="162.550781" xlink:href="#DejaVuSans-66"/>
       <use x="197.755859" xlink:href="#DejaVuSans-65"/>
       <use x="259.279297" xlink:href="#DejaVuSans-73"/>
       <use x="311.378906" xlink:href="#DejaVuSans-73"/>
       <use x="363.478516" xlink:href="#DejaVuSans-69"/>
       <use x="391.261719" xlink:href="#DejaVuSans-6f"/>
       <use x="452.443359" xlink:href="#DejaVuSans-6e"/>
       <use x="515.822266" xlink:href="#DejaVuSans-61"/>
       <use x="577.101562" xlink:href="#DejaVuSans-6c"/>
       <use x="604.884766" xlink:href="#DejaVuSans-20"/>
       <use x="636.671875" xlink:href="#DejaVuSans-73"/>
       <use x="688.771484" xlink:href="#DejaVuSans-63"/>
       <use x="743.751953" xlink:href="#DejaVuSans-68"/>
       <use x="807.130859" xlink:href="#DejaVuSans-6f"/>
       <use x="868.3125" xlink:href="#DejaVuSans-6f"/>
       <use x="929.494141" xlink:href="#DejaVuSans-6c"/>
       <use x="957.277344" xlink:href="#DejaVuSans-20"/>
       <use x="989.064453" xlink:href="#DejaVuSans-64"/>
       <use x="1052.541016" xlink:href="#DejaVuSans-65"/>
       <use x="1114.064453" xlink:href="#DejaVuSans-67"/>
       <use x="1177.541016" xlink:href="#DejaVuSans-72"/>
       <use x="1218.623047" xlink:href="#DejaVuSans-65"/>
       <use x="1280.146484" xlink:href="#DejaVuSans-65"/>
       <use x="1341.669922" xlink:href="#DejaVuSans-20"/>
       <use x="1373.457031" xlink:href="#DejaVuSans-28"/>
       <use x="1412.470703" xlink:href="#DejaVuSans-66"/>
       <use x="1447.675781" xlink:href="#DejaVuSans-6f"/>
       <use x="1508.857422" xlink:href="#DejaVuSans-72"/>
       <use x="1549.970703" xlink:href="#DejaVuSans-20"/>
       <use x="1581.757812" xlink:href="#DejaVuSans-65"/>
       <use x="1643.265625" xlink:href="#DejaVuSans-78"/>
       <use x="1702.445312" xlink:href="#DejaVuSans-61"/>
       <use x="1763.724609" xlink:href="#DejaVuSans-6d"/>
       <use x="1861.136719" xlink:href="#DejaVuSans-70"/>
       <use x="1924.613281" xlink:href="#DejaVuSans-6c"/>
       <use x="1952.396484" xlink:href="#DejaVuSans-65"/>
       <use x="2013.919922" xlink:href="#DejaVuSans-3a"/>
       <use x="2047.611328" xlink:href="#DejaVuSans-20"/>
       <use x="2079.398438" xlink:href="#DejaVuSans-4d"/>
       <use x="2165.677734" xlink:href="#DejaVuSans-44"/>
       <use x="2242.679688" xlink:href="#DejaVuSans-2c"/>
      </g>
      <!-- DDS, DVM, LLB, JD) -->
      <defs>
       <path d="M 28.609375 0 
L 0.78125 72.90625 
L 11.078125 72.90625 
L 34.1875 11.53125 
L 57.328125 72.90625 
L 67.578125 72.90625 
L 39.796875 0 
z
" id="DejaVuSans-56"/>
       <path d="M 9.8125 72.90625 
L 19.671875 72.90625 
L 19.671875 5.078125 
Q 19.671875 -8.109375 14.671875 -14.0625 
Q 9.671875 -20.015625 -1.421875 -20.015625 
L -5.171875 -20.015625 
L -5.171875 -11.71875 
L -2.09375 -11.71875 
Q 4.4375 -11.71875 7.125 -8.046875 
Q 9.8125 -4.390625 9.8125 5.078125 
z
" id="DejaVuSans-4a"/>
      </defs>
      <g style="fill:#262626;" transform="translate(304.685 738.045375)scale(0.18 -0.18)">
       <use xlink:href="#DejaVuSans-44"/>
       <use x="77.001953" xlink:href="#DejaVuSans-44"/>
       <use x="154.003906" xlink:href="#DejaVuSans-53"/>
       <use x="217.480469" xlink:href="#DejaVuSans-2c"/>
       <use x="249.267578" xlink:href="#DejaVuSans-20"/>
       <use x="281.054688" xlink:href="#DejaVuSans-44"/>
       <use x="358.041016" xlink:href="#DejaVuSans-56"/>
       <use x="426.449219" xlink:href="#DejaVuSans-4d"/>
       <use x="512.728516" xlink:href="#DejaVuSans-2c"/>
       <use x="544.515625" xlink:href="#DejaVuSans-20"/>
       <use x="576.302734" xlink:href="#DejaVuSans-4c"/>
       <use x="632.015625" xlink:href="#DejaVuSans-4c"/>
       <use x="687.728516" xlink:href="#DejaVuSans-42"/>
       <use x="756.332031" xlink:href="#DejaVuSans-2c"/>
       <use x="788.119141" xlink:href="#DejaVuSans-20"/>
       <use x="819.90625" xlink:href="#DejaVuSans-4a"/>
       <use x="849.398438" xlink:href="#DejaVuSans-44"/>
       <use x="926.400391" xlink:href="#DejaVuSans-29"/>
      </g>
     </g>
    </g>
    <g id="ytick_16">
     <g id="line2d_34"/>
     <g id="text_26">
      <!-- Doctorate degree (for example: PHD, EDD) -->
      <g style="fill:#262626;" transform="translate(91.258437 775.532344)scale(0.18 -0.18)">
       <use xlink:href="#DejaVuSans-44"/>
       <use x="77.001953" xlink:href="#DejaVuSans-6f"/>
       <use x="138.183594" xlink:href="#DejaVuSans-63"/>
       <use x="193.164062" xlink:href="#DejaVuSans-74"/>
       <use x="232.373047" xlink:href="#DejaVuSans-6f"/>
       <use x="293.554688" xlink:href="#DejaVuSans-72"/>
       <use x="334.667969" xlink:href="#DejaVuSans-61"/>
       <use x="395.947266" xlink:href="#DejaVuSans-74"/>
       <use x="435.15625" xlink:href="#DejaVuSans-65"/>
       <use x="496.679688" xlink:href="#DejaVuSans-20"/>
       <use x="528.466797" xlink:href="#DejaVuSans-64"/>
       <use x="591.943359" xlink:href="#DejaVuSans-65"/>
       <use x="653.466797" xlink:href="#DejaVuSans-67"/>
       <use x="716.943359" xlink:href="#DejaVuSans-72"/>
       <use x="758.025391" xlink:href="#DejaVuSans-65"/>
       <use x="819.548828" xlink:href="#DejaVuSans-65"/>
       <use x="881.072266" xlink:href="#DejaVuSans-20"/>
       <use x="912.859375" xlink:href="#DejaVuSans-28"/>
       <use x="951.873047" xlink:href="#DejaVuSans-66"/>
       <use x="987.078125" xlink:href="#DejaVuSans-6f"/>
       <use x="1048.259766" xlink:href="#DejaVuSans-72"/>
       <use x="1089.373047" xlink:href="#DejaVuSans-20"/>
       <use x="1121.160156" xlink:href="#DejaVuSans-65"/>
       <use x="1182.667969" xlink:href="#DejaVuSans-78"/>
       <use x="1241.847656" xlink:href="#DejaVuSans-61"/>
       <use x="1303.126953" xlink:href="#DejaVuSans-6d"/>
       <use x="1400.539062" xlink:href="#DejaVuSans-70"/>
       <use x="1464.015625" xlink:href="#DejaVuSans-6c"/>
       <use x="1491.798828" xlink:href="#DejaVuSans-65"/>
       <use x="1553.322266" xlink:href="#DejaVuSans-3a"/>
       <use x="1587.013672" xlink:href="#DejaVuSans-20"/>
       <use x="1618.800781" xlink:href="#DejaVuSans-50"/>
       <use x="1679.103516" xlink:href="#DejaVuSans-48"/>
       <use x="1754.298828" xlink:href="#DejaVuSans-44"/>
       <use x="1831.300781" xlink:href="#DejaVuSans-2c"/>
       <use x="1863.087891" xlink:href="#DejaVuSans-20"/>
       <use x="1894.875" xlink:href="#DejaVuSans-45"/>
       <use x="1958.058594" xlink:href="#DejaVuSans-44"/>
       <use x="2035.060547" xlink:href="#DejaVuSans-44"/>
       <use x="2112.0625" xlink:href="#DejaVuSans-29"/>
      </g>
     </g>
    </g>
    <g id="text_27">
     <!-- Level of Education -->
     <g style="fill:#262626;" transform="translate(22.396875 504.310938)rotate(-90)scale(0.2 -0.2)">
      <use xlink:href="#DejaVuSans-4c"/>
      <use x="55.697266" xlink:href="#DejaVuSans-65"/>
      <use x="117.220703" xlink:href="#DejaVuSans-76"/>
      <use x="176.400391" xlink:href="#DejaVuSans-65"/>
      <use x="237.923828" xlink:href="#DejaVuSans-6c"/>
      <use x="265.707031" xlink:href="#DejaVuSans-20"/>
      <use x="297.494141" xlink:href="#DejaVuSans-6f"/>
      <use x="358.675781" xlink:href="#DejaVuSans-66"/>
      <use x="393.880859" xlink:href="#DejaVuSans-20"/>
      <use x="425.667969" xlink:href="#DejaVuSans-45"/>
      <use x="488.851562" xlink:href="#DejaVuSans-64"/>
      <use x="552.328125" xlink:href="#DejaVuSans-75"/>
      <use x="615.707031" xlink:href="#DejaVuSans-63"/>
      <use x="670.6875" xlink:href="#DejaVuSans-61"/>
      <use x="731.966797" xlink:href="#DejaVuSans-74"/>
      <use x="771.175781" xlink:href="#DejaVuSans-69"/>
      <use x="798.958984" xlink:href="#DejaVuSans-6f"/>
      <use x="860.140625" xlink:href="#DejaVuSans-6e"/>
     </g>
    </g>
   </g>
   <g id="patch_3">
    <path clip-path="url(#p01cc0f2218)" d="M 485.458125 36.19275 
L 663.817712 36.19275 
L 663.817712 74.24475 
L 485.458125 74.24475 
z
" style="fill:#edf3f9;"/>
   </g>
   <g id="patch_4">
    <path clip-path="url(#p01cc0f2218)" d="M 485.458125 83.75775 
L 669.464977 83.75775 
L 669.464977 121.80975 
L 485.458125 121.80975 
z
" style="fill:#e2ecf4;"/>
   </g>
   <g id="patch_5">
    <path clip-path="url(#p01cc0f2218)" d="M 485.458125 131.32275 
L 666.749697 131.32275 
L 666.749697 169.37475 
L 485.458125 169.37475 
z
" style="fill:#d8e4f0;"/>
   </g>
   <g id="patch_6">
    <path clip-path="url(#p01cc0f2218)" d="M 485.458125 178.88775 
L 698.038837 178.88775 
L 698.038837 216.93975 
L 485.458125 216.93975 
z
" style="fill:#ceddeb;"/>
   </g>
   <g id="patch_7">
    <path clip-path="url(#p01cc0f2218)" d="M 485.458125 226.45275 
L 686.735462 226.45275 
L 686.735462 264.50475 
L 485.458125 264.50475 
z
" style="fill:#bed4e4;"/>
   </g>
   <g id="patch_8">
    <path clip-path="url(#p01cc0f2218)" d="M 485.458125 274.01775 
L 702.387146 274.01775 
L 702.387146 312.06975 
L 485.458125 312.06975 
z
" style="fill:#adcbdc;"/>
   </g>
   <g id="patch_9">
    <path clip-path="url(#p01cc0f2218)" d="M 485.458125 321.58275 
L 697.872968 321.58275 
L 697.872968 359.63475 
L 485.458125 359.63475 
z
" style="fill:#99bfd4;"/>
   </g>
   <g id="patch_10">
    <path clip-path="url(#p01cc0f2218)" d="M 485.458125 369.14775 
L 709.712572 369.14775 
L 709.712572 407.19975 
L 485.458125 407.19975 
z
" style="fill:#83b1cc;"/>
   </g>
   <g id="patch_11">
    <path clip-path="url(#p01cc0f2218)" d="M 485.458125 416.71275 
L 750.017798 416.71275 
L 750.017798 454.76475 
L 485.458125 454.76475 
z
" style="fill:#6fa4c4;"/>
   </g>
   <g id="patch_12">
    <path clip-path="url(#p01cc0f2218)" d="M 485.458125 464.27775 
L 781.188619 464.27775 
L 781.188619 502.32975 
L 485.458125 502.32975 
z
" style="fill:#5e97bb;"/>
   </g>
   <g id="patch_13">
    <path clip-path="url(#p01cc0f2218)" d="M 485.458125 511.84275 
L 799.00269 511.84275 
L 799.00269 549.89475 
L 485.458125 549.89475 
z
" style="fill:#4d89b2;"/>
   </g>
   <g id="patch_14">
    <path clip-path="url(#p01cc0f2218)" d="M 485.458125 559.40775 
L 803.875514 559.40775 
L 803.875514 597.45975 
L 485.458125 597.45975 
z
" style="fill:#3e7aa9;"/>
   </g>
   <g id="patch_15">
    <path clip-path="url(#p01cc0f2218)" d="M 485.458125 606.97275 
L 896.458421 606.97275 
L 896.458421 645.02475 
L 485.458125 645.02475 
z
" style="fill:#316ca0;"/>
   </g>
   <g id="patch_16">
    <path clip-path="url(#p01cc0f2218)" d="M 485.458125 654.53775 
L 962.87153 654.53775 
L 962.87153 692.58975 
L 485.458125 692.58975 
z
" style="fill:#255e94;"/>
   </g>
   <g id="patch_17">
    <path clip-path="url(#p01cc0f2218)" d="M 485.458125 702.10275 
L 1123.172411 702.10275 
L 1123.172411 740.15475 
L 485.458125 740.15475 
z
" style="fill:#1a4f87;"/>
   </g>
   <g id="patch_18">
    <path clip-path="url(#p01cc0f2218)" d="M 485.458125 749.66775 
L 1101.507981 749.66775 
L 1101.507981 787.71975 
L 485.458125 787.71975 
z
" style="fill:#174173;"/>
   </g>
   <g id="line2d_35">
    <path clip-path="url(#p01cc0f2218)" d="M 0 0 
" style="fill:none;stroke:#424242;stroke-linecap:round;stroke-width:3.15;"/>
   </g>
   <g id="line2d_36">
    <path clip-path="url(#p01cc0f2218)" d="M 0 0 
" style="fill:none;stroke:#424242;stroke-linecap:round;stroke-width:3.15;"/>
   </g>
   <g id="line2d_37">
    <path clip-path="url(#p01cc0f2218)" d="M 0 0 
" style="fill:none;stroke:#424242;stroke-linecap:round;stroke-width:3.15;"/>
   </g>
   <g id="line2d_38">
    <path clip-path="url(#p01cc0f2218)" d="M 0 0 
" style="fill:none;stroke:#424242;stroke-linecap:round;stroke-width:3.15;"/>
   </g>
   <g id="line2d_39">
    <path clip-path="url(#p01cc0f2218)" d="M 0 0 
" style="fill:none;stroke:#424242;stroke-linecap:round;stroke-width:3.15;"/>
   </g>
   <g id="line2d_40">
    <path clip-path="url(#p01cc0f2218)" d="M 0 0 
" style="fill:none;stroke:#424242;stroke-linecap:round;stroke-width:3.15;"/>
   </g>
   <g id="line2d_41">
    <path clip-path="url(#p01cc0f2218)" d="M 0 0 
" style="fill:none;stroke:#424242;stroke-linecap:round;stroke-width:3.15;"/>
   </g>
   <g id="line2d_42">
    <path clip-path="url(#p01cc0f2218)" d="M 0 0 
" style="fill:none;stroke:#424242;stroke-linecap:round;stroke-width:3.15;"/>
   </g>
   <g id="line2d_43">
    <path clip-path="url(#p01cc0f2218)" d="M 0 0 
" style="fill:none;stroke:#424242;stroke-linecap:round;stroke-width:3.15;"/>
   </g>
   <g id="line2d_44">
    <path clip-path="url(#p01cc0f2218)" d="M 0 0 
" style="fill:none;stroke:#424242;stroke-linecap:round;stroke-width:3.15;"/>
   </g>
   <g id="line2d_45">
    <path clip-path="url(#p01cc0f2218)" d="M 0 0 
" style="fill:none;stroke:#424242;stroke-linecap:round;stroke-width:3.15;"/>
   </g>
   <g id="line2d_46">
    <path clip-path="url(#p01cc0f2218)" d="M 0 0 
" style="fill:none;stroke:#424242;stroke-linecap:round;stroke-width:3.15;"/>
   </g>
   <g id="line2d_47">
    <path clip-path="url(#p01cc0f2218)" d="M 0 0 
" style="fill:none;stroke:#424242;stroke-linecap:round;stroke-width:3.15;"/>
   </g>
   <g id="line2d_48">
    <path clip-path="url(#p01cc0f2218)" d="M 0 0 
" style="fill:none;stroke:#424242;stroke-linecap:round;stroke-width:3.15;"/>
   </g>
   <g id="line2d_49">
    <path clip-path="url(#p01cc0f2218)" d="M 0 0 
" style="fill:none;stroke:#424242;stroke-linecap:round;stroke-width:3.15;"/>
   </g>
   <g id="line2d_50">
    <path clip-path="url(#p01cc0f2218)" d="M 0 0 
" style="fill:none;stroke:#424242;stroke-linecap:round;stroke-width:3.15;"/>
   </g>
   <g id="patch_19">
    <path d="M 485.458125 792.47625 
L 485.458125 31.43625 
" style="fill:none;"/>
   </g>
   <g id="patch_20">
    <path d="M 1155.058125 792.47625 
L 1155.058125 31.43625 
" style="fill:none;"/>
   </g>
   <g id="patch_21">
    <path d="M 485.458125 792.47625 
L 1155.058125 792.47625 
" style="fill:none;"/>
   </g>
   <g id="patch_22">
    <path d="M 485.458125 31.43625 
L 1155.058125 31.43625 
" style="fill:none;"/>
   </g>
   <g id="text_28">
    <!-- Earning By Level of Education -->
    <defs>
     <path d="M 32.171875 -5.078125 
Q 28.375 -14.84375 24.75 -17.8125 
Q 21.140625 -20.796875 15.09375 -20.796875 
L 7.90625 -20.796875 
L 7.90625 -13.28125 
L 13.1875 -13.28125 
Q 16.890625 -13.28125 18.9375 -11.515625 
Q 21 -9.765625 23.484375 -3.21875 
L 25.09375 0.875 
L 2.984375 54.6875 
L 12.5 54.6875 
L 29.59375 11.921875 
L 46.6875 54.6875 
L 56.203125 54.6875 
z
" id="DejaVuSans-79"/>
    </defs>
    <g style="fill:#262626;" transform="translate(640.44 25.43625)scale(0.24 -0.24)">
     <use xlink:href="#DejaVuSans-45"/>
     <use x="63.183594" xlink:href="#DejaVuSans-61"/>
     <use x="124.462891" xlink:href="#DejaVuSans-72"/>
     <use x="165.560547" xlink:href="#DejaVuSans-6e"/>
     <use x="228.939453" xlink:href="#DejaVuSans-69"/>
     <use x="256.722656" xlink:href="#DejaVuSans-6e"/>
     <use x="320.101562" xlink:href="#DejaVuSans-67"/>
     <use x="383.578125" xlink:href="#DejaVuSans-20"/>
     <use x="415.365234" xlink:href="#DejaVuSans-42"/>
     <use x="483.96875" xlink:href="#DejaVuSans-79"/>
     <use x="543.148438" xlink:href="#DejaVuSans-20"/>
     <use x="574.935547" xlink:href="#DejaVuSans-4c"/>
     <use x="630.632812" xlink:href="#DejaVuSans-65"/>
     <use x="692.15625" xlink:href="#DejaVuSans-76"/>
     <use x="751.335938" xlink:href="#DejaVuSans-65"/>
     <use x="812.859375" xlink:href="#DejaVuSans-6c"/>
     <use x="840.642578" xlink:href="#DejaVuSans-20"/>
     <use x="872.429688" xlink:href="#DejaVuSans-6f"/>
     <use x="933.611328" xlink:href="#DejaVuSans-66"/>
     <use x="968.816406" xlink:href="#DejaVuSans-20"/>
     <use x="1000.603516" xlink:href="#DejaVuSans-45"/>
     <use x="1063.787109" xlink:href="#DejaVuSans-64"/>
     <use x="1127.263672" xlink:href="#DejaVuSans-75"/>
     <use x="1190.642578" xlink:href="#DejaVuSans-63"/>
     <use x="1245.623047" xlink:href="#DejaVuSans-61"/>
     <use x="1306.902344" xlink:href="#DejaVuSans-74"/>
     <use x="1346.111328" xlink:href="#DejaVuSans-69"/>
     <use x="1373.894531" xlink:href="#DejaVuSans-6f"/>
     <use x="1435.076172" xlink:href="#DejaVuSans-6e"/>
    </g>
   </g>
  </g>
 </g>
 <defs>
  <clipPath id="p01cc0f2218">
   <rect height="761.04" width="669.6" x="485.458125" y="31.43625"/>
  </clipPath>
 </defs>
</svg>
