<?xml version="1.0" encoding="utf-8" standalone="no"?>
<!DOCTYPE svg PUBLIC "-//W3C//DTD SVG 1.1//EN"
  "http://www.w3.org/Graphics/SVG/1.1/DTD/svg11.dtd">
<!-- Created with matplotlib (http://matplotlib.org/) -->
<svg height="432pt" version="1.1" viewBox="0 0 432 432" width="432pt" xmlns="http://www.w3.org/2000/svg" xmlns:xlink="http://www.w3.org/1999/xlink">
 <defs>
  <style type="text/css">
*{stroke-linecap:butt;stroke-linejoin:round;}
  </style>
 </defs>
 <g id="figure_1">
  <g id="patch_1">
   <path d="M 0 432 
L 432 432 
L 432 0 
L 0 0 
z
" style="fill:#ffffff;"/>
  </g>
  <g id="axes_1">
   <g id="patch_2">
    <path d="M 50.74125 387.13375 
L 352.076591 387.13375 
L 352.076591 80.991591 
L 50.74125 80.991591 
z
" style="fill:#eaeaf2;"/>
   </g>
   <g id="matplotlib.axis_1">
    <g id="xtick_1">
     <g id="line2d_1">
      <path clip-path="url(#p766642370e)" d="M 53.053584 387.13375 
L 53.053584 80.991591 
" style="fill:none;stroke:#ffffff;stroke-linecap:round;"/>
     </g>
     <g id="line2d_2"/>
     <g id="text_1">
      <!-- 0 -->
      <defs>
       <path d="M 31.78125 66.40625 
Q 24.171875 66.40625 20.328125 58.90625 
Q 16.5 51.421875 16.5 36.375 
Q 16.5 21.390625 20.328125 13.890625 
Q 24.171875 6.390625 31.78125 6.390625 
Q 39.453125 6.390625 43.28125 13.890625 
Q 47.125 21.390625 47.125 36.375 
Q 47.125 51.421875 43.28125 58.90625 
Q 39.453125 66.40625 31.78125 66.40625 
z
M 31.78125 74.21875 
Q 44.046875 74.21875 50.515625 64.515625 
Q 56.984375 54.828125 56.984375 36.375 
Q 56.984375 17.96875 50.515625 8.265625 
Q 44.046875 -1.421875 31.78125 -1.421875 
Q 19.53125 -1.421875 13.0625 8.265625 
Q 6.59375 17.96875 6.59375 36.375 
Q 6.59375 54.828125 13.0625 64.515625 
Q 19.53125 74.21875 31.78125 74.21875 
z
" id="DejaVuSans-30"/>
      </defs>
      <g style="fill:#262626;" transform="translate(49.872334 401.732187)scale(0.1 -0.1)">
       <use xlink:href="#DejaVuSans-30"/>
      </g>
     </g>
    </g>
    <g id="xtick_2">
     <g id="line2d_3">
      <path clip-path="url(#p766642370e)" d="M 88.715582 387.13375 
L 88.715582 80.991591 
" style="fill:none;stroke:#ffffff;stroke-linecap:round;"/>
     </g>
     <g id="line2d_4"/>
     <g id="text_2">
      <!-- 25000 -->
      <defs>
       <path d="M 19.1875 8.296875 
L 53.609375 8.296875 
L 53.609375 0 
L 7.328125 0 
L 7.328125 8.296875 
Q 12.9375 14.109375 22.625 23.890625 
Q 32.328125 33.6875 34.8125 36.53125 
Q 39.546875 41.84375 41.421875 45.53125 
Q 43.3125 49.21875 43.3125 52.78125 
Q 43.3125 58.59375 39.234375 62.25 
Q 35.15625 65.921875 28.609375 65.921875 
Q 23.96875 65.921875 18.8125 64.3125 
Q 13.671875 62.703125 7.8125 59.421875 
L 7.8125 69.390625 
Q 13.765625 71.78125 18.9375 73 
Q 24.125 74.21875 28.421875 74.21875 
Q 39.75 74.21875 46.484375 68.546875 
Q 53.21875 62.890625 53.21875 53.421875 
Q 53.21875 48.921875 51.53125 44.890625 
Q 49.859375 40.875 45.40625 35.40625 
Q 44.1875 33.984375 37.640625 27.21875 
Q 31.109375 20.453125 19.1875 8.296875 
z
" id="DejaVuSans-32"/>
       <path d="M 10.796875 72.90625 
L 49.515625 72.90625 
L 49.515625 64.59375 
L 19.828125 64.59375 
L 19.828125 46.734375 
Q 21.96875 47.46875 24.109375 47.828125 
Q 26.265625 48.1875 28.421875 48.1875 
Q 40.625 48.1875 47.75 41.5 
Q 54.890625 34.8125 54.890625 23.390625 
Q 54.890625 11.625 47.5625 5.09375 
Q 40.234375 -1.421875 26.90625 -1.421875 
Q 22.3125 -1.421875 17.546875 -0.640625 
Q 12.796875 0.140625 7.71875 1.703125 
L 7.71875 11.625 
Q 12.109375 9.234375 16.796875 8.0625 
Q 21.484375 6.890625 26.703125 6.890625 
Q 35.15625 6.890625 40.078125 11.328125 
Q 45.015625 15.765625 45.015625 23.390625 
Q 45.015625 31 40.078125 35.4375 
Q 35.15625 39.890625 26.703125 39.890625 
Q 22.75 39.890625 18.8125 39.015625 
Q 14.890625 38.140625 10.796875 36.28125 
z
" id="DejaVuSans-35"/>
      </defs>
      <g style="fill:#262626;" transform="translate(72.809332 401.732187)scale(0.1 -0.1)">
       <use xlink:href="#DejaVuSans-32"/>
       <use x="63.623047" xlink:href="#DejaVuSans-35"/>
       <use x="127.246094" xlink:href="#DejaVuSans-30"/>
       <use x="190.869141" xlink:href="#DejaVuSans-30"/>
       <use x="254.492188" xlink:href="#DejaVuSans-30"/>
      </g>
     </g>
    </g>
    <g id="xtick_3">
     <g id="line2d_5">
      <path clip-path="url(#p766642370e)" d="M 124.377579 387.13375 
L 124.377579 80.991591 
" style="fill:none;stroke:#ffffff;stroke-linecap:round;"/>
     </g>
     <g id="line2d_6"/>
     <g id="text_3">
      <!-- 50000 -->
      <g style="fill:#262626;" transform="translate(108.471329 401.732187)scale(0.1 -0.1)">
       <use xlink:href="#DejaVuSans-35"/>
       <use x="63.623047" xlink:href="#DejaVuSans-30"/>
       <use x="127.246094" xlink:href="#DejaVuSans-30"/>
       <use x="190.869141" xlink:href="#DejaVuSans-30"/>
       <use x="254.492188" xlink:href="#DejaVuSans-30"/>
      </g>
     </g>
    </g>
    <g id="xtick_4">
     <g id="line2d_7">
      <path clip-path="url(#p766642370e)" d="M 160.039577 387.13375 
L 160.039577 80.991591 
" style="fill:none;stroke:#ffffff;stroke-linecap:round;"/>
     </g>
     <g id="line2d_8"/>
     <g id="text_4">
      <!-- 75000 -->
      <defs>
       <path d="M 8.203125 72.90625 
L 55.078125 72.90625 
L 55.078125 68.703125 
L 28.609375 0 
L 18.3125 0 
L 43.21875 64.59375 
L 8.203125 64.59375 
z
" id="DejaVuSans-37"/>
      </defs>
      <g style="fill:#262626;" transform="translate(144.133327 401.732187)scale(0.1 -0.1)">
       <use xlink:href="#DejaVuSans-37"/>
       <use x="63.623047" xlink:href="#DejaVuSans-35"/>
       <use x="127.246094" xlink:href="#DejaVuSans-30"/>
       <use x="190.869141" xlink:href="#DejaVuSans-30"/>
       <use x="254.492188" xlink:href="#DejaVuSans-30"/>
      </g>
     </g>
    </g>
    <g id="xtick_5">
     <g id="line2d_9">
      <path clip-path="url(#p766642370e)" d="M 195.701574 387.13375 
L 195.701574 80.991591 
" style="fill:none;stroke:#ffffff;stroke-linecap:round;"/>
     </g>
     <g id="line2d_10"/>
     <g id="text_5">
      <!-- 100000 -->
      <defs>
       <path d="M 12.40625 8.296875 
L 28.515625 8.296875 
L 28.515625 63.921875 
L 10.984375 60.40625 
L 10.984375 69.390625 
L 28.421875 72.90625 
L 38.28125 72.90625 
L 38.28125 8.296875 
L 54.390625 8.296875 
L 54.390625 0 
L 12.40625 0 
z
" id="DejaVuSans-31"/>
      </defs>
      <g style="fill:#262626;" transform="translate(176.614074 401.732187)scale(0.1 -0.1)">
       <use xlink:href="#DejaVuSans-31"/>
       <use x="63.623047" xlink:href="#DejaVuSans-30"/>
       <use x="127.246094" xlink:href="#DejaVuSans-30"/>
       <use x="190.869141" xlink:href="#DejaVuSans-30"/>
       <use x="254.492188" xlink:href="#DejaVuSans-30"/>
       <use x="318.115234" xlink:href="#DejaVuSans-30"/>
      </g>
     </g>
    </g>
    <g id="xtick_6">
     <g id="line2d_11">
      <path clip-path="url(#p766642370e)" d="M 231.363572 387.13375 
L 231.363572 80.991591 
" style="fill:none;stroke:#ffffff;stroke-linecap:round;"/>
     </g>
     <g id="line2d_12"/>
     <g id="text_6">
      <!-- 125000 -->
      <g style="fill:#262626;" transform="translate(212.276072 401.732187)scale(0.1 -0.1)">
       <use xlink:href="#DejaVuSans-31"/>
       <use x="63.623047" xlink:href="#DejaVuSans-32"/>
       <use x="127.246094" xlink:href="#DejaVuSans-35"/>
       <use x="190.869141" xlink:href="#DejaVuSans-30"/>
       <use x="254.492188" xlink:href="#DejaVuSans-30"/>
       <use x="318.115234" xlink:href="#DejaVuSans-30"/>
      </g>
     </g>
    </g>
    <g id="xtick_7">
     <g id="line2d_13">
      <path clip-path="url(#p766642370e)" d="M 267.025569 387.13375 
L 267.025569 80.991591 
" style="fill:none;stroke:#ffffff;stroke-linecap:round;"/>
     </g>
     <g id="line2d_14"/>
     <g id="text_7">
      <!-- 150000 -->
      <g style="fill:#262626;" transform="translate(247.938069 401.732187)scale(0.1 -0.1)">
       <use xlink:href="#DejaVuSans-31"/>
       <use x="63.623047" xlink:href="#DejaVuSans-35"/>
       <use x="127.246094" xlink:href="#DejaVuSans-30"/>
       <use x="190.869141" xlink:href="#DejaVuSans-30"/>
       <use x="254.492188" xlink:href="#DejaVuSans-30"/>
       <use x="318.115234" xlink:href="#DejaVuSans-30"/>
      </g>
     </g>
    </g>
    <g id="xtick_8">
     <g id="line2d_15">
      <path clip-path="url(#p766642370e)" d="M 302.687567 387.13375 
L 302.687567 80.991591 
" style="fill:none;stroke:#ffffff;stroke-linecap:round;"/>
     </g>
     <g id="line2d_16"/>
     <g id="text_8">
      <!-- 175000 -->
      <g style="fill:#262626;" transform="translate(283.600067 401.732187)scale(0.1 -0.1)">
       <use xlink:href="#DejaVuSans-31"/>
       <use x="63.623047" xlink:href="#DejaVuSans-37"/>
       <use x="127.246094" xlink:href="#DejaVuSans-35"/>
       <use x="190.869141" xlink:href="#DejaVuSans-30"/>
       <use x="254.492188" xlink:href="#DejaVuSans-30"/>
       <use x="318.115234" xlink:href="#DejaVuSans-30"/>
      </g>
     </g>
    </g>
    <g id="xtick_9">
     <g id="line2d_17">
      <path clip-path="url(#p766642370e)" d="M 338.349565 387.13375 
L 338.349565 80.991591 
" style="fill:none;stroke:#ffffff;stroke-linecap:round;"/>
     </g>
     <g id="line2d_18"/>
     <g id="text_9">
      <!-- 200000 -->
      <g style="fill:#262626;" transform="translate(319.262065 401.732187)scale(0.1 -0.1)">
       <use xlink:href="#DejaVuSans-32"/>
       <use x="63.623047" xlink:href="#DejaVuSans-30"/>
       <use x="127.246094" xlink:href="#DejaVuSans-30"/>
       <use x="190.869141" xlink:href="#DejaVuSans-30"/>
       <use x="254.492188" xlink:href="#DejaVuSans-30"/>
       <use x="318.115234" xlink:href="#DejaVuSans-30"/>
      </g>
     </g>
    </g>
    <g id="text_10">
     <!-- ern_val_male -->
     <defs>
      <path d="M 56.203125 29.59375 
L 56.203125 25.203125 
L 14.890625 25.203125 
Q 15.484375 15.921875 20.484375 11.0625 
Q 25.484375 6.203125 34.421875 6.203125 
Q 39.59375 6.203125 44.453125 7.46875 
Q 49.3125 8.734375 54.109375 11.28125 
L 54.109375 2.78125 
Q 49.265625 0.734375 44.1875 -0.34375 
Q 39.109375 -1.421875 33.890625 -1.421875 
Q 20.796875 -1.421875 13.15625 6.1875 
Q 5.515625 13.8125 5.515625 26.8125 
Q 5.515625 40.234375 12.765625 48.109375 
Q 20.015625 56 32.328125 56 
Q 43.359375 56 49.78125 48.890625 
Q 56.203125 41.796875 56.203125 29.59375 
z
M 47.21875 32.234375 
Q 47.125 39.59375 43.09375 43.984375 
Q 39.0625 48.390625 32.421875 48.390625 
Q 24.90625 48.390625 20.390625 44.140625 
Q 15.875 39.890625 15.1875 32.171875 
z
" id="DejaVuSans-65"/>
      <path d="M 41.109375 46.296875 
Q 39.59375 47.171875 37.8125 47.578125 
Q 36.03125 48 33.890625 48 
Q 26.265625 48 22.1875 43.046875 
Q 18.109375 38.09375 18.109375 28.8125 
L 18.109375 0 
L 9.078125 0 
L 9.078125 54.6875 
L 18.109375 54.6875 
L 18.109375 46.1875 
Q 20.953125 51.171875 25.484375 53.578125 
Q 30.03125 56 36.53125 56 
Q 37.453125 56 38.578125 55.875 
Q 39.703125 55.765625 41.0625 55.515625 
z
" id="DejaVuSans-72"/>
      <path d="M 54.890625 33.015625 
L 54.890625 0 
L 45.90625 0 
L 45.90625 32.71875 
Q 45.90625 40.484375 42.875 44.328125 
Q 39.84375 48.1875 33.796875 48.1875 
Q 26.515625 48.1875 22.3125 43.546875 
Q 18.109375 38.921875 18.109375 30.90625 
L 18.109375 0 
L 9.078125 0 
L 9.078125 54.6875 
L 18.109375 54.6875 
L 18.109375 46.1875 
Q 21.34375 51.125 25.703125 53.5625 
Q 30.078125 56 35.796875 56 
Q 45.21875 56 50.046875 50.171875 
Q 54.890625 44.34375 54.890625 33.015625 
z
" id="DejaVuSans-6e"/>
      <path d="M 50.984375 -16.609375 
L 50.984375 -23.578125 
L -0.984375 -23.578125 
L -0.984375 -16.609375 
z
" id="DejaVuSans-5f"/>
      <path d="M 2.984375 54.6875 
L 12.5 54.6875 
L 29.59375 8.796875 
L 46.6875 54.6875 
L 56.203125 54.6875 
L 35.6875 0 
L 23.484375 0 
z
" id="DejaVuSans-76"/>
      <path d="M 34.28125 27.484375 
Q 23.390625 27.484375 19.1875 25 
Q 14.984375 22.515625 14.984375 16.5 
Q 14.984375 11.71875 18.140625 8.90625 
Q 21.296875 6.109375 26.703125 6.109375 
Q 34.1875 6.109375 38.703125 11.40625 
Q 43.21875 16.703125 43.21875 25.484375 
L 43.21875 27.484375 
z
M 52.203125 31.203125 
L 52.203125 0 
L 43.21875 0 
L 43.21875 8.296875 
Q 40.140625 3.328125 35.546875 0.953125 
Q 30.953125 -1.421875 24.3125 -1.421875 
Q 15.921875 -1.421875 10.953125 3.296875 
Q 6 8.015625 6 15.921875 
Q 6 25.140625 12.171875 29.828125 
Q 18.359375 34.515625 30.609375 34.515625 
L 43.21875 34.515625 
L 43.21875 35.40625 
Q 43.21875 41.609375 39.140625 45 
Q 35.0625 48.390625 27.6875 48.390625 
Q 23 48.390625 18.546875 47.265625 
Q 14.109375 46.140625 10.015625 43.890625 
L 10.015625 52.203125 
Q 14.9375 54.109375 19.578125 55.046875 
Q 24.21875 56 28.609375 56 
Q 40.484375 56 46.34375 49.84375 
Q 52.203125 43.703125 52.203125 31.203125 
z
" id="DejaVuSans-61"/>
      <path d="M 9.421875 75.984375 
L 18.40625 75.984375 
L 18.40625 0 
L 9.421875 0 
z
" id="DejaVuSans-6c"/>
      <path d="M 52 44.1875 
Q 55.375 50.25 60.0625 53.125 
Q 64.75 56 71.09375 56 
Q 79.640625 56 84.28125 50.015625 
Q 88.921875 44.046875 88.921875 33.015625 
L 88.921875 0 
L 79.890625 0 
L 79.890625 32.71875 
Q 79.890625 40.578125 77.09375 44.375 
Q 74.3125 48.1875 68.609375 48.1875 
Q 61.625 48.1875 57.5625 43.546875 
Q 53.515625 38.921875 53.515625 30.90625 
L 53.515625 0 
L 44.484375 0 
L 44.484375 32.71875 
Q 44.484375 40.625 41.703125 44.40625 
Q 38.921875 48.1875 33.109375 48.1875 
Q 26.21875 48.1875 22.15625 43.53125 
Q 18.109375 38.875 18.109375 30.90625 
L 18.109375 0 
L 9.078125 0 
L 9.078125 54.6875 
L 18.109375 54.6875 
L 18.109375 46.1875 
Q 21.1875 51.21875 25.484375 53.609375 
Q 29.78125 56 35.6875 56 
Q 41.65625 56 45.828125 52.96875 
Q 50 49.953125 52 44.1875 
z
" id="DejaVuSans-6d"/>
     </defs>
     <g style="fill:#262626;" transform="translate(164.98517 416.170156)scale(0.11 -0.11)">
      <use xlink:href="#DejaVuSans-65"/>
      <use x="61.523438" xlink:href="#DejaVuSans-72"/>
      <use x="102.621094" xlink:href="#DejaVuSans-6e"/>
      <use x="166" xlink:href="#DejaVuSans-5f"/>
      <use x="216" xlink:href="#DejaVuSans-76"/>
      <use x="275.179688" xlink:href="#DejaVuSans-61"/>
      <use x="336.458984" xlink:href="#DejaVuSans-6c"/>
      <use x="364.242188" xlink:href="#DejaVuSans-5f"/>
      <use x="414.242188" xlink:href="#DejaVuSans-6d"/>
      <use x="511.654297" xlink:href="#DejaVuSans-61"/>
      <use x="572.933594" xlink:href="#DejaVuSans-6c"/>
      <use x="600.716797" xlink:href="#DejaVuSans-65"/>
     </g>
    </g>
   </g>
   <g id="matplotlib.axis_2">
    <g id="ytick_1">
     <g id="line2d_19">
      <path clip-path="url(#p766642370e)" d="M 50.74125 351.157014 
L 352.076591 351.157014 
" style="fill:none;stroke:#ffffff;stroke-linecap:round;"/>
     </g>
     <g id="line2d_20"/>
     <g id="text_11">
      <!-- 25000 -->
      <g style="fill:#262626;" transform="translate(11.92875 354.956233)scale(0.1 -0.1)">
       <use xlink:href="#DejaVuSans-32"/>
       <use x="63.623047" xlink:href="#DejaVuSans-35"/>
       <use x="127.246094" xlink:href="#DejaVuSans-30"/>
       <use x="190.869141" xlink:href="#DejaVuSans-30"/>
       <use x="254.492188" xlink:href="#DejaVuSans-30"/>
      </g>
     </g>
    </g>
    <g id="ytick_2">
     <g id="line2d_21">
      <path clip-path="url(#p766642370e)" d="M 50.74125 313.627016 
L 352.076591 313.627016 
" style="fill:none;stroke:#ffffff;stroke-linecap:round;"/>
     </g>
     <g id="line2d_22"/>
     <g id="text_12">
      <!-- 50000 -->
      <g style="fill:#262626;" transform="translate(11.92875 317.426235)scale(0.1 -0.1)">
       <use xlink:href="#DejaVuSans-35"/>
       <use x="63.623047" xlink:href="#DejaVuSans-30"/>
       <use x="127.246094" xlink:href="#DejaVuSans-30"/>
       <use x="190.869141" xlink:href="#DejaVuSans-30"/>
       <use x="254.492188" xlink:href="#DejaVuSans-30"/>
      </g>
     </g>
    </g>
    <g id="ytick_3">
     <g id="line2d_23">
      <path clip-path="url(#p766642370e)" d="M 50.74125 276.097019 
L 352.076591 276.097019 
" style="fill:none;stroke:#ffffff;stroke-linecap:round;"/>
     </g>
     <g id="line2d_24"/>
     <g id="text_13">
      <!-- 75000 -->
      <g style="fill:#262626;" transform="translate(11.92875 279.896237)scale(0.1 -0.1)">
       <use xlink:href="#DejaVuSans-37"/>
       <use x="63.623047" xlink:href="#DejaVuSans-35"/>
       <use x="127.246094" xlink:href="#DejaVuSans-30"/>
       <use x="190.869141" xlink:href="#DejaVuSans-30"/>
       <use x="254.492188" xlink:href="#DejaVuSans-30"/>
      </g>
     </g>
    </g>
    <g id="ytick_4">
     <g id="line2d_25">
      <path clip-path="url(#p766642370e)" d="M 50.74125 238.567021 
L 352.076591 238.567021 
" style="fill:none;stroke:#ffffff;stroke-linecap:round;"/>
     </g>
     <g id="line2d_26"/>
     <g id="text_14">
      <!-- 100000 -->
      <g style="fill:#262626;" transform="translate(5.56625 242.36624)scale(0.1 -0.1)">
       <use xlink:href="#DejaVuSans-31"/>
       <use x="63.623047" xlink:href="#DejaVuSans-30"/>
       <use x="127.246094" xlink:href="#DejaVuSans-30"/>
       <use x="190.869141" xlink:href="#DejaVuSans-30"/>
       <use x="254.492188" xlink:href="#DejaVuSans-30"/>
       <use x="318.115234" xlink:href="#DejaVuSans-30"/>
      </g>
     </g>
    </g>
    <g id="ytick_5">
     <g id="line2d_27">
      <path clip-path="url(#p766642370e)" d="M 50.74125 201.037023 
L 352.076591 201.037023 
" style="fill:none;stroke:#ffffff;stroke-linecap:round;"/>
     </g>
     <g id="line2d_28"/>
     <g id="text_15">
      <!-- 125000 -->
      <g style="fill:#262626;" transform="translate(5.56625 204.836242)scale(0.1 -0.1)">
       <use xlink:href="#DejaVuSans-31"/>
       <use x="63.623047" xlink:href="#DejaVuSans-32"/>
       <use x="127.246094" xlink:href="#DejaVuSans-35"/>
       <use x="190.869141" xlink:href="#DejaVuSans-30"/>
       <use x="254.492188" xlink:href="#DejaVuSans-30"/>
       <use x="318.115234" xlink:href="#DejaVuSans-30"/>
      </g>
     </g>
    </g>
    <g id="ytick_6">
     <g id="line2d_29">
      <path clip-path="url(#p766642370e)" d="M 50.74125 163.507025 
L 352.076591 163.507025 
" style="fill:none;stroke:#ffffff;stroke-linecap:round;"/>
     </g>
     <g id="line2d_30"/>
     <g id="text_16">
      <!-- 150000 -->
      <g style="fill:#262626;" transform="translate(5.56625 167.306244)scale(0.1 -0.1)">
       <use xlink:href="#DejaVuSans-31"/>
       <use x="63.623047" xlink:href="#DejaVuSans-35"/>
       <use x="127.246094" xlink:href="#DejaVuSans-30"/>
       <use x="190.869141" xlink:href="#DejaVuSans-30"/>
       <use x="254.492188" xlink:href="#DejaVuSans-30"/>
       <use x="318.115234" xlink:href="#DejaVuSans-30"/>
      </g>
     </g>
    </g>
    <g id="ytick_7">
     <g id="line2d_31">
      <path clip-path="url(#p766642370e)" d="M 50.74125 125.977028 
L 352.076591 125.977028 
" style="fill:none;stroke:#ffffff;stroke-linecap:round;"/>
     </g>
     <g id="line2d_32"/>
     <g id="text_17">
      <!-- 175000 -->
      <g style="fill:#262626;" transform="translate(5.56625 129.776246)scale(0.1 -0.1)">
       <use xlink:href="#DejaVuSans-31"/>
       <use x="63.623047" xlink:href="#DejaVuSans-37"/>
       <use x="127.246094" xlink:href="#DejaVuSans-35"/>
       <use x="190.869141" xlink:href="#DejaVuSans-30"/>
       <use x="254.492188" xlink:href="#DejaVuSans-30"/>
       <use x="318.115234" xlink:href="#DejaVuSans-30"/>
      </g>
     </g>
    </g>
    <g id="ytick_8">
     <g id="line2d_33">
      <path clip-path="url(#p766642370e)" d="M 50.74125 88.44703 
L 352.076591 88.44703 
" style="fill:none;stroke:#ffffff;stroke-linecap:round;"/>
     </g>
     <g id="line2d_34"/>
     <g id="text_18">
      <!-- 200000 -->
      <g style="fill:#262626;" transform="translate(5.56625 92.246249)scale(0.1 -0.1)">
       <use xlink:href="#DejaVuSans-32"/>
       <use x="63.623047" xlink:href="#DejaVuSans-30"/>
       <use x="127.246094" xlink:href="#DejaVuSans-30"/>
       <use x="190.869141" xlink:href="#DejaVuSans-30"/>
       <use x="254.492188" xlink:href="#DejaVuSans-30"/>
       <use x="318.115234" xlink:href="#DejaVuSans-30"/>
      </g>
     </g>
    </g>
    <g id="text_19">
     <!-- ern_val_female -->
     <defs>
      <path d="M 37.109375 75.984375 
L 37.109375 68.5 
L 28.515625 68.5 
Q 23.6875 68.5 21.796875 66.546875 
Q 19.921875 64.59375 19.921875 59.515625 
L 19.921875 54.6875 
L 34.71875 54.6875 
L 34.71875 47.703125 
L 19.921875 47.703125 
L 19.921875 0 
L 10.890625 0 
L 10.890625 47.703125 
L 2.296875 47.703125 
L 2.296875 54.6875 
L 10.890625 54.6875 
L 10.890625 58.5 
Q 10.890625 67.625 15.140625 71.796875 
Q 19.390625 75.984375 28.609375 75.984375 
z
" id="DejaVuSans-66"/>
     </defs>
     <g style="fill:#262626;" transform="translate(-1.027344 275.806811)rotate(-90)scale(0.11 -0.11)">
      <use xlink:href="#DejaVuSans-65"/>
      <use x="61.523438" xlink:href="#DejaVuSans-72"/>
      <use x="102.621094" xlink:href="#DejaVuSans-6e"/>
      <use x="166" xlink:href="#DejaVuSans-5f"/>
      <use x="216" xlink:href="#DejaVuSans-76"/>
      <use x="275.179688" xlink:href="#DejaVuSans-61"/>
      <use x="336.458984" xlink:href="#DejaVuSans-6c"/>
      <use x="364.242188" xlink:href="#DejaVuSans-5f"/>
      <use x="414.242188" xlink:href="#DejaVuSans-66"/>
      <use x="449.447266" xlink:href="#DejaVuSans-65"/>
      <use x="510.970703" xlink:href="#DejaVuSans-6d"/>
      <use x="608.382812" xlink:href="#DejaVuSans-61"/>
      <use x="669.662109" xlink:href="#DejaVuSans-6c"/>
      <use x="697.445312" xlink:href="#DejaVuSans-65"/>
     </g>
    </g>
   </g>
   <g id="PathCollection_1">
    <path clip-path="url(#p766642370e)" d="M 53.785041 387.13375 
L 56.828833 387.13375 
L 59.872624 387.13375 
L 62.916415 387.13375 
L 65.960207 387.13375 
L 69.003998 387.13375 
L 72.047789 387.13375 
L 75.091581 387.13375 
L 78.135372 387.13375 
L 81.179163 387.13375 
L 84.222955 387.13375 
L 87.266746 387.13375 
L 90.310537 387.13375 
L 93.354329 387.13375 
L 96.39812 387.13375 
L 99.441911 387.13375 
L 102.485702 387.13375 
L 105.529494 387.13375 
L 108.573285 387.13375 
L 111.617076 387.13375 
L 114.660868 387.13375 
L 117.704659 387.13375 
L 120.74845 387.13375 
L 123.792242 387.13375 
L 126.836033 387.13375 
L 129.879824 387.13375 
L 132.923616 387.13375 
L 135.967407 387.13375 
L 139.011198 387.13375 
L 142.05499 387.13375 
L 145.098781 387.13375 
L 148.142572 387.13375 
L 151.186364 387.13375 
L 154.230155 387.13375 
L 157.273946 387.13375 
L 160.317738 387.13375 
L 163.361529 387.13375 
L 166.40532 387.13375 
L 169.449112 387.13375 
L 172.492903 387.13375 
L 175.536694 387.13375 
L 178.580486 387.13375 
L 181.624277 387.13375 
L 184.668068 387.13375 
L 187.71186 387.13375 
L 190.755651 387.13375 
L 193.799442 387.13375 
L 196.843233 387.13375 
L 199.887025 387.13375 
L 202.930816 387.13375 
L 205.974607 387.13375 
L 209.018399 387.13375 
L 212.06219 387.13375 
L 215.105981 387.13375 
L 218.149773 387.13375 
L 221.193564 387.13375 
L 224.237355 387.13375 
L 227.281147 387.13375 
L 230.324938 387.13375 
L 233.368729 387.13375 
L 236.412521 387.13375 
L 239.456312 387.13375 
L 242.500103 387.13375 
L 245.543895 387.13375 
L 248.587686 387.13375 
L 251.631477 387.13375 
L 254.675269 387.13375 
L 257.71906 387.13375 
L 260.762851 387.13375 
L 263.806643 387.13375 
L 266.850434 387.13375 
L 269.894225 387.13375 
L 272.938017 387.13375 
L 275.981808 387.13375 
L 279.025599 387.13375 
L 282.06939 387.13375 
L 285.113182 387.13375 
L 288.156973 387.13375 
L 291.200764 387.13375 
L 294.244556 387.13375 
L 297.288347 387.13375 
L 300.332138 387.13375 
L 303.37593 387.13375 
L 306.419721 387.13375 
L 309.463512 387.13375 
L 312.507304 387.13375 
L 315.551095 387.13375 
L 318.594886 387.13375 
L 321.638678 387.13375 
L 324.682469 387.13375 
L 327.72626 387.13375 
L 330.770052 387.13375 
L 333.813843 387.13375 
L 336.857634 387.13375 
L 339.901426 387.13375 
L 342.945217 387.13375 
L 345.989008 387.13375 
L 349.0328 387.13375 
L 352.076591 387.13375 
L 352.076591 384.041405 
L 352.076591 380.94906 
L 352.076591 377.856715 
L 352.076591 374.76437 
L 352.076591 371.672025 
L 352.076591 368.57968 
L 352.076591 365.487335 
L 352.076591 362.39499 
L 352.076591 359.302645 
L 352.076591 356.2103 
L 352.076591 353.117955 
L 352.076591 350.02561 
L 352.076591 346.933264 
L 352.076591 343.840919 
L 352.076591 340.748574 
L 352.076591 337.656229 
L 352.076591 334.563884 
L 352.076591 331.471539 
L 352.076591 328.379194 
L 352.076591 325.286849 
L 352.076591 322.194504 
L 352.076591 319.102159 
L 352.076591 316.009814 
L 352.076591 312.917469 
L 352.076591 309.825124 
L 352.076591 306.732779 
L 352.076591 303.640434 
L 352.076591 300.548089 
L 352.076591 297.455744 
L 352.076591 294.363399 
L 352.076591 291.271054 
L 352.076591 288.178709 
L 352.076591 285.086364 
L 352.076591 281.994019 
L 352.076591 278.901674 
L 352.076591 275.809329 
L 352.076591 272.716983 
L 352.076591 269.624638 
L 352.076591 266.532293 
L 352.076591 263.439948 
L 352.076591 260.347603 
L 352.076591 257.255258 
L 352.076591 254.162913 
L 352.076591 251.070568 
L 352.076591 247.978223 
L 352.076591 244.885878 
L 352.076591 241.793533 
L 352.076591 238.701188 
L 352.076591 235.608843 
L 352.076591 232.516498 
L 352.076591 229.424153 
L 352.076591 226.331808 
L 352.076591 223.239463 
L 352.076591 220.147118 
L 352.076591 217.054773 
L 352.076591 213.962428 
L 352.076591 210.870083 
L 352.076591 207.777738 
L 352.076591 204.685393 
L 352.076591 201.593048 
L 352.076591 198.500702 
L 352.076591 195.408357 
L 352.076591 192.316012 
L 352.076591 189.223667 
L 352.076591 186.131322 
L 352.076591 183.038977 
L 352.076591 179.946632 
L 352.076591 176.854287 
L 352.076591 173.761942 
L 352.076591 170.669597 
L 352.076591 167.577252 
L 352.076591 164.484907 
L 352.076591 161.392562 
L 352.076591 158.300217 
L 352.076591 155.207872 
L 352.076591 152.115527 
L 352.076591 149.023182 
L 352.076591 145.930837 
L 352.076591 142.838492 
L 352.076591 139.746147 
L 352.076591 136.653802 
L 352.076591 133.561457 
L 352.076591 130.469112 
L 352.076591 127.376767 
L 352.076591 124.284421 
L 352.076591 121.192076 
L 352.076591 118.099731 
L 352.076591 115.007386 
L 352.076591 111.915041 
L 352.076591 108.822696 
L 352.076591 105.730351 
L 352.076591 102.638006 
L 352.076591 99.545661 
L 352.076591 96.453316 
L 352.076591 93.360971 
L 352.076591 90.268626 
L 352.076591 87.176281 
L 352.076591 84.083936 
L 352.076591 80.991591 
L 349.0328 80.991591 
L 345.989008 80.991591 
L 342.945217 80.991591 
L 339.901426 80.991591 
L 336.857634 80.991591 
L 333.813843 80.991591 
L 330.770052 80.991591 
L 327.72626 80.991591 
L 324.682469 80.991591 
L 321.638678 80.991591 
L 318.594886 80.991591 
L 315.551095 80.991591 
L 312.507304 80.991591 
L 309.463512 80.991591 
L 306.419721 80.991591 
L 303.37593 80.991591 
L 300.332138 80.991591 
L 297.288347 80.991591 
L 294.244556 80.991591 
L 291.200764 80.991591 
L 288.156973 80.991591 
L 285.113182 80.991591 
L 282.06939 80.991591 
L 279.025599 80.991591 
L 275.981808 80.991591 
L 272.938017 80.991591 
L 269.894225 80.991591 
L 266.850434 80.991591 
L 263.806643 80.991591 
L 260.762851 80.991591 
L 257.71906 80.991591 
L 254.675269 80.991591 
L 251.631477 80.991591 
L 248.587686 80.991591 
L 245.543895 80.991591 
L 242.500103 80.991591 
L 239.456312 80.991591 
L 236.412521 80.991591 
L 233.368729 80.991591 
L 230.324938 80.991591 
L 227.281147 80.991591 
L 224.237355 80.991591 
L 221.193564 80.991591 
L 218.149773 80.991591 
L 215.105981 80.991591 
L 212.06219 80.991591 
L 209.018399 80.991591 
L 205.974607 80.991591 
L 202.930816 80.991591 
L 199.887025 80.991591 
L 196.843233 80.991591 
L 193.799442 80.991591 
L 190.755651 80.991591 
L 187.71186 80.991591 
L 184.668068 80.991591 
L 181.624277 80.991591 
L 178.580486 80.991591 
L 175.536694 80.991591 
L 172.492903 80.991591 
L 169.449112 80.991591 
L 166.40532 80.991591 
L 163.361529 80.991591 
L 160.317738 80.991591 
L 157.273946 80.991591 
L 154.230155 80.991591 
L 151.186364 80.991591 
L 148.142572 80.991591 
L 145.098781 80.991591 
L 142.05499 80.991591 
L 139.011198 80.991591 
L 135.967407 80.991591 
L 132.923616 80.991591 
L 129.879824 80.991591 
L 126.836033 80.991591 
L 123.792242 80.991591 
L 120.74845 80.991591 
L 117.704659 80.991591 
L 114.660868 80.991591 
L 111.617076 80.991591 
L 108.573285 80.991591 
L 105.529494 80.991591 
L 102.485702 80.991591 
L 99.441911 80.991591 
L 96.39812 80.991591 
L 93.354329 80.991591 
L 90.310537 80.991591 
L 87.266746 80.991591 
L 84.222955 80.991591 
L 81.179163 80.991591 
L 78.135372 80.991591 
L 75.091581 80.991591 
L 72.047789 80.991591 
L 69.003998 80.991591 
L 65.960207 80.991591 
L 62.916415 80.991591 
L 59.872624 80.991591 
L 56.828833 80.991591 
L 53.785041 80.991591 
L 50.74125 80.991591 
L 50.74125 84.083936 
L 50.74125 87.176281 
L 50.74125 90.268626 
L 50.74125 93.360971 
L 50.74125 96.453316 
L 50.74125 99.545661 
L 50.74125 102.638006 
L 50.74125 105.730351 
L 50.74125 108.822696 
L 50.74125 111.915041 
L 50.74125 115.007386 
L 50.74125 118.099731 
L 50.74125 121.192076 
L 50.74125 124.284421 
L 50.74125 127.376767 
L 50.74125 130.469112 
L 50.74125 133.561457 
L 50.74125 136.653802 
L 50.74125 139.746147 
L 50.74125 142.838492 
L 50.74125 145.930837 
L 50.74125 149.023182 
L 50.74125 152.115527 
L 50.74125 155.207872 
L 50.74125 158.300217 
L 50.74125 161.392562 
L 50.74125 164.484907 
L 50.74125 167.577252 
L 50.74125 170.669597 
L 50.74125 173.761942 
L 50.74125 176.854287 
L 50.74125 179.946632 
L 50.74125 183.038977 
L 50.74125 186.131322 
L 50.74125 189.223667 
L 50.74125 192.316012 
L 50.74125 195.408357 
L 50.74125 198.500702 
L 50.74125 201.593048 
L 50.74125 204.685393 
L 50.74125 207.777738 
L 50.74125 210.870083 
L 50.74125 213.962428 
L 50.74125 217.054773 
L 50.74125 220.147118 
L 50.74125 223.239463 
L 50.74125 226.331808 
L 50.74125 229.424153 
L 50.74125 232.516498 
L 50.74125 235.608843 
L 50.74125 238.701188 
L 50.74125 241.793533 
L 50.74125 244.885878 
L 50.74125 247.978223 
L 50.74125 251.070568 
L 50.74125 254.162913 
L 50.74125 257.255258 
L 50.74125 260.347603 
L 50.74125 263.439948 
L 50.74125 266.532293 
L 50.74125 269.624638 
L 50.74125 272.716983 
L 50.74125 275.809329 
L 50.74125 278.901674 
L 50.74125 281.994019 
L 50.74125 285.086364 
L 50.74125 288.178709 
L 50.74125 291.271054 
L 50.74125 294.363399 
L 50.74125 297.455744 
L 50.74125 300.548089 
L 50.74125 303.640434 
L 50.74125 306.732779 
L 50.74125 309.825124 
L 50.74125 312.917469 
L 50.74125 316.009814 
L 50.74125 319.102159 
L 50.74125 322.194504 
L 50.74125 325.286849 
L 50.74125 328.379194 
L 50.74125 331.471539 
L 50.74125 334.563884 
L 50.74125 337.656229 
L 50.74125 340.748574 
L 50.74125 343.840919 
L 50.74125 346.933264 
L 50.74125 350.02561 
L 50.74125 353.117955 
L 50.74125 356.2103 
L 50.74125 359.302645 
L 50.74125 362.39499 
L 50.74125 365.487335 
L 50.74125 368.57968 
L 50.74125 371.672025 
L 50.74125 374.76437 
L 50.74125 377.856715 
L 50.74125 380.94906 
L 50.74125 384.041405 
L 50.74125 387.13375 
z
M 75.786138 377.856715 
L 75.091581 377.805497 
L 72.047789 377.388533 
L 69.003998 376.454396 
L 66.469451 374.76437 
L 65.960207 374.297335 
L 63.881515 371.672025 
L 63.149418 368.57968 
L 63.16016 365.487335 
L 63.454466 362.39499 
L 63.817754 359.302645 
L 64.250435 356.2103 
L 64.760477 353.117955 
L 65.182315 350.02561 
L 65.422577 346.933264 
L 65.704981 343.840919 
L 65.960207 342.270947 
L 66.166192 340.748574 
L 66.589056 337.656229 
L 66.89345 334.563884 
L 67.300961 331.471539 
L 68.128586 328.379194 
L 69.003998 326.356985 
L 69.501514 325.286849 
L 70.92581 322.194504 
L 71.682227 319.102159 
L 71.839635 316.009814 
L 72.047789 314.904179 
L 72.583803 312.917469 
L 75.091581 310.047424 
L 75.427831 309.825124 
L 78.135372 308.159214 
L 80.285523 306.732779 
L 81.179163 305.426155 
L 82.099307 303.640434 
L 82.397106 300.548089 
L 83.90844 297.455744 
L 84.222955 297.19483 
L 87.266746 295.086112 
L 88.793009 294.363399 
L 90.310537 293.642642 
L 93.354329 292.481181 
L 96.356112 291.271054 
L 96.39812 291.230015 
L 99.441911 288.435629 
L 99.815638 288.178709 
L 102.485702 286.327974 
L 105.529494 285.636103 
L 108.573285 285.701584 
L 111.617076 286.238132 
L 114.660868 286.59008 
L 117.704659 285.880781 
L 119.119988 285.086364 
L 120.74845 283.709742 
L 123.792242 282.050534 
L 126.836033 283.209709 
L 129.070166 285.086364 
L 129.879824 285.749641 
L 132.923616 287.272706 
L 135.967407 287.434709 
L 139.011198 287.197761 
L 142.05499 286.899224 
L 145.098781 286.521859 
L 148.142572 286.033486 
L 151.186364 285.49083 
L 154.230155 287.404469 
L 154.350157 288.178709 
L 155.337994 291.271054 
L 157.273946 293.564981 
L 158.300889 294.363399 
L 160.317738 295.333459 
L 163.361529 296.695273 
L 164.611426 297.455744 
L 165.436102 300.548089 
L 163.825883 303.640434 
L 164.951573 306.732779 
L 166.40532 307.500865 
L 169.449112 309.71323 
L 169.56779 309.825124 
L 172.386137 312.917469 
L 172.492903 313.279749 
L 173.508382 316.009814 
L 174.095618 319.102159 
L 175.536694 321.826157 
L 175.880197 322.194504 
L 178.580486 325.133637 
L 178.748253 325.286849 
L 181.000064 328.379194 
L 181.624277 329.531776 
L 184.668068 330.737317 
L 185.797336 328.379194 
L 187.71186 326.697417 
L 188.793897 325.286849 
L 190.755651 322.970154 
L 191.717005 322.194504 
L 190.755651 320.149418 
L 190.481501 319.102159 
L 189.153779 316.009814 
L 189.712262 312.917469 
L 190.755651 311.551311 
L 192.361022 309.825124 
L 193.799442 308.424107 
L 196.843233 308.236259 
L 198.458633 309.825124 
L 199.887025 311.854407 
L 200.337699 312.917469 
L 199.986977 316.009814 
L 199.887025 316.219716 
L 197.913804 319.102159 
L 196.843233 321.899231 
L 196.427869 322.194504 
L 196.843233 322.446208 
L 198.143211 325.286849 
L 199.887025 328.066677 
L 200.039503 328.379194 
L 200.711425 331.471539 
L 200.697511 334.563884 
L 200.676536 337.656229 
L 200.763891 340.748574 
L 200.690993 343.840919 
L 200.406983 346.933264 
L 200.082243 350.02561 
L 199.887025 351.627698 
L 199.667125 353.117955 
L 199.387934 356.2103 
L 199.546167 359.302645 
L 199.887025 361.578417 
L 199.99548 362.39499 
L 200.278225 365.487335 
L 199.887025 366.719314 
L 199.183503 368.57968 
L 196.843233 370.294748 
L 193.799442 370.923066 
L 190.755651 370.209923 
L 187.71186 369.13147 
L 184.668068 368.96214 
L 181.624277 369.553572 
L 178.580486 370.049413 
L 175.536694 370.447684 
L 172.492903 371.172588 
L 171.120684 371.672025 
L 169.449112 372.044247 
L 166.40532 372.789722 
L 163.361529 373.423067 
L 160.317738 373.923185 
L 157.273946 374.298911 
L 154.230155 374.575532 
L 151.897772 374.76437 
L 151.186364 374.835933 
L 148.142572 375.222548 
L 145.098781 375.685478 
L 142.05499 376.106271 
L 139.011198 376.39748 
L 135.967407 376.601992 
L 132.923616 376.844012 
L 129.879824 377.164726 
L 126.836033 377.454355 
L 123.792242 377.60952 
L 120.74845 377.645184 
L 117.704659 377.673176 
L 114.660868 377.787766 
L 113.463647 377.856715 
L 111.617076 378.056763 
L 108.573285 378.323111 
L 105.529494 378.463385 
L 102.485702 378.537606 
L 99.441911 378.612499 
L 96.39812 378.696744 
L 93.354329 378.761359 
L 90.310537 378.779911 
L 87.266746 378.735669 
L 84.222955 378.622608 
L 81.179163 378.444054 
L 78.135372 378.184014 
z
" style="fill:#eef2f8;"/>
   </g>
   <g id="PathCollection_2">
    <path clip-path="url(#p766642370e)" d="M 78.135372 378.184014 
L 81.179163 378.444054 
L 84.222955 378.622608 
L 87.266746 378.735669 
L 90.310537 378.779911 
L 93.354329 378.761359 
L 96.39812 378.696744 
L 99.441911 378.612499 
L 102.485702 378.537606 
L 105.529494 378.463385 
L 108.573285 378.323111 
L 111.617076 378.056763 
L 113.463647 377.856715 
L 114.660868 377.787766 
L 117.704659 377.673176 
L 120.74845 377.645184 
L 123.792242 377.60952 
L 126.836033 377.454355 
L 129.879824 377.164726 
L 132.923616 376.844012 
L 135.967407 376.601992 
L 139.011198 376.39748 
L 142.05499 376.106271 
L 145.098781 375.685478 
L 148.142572 375.222548 
L 151.186364 374.835933 
L 151.897772 374.76437 
L 154.230155 374.575532 
L 157.273946 374.298911 
L 160.317738 373.923185 
L 163.361529 373.423067 
L 166.40532 372.789722 
L 169.449112 372.044247 
L 171.120684 371.672025 
L 172.492903 371.172588 
L 175.536694 370.447684 
L 178.580486 370.049413 
L 181.624277 369.553572 
L 184.668068 368.96214 
L 187.71186 369.13147 
L 190.755651 370.209923 
L 193.799442 370.923066 
L 196.843233 370.294748 
L 199.183503 368.57968 
L 199.887025 366.719314 
L 200.278225 365.487335 
L 199.99548 362.39499 
L 199.887025 361.578417 
L 199.546167 359.302645 
L 199.387934 356.2103 
L 199.667125 353.117955 
L 199.887025 351.627698 
L 200.082243 350.02561 
L 200.406983 346.933264 
L 200.690993 343.840919 
L 200.763891 340.748574 
L 200.676536 337.656229 
L 200.697511 334.563884 
L 200.711425 331.471539 
L 200.039503 328.379194 
L 199.887025 328.066677 
L 198.143211 325.286849 
L 196.843233 322.446208 
L 196.427869 322.194504 
L 196.843233 321.899231 
L 197.913804 319.102159 
L 199.887025 316.219716 
L 199.986977 316.009814 
L 200.337699 312.917469 
L 199.887025 311.854407 
L 198.458633 309.825124 
L 196.843233 308.236259 
L 193.799442 308.424107 
L 192.361022 309.825124 
L 190.755651 311.551311 
L 189.712262 312.917469 
L 189.153779 316.009814 
L 190.481501 319.102159 
L 190.755651 320.149418 
L 191.717005 322.194504 
L 190.755651 322.970154 
L 188.793897 325.286849 
L 187.71186 326.697417 
L 185.797336 328.379194 
L 184.668068 330.737317 
L 181.624277 329.531776 
L 181.000064 328.379194 
L 178.748253 325.286849 
L 178.580486 325.133637 
L 175.880197 322.194504 
L 175.536694 321.826157 
L 174.095618 319.102159 
L 173.508382 316.009814 
L 172.492903 313.279749 
L 172.386137 312.917469 
L 169.56779 309.825124 
L 169.449112 309.71323 
L 166.40532 307.500865 
L 164.951573 306.732779 
L 163.825883 303.640434 
L 165.436102 300.548089 
L 164.611426 297.455744 
L 163.361529 296.695273 
L 160.317738 295.333459 
L 158.300889 294.363399 
L 157.273946 293.564981 
L 155.337994 291.271054 
L 154.350157 288.178709 
L 154.230155 287.404469 
L 151.186364 285.49083 
L 148.142572 286.033486 
L 145.098781 286.521859 
L 142.05499 286.899224 
L 139.011198 287.197761 
L 135.967407 287.434709 
L 132.923616 287.272706 
L 129.879824 285.749641 
L 129.070166 285.086364 
L 126.836033 283.209709 
L 123.792242 282.050534 
L 120.74845 283.709742 
L 119.119988 285.086364 
L 117.704659 285.880781 
L 114.660868 286.59008 
L 111.617076 286.238132 
L 108.573285 285.701584 
L 105.529494 285.636103 
L 102.485702 286.327974 
L 99.815638 288.178709 
L 99.441911 288.435629 
L 96.39812 291.230015 
L 96.356112 291.271054 
L 93.354329 292.481181 
L 90.310537 293.642642 
L 88.793009 294.363399 
L 87.266746 295.086112 
L 84.222955 297.19483 
L 83.90844 297.455744 
L 82.397106 300.548089 
L 82.099307 303.640434 
L 81.179163 305.426155 
L 80.285523 306.732779 
L 78.135372 308.159214 
L 75.427831 309.825124 
L 75.091581 310.047424 
L 72.583803 312.917469 
L 72.047789 314.904179 
L 71.839635 316.009814 
L 71.682227 319.102159 
L 70.92581 322.194504 
L 69.501514 325.286849 
L 69.003998 326.356985 
L 68.128586 328.379194 
L 67.300961 331.471539 
L 66.89345 334.563884 
L 66.589056 337.656229 
L 66.166192 340.748574 
L 65.960207 342.270947 
L 65.704981 343.840919 
L 65.422577 346.933264 
L 65.182315 350.02561 
L 64.760477 353.117955 
L 64.250435 356.2103 
L 63.817754 359.302645 
L 63.454466 362.39499 
L 63.16016 365.487335 
L 63.149418 368.57968 
L 63.881515 371.672025 
L 65.960207 374.297335 
L 66.469451 374.76437 
L 69.003998 376.454396 
L 72.047789 377.388533 
L 75.091581 377.805497 
L 75.786138 377.856715 
z
M 71.801467 374.76437 
L 69.003998 373.334766 
L 67.26938 371.672025 
L 66.052342 368.57968 
L 65.989641 365.487335 
L 66.370643 362.39499 
L 66.906943 359.302645 
L 67.578446 356.2103 
L 68.35505 353.117955 
L 69.003998 350.13811 
L 69.02795 350.02561 
L 69.468613 346.933264 
L 69.984812 343.840919 
L 70.78746 340.748574 
L 71.676258 337.656229 
L 72.047789 336.005833 
L 72.479502 334.563884 
L 73.389885 331.471539 
L 74.727716 328.379194 
L 75.091581 327.815361 
L 77.038437 325.286849 
L 78.135372 323.96618 
L 79.936124 322.194504 
L 81.179163 320.77477 
L 83.133235 319.102159 
L 84.222955 317.931719 
L 86.28814 316.009814 
L 87.266746 315.044676 
L 90.027628 312.917469 
L 90.310537 312.729098 
L 93.354329 311.489731 
L 96.39812 310.778517 
L 99.441911 310.024849 
L 99.955376 309.825124 
L 102.485702 308.511752 
L 105.529494 307.009904 
L 106.142971 306.732779 
L 108.573285 304.500946 
L 110.007896 303.640434 
L 111.617076 301.447193 
L 112.930839 300.548089 
L 114.660868 300.086681 
L 117.704659 299.16257 
L 120.74845 298.399314 
L 123.792242 298.401797 
L 126.836033 299.082739 
L 129.879824 299.622096 
L 132.923616 299.14138 
L 135.967407 297.663485 
L 136.906846 297.455744 
L 139.011198 297.165878 
L 139.775644 297.455744 
L 142.040752 300.548089 
L 141.869768 303.640434 
L 142.05499 304.511985 
L 142.437018 306.732779 
L 144.369366 309.825124 
L 145.098781 310.84834 
L 147.20803 312.917469 
L 148.142572 314.436774 
L 149.787827 316.009814 
L 150.932272 319.102159 
L 151.186364 319.517283 
L 152.828854 322.194504 
L 154.230155 323.247279 
L 157.273946 324.853872 
L 158.16462 325.286849 
L 160.317738 326.235347 
L 163.361529 328.298438 
L 163.443269 328.379194 
L 164.944535 331.471539 
L 165.245986 334.563884 
L 165.132519 337.656229 
L 165.346436 340.748574 
L 165.946258 343.840919 
L 166.40532 345.549063 
L 166.704784 346.933264 
L 167.751021 350.02561 
L 168.498311 353.117955 
L 168.267391 356.2103 
L 167.232883 359.302645 
L 166.40532 361.002062 
L 165.683701 362.39499 
L 164.05818 365.487335 
L 163.361529 366.250903 
L 160.703562 368.57968 
L 160.317738 368.735998 
L 157.273946 369.640995 
L 154.230155 370.240534 
L 151.186364 370.802351 
L 148.142572 371.560797 
L 147.809555 371.672025 
L 145.098781 372.339607 
L 142.05499 373.003365 
L 139.011198 373.438127 
L 135.967407 373.718657 
L 132.923616 374.043644 
L 129.879824 374.497222 
L 128.043875 374.76437 
L 126.836033 374.970305 
L 123.792242 375.274169 
L 120.74845 375.353791 
L 117.704659 375.410924 
L 114.660868 375.61735 
L 111.617076 375.923024 
L 108.573285 376.179472 
L 105.529494 376.335785 
L 102.485702 376.437668 
L 99.441911 376.532919 
L 96.39812 376.621226 
L 93.354329 376.679684 
L 90.310537 376.693149 
L 87.266746 376.652518 
L 84.222955 376.552943 
L 81.179163 376.393957 
L 78.135372 376.153801 
L 75.091581 375.73467 
L 72.047789 374.878074 
z
" style="fill:#cad5e8;"/>
   </g>
   <g id="PathCollection_3">
    <path clip-path="url(#p766642370e)" d="M 72.047789 374.878074 
L 75.091581 375.73467 
L 78.135372 376.153801 
L 81.179163 376.393957 
L 84.222955 376.552943 
L 87.266746 376.652518 
L 90.310537 376.693149 
L 93.354329 376.679684 
L 96.39812 376.621226 
L 99.441911 376.532919 
L 102.485702 376.437668 
L 105.529494 376.335785 
L 108.573285 376.179472 
L 111.617076 375.923024 
L 114.660868 375.61735 
L 117.704659 375.410924 
L 120.74845 375.353791 
L 123.792242 375.274169 
L 126.836033 374.970305 
L 128.043875 374.76437 
L 129.879824 374.497222 
L 132.923616 374.043644 
L 135.967407 373.718657 
L 139.011198 373.438127 
L 142.05499 373.003365 
L 145.098781 372.339607 
L 147.809555 371.672025 
L 148.142572 371.560797 
L 151.186364 370.802351 
L 154.230155 370.240534 
L 157.273946 369.640995 
L 160.317738 368.735998 
L 160.703562 368.57968 
L 163.361529 366.250903 
L 164.05818 365.487335 
L 165.683701 362.39499 
L 166.40532 361.002062 
L 167.232883 359.302645 
L 168.267391 356.2103 
L 168.498311 353.117955 
L 167.751021 350.02561 
L 166.704784 346.933264 
L 166.40532 345.549063 
L 165.946258 343.840919 
L 165.346436 340.748574 
L 165.132519 337.656229 
L 165.245986 334.563884 
L 164.944535 331.471539 
L 163.443269 328.379194 
L 163.361529 328.298438 
L 160.317738 326.235347 
L 158.16462 325.286849 
L 157.273946 324.853872 
L 154.230155 323.247279 
L 152.828854 322.194504 
L 151.186364 319.517283 
L 150.932272 319.102159 
L 149.787827 316.009814 
L 148.142572 314.436774 
L 147.20803 312.917469 
L 145.098781 310.84834 
L 144.369366 309.825124 
L 142.437018 306.732779 
L 142.05499 304.511985 
L 141.869768 303.640434 
L 142.040752 300.548089 
L 139.775644 297.455744 
L 139.011198 297.165878 
L 136.906846 297.455744 
L 135.967407 297.663485 
L 132.923616 299.14138 
L 129.879824 299.622096 
L 126.836033 299.082739 
L 123.792242 298.401797 
L 120.74845 298.399314 
L 117.704659 299.16257 
L 114.660868 300.086681 
L 112.930839 300.548089 
L 111.617076 301.447193 
L 110.007896 303.640434 
L 108.573285 304.500946 
L 106.142971 306.732779 
L 105.529494 307.009904 
L 102.485702 308.511752 
L 99.955376 309.825124 
L 99.441911 310.024849 
L 96.39812 310.778517 
L 93.354329 311.489731 
L 90.310537 312.729098 
L 90.027628 312.917469 
L 87.266746 315.044676 
L 86.28814 316.009814 
L 84.222955 317.931719 
L 83.133235 319.102159 
L 81.179163 320.77477 
L 79.936124 322.194504 
L 78.135372 323.96618 
L 77.038437 325.286849 
L 75.091581 327.815361 
L 74.727716 328.379194 
L 73.389885 331.471539 
L 72.479502 334.563884 
L 72.047789 336.005833 
L 71.676258 337.656229 
L 70.78746 340.748574 
L 69.984812 343.840919 
L 69.468613 346.933264 
L 69.02795 350.02561 
L 69.003998 350.13811 
L 68.35505 353.117955 
L 67.578446 356.2103 
L 66.906943 359.302645 
L 66.370643 362.39499 
L 65.989641 365.487335 
L 66.052342 368.57968 
L 67.26938 371.672025 
L 69.003998 373.334766 
L 71.801467 374.76437 
z
M 82.647924 374.76437 
L 81.179163 374.679825 
L 78.135372 374.41575 
L 75.091581 373.936825 
L 72.047789 372.915203 
L 70.17573 371.672025 
L 69.003998 370.061568 
L 68.20737 368.57968 
L 67.988854 365.487335 
L 68.49974 362.39499 
L 69.003998 360.416711 
L 69.273044 359.302645 
L 70.168188 356.2103 
L 71.223242 353.117955 
L 72.047789 350.463678 
L 72.196025 350.02561 
L 73.001487 346.933264 
L 73.950025 343.840919 
L 75.091581 341.320764 
L 75.412398 340.748574 
L 77.634594 337.656229 
L 78.135372 336.918383 
L 80.281793 334.563884 
L 81.179163 333.008269 
L 81.986591 331.471539 
L 83.319853 328.379194 
L 84.222955 327.27011 
L 85.839819 325.286849 
L 87.266746 324.150824 
L 90.310537 322.218534 
L 90.361517 322.194504 
L 93.354329 320.679534 
L 96.39812 319.62654 
L 97.905123 319.102159 
L 99.441911 318.435508 
L 102.485702 316.671589 
L 103.448886 316.009814 
L 105.529494 314.619995 
L 108.355276 312.917469 
L 108.573285 312.79858 
L 111.617076 311.267567 
L 114.574303 309.825124 
L 114.660868 309.780735 
L 117.704659 308.214669 
L 120.74845 307.162135 
L 123.754008 306.732779 
L 123.792242 306.724393 
L 123.865319 306.732779 
L 126.836033 306.978403 
L 129.879824 308.067812 
L 132.584908 309.825124 
L 132.923616 310.175099 
L 135.764945 312.917469 
L 135.967407 313.775788 
L 136.625842 316.009814 
L 136.185408 319.102159 
L 139.011198 322.188315 
L 139.016766 322.194504 
L 142.05499 323.850649 
L 143.670135 325.286849 
L 145.098781 327.002359 
L 146.161153 328.379194 
L 147.554737 331.471539 
L 148.142572 333.657443 
L 148.518738 334.563884 
L 149.115056 337.656229 
L 149.685018 340.748574 
L 150.622251 343.840919 
L 151.186364 345.725511 
L 151.628827 346.933264 
L 152.798647 350.02561 
L 153.574236 353.117955 
L 153.184455 356.2103 
L 151.935256 359.302645 
L 151.186364 360.91698 
L 150.735276 362.39499 
L 149.156658 365.487335 
L 148.142572 366.186753 
L 145.515728 368.57968 
L 145.098781 368.752719 
L 142.05499 369.962543 
L 139.011198 370.736775 
L 135.967407 371.211692 
L 133.430859 371.672025 
L 132.923616 371.742909 
L 129.879824 372.377245 
L 126.836033 372.99098 
L 123.792242 373.346368 
L 120.74845 373.453818 
L 117.704659 373.52478 
L 114.660868 373.743976 
L 111.617076 374.077418 
L 108.573285 374.374652 
L 105.529494 374.570631 
L 102.485702 374.705421 
L 101.017367 374.76437 
L 99.441911 374.844966 
L 96.39812 374.982408 
L 93.354329 375.066735 
L 90.310537 375.082854 
L 87.266746 375.023263 
L 84.222955 374.88099 
z
" style="fill:#a6b9d8;"/>
   </g>
   <g id="PathCollection_4">
    <path clip-path="url(#p766642370e)" d="M 84.222955 374.88099 
L 87.266746 375.023263 
L 90.310537 375.082854 
L 93.354329 375.066735 
L 96.39812 374.982408 
L 99.441911 374.844966 
L 101.017367 374.76437 
L 102.485702 374.705421 
L 105.529494 374.570631 
L 108.573285 374.374652 
L 111.617076 374.077418 
L 114.660868 373.743976 
L 117.704659 373.52478 
L 120.74845 373.453818 
L 123.792242 373.346368 
L 126.836033 372.99098 
L 129.879824 372.377245 
L 132.923616 371.742909 
L 133.430859 371.672025 
L 135.967407 371.211692 
L 139.011198 370.736775 
L 142.05499 369.962543 
L 145.098781 368.752719 
L 145.515728 368.57968 
L 148.142572 366.186753 
L 149.156658 365.487335 
L 150.735276 362.39499 
L 151.186364 360.91698 
L 151.935256 359.302645 
L 153.184455 356.2103 
L 153.574236 353.117955 
L 152.798647 350.02561 
L 151.628827 346.933264 
L 151.186364 345.725511 
L 150.622251 343.840919 
L 149.685018 340.748574 
L 149.115056 337.656229 
L 148.518738 334.563884 
L 148.142572 333.657443 
L 147.554737 331.471539 
L 146.161153 328.379194 
L 145.098781 327.002359 
L 143.670135 325.286849 
L 142.05499 323.850649 
L 139.016766 322.194504 
L 139.011198 322.188315 
L 136.185408 319.102159 
L 136.625842 316.009814 
L 135.967407 313.775788 
L 135.764945 312.917469 
L 132.923616 310.175099 
L 132.584908 309.825124 
L 129.879824 308.067812 
L 126.836033 306.978403 
L 123.865319 306.732779 
L 123.792242 306.724393 
L 123.754008 306.732779 
L 120.74845 307.162135 
L 117.704659 308.214669 
L 114.660868 309.780735 
L 114.574303 309.825124 
L 111.617076 311.267567 
L 108.573285 312.79858 
L 108.355276 312.917469 
L 105.529494 314.619995 
L 103.448886 316.009814 
L 102.485702 316.671589 
L 99.441911 318.435508 
L 97.905123 319.102159 
L 96.39812 319.62654 
L 93.354329 320.679534 
L 90.361517 322.194504 
L 90.310537 322.218534 
L 87.266746 324.150824 
L 85.839819 325.286849 
L 84.222955 327.27011 
L 83.319853 328.379194 
L 81.986591 331.471539 
L 81.179163 333.008269 
L 80.281793 334.563884 
L 78.135372 336.918383 
L 77.634594 337.656229 
L 75.412398 340.748574 
L 75.091581 341.320764 
L 73.950025 343.840919 
L 73.001487 346.933264 
L 72.196025 350.02561 
L 72.047789 350.463678 
L 71.223242 353.117955 
L 70.168188 356.2103 
L 69.273044 359.302645 
L 69.003998 360.416711 
L 68.49974 362.39499 
L 67.988854 365.487335 
L 68.20737 368.57968 
L 69.003998 370.061568 
L 70.17573 371.672025 
L 72.047789 372.915203 
L 75.091581 373.936825 
L 78.135372 374.41575 
L 81.179163 374.679825 
L 82.647924 374.76437 
z
M 73.389362 371.672025 
L 72.047789 370.753587 
L 70.302042 368.57968 
L 69.889295 365.487335 
L 70.391863 362.39499 
L 71.290234 359.302645 
L 72.047789 357.29552 
L 72.492108 356.2103 
L 73.862564 353.117955 
L 75.091581 350.273627 
L 75.209383 350.02561 
L 76.417782 346.933264 
L 77.903625 343.840919 
L 78.135372 343.481407 
L 80.344877 340.748574 
L 81.179163 339.93844 
L 84.092623 337.656229 
L 84.222955 337.526737 
L 87.033721 334.563884 
L 87.266746 334.128599 
L 88.629318 331.471539 
L 90.310537 328.445329 
L 90.356858 328.379194 
L 93.354329 326.021395 
L 94.834459 325.286849 
L 96.39812 324.650127 
L 99.441911 323.510215 
L 102.485702 322.211316 
L 102.519675 322.194504 
L 105.529494 320.339365 
L 107.854695 319.102159 
L 108.573285 318.617539 
L 111.617076 316.856112 
L 112.840776 316.009814 
L 114.660868 314.808051 
L 116.838735 312.917469 
L 117.704659 312.397757 
L 120.74845 310.895923 
L 123.792242 310.371368 
L 126.836033 311.24726 
L 128.84581 312.917469 
L 129.54555 316.009814 
L 128.625551 319.102159 
L 128.193817 322.194504 
L 129.86543 325.286849 
L 129.879824 325.303463 
L 132.923616 327.555506 
L 135.967407 328.354331 
L 136.051562 328.379194 
L 139.011198 330.116771 
L 139.884814 331.471539 
L 140.757667 334.563884 
L 141.427424 337.656229 
L 142.05499 340.362512 
L 142.127363 340.748574 
L 142.747465 343.840919 
L 143.057789 346.933264 
L 143.089615 350.02561 
L 142.867489 353.117955 
L 142.504758 356.2103 
L 142.199424 359.302645 
L 142.05499 360.654596 
L 141.81223 362.39499 
L 140.624024 365.487335 
L 139.011198 366.549598 
L 135.967407 367.789116 
L 134.341789 368.57968 
L 132.923616 368.879107 
L 129.879824 369.885715 
L 126.836033 370.898666 
L 123.792242 371.499112 
L 121.093666 371.672025 
L 120.74845 371.689401 
L 117.704659 371.789144 
L 114.660868 372.062922 
L 111.617076 372.480474 
L 108.573285 372.871412 
L 105.529494 373.159694 
L 102.485702 373.380778 
L 99.441911 373.568733 
L 96.39812 373.709456 
L 93.354329 373.781626 
L 90.310537 373.784935 
L 87.266746 373.722988 
L 84.222955 373.591855 
L 81.179163 373.380029 
L 78.135372 373.034213 
L 75.091581 372.379662 
z
" style="fill:#839ec9;"/>
   </g>
   <g id="PathCollection_5">
    <path clip-path="url(#p766642370e)" d="M 75.091581 372.379662 
L 78.135372 373.034213 
L 81.179163 373.380029 
L 84.222955 373.591855 
L 87.266746 373.722988 
L 90.310537 373.784935 
L 93.354329 373.781626 
L 96.39812 373.709456 
L 99.441911 373.568733 
L 102.485702 373.380778 
L 105.529494 373.159694 
L 108.573285 372.871412 
L 111.617076 372.480474 
L 114.660868 372.062922 
L 117.704659 371.789144 
L 120.74845 371.689401 
L 121.093666 371.672025 
L 123.792242 371.499112 
L 126.836033 370.898666 
L 129.879824 369.885715 
L 132.923616 368.879107 
L 134.341789 368.57968 
L 135.967407 367.789116 
L 139.011198 366.549598 
L 140.624024 365.487335 
L 141.81223 362.39499 
L 142.05499 360.654596 
L 142.199424 359.302645 
L 142.504758 356.2103 
L 142.867489 353.117955 
L 143.089615 350.02561 
L 143.057789 346.933264 
L 142.747465 343.840919 
L 142.127363 340.748574 
L 142.05499 340.362512 
L 141.427424 337.656229 
L 140.757667 334.563884 
L 139.884814 331.471539 
L 139.011198 330.116771 
L 136.051562 328.379194 
L 135.967407 328.354331 
L 132.923616 327.555506 
L 129.879824 325.303463 
L 129.86543 325.286849 
L 128.193817 322.194504 
L 128.625551 319.102159 
L 129.54555 316.009814 
L 128.84581 312.917469 
L 126.836033 311.24726 
L 123.792242 310.371368 
L 120.74845 310.895923 
L 117.704659 312.397757 
L 116.838735 312.917469 
L 114.660868 314.808051 
L 112.840776 316.009814 
L 111.617076 316.856112 
L 108.573285 318.617539 
L 107.854695 319.102159 
L 105.529494 320.339365 
L 102.519675 322.194504 
L 102.485702 322.211316 
L 99.441911 323.510215 
L 96.39812 324.650127 
L 94.834459 325.286849 
L 93.354329 326.021395 
L 90.356858 328.379194 
L 90.310537 328.445329 
L 88.629318 331.471539 
L 87.266746 334.128599 
L 87.033721 334.563884 
L 84.222955 337.526737 
L 84.092623 337.656229 
L 81.179163 339.93844 
L 80.344877 340.748574 
L 78.135372 343.481407 
L 77.903625 343.840919 
L 76.417782 346.933264 
L 75.209383 350.02561 
L 75.091581 350.273627 
L 73.862564 353.117955 
L 72.492108 356.2103 
L 72.047789 357.29552 
L 71.290234 359.302645 
L 70.391863 362.39499 
L 69.889295 365.487335 
L 70.302042 368.57968 
L 72.047789 370.753587 
L 73.389362 371.672025 
z
M 78.26532 371.672025 
L 78.135372 371.649219 
L 75.091581 370.623749 
L 72.428877 368.57968 
L 72.047789 367.243586 
L 71.687843 365.487335 
L 72.047789 363.350122 
L 72.214313 362.39499 
L 73.251554 359.302645 
L 74.68029 356.2103 
L 75.091581 355.394051 
L 76.36797 353.117955 
L 78.04832 350.02561 
L 78.135372 349.841496 
L 79.640256 346.933264 
L 81.179163 344.527564 
L 81.691212 343.840919 
L 84.222955 341.39253 
L 84.982534 340.748574 
L 87.266746 338.902366 
L 88.788406 337.656229 
L 90.310537 335.973445 
L 91.616354 334.563884 
L 93.354329 332.137422 
L 93.949798 331.471539 
L 96.39812 329.174786 
L 97.548597 328.379194 
L 99.441911 327.381584 
L 102.485702 325.820656 
L 103.506195 325.286849 
L 105.529494 324.211881 
L 108.573285 322.950974 
L 111.617076 322.258386 
L 112.752087 322.194504 
L 114.660868 322.00173 
L 117.704659 322.148053 
L 117.814793 322.194504 
L 120.74845 323.150587 
L 122.675177 325.286849 
L 123.792242 326.062761 
L 125.964614 328.379194 
L 126.836033 329.487656 
L 128.195278 331.471539 
L 129.740195 334.563884 
L 129.879824 334.848983 
L 131.573853 337.656229 
L 132.923616 340.415448 
L 133.167294 340.748574 
L 134.488091 343.840919 
L 134.423303 346.933264 
L 133.735274 350.02561 
L 132.954084 353.117955 
L 132.923616 353.24297 
L 132.491942 356.2103 
L 132.022771 359.302645 
L 131.360687 362.39499 
L 130.122734 365.487335 
L 129.879824 365.686991 
L 126.836033 368.352167 
L 126.425648 368.57968 
L 123.792242 369.252983 
L 120.74845 369.554513 
L 117.704659 369.737969 
L 114.660868 370.128846 
L 111.617076 370.721345 
L 108.573285 371.306421 
L 106.174802 371.672025 
L 105.529494 371.748756 
L 102.485702 372.056136 
L 99.441911 372.313145 
L 96.39812 372.492652 
L 93.354329 372.572153 
L 90.310537 372.564029 
L 87.266746 372.484865 
L 84.222955 372.331424 
L 81.179163 372.080234 
z
" style="fill:#5e81ba;"/>
   </g>
   <g id="PathCollection_6">
    <path clip-path="url(#p766642370e)" d="M 81.179163 372.080234 
L 84.222955 372.331424 
L 87.266746 372.484865 
L 90.310537 372.564029 
L 93.354329 372.572153 
L 96.39812 372.492652 
L 99.441911 372.313145 
L 102.485702 372.056136 
L 105.529494 371.748756 
L 106.174802 371.672025 
L 108.573285 371.306421 
L 111.617076 370.721345 
L 114.660868 370.128846 
L 117.704659 369.737969 
L 120.74845 369.554513 
L 123.792242 369.252983 
L 126.425648 368.57968 
L 126.836033 368.352167 
L 129.879824 365.686991 
L 130.122734 365.487335 
L 131.360687 362.39499 
L 132.022771 359.302645 
L 132.491942 356.2103 
L 132.923616 353.24297 
L 132.954084 353.117955 
L 133.735274 350.02561 
L 134.423303 346.933264 
L 134.488091 343.840919 
L 133.167294 340.748574 
L 132.923616 340.415448 
L 131.573853 337.656229 
L 129.879824 334.848983 
L 129.740195 334.563884 
L 128.195278 331.471539 
L 126.836033 329.487656 
L 125.964614 328.379194 
L 123.792242 326.062761 
L 122.675177 325.286849 
L 120.74845 323.150587 
L 117.814793 322.194504 
L 117.704659 322.148053 
L 114.660868 322.00173 
L 112.752087 322.194504 
L 111.617076 322.258386 
L 108.573285 322.950974 
L 105.529494 324.211881 
L 103.506195 325.286849 
L 102.485702 325.820656 
L 99.441911 327.381584 
L 97.548597 328.379194 
L 96.39812 329.174786 
L 93.949798 331.471539 
L 93.354329 332.137422 
L 91.616354 334.563884 
L 90.310537 335.973445 
L 88.788406 337.656229 
L 87.266746 338.902366 
L 84.982534 340.748574 
L 84.222955 341.39253 
L 81.691212 343.840919 
L 81.179163 344.527564 
L 79.640256 346.933264 
L 78.135372 349.841496 
L 78.04832 350.02561 
L 76.36797 353.117955 
L 75.091581 355.394051 
L 74.68029 356.2103 
L 73.251554 359.302645 
L 72.214313 362.39499 
L 72.047789 363.350122 
L 71.687843 365.487335 
L 72.047789 367.243586 
L 72.428877 368.57968 
L 75.091581 370.623749 
L 78.135372 371.649219 
L 78.26532 371.672025 
z
M 74.931873 368.57968 
L 73.659807 365.487335 
L 74.076165 362.39499 
L 75.091581 359.54072 
L 75.184563 359.302645 
L 76.834423 356.2103 
L 78.135372 354.081248 
L 78.783783 353.117955 
L 80.69165 350.02561 
L 81.179163 349.196579 
L 82.671422 346.933264 
L 84.222955 344.968162 
L 85.241833 343.840919 
L 87.266746 342.071296 
L 88.853408 340.748574 
L 90.310537 339.52447 
L 92.584292 337.656229 
L 93.354329 336.83178 
L 95.768748 334.563884 
L 96.39812 333.874454 
L 99.214797 331.471539 
L 99.441911 331.300899 
L 102.485702 329.282709 
L 103.95938 328.379194 
L 105.529494 327.547352 
L 108.573285 326.440938 
L 111.617076 326.301962 
L 114.660868 327.443156 
L 116.2411 328.379194 
L 117.704659 329.876713 
L 119.971455 331.471539 
L 120.74845 332.151585 
L 123.267562 334.563884 
L 123.792242 334.989972 
L 125.577752 337.656229 
L 126.836033 339.424608 
L 127.520062 340.748574 
L 128.421231 343.840919 
L 128.230187 346.933264 
L 127.542587 350.02561 
L 127.196291 353.117955 
L 127.224686 356.2103 
L 127.00755 359.302645 
L 126.836033 359.977435 
L 125.995946 362.39499 
L 123.932053 365.487335 
L 123.792242 365.572473 
L 120.74845 366.433065 
L 117.704659 366.948409 
L 114.660868 367.788066 
L 112.617045 368.57968 
L 111.617076 368.795928 
L 108.573285 369.497689 
L 105.529494 370.096786 
L 102.485702 370.589929 
L 99.441911 370.977335 
L 96.39812 371.224724 
L 93.354329 371.318514 
L 90.310537 371.290741 
L 87.266746 371.176685 
L 84.222955 370.975552 
L 81.179163 370.640301 
L 78.135372 370.020909 
L 75.091581 368.702282 
z
" style="fill:#4568a1;"/>
   </g>
   <g id="PathCollection_7">
    <path clip-path="url(#p766642370e)" d="M 75.091581 368.702282 
L 78.135372 370.020909 
L 81.179163 370.640301 
L 84.222955 370.975552 
L 87.266746 371.176685 
L 90.310537 371.290741 
L 93.354329 371.318514 
L 96.39812 371.224724 
L 99.441911 370.977335 
L 102.485702 370.589929 
L 105.529494 370.096786 
L 108.573285 369.497689 
L 111.617076 368.795928 
L 112.617045 368.57968 
L 114.660868 367.788066 
L 117.704659 366.948409 
L 120.74845 366.433065 
L 123.792242 365.572473 
L 123.932053 365.487335 
L 125.995946 362.39499 
L 126.836033 359.977435 
L 127.00755 359.302645 
L 127.224686 356.2103 
L 127.196291 353.117955 
L 127.542587 350.02561 
L 128.230187 346.933264 
L 128.421231 343.840919 
L 127.520062 340.748574 
L 126.836033 339.424608 
L 125.577752 337.656229 
L 123.792242 334.989972 
L 123.267562 334.563884 
L 120.74845 332.151585 
L 119.971455 331.471539 
L 117.704659 329.876713 
L 116.2411 328.379194 
L 114.660868 327.443156 
L 111.617076 326.301962 
L 108.573285 326.440938 
L 105.529494 327.547352 
L 103.95938 328.379194 
L 102.485702 329.282709 
L 99.441911 331.300899 
L 99.214797 331.471539 
L 96.39812 333.874454 
L 95.768748 334.563884 
L 93.354329 336.83178 
L 92.584292 337.656229 
L 90.310537 339.52447 
L 88.853408 340.748574 
L 87.266746 342.071296 
L 85.241833 343.840919 
L 84.222955 344.968162 
L 82.671422 346.933264 
L 81.179163 349.196579 
L 80.69165 350.02561 
L 78.783783 353.117955 
L 78.135372 354.081248 
L 76.834423 356.2103 
L 75.184563 359.302645 
L 75.091581 359.54072 
L 74.076165 362.39499 
L 73.659807 365.487335 
L 74.931873 368.57968 
z
M 78.856569 368.57968 
L 78.135372 368.203286 
L 75.879514 365.487335 
L 76.097776 362.39499 
L 77.228566 359.302645 
L 78.135372 357.664549 
L 79.034248 356.2103 
L 81.148062 353.117955 
L 81.179163 353.068842 
L 83.301232 350.02561 
L 84.222955 348.705411 
L 85.642172 346.933264 
L 87.266746 345.154551 
L 88.565077 343.840919 
L 90.310537 342.362111 
L 92.305254 340.748574 
L 93.354329 339.875391 
L 96.351679 337.656229 
L 96.39812 337.612343 
L 99.441911 335.29667 
L 100.695831 334.563884 
L 102.485702 333.344648 
L 105.529494 331.711175 
L 106.62103 331.471539 
L 108.573285 331.049646 
L 109.689061 331.471539 
L 111.617076 333.400808 
L 112.203219 334.563884 
L 114.019071 337.656229 
L 114.660868 338.577766 
L 116.84833 340.748574 
L 117.704659 342.378058 
L 119.764678 343.840919 
L 117.704659 345.958056 
L 117.400152 346.933264 
L 115.820206 350.02561 
L 115.193412 353.117955 
L 115.887828 356.2103 
L 116.592212 359.302645 
L 115.55318 362.39499 
L 114.660868 363.100941 
L 112.184466 365.487335 
L 111.617076 365.731969 
L 108.573285 367.105087 
L 105.529494 368.330834 
L 104.863965 368.57968 
L 102.485702 369.065907 
L 99.441911 369.557825 
L 96.39812 369.850897 
L 93.354329 369.936364 
L 90.310537 369.875391 
L 87.266746 369.734603 
L 84.222955 369.514972 
L 81.179163 369.136207 
z
" style="fill:#36517c;"/>
   </g>
   <g id="PathCollection_8">
    <path clip-path="url(#p766642370e)" d="M 81.179163 369.136207 
L 84.222955 369.514972 
L 87.266746 369.734603 
L 90.310537 369.875391 
L 93.354329 369.936364 
L 96.39812 369.850897 
L 99.441911 369.557825 
L 102.485702 369.065907 
L 104.863965 368.57968 
L 105.529494 368.330834 
L 108.573285 367.105087 
L 111.617076 365.731969 
L 112.184466 365.487335 
L 114.660868 363.100941 
L 115.55318 362.39499 
L 116.592212 359.302645 
L 115.887828 356.2103 
L 115.193412 353.117955 
L 115.820206 350.02561 
L 117.400152 346.933264 
L 117.704659 345.958056 
L 119.764678 343.840919 
L 117.704659 342.378058 
L 116.84833 340.748574 
L 114.660868 338.577766 
L 114.019071 337.656229 
L 112.203219 334.563884 
L 111.617076 333.400808 
L 109.689061 331.471539 
L 108.573285 331.049646 
L 106.62103 331.471539 
L 105.529494 331.711175 
L 102.485702 333.344648 
L 100.695831 334.563884 
L 99.441911 335.29667 
L 96.39812 337.612343 
L 96.351679 337.656229 
L 93.354329 339.875391 
L 92.305254 340.748574 
L 90.310537 342.362111 
L 88.565077 343.840919 
L 87.266746 345.154551 
L 85.642172 346.933264 
L 84.222955 348.705411 
L 83.301232 350.02561 
L 81.179163 353.068842 
L 81.148062 353.117955 
L 79.034248 356.2103 
L 78.135372 357.664549 
L 77.228566 359.302645 
L 76.097776 362.39499 
L 75.879514 365.487335 
L 78.135372 368.203286 
L 78.856569 368.57968 
z
M 78.872719 365.487335 
L 78.377386 362.39499 
L 79.497806 359.302645 
L 81.179163 356.459525 
L 81.347053 356.2103 
L 83.687457 353.117955 
L 84.222955 352.357411 
L 86.116403 350.02561 
L 87.266746 348.595225 
L 88.785393 346.933264 
L 90.310537 345.390342 
L 91.921939 343.840919 
L 93.354329 342.69054 
L 96.12043 340.748574 
L 96.39812 340.545922 
L 99.441911 338.924029 
L 102.485702 337.815113 
L 105.529494 337.708082 
L 108.573285 339.476891 
L 109.665809 340.748574 
L 111.192086 343.840919 
L 111.014474 346.933264 
L 110.234315 350.02561 
L 109.748726 353.117955 
L 109.963502 356.2103 
L 110.280147 359.302645 
L 109.127622 362.39499 
L 108.573285 362.910833 
L 105.657512 365.487335 
L 105.529494 365.543595 
L 102.485702 366.82792 
L 99.441911 367.837718 
L 96.39812 368.409559 
L 93.354329 368.538097 
L 90.310537 368.386378 
L 87.266746 368.115958 
L 84.222955 367.71208 
L 81.179163 366.90714 
z
" style="fill:#263958;"/>
   </g>
   <g id="PathCollection_9">
    <path clip-path="url(#p766642370e)" d="M 81.179163 366.90714 
L 84.222955 367.71208 
L 87.266746 368.115958 
L 90.310537 368.386378 
L 93.354329 368.538097 
L 96.39812 368.409559 
L 99.441911 367.837718 
L 102.485702 366.82792 
L 105.529494 365.543595 
L 105.657512 365.487335 
L 108.573285 362.910833 
L 109.127622 362.39499 
L 110.280147 359.302645 
L 109.963502 356.2103 
L 109.748726 353.117955 
L 110.234315 350.02561 
L 111.014474 346.933264 
L 111.192086 343.840919 
L 109.665809 340.748574 
L 108.573285 339.476891 
L 105.529494 337.708082 
L 102.485702 337.815113 
L 99.441911 338.924029 
L 96.39812 340.545922 
L 96.12043 340.748574 
L 93.354329 342.69054 
L 91.921939 343.840919 
L 90.310537 345.390342 
L 88.785393 346.933264 
L 87.266746 348.595225 
L 86.116403 350.02561 
L 84.222955 352.357411 
L 83.687457 353.117955 
L 81.347053 356.2103 
L 81.179163 356.459525 
L 79.497806 359.302645 
L 78.377386 362.39499 
L 78.872719 365.487335 
z
M 85.3692 365.487335 
L 84.222955 365.091729 
L 81.583138 362.39499 
L 82.265303 359.302645 
L 84.136567 356.2103 
L 84.222955 356.093553 
L 86.796495 353.117955 
L 87.266746 352.524701 
L 89.690049 350.02561 
L 90.310537 349.336052 
L 92.689184 346.933264 
L 93.354329 346.302228 
L 96.270099 343.840919 
L 96.39812 343.757011 
L 99.441911 342.655052 
L 102.485702 342.559764 
L 104.918698 343.840919 
L 105.529494 345.927332 
L 105.690347 346.933264 
L 105.529494 347.678452 
L 104.896792 350.02561 
L 104.08873 353.117955 
L 103.917849 356.2103 
L 103.923198 359.302645 
L 102.790612 362.39499 
L 102.485702 362.679712 
L 99.441911 365.402563 
L 99.288234 365.487335 
L 96.39812 366.131819 
L 93.354329 366.281145 
L 90.310537 366.099592 
L 87.266746 365.787198 
z
" style="fill:#172235;"/>
   </g>
   <g id="PathCollection_10">
    <path clip-path="url(#p766642370e)" d="M 87.266746 365.787198 
L 90.310537 366.099592 
L 93.354329 366.281145 
L 96.39812 366.131819 
L 99.288234 365.487335 
L 99.441911 365.402563 
L 102.485702 362.679712 
L 102.790612 362.39499 
L 103.923198 359.302645 
L 103.917849 356.2103 
L 104.08873 353.117955 
L 104.896792 350.02561 
L 105.529494 347.678452 
L 105.690347 346.933264 
L 105.529494 345.927332 
L 104.918698 343.840919 
L 102.485702 342.559764 
L 99.441911 342.655052 
L 96.39812 343.757011 
L 96.270099 343.840919 
L 93.354329 346.302228 
L 92.689184 346.933264 
L 90.310537 349.336052 
L 89.690049 350.02561 
L 87.266746 352.524701 
L 86.796495 353.117955 
L 84.222955 356.093553 
L 84.136567 356.2103 
L 82.265303 359.302645 
L 81.583138 362.39499 
L 84.222955 365.091729 
L 85.3692 365.487335 
z
M 90.213207 362.39499 
L 87.266746 360.297879 
L 86.837516 359.302645 
L 87.266746 358.584899 
L 89.264934 356.2103 
L 90.310537 355.305875 
L 93.354329 354.296125 
L 96.09625 356.2103 
L 96.39812 356.815101 
L 96.993559 359.302645 
L 96.39812 360.629556 
L 94.23187 362.39499 
L 93.354329 362.582498 
L 90.310537 362.415845 
z
" style="fill:#070b11;"/>
   </g>
   <g id="patch_3">
    <path d="M 50.74125 387.13375 
L 50.74125 80.991591 
" style="fill:none;"/>
   </g>
   <g id="patch_4">
    <path d="M 50.74125 387.13375 
L 352.076591 387.13375 
" style="fill:none;"/>
   </g>
   <g id="legend_1">
    <g id="line2d_35"/>
    <g id="line2d_36"/>
    <g id="text_20">
     <!-- pearsonr = 0.25; p = 1e-248 -->
     <defs>
      <path d="M 18.109375 8.203125 
L 18.109375 -20.796875 
L 9.078125 -20.796875 
L 9.078125 54.6875 
L 18.109375 54.6875 
L 18.109375 46.390625 
Q 20.953125 51.265625 25.265625 53.625 
Q 29.59375 56 35.59375 56 
Q 45.5625 56 51.78125 48.09375 
Q 58.015625 40.1875 58.015625 27.296875 
Q 58.015625 14.40625 51.78125 6.484375 
Q 45.5625 -1.421875 35.59375 -1.421875 
Q 29.59375 -1.421875 25.265625 0.953125 
Q 20.953125 3.328125 18.109375 8.203125 
z
M 48.6875 27.296875 
Q 48.6875 37.203125 44.609375 42.84375 
Q 40.53125 48.484375 33.40625 48.484375 
Q 26.265625 48.484375 22.1875 42.84375 
Q 18.109375 37.203125 18.109375 27.296875 
Q 18.109375 17.390625 22.1875 11.75 
Q 26.265625 6.109375 33.40625 6.109375 
Q 40.53125 6.109375 44.609375 11.75 
Q 48.6875 17.390625 48.6875 27.296875 
z
" id="DejaVuSans-70"/>
      <path d="M 44.28125 53.078125 
L 44.28125 44.578125 
Q 40.484375 46.53125 36.375 47.5 
Q 32.28125 48.484375 27.875 48.484375 
Q 21.1875 48.484375 17.84375 46.4375 
Q 14.5 44.390625 14.5 40.28125 
Q 14.5 37.15625 16.890625 35.375 
Q 19.28125 33.59375 26.515625 31.984375 
L 29.59375 31.296875 
Q 39.15625 29.25 43.1875 25.515625 
Q 47.21875 21.78125 47.21875 15.09375 
Q 47.21875 7.46875 41.1875 3.015625 
Q 35.15625 -1.421875 24.609375 -1.421875 
Q 20.21875 -1.421875 15.453125 -0.5625 
Q 10.6875 0.296875 5.421875 2 
L 5.421875 11.28125 
Q 10.40625 8.6875 15.234375 7.390625 
Q 20.0625 6.109375 24.8125 6.109375 
Q 31.15625 6.109375 34.5625 8.28125 
Q 37.984375 10.453125 37.984375 14.40625 
Q 37.984375 18.0625 35.515625 20.015625 
Q 33.0625 21.96875 24.703125 23.78125 
L 21.578125 24.515625 
Q 13.234375 26.265625 9.515625 29.90625 
Q 5.8125 33.546875 5.8125 39.890625 
Q 5.8125 47.609375 11.28125 51.796875 
Q 16.75 56 26.8125 56 
Q 31.78125 56 36.171875 55.265625 
Q 40.578125 54.546875 44.28125 53.078125 
z
" id="DejaVuSans-73"/>
      <path d="M 30.609375 48.390625 
Q 23.390625 48.390625 19.1875 42.75 
Q 14.984375 37.109375 14.984375 27.296875 
Q 14.984375 17.484375 19.15625 11.84375 
Q 23.34375 6.203125 30.609375 6.203125 
Q 37.796875 6.203125 41.984375 11.859375 
Q 46.1875 17.53125 46.1875 27.296875 
Q 46.1875 37.015625 41.984375 42.703125 
Q 37.796875 48.390625 30.609375 48.390625 
z
M 30.609375 56 
Q 42.328125 56 49.015625 48.375 
Q 55.71875 40.765625 55.71875 27.296875 
Q 55.71875 13.875 49.015625 6.21875 
Q 42.328125 -1.421875 30.609375 -1.421875 
Q 18.84375 -1.421875 12.171875 6.21875 
Q 5.515625 13.875 5.515625 27.296875 
Q 5.515625 40.765625 12.171875 48.375 
Q 18.84375 56 30.609375 56 
z
" id="DejaVuSans-6f"/>
      <path id="DejaVuSans-20"/>
      <path d="M 10.59375 45.40625 
L 73.1875 45.40625 
L 73.1875 37.203125 
L 10.59375 37.203125 
z
M 10.59375 25.484375 
L 73.1875 25.484375 
L 73.1875 17.1875 
L 10.59375 17.1875 
z
" id="DejaVuSans-3d"/>
      <path d="M 10.6875 12.40625 
L 21 12.40625 
L 21 0 
L 10.6875 0 
z
" id="DejaVuSans-2e"/>
      <path d="M 11.71875 51.703125 
L 22.015625 51.703125 
L 22.015625 39.3125 
L 11.71875 39.3125 
z
M 11.71875 12.40625 
L 22.015625 12.40625 
L 22.015625 4 
L 14.015625 -11.625 
L 7.71875 -11.625 
L 11.71875 4 
z
" id="DejaVuSans-3b"/>
      <path d="M 4.890625 31.390625 
L 31.203125 31.390625 
L 31.203125 23.390625 
L 4.890625 23.390625 
z
" id="DejaVuSans-2d"/>
      <path d="M 37.796875 64.3125 
L 12.890625 25.390625 
L 37.796875 25.390625 
z
M 35.203125 72.90625 
L 47.609375 72.90625 
L 47.609375 25.390625 
L 58.015625 25.390625 
L 58.015625 17.1875 
L 47.609375 17.1875 
L 47.609375 0 
L 37.796875 0 
L 37.796875 17.1875 
L 4.890625 17.1875 
L 4.890625 26.703125 
z
" id="DejaVuSans-34"/>
      <path d="M 31.78125 34.625 
Q 24.75 34.625 20.71875 30.859375 
Q 16.703125 27.09375 16.703125 20.515625 
Q 16.703125 13.921875 20.71875 10.15625 
Q 24.75 6.390625 31.78125 6.390625 
Q 38.8125 6.390625 42.859375 10.171875 
Q 46.921875 13.96875 46.921875 20.515625 
Q 46.921875 27.09375 42.890625 30.859375 
Q 38.875 34.625 31.78125 34.625 
z
M 21.921875 38.8125 
Q 15.578125 40.375 12.03125 44.71875 
Q 8.5 49.078125 8.5 55.328125 
Q 8.5 64.0625 14.71875 69.140625 
Q 20.953125 74.21875 31.78125 74.21875 
Q 42.671875 74.21875 48.875 69.140625 
Q 55.078125 64.0625 55.078125 55.328125 
Q 55.078125 49.078125 51.53125 44.71875 
Q 48 40.375 41.703125 38.8125 
Q 48.828125 37.15625 52.796875 32.3125 
Q 56.78125 27.484375 56.78125 20.515625 
Q 56.78125 9.90625 50.3125 4.234375 
Q 43.84375 -1.421875 31.78125 -1.421875 
Q 19.734375 -1.421875 13.25 4.234375 
Q 6.78125 9.90625 6.78125 20.515625 
Q 6.78125 27.484375 10.78125 32.3125 
Q 14.796875 37.15625 21.921875 38.8125 
z
M 18.3125 54.390625 
Q 18.3125 48.734375 21.84375 45.5625 
Q 25.390625 42.390625 31.78125 42.390625 
Q 38.140625 42.390625 41.71875 45.5625 
Q 45.3125 48.734375 45.3125 54.390625 
Q 45.3125 60.0625 41.71875 63.234375 
Q 38.140625 66.40625 31.78125 66.40625 
Q 25.390625 66.40625 21.84375 63.234375 
Q 18.3125 60.0625 18.3125 54.390625 
z
" id="DejaVuSans-38"/>
     </defs>
     <g style="fill:#262626;" transform="translate(198.715653 97.590028)scale(0.1 -0.1)">
      <use xlink:href="#DejaVuSans-70"/>
      <use x="63.476562" xlink:href="#DejaVuSans-65"/>
      <use x="125" xlink:href="#DejaVuSans-61"/>
      <use x="186.279297" xlink:href="#DejaVuSans-72"/>
      <use x="227.392578" xlink:href="#DejaVuSans-73"/>
      <use x="279.492188" xlink:href="#DejaVuSans-6f"/>
      <use x="340.673828" xlink:href="#DejaVuSans-6e"/>
      <use x="404.052734" xlink:href="#DejaVuSans-72"/>
      <use x="445.166016" xlink:href="#DejaVuSans-20"/>
      <use x="476.953125" xlink:href="#DejaVuSans-3d"/>
      <use x="560.742188" xlink:href="#DejaVuSans-20"/>
      <use x="592.529297" xlink:href="#DejaVuSans-30"/>
      <use x="656.152344" xlink:href="#DejaVuSans-2e"/>
      <use x="687.939453" xlink:href="#DejaVuSans-32"/>
      <use x="751.5625" xlink:href="#DejaVuSans-35"/>
      <use x="815.185547" xlink:href="#DejaVuSans-3b"/>
      <use x="848.876953" xlink:href="#DejaVuSans-20"/>
      <use x="880.664062" xlink:href="#DejaVuSans-70"/>
      <use x="944.140625" xlink:href="#DejaVuSans-20"/>
      <use x="975.927734" xlink:href="#DejaVuSans-3d"/>
      <use x="1059.716797" xlink:href="#DejaVuSans-20"/>
      <use x="1091.503906" xlink:href="#DejaVuSans-31"/>
      <use x="1155.126953" xlink:href="#DejaVuSans-65"/>
      <use x="1216.650391" xlink:href="#DejaVuSans-2d"/>
      <use x="1252.734375" xlink:href="#DejaVuSans-32"/>
      <use x="1316.357422" xlink:href="#DejaVuSans-34"/>
      <use x="1379.980469" xlink:href="#DejaVuSans-38"/>
     </g>
    </g>
   </g>
  </g>
  <g id="axes_2">
   <g id="patch_5">
    <path d="M 50.74125 46.975795 
L 352.076591 46.975795 
L 352.076591 12.96 
L 50.74125 12.96 
z
" style="fill:#eaeaf2;"/>
   </g>
   <g id="matplotlib.axis_3">
    <g id="xtick_10">
     <g id="line2d_37">
      <path clip-path="url(#p7a84452d51)" d="M 53.053584 46.975795 
L 53.053584 12.96 
" style="fill:none;stroke:#ffffff;stroke-linecap:round;"/>
     </g>
     <g id="line2d_38"/>
    </g>
    <g id="xtick_11">
     <g id="line2d_39">
      <path clip-path="url(#p7a84452d51)" d="M 88.715582 46.975795 
L 88.715582 12.96 
" style="fill:none;stroke:#ffffff;stroke-linecap:round;"/>
     </g>
     <g id="line2d_40"/>
    </g>
    <g id="xtick_12">
     <g id="line2d_41">
      <path clip-path="url(#p7a84452d51)" d="M 124.377579 46.975795 
L 124.377579 12.96 
" style="fill:none;stroke:#ffffff;stroke-linecap:round;"/>
     </g>
     <g id="line2d_42"/>
    </g>
    <g id="xtick_13">
     <g id="line2d_43">
      <path clip-path="url(#p7a84452d51)" d="M 160.039577 46.975795 
L 160.039577 12.96 
" style="fill:none;stroke:#ffffff;stroke-linecap:round;"/>
     </g>
     <g id="line2d_44"/>
    </g>
    <g id="xtick_14">
     <g id="line2d_45">
      <path clip-path="url(#p7a84452d51)" d="M 195.701574 46.975795 
L 195.701574 12.96 
" style="fill:none;stroke:#ffffff;stroke-linecap:round;"/>
     </g>
     <g id="line2d_46"/>
    </g>
    <g id="xtick_15">
     <g id="line2d_47">
      <path clip-path="url(#p7a84452d51)" d="M 231.363572 46.975795 
L 231.363572 12.96 
" style="fill:none;stroke:#ffffff;stroke-linecap:round;"/>
     </g>
     <g id="line2d_48"/>
    </g>
    <g id="xtick_16">
     <g id="line2d_49">
      <path clip-path="url(#p7a84452d51)" d="M 267.025569 46.975795 
L 267.025569 12.96 
" style="fill:none;stroke:#ffffff;stroke-linecap:round;"/>
     </g>
     <g id="line2d_50"/>
    </g>
    <g id="xtick_17">
     <g id="line2d_51">
      <path clip-path="url(#p7a84452d51)" d="M 302.687567 46.975795 
L 302.687567 12.96 
" style="fill:none;stroke:#ffffff;stroke-linecap:round;"/>
     </g>
     <g id="line2d_52"/>
    </g>
    <g id="xtick_18">
     <g id="line2d_53">
      <path clip-path="url(#p7a84452d51)" d="M 338.349565 46.975795 
L 338.349565 12.96 
" style="fill:none;stroke:#ffffff;stroke-linecap:round;"/>
     </g>
     <g id="line2d_54"/>
    </g>
   </g>
   <g id="matplotlib.axis_4">
    <g id="ytick_9"/>
    <g id="ytick_10"/>
   </g>
   <g id="PolyCollection_1">
    <path clip-path="url(#p7a84452d51)" d="M 50.74125 46.964197 
L 50.74125 46.975795 
L 53.113969 46.975795 
L 55.486688 46.975795 
L 57.859408 46.975795 
L 60.232127 46.975795 
L 62.604846 46.975795 
L 64.977565 46.975795 
L 67.350285 46.975795 
L 69.723004 46.975795 
L 72.095723 46.975795 
L 74.468442 46.975795 
L 76.841161 46.975795 
L 79.213881 46.975795 
L 81.5866 46.975795 
L 83.959319 46.975795 
L 86.332038 46.975795 
L 88.704758 46.975795 
L 91.077477 46.975795 
L 93.450196 46.975795 
L 95.822915 46.975795 
L 98.195634 46.975795 
L 100.568354 46.975795 
L 102.941073 46.975795 
L 105.313792 46.975795 
L 107.686511 46.975795 
L 110.05923 46.975795 
L 112.43195 46.975795 
L 114.804669 46.975795 
L 117.177388 46.975795 
L 119.550107 46.975795 
L 121.922827 46.975795 
L 124.295546 46.975795 
L 126.668265 46.975795 
L 129.040984 46.975795 
L 131.413703 46.975795 
L 133.786423 46.975795 
L 136.159142 46.975795 
L 138.531861 46.975795 
L 140.90458 46.975795 
L 143.2773 46.975795 
L 145.650019 46.975795 
L 148.022738 46.975795 
L 150.395457 46.975795 
L 152.768176 46.975795 
L 155.140896 46.975795 
L 157.513615 46.975795 
L 159.886334 46.975795 
L 162.259053 46.975795 
L 164.631773 46.975795 
L 167.004492 46.975795 
L 169.377211 46.975795 
L 171.74993 46.975795 
L 174.122649 46.975795 
L 176.495369 46.975795 
L 178.868088 46.975795 
L 181.240807 46.975795 
L 183.613526 46.975795 
L 185.986246 46.975795 
L 188.358965 46.975795 
L 190.731684 46.975795 
L 193.104403 46.975795 
L 195.477122 46.975795 
L 197.849842 46.975795 
L 200.222561 46.975795 
L 202.59528 46.975795 
L 204.967999 46.975795 
L 207.340719 46.975795 
L 209.713438 46.975795 
L 212.086157 46.975795 
L 214.458876 46.975795 
L 216.831595 46.975795 
L 219.204315 46.975795 
L 221.577034 46.975795 
L 223.949753 46.975795 
L 226.322472 46.975795 
L 228.695191 46.975795 
L 231.067911 46.975795 
L 233.44063 46.975795 
L 235.813349 46.975795 
L 238.186068 46.975795 
L 240.558788 46.975795 
L 242.931507 46.975795 
L 245.304226 46.975795 
L 247.676945 46.975795 
L 250.049664 46.975795 
L 252.422384 46.975795 
L 254.795103 46.975795 
L 257.167822 46.975795 
L 259.540541 46.975795 
L 261.913261 46.975795 
L 264.28598 46.975795 
L 266.658699 46.975795 
L 269.031418 46.975795 
L 271.404137 46.975795 
L 273.776857 46.975795 
L 276.149576 46.975795 
L 278.522295 46.975795 
L 280.895014 46.975795 
L 283.267734 46.975795 
L 285.640453 46.975795 
L 288.013172 46.975795 
L 290.385891 46.975795 
L 292.75861 46.975795 
L 295.13133 46.975795 
L 297.504049 46.975795 
L 299.876768 46.975795 
L 302.249487 46.975795 
L 304.622207 46.975795 
L 306.994926 46.975795 
L 309.367645 46.975795 
L 311.740364 46.975795 
L 314.113083 46.975795 
L 316.485803 46.975795 
L 318.858522 46.975795 
L 321.231241 46.975795 
L 323.60396 46.975795 
L 325.976679 46.975795 
L 328.349399 46.975795 
L 330.722118 46.975795 
L 333.094837 46.975795 
L 335.467556 46.975795 
L 337.840276 46.975795 
L 340.212995 46.975795 
L 342.585714 46.975795 
L 344.958433 46.975795 
L 347.331152 46.975795 
L 349.703872 46.975795 
L 352.076591 46.975795 
L 352.076591 46.973018 
L 352.076591 46.973018 
L 349.703872 46.974301 
L 347.331152 46.972562 
L 344.958433 46.96758 
L 342.585714 46.957499 
L 340.212995 46.940453 
L 337.840276 46.91601 
L 335.467556 46.886043 
L 333.094837 46.8542 
L 330.722118 46.824213 
L 328.349399 46.798254 
L 325.976679 46.776054 
L 323.60396 46.75433 
L 321.231241 46.726621 
L 318.858522 46.685191 
L 316.485803 46.625838 
L 314.113083 46.552963 
L 311.740364 46.479922 
L 309.367645 46.422454 
L 306.994926 46.389912 
L 304.622207 46.382006 
L 302.249487 46.392654 
L 299.876768 46.415399 
L 297.504049 46.445383 
L 295.13133 46.477078 
L 292.75861 46.500237 
L 290.385891 46.499937 
L 288.013172 46.465689 
L 285.640453 46.403864 
L 283.267734 46.336466 
L 280.895014 46.275742 
L 278.522295 46.191615 
L 276.149576 46.012396 
L 273.776857 45.6827 
L 271.404137 45.243254 
L 269.031418 44.849569 
L 266.658699 44.681345 
L 264.28598 44.806071 
L 261.913261 45.126767 
L 259.540541 45.465544 
L 257.167822 45.695 
L 254.795103 45.796854 
L 252.422384 45.821454 
L 250.049664 45.814417 
L 247.676945 45.780795 
L 245.304226 45.701274 
L 242.931507 45.567279 
L 240.558788 45.396456 
L 238.186068 45.216406 
L 235.813349 45.036075 
L 233.44063 44.836789 
L 231.067911 44.598067 
L 228.695191 44.340185 
L 226.322472 44.140941 
L 223.949753 44.092641 
L 221.577034 44.220144 
L 219.204315 44.438436 
L 216.831595 44.604866 
L 214.458876 44.622148 
L 212.086157 44.488774 
L 209.713438 44.243749 
L 207.340719 43.860544 
L 204.967999 43.211964 
L 202.59528 42.184955 
L 200.222561 40.877406 
L 197.849842 39.672019 
L 195.477122 39.034386 
L 193.104403 39.158145 
L 190.731684 39.796776 
L 188.358965 40.465143 
L 185.986246 40.809988 
L 183.613526 40.799854 
L 181.240807 40.611743 
L 178.868088 40.388554 
L 176.495369 40.109024 
L 174.122649 39.650667 
L 171.74993 38.939061 
L 169.377211 38.029948 
L 167.004492 37.063775 
L 164.631773 36.15881 
L 162.259053 35.353479 
L 159.886334 34.63312 
L 157.513615 33.982535 
L 155.140896 33.400533 
L 152.768176 32.862651 
L 150.395457 32.269202 
L 148.022738 31.454602 
L 145.650019 30.301644 
L 143.2773 28.888299 
L 140.90458 27.508227 
L 138.531861 26.466511 
L 136.159142 25.772891 
L 133.786423 25.0459 
L 131.413703 23.808657 
L 129.040984 21.952827 
L 126.668265 19.921151 
L 124.295546 18.389057 
L 121.922827 17.708959 
L 119.550107 17.637424 
L 117.177388 17.589111 
L 114.804669 17.138934 
L 112.43195 16.306438 
L 110.05923 15.431765 
L 107.686511 14.834658 
L 105.313792 14.59086 
L 102.941073 14.5798 
L 100.568354 14.6802 
L 98.195634 14.905499 
L 95.822915 15.381156 
L 93.450196 16.217266 
L 91.077477 17.418797 
L 88.704758 18.911491 
L 86.332038 20.615669 
L 83.959319 22.481715 
L 81.5866 24.489429 
L 79.213881 26.64401 
L 76.841161 28.979278 
L 74.468442 31.553518 
L 72.095723 34.398292 
L 69.723004 37.42166 
L 67.350285 40.362674 
L 64.977565 42.884125 
L 62.604846 44.747078 
L 60.232127 45.919316 
L 57.859408 46.543693 
L 55.486688 46.824279 
L 53.113969 46.930452 
L 50.74125 46.964197 
z
" style="fill:#4c72b0;fill-opacity:0.25;"/>
   </g>
   <g id="line2d_55">
    <path clip-path="url(#p7a84452d51)" d="M 50.74125 46.964197 
L 55.486688 46.824279 
L 57.859408 46.543693 
L 60.232127 45.919316 
L 62.604846 44.747078 
L 64.977565 42.884125 
L 67.350285 40.362674 
L 74.468442 31.553518 
L 76.841161 28.979278 
L 79.213881 26.64401 
L 83.959319 22.481715 
L 86.332038 20.615669 
L 88.704758 18.911491 
L 91.077477 17.418797 
L 93.450196 16.217266 
L 95.822915 15.381156 
L 98.195634 14.905499 
L 100.568354 14.6802 
L 102.941073 14.5798 
L 105.313792 14.59086 
L 107.686511 14.834658 
L 110.05923 15.431765 
L 114.804669 17.138934 
L 117.177388 17.589111 
L 121.922827 17.708959 
L 124.295546 18.389057 
L 126.668265 19.921151 
L 129.040984 21.952827 
L 131.413703 23.808657 
L 133.786423 25.0459 
L 138.531861 26.466511 
L 140.90458 27.508227 
L 145.650019 30.301644 
L 148.022738 31.454602 
L 150.395457 32.269202 
L 159.886334 34.63312 
L 164.631773 36.15881 
L 171.74993 38.939061 
L 174.122649 39.650667 
L 176.495369 40.109024 
L 181.240807 40.611743 
L 183.613526 40.799854 
L 185.986246 40.809988 
L 188.358965 40.465143 
L 193.104403 39.158145 
L 195.477122 39.034386 
L 197.849842 39.672019 
L 204.967999 43.211964 
L 207.340719 43.860544 
L 209.713438 44.243749 
L 214.458876 44.622148 
L 216.831595 44.604866 
L 223.949753 44.092641 
L 226.322472 44.140941 
L 245.304226 45.701274 
L 250.049664 45.814417 
L 254.795103 45.796854 
L 257.167822 45.695 
L 261.913261 45.126767 
L 264.28598 44.806071 
L 266.658699 44.681345 
L 269.031418 44.849569 
L 276.149576 46.012396 
L 280.895014 46.275742 
L 292.75861 46.500237 
L 309.367645 46.422454 
L 328.349399 46.798254 
L 352.076591 46.973018 
L 352.076591 46.973018 
" style="fill:none;stroke:#4c72b0;stroke-linecap:round;stroke-width:1.75;"/>
   </g>
   <g id="patch_6">
    <path d="M 50.74125 46.975795 
L 352.076591 46.975795 
" style="fill:none;"/>
   </g>
  </g>
  <g id="axes_3">
   <g id="patch_7">
    <path d="M 385.558295 387.13375 
L 419.04 387.13375 
L 419.04 80.991591 
L 385.558295 80.991591 
z
" style="fill:#eaeaf2;"/>
   </g>
   <g id="matplotlib.axis_5">
    <g id="xtick_19"/>
    <g id="xtick_20"/>
   </g>
   <g id="matplotlib.axis_6">
    <g id="ytick_11">
     <g id="line2d_56">
      <path clip-path="url(#pa9f215815e)" d="M 385.558295 351.157014 
L 419.04 351.157014 
" style="fill:none;stroke:#ffffff;stroke-linecap:round;"/>
     </g>
     <g id="line2d_57"/>
    </g>
    <g id="ytick_12">
     <g id="line2d_58">
      <path clip-path="url(#pa9f215815e)" d="M 385.558295 313.627016 
L 419.04 313.627016 
" style="fill:none;stroke:#ffffff;stroke-linecap:round;"/>
     </g>
     <g id="line2d_59"/>
    </g>
    <g id="ytick_13">
     <g id="line2d_60">
      <path clip-path="url(#pa9f215815e)" d="M 385.558295 276.097019 
L 419.04 276.097019 
" style="fill:none;stroke:#ffffff;stroke-linecap:round;"/>
     </g>
     <g id="line2d_61"/>
    </g>
    <g id="ytick_14">
     <g id="line2d_62">
      <path clip-path="url(#pa9f215815e)" d="M 385.558295 238.567021 
L 419.04 238.567021 
" style="fill:none;stroke:#ffffff;stroke-linecap:round;"/>
     </g>
     <g id="line2d_63"/>
    </g>
    <g id="ytick_15">
     <g id="line2d_64">
      <path clip-path="url(#pa9f215815e)" d="M 385.558295 201.037023 
L 419.04 201.037023 
" style="fill:none;stroke:#ffffff;stroke-linecap:round;"/>
     </g>
     <g id="line2d_65"/>
    </g>
    <g id="ytick_16">
     <g id="line2d_66">
      <path clip-path="url(#pa9f215815e)" d="M 385.558295 163.507025 
L 419.04 163.507025 
" style="fill:none;stroke:#ffffff;stroke-linecap:round;"/>
     </g>
     <g id="line2d_67"/>
    </g>
    <g id="ytick_17">
     <g id="line2d_68">
      <path clip-path="url(#pa9f215815e)" d="M 385.558295 125.977028 
L 419.04 125.977028 
" style="fill:none;stroke:#ffffff;stroke-linecap:round;"/>
     </g>
     <g id="line2d_69"/>
    </g>
    <g id="ytick_18">
     <g id="line2d_70">
      <path clip-path="url(#pa9f215815e)" d="M 385.558295 88.44703 
L 419.04 88.44703 
" style="fill:none;stroke:#ffffff;stroke-linecap:round;"/>
     </g>
     <g id="line2d_71"/>
    </g>
   </g>
   <g id="PolyCollection_2">
    <path clip-path="url(#pa9f215815e)" d="M 385.587081 387.13375 
L 385.558295 387.13375 
L 385.558295 384.723182 
L 385.558295 382.312614 
L 385.558295 379.902045 
L 385.558295 377.491477 
L 385.558295 375.080909 
L 385.558295 372.670341 
L 385.558295 370.259773 
L 385.558295 367.849205 
L 385.558295 365.438636 
L 385.558295 363.028068 
L 385.558295 360.6175 
L 385.558295 358.206932 
L 385.558295 355.796364 
L 385.558295 353.385795 
L 385.558295 350.975227 
L 385.558295 348.564659 
L 385.558295 346.154091 
L 385.558295 343.743523 
L 385.558295 341.332955 
L 385.558295 338.922386 
L 385.558295 336.511818 
L 385.558295 334.10125 
L 385.558295 331.690682 
L 385.558295 329.280114 
L 385.558295 326.869545 
L 385.558295 324.458977 
L 385.558295 322.048409 
L 385.558295 319.637841 
L 385.558295 317.227273 
L 385.558295 314.816705 
L 385.558295 312.406136 
L 385.558295 309.995568 
L 385.558295 307.585 
L 385.558295 305.174432 
L 385.558295 302.763864 
L 385.558295 300.353295 
L 385.558295 297.942727 
L 385.558295 295.532159 
L 385.558295 293.121591 
L 385.558295 290.711023 
L 385.558295 288.300455 
L 385.558295 285.889886 
L 385.558295 283.479318 
L 385.558295 281.06875 
L 385.558295 278.658182 
L 385.558295 276.247614 
L 385.558295 273.837045 
L 385.558295 271.426477 
L 385.558295 269.015909 
L 385.558295 266.605341 
L 385.558295 264.194773 
L 385.558295 261.784205 
L 385.558295 259.373636 
L 385.558295 256.963068 
L 385.558295 254.5525 
L 385.558295 252.141932 
L 385.558295 249.731364 
L 385.558295 247.320795 
L 385.558295 244.910227 
L 385.558295 242.499659 
L 385.558295 240.089091 
L 385.558295 237.678523 
L 385.558295 235.267955 
L 385.558295 232.857386 
L 385.558295 230.446818 
L 385.558295 228.03625 
L 385.558295 225.625682 
L 385.558295 223.215114 
L 385.558295 220.804545 
L 385.558295 218.393977 
L 385.558295 215.983409 
L 385.558295 213.572841 
L 385.558295 211.162273 
L 385.558295 208.751705 
L 385.558295 206.341136 
L 385.558295 203.930568 
L 385.558295 201.52 
L 385.558295 199.109432 
L 385.558295 196.698864 
L 385.558295 194.288295 
L 385.558295 191.877727 
L 385.558295 189.467159 
L 385.558295 187.056591 
L 385.558295 184.646023 
L 385.558295 182.235455 
L 385.558295 179.824886 
L 385.558295 177.414318 
L 385.558295 175.00375 
L 385.558295 172.593182 
L 385.558295 170.182614 
L 385.558295 167.772045 
L 385.558295 165.361477 
L 385.558295 162.950909 
L 385.558295 160.540341 
L 385.558295 158.129773 
L 385.558295 155.719205 
L 385.558295 153.308636 
L 385.558295 150.898068 
L 385.558295 148.4875 
L 385.558295 146.076932 
L 385.558295 143.666364 
L 385.558295 141.255795 
L 385.558295 138.845227 
L 385.558295 136.434659 
L 385.558295 134.024091 
L 385.558295 131.613523 
L 385.558295 129.202955 
L 385.558295 126.792386 
L 385.558295 124.381818 
L 385.558295 121.97125 
L 385.558295 119.560682 
L 385.558295 117.150114 
L 385.558295 114.739545 
L 385.558295 112.328977 
L 385.558295 109.918409 
L 385.558295 107.507841 
L 385.558295 105.097273 
L 385.558295 102.686705 
L 385.558295 100.276136 
L 385.558295 97.865568 
L 385.558295 95.455 
L 385.558295 93.044432 
L 385.558295 90.633864 
L 385.558295 88.223295 
L 385.558295 85.812727 
L 385.558295 83.402159 
L 385.558295 80.991591 
L 385.562641 80.991591 
L 385.562641 80.991591 
L 385.559293 83.402159 
L 385.559956 85.812727 
L 385.562193 88.223295 
L 385.565727 90.633864 
L 385.570269 93.044432 
L 385.576344 95.455 
L 385.585534 97.865568 
L 385.59763 100.276136 
L 385.608039 102.686705 
L 385.611417 105.097273 
L 385.609025 107.507841 
L 385.610775 109.918409 
L 385.628317 112.328977 
L 385.663087 114.739545 
L 385.700063 117.150114 
L 385.71874 119.560682 
L 385.712944 121.97125 
L 385.694849 124.381818 
L 385.680651 126.792386 
L 385.678188 129.202955 
L 385.684489 131.613523 
L 385.690566 134.024091 
L 385.691369 136.434659 
L 385.689604 138.845227 
L 385.689088 141.255795 
L 385.690431 143.666364 
L 385.691276 146.076932 
L 385.687093 148.4875 
L 385.679782 150.898068 
L 385.687978 153.308636 
L 385.740777 155.719205 
L 385.851873 158.129773 
L 385.987656 160.540341 
L 386.069491 162.950909 
L 386.040418 165.361477 
L 385.929278 167.772045 
L 385.822547 170.182614 
L 385.782496 172.593182 
L 385.807668 175.00375 
L 385.852702 177.414318 
L 385.873133 179.824886 
L 385.860716 182.235455 
L 385.84238 184.646023 
L 385.850555 187.056591 
L 385.895981 189.467159 
L 385.959008 191.877727 
L 386.007096 194.288295 
L 386.029273 196.698864 
L 386.047796 199.109432 
L 386.094353 201.52 
L 386.179421 203.930568 
L 386.269386 206.341136 
L 386.29785 208.751705 
L 386.234705 211.162273 
L 386.132795 213.572841 
L 386.075086 215.983409 
L 386.096696 218.393977 
L 386.169756 220.804545 
L 386.240068 223.215114 
L 386.280568 225.625682 
L 386.324226 228.03625 
L 386.446296 230.446818 
L 386.703011 232.857386 
L 387.049847 235.267955 
L 387.321135 237.678523 
L 387.363924 240.089091 
L 387.202826 242.499659 
L 387.011263 244.910227 
L 386.940296 247.320795 
L 387.022032 249.731364 
L 387.195065 252.141932 
L 387.379379 254.5525 
L 387.53874 256.963068 
L 387.689987 259.373636 
L 387.884081 261.784205 
L 388.174515 264.194773 
L 388.540531 266.605341 
L 388.868011 269.015909 
L 389.08458 271.426477 
L 389.246789 273.837045 
L 389.44806 276.247614 
L 389.73453 278.658182 
L 390.083849 281.06875 
L 390.40702 283.479318 
L 390.668816 285.889886 
L 390.983033 288.300455 
L 391.502637 290.711023 
L 392.291238 293.121591 
L 393.244556 295.532159 
L 394.059399 297.942727 
L 394.496124 300.353295 
L 394.715305 302.763864 
L 395.148893 305.174432 
L 396.098712 307.585 
L 397.516138 309.995568 
L 398.994421 312.406136 
L 400.046462 314.816705 
L 400.583275 317.227273 
L 401.025253 319.637841 
L 401.89859 322.048409 
L 403.398526 324.458977 
L 405.224846 326.869545 
L 406.829781 329.280114 
L 407.966165 331.690682 
L 408.860572 334.10125 
L 409.865147 336.511818 
L 411.194912 338.922386 
L 412.753924 341.332955 
L 414.066272 343.743523 
L 414.807258 346.154091 
L 415.225642 348.564659 
L 415.677135 350.975227 
L 416.238715 353.385795 
L 416.854771 355.796364 
L 417.340492 358.206932 
L 417.445633 360.6175 
L 417.076698 363.028068 
L 416.016323 365.438636 
L 413.544916 367.849205 
L 408.948593 370.259773 
L 402.54338 372.670341 
L 395.877222 375.080909 
L 390.659084 377.491477 
L 387.570726 379.902045 
L 386.184012 382.312614 
L 385.710394 384.723182 
L 385.587081 387.13375 
z
" style="fill:#4c72b0;fill-opacity:0.25;"/>
   </g>
   <g id="line2d_72">
    <path clip-path="url(#pa9f215815e)" d="M 385.587081 387.13375 
L 385.710394 384.723182 
L 386.184012 382.312614 
L 387.570726 379.902045 
L 390.659084 377.491477 
L 395.877222 375.080909 
L 408.948593 370.259773 
L 413.544916 367.849205 
L 416.016323 365.438636 
L 417.076698 363.028068 
L 417.445633 360.6175 
L 417.340492 358.206932 
L 416.854771 355.796364 
L 415.677135 350.975227 
L 414.807258 346.154091 
L 414.066272 343.743523 
L 412.753924 341.332955 
L 411.194912 338.922386 
L 409.865147 336.511818 
L 406.829781 329.280114 
L 405.224846 326.869545 
L 403.398526 324.458977 
L 401.89859 322.048409 
L 401.025253 319.637841 
L 400.046462 314.816705 
L 398.994421 312.406136 
L 396.098712 307.585 
L 395.148893 305.174432 
L 394.715305 302.763864 
L 394.496124 300.353295 
L 394.059399 297.942727 
L 393.244556 295.532159 
L 392.291238 293.121591 
L 391.502637 290.711023 
L 390.983033 288.300455 
L 389.44806 276.247614 
L 388.540531 266.605341 
L 387.884081 261.784205 
L 387.022032 249.731364 
L 386.940296 247.320795 
L 387.011263 244.910227 
L 387.363924 240.089091 
L 387.321135 237.678523 
L 386.324226 228.03625 
L 386.132795 213.572841 
L 386.29785 208.751705 
L 386.179421 203.930568 
L 386.029273 196.698864 
L 385.822547 170.182614 
L 386.069491 162.950909 
L 385.687093 148.4875 
L 385.663087 114.739545 
L 385.611417 105.097273 
L 385.562641 80.991591 
L 385.562641 80.991591 
" style="fill:none;stroke:#4c72b0;stroke-linecap:round;stroke-width:1.75;"/>
   </g>
   <g id="patch_8">
    <path d="M 385.558295 387.13375 
L 385.558295 80.991591 
" style="fill:none;"/>
   </g>
  </g>
 </g>
 <defs>
  <clipPath id="p766642370e">
   <rect height="306.142159" width="301.335341" x="50.74125" y="80.991591"/>
  </clipPath>
  <clipPath id="p7a84452d51">
   <rect height="34.015795" width="301.335341" x="50.74125" y="12.96"/>
  </clipPath>
  <clipPath id="pa9f215815e">
   <rect height="306.142159" width="33.481705" x="385.558295" y="80.991591"/>
  </clipPath>
 </defs>
</svg>
