<?xml version="1.0" encoding="utf-8" standalone="no"?>
<!DOCTYPE svg PUBLIC "-//W3C//DTD SVG 1.1//EN"
  "http://www.w3.org/Graphics/SVG/1.1/DTD/svg11.dtd">
<!-- Created with matplotlib (http://matplotlib.org/) -->
<svg height="288pt" version="1.1" viewBox="0 0 432 288" width="432pt" xmlns="http://www.w3.org/2000/svg" xmlns:xlink="http://www.w3.org/1999/xlink">
 <defs>
  <style type="text/css">
*{stroke-linecap:butt;stroke-linejoin:round;}
  </style>
 </defs>
 <g id="figure_1">
  <g id="patch_1">
   <path d="M 0 288 
L 432 288 
L 432 0 
L 0 0 
z
" style="fill:#ffffff;"/>
  </g>
  <g id="axes_1">
   <g id="patch_2">
    <path d="M 54 252 
L 388.8 252 
L 388.8 34.56 
L 54 34.56 
z
" style="fill:#ffffff;"/>
   </g>
   <g id="matplotlib.axis_1">
    <g id="xtick_1">
     <g id="line2d_1">
      <defs>
       <path d="M 0 0 
L 0 3.5 
" id="m4ffe89d3c2" style="stroke:#000000;stroke-width:0.8;"/>
      </defs>
      <g>
       <use style="stroke:#000000;stroke-width:0.8;" x="54" xlink:href="#m4ffe89d3c2" y="252"/>
      </g>
     </g>
     <g id="text_1">
      <!-- 0.0 -->
      <defs>
       <path d="M 31.78125 66.40625 
Q 24.171875 66.40625 20.328125 58.90625 
Q 16.5 51.421875 16.5 36.375 
Q 16.5 21.390625 20.328125 13.890625 
Q 24.171875 6.390625 31.78125 6.390625 
Q 39.453125 6.390625 43.28125 13.890625 
Q 47.125 21.390625 47.125 36.375 
Q 47.125 51.421875 43.28125 58.90625 
Q 39.453125 66.40625 31.78125 66.40625 
z
M 31.78125 74.21875 
Q 44.046875 74.21875 50.515625 64.515625 
Q 56.984375 54.828125 56.984375 36.375 
Q 56.984375 17.96875 50.515625 8.265625 
Q 44.046875 -1.421875 31.78125 -1.421875 
Q 19.53125 -1.421875 13.0625 8.265625 
Q 6.59375 17.96875 6.59375 36.375 
Q 6.59375 54.828125 13.0625 64.515625 
Q 19.53125 74.21875 31.78125 74.21875 
z
" id="DejaVuSans-30"/>
       <path d="M 10.6875 12.40625 
L 21 12.40625 
L 21 0 
L 10.6875 0 
z
" id="DejaVuSans-2e"/>
      </defs>
      <g transform="translate(46.048437 266.598437)scale(0.1 -0.1)">
       <use xlink:href="#DejaVuSans-30"/>
       <use x="63.623047" xlink:href="#DejaVuSans-2e"/>
       <use x="95.410156" xlink:href="#DejaVuSans-30"/>
      </g>
     </g>
    </g>
    <g id="xtick_2">
     <g id="line2d_2">
      <g>
       <use style="stroke:#000000;stroke-width:0.8;" x="120.96" xlink:href="#m4ffe89d3c2" y="252"/>
      </g>
     </g>
     <g id="text_2">
      <!-- 0.2 -->
      <defs>
       <path d="M 19.1875 8.296875 
L 53.609375 8.296875 
L 53.609375 0 
L 7.328125 0 
L 7.328125 8.296875 
Q 12.9375 14.109375 22.625 23.890625 
Q 32.328125 33.6875 34.8125 36.53125 
Q 39.546875 41.84375 41.421875 45.53125 
Q 43.3125 49.21875 43.3125 52.78125 
Q 43.3125 58.59375 39.234375 62.25 
Q 35.15625 65.921875 28.609375 65.921875 
Q 23.96875 65.921875 18.8125 64.3125 
Q 13.671875 62.703125 7.8125 59.421875 
L 7.8125 69.390625 
Q 13.765625 71.78125 18.9375 73 
Q 24.125 74.21875 28.421875 74.21875 
Q 39.75 74.21875 46.484375 68.546875 
Q 53.21875 62.890625 53.21875 53.421875 
Q 53.21875 48.921875 51.53125 44.890625 
Q 49.859375 40.875 45.40625 35.40625 
Q 44.1875 33.984375 37.640625 27.21875 
Q 31.109375 20.453125 19.1875 8.296875 
z
" id="DejaVuSans-32"/>
      </defs>
      <g transform="translate(113.008438 266.598437)scale(0.1 -0.1)">
       <use xlink:href="#DejaVuSans-30"/>
       <use x="63.623047" xlink:href="#DejaVuSans-2e"/>
       <use x="95.410156" xlink:href="#DejaVuSans-32"/>
      </g>
     </g>
    </g>
    <g id="xtick_3">
     <g id="line2d_3">
      <g>
       <use style="stroke:#000000;stroke-width:0.8;" x="187.92" xlink:href="#m4ffe89d3c2" y="252"/>
      </g>
     </g>
     <g id="text_3">
      <!-- 0.4 -->
      <defs>
       <path d="M 37.796875 64.3125 
L 12.890625 25.390625 
L 37.796875 25.390625 
z
M 35.203125 72.90625 
L 47.609375 72.90625 
L 47.609375 25.390625 
L 58.015625 25.390625 
L 58.015625 17.1875 
L 47.609375 17.1875 
L 47.609375 0 
L 37.796875 0 
L 37.796875 17.1875 
L 4.890625 17.1875 
L 4.890625 26.703125 
z
" id="DejaVuSans-34"/>
      </defs>
      <g transform="translate(179.968438 266.598437)scale(0.1 -0.1)">
       <use xlink:href="#DejaVuSans-30"/>
       <use x="63.623047" xlink:href="#DejaVuSans-2e"/>
       <use x="95.410156" xlink:href="#DejaVuSans-34"/>
      </g>
     </g>
    </g>
    <g id="xtick_4">
     <g id="line2d_4">
      <g>
       <use style="stroke:#000000;stroke-width:0.8;" x="254.88" xlink:href="#m4ffe89d3c2" y="252"/>
      </g>
     </g>
     <g id="text_4">
      <!-- 0.6 -->
      <defs>
       <path d="M 33.015625 40.375 
Q 26.375 40.375 22.484375 35.828125 
Q 18.609375 31.296875 18.609375 23.390625 
Q 18.609375 15.53125 22.484375 10.953125 
Q 26.375 6.390625 33.015625 6.390625 
Q 39.65625 6.390625 43.53125 10.953125 
Q 47.40625 15.53125 47.40625 23.390625 
Q 47.40625 31.296875 43.53125 35.828125 
Q 39.65625 40.375 33.015625 40.375 
z
M 52.59375 71.296875 
L 52.59375 62.3125 
Q 48.875 64.0625 45.09375 64.984375 
Q 41.3125 65.921875 37.59375 65.921875 
Q 27.828125 65.921875 22.671875 59.328125 
Q 17.53125 52.734375 16.796875 39.40625 
Q 19.671875 43.65625 24.015625 45.921875 
Q 28.375 48.1875 33.59375 48.1875 
Q 44.578125 48.1875 50.953125 41.515625 
Q 57.328125 34.859375 57.328125 23.390625 
Q 57.328125 12.15625 50.6875 5.359375 
Q 44.046875 -1.421875 33.015625 -1.421875 
Q 20.359375 -1.421875 13.671875 8.265625 
Q 6.984375 17.96875 6.984375 36.375 
Q 6.984375 53.65625 15.1875 63.9375 
Q 23.390625 74.21875 37.203125 74.21875 
Q 40.921875 74.21875 44.703125 73.484375 
Q 48.484375 72.75 52.59375 71.296875 
z
" id="DejaVuSans-36"/>
      </defs>
      <g transform="translate(246.928438 266.598437)scale(0.1 -0.1)">
       <use xlink:href="#DejaVuSans-30"/>
       <use x="63.623047" xlink:href="#DejaVuSans-2e"/>
       <use x="95.410156" xlink:href="#DejaVuSans-36"/>
      </g>
     </g>
    </g>
    <g id="xtick_5">
     <g id="line2d_5">
      <g>
       <use style="stroke:#000000;stroke-width:0.8;" x="321.84" xlink:href="#m4ffe89d3c2" y="252"/>
      </g>
     </g>
     <g id="text_5">
      <!-- 0.8 -->
      <defs>
       <path d="M 31.78125 34.625 
Q 24.75 34.625 20.71875 30.859375 
Q 16.703125 27.09375 16.703125 20.515625 
Q 16.703125 13.921875 20.71875 10.15625 
Q 24.75 6.390625 31.78125 6.390625 
Q 38.8125 6.390625 42.859375 10.171875 
Q 46.921875 13.96875 46.921875 20.515625 
Q 46.921875 27.09375 42.890625 30.859375 
Q 38.875 34.625 31.78125 34.625 
z
M 21.921875 38.8125 
Q 15.578125 40.375 12.03125 44.71875 
Q 8.5 49.078125 8.5 55.328125 
Q 8.5 64.0625 14.71875 69.140625 
Q 20.953125 74.21875 31.78125 74.21875 
Q 42.671875 74.21875 48.875 69.140625 
Q 55.078125 64.0625 55.078125 55.328125 
Q 55.078125 49.078125 51.53125 44.71875 
Q 48 40.375 41.703125 38.8125 
Q 48.828125 37.15625 52.796875 32.3125 
Q 56.78125 27.484375 56.78125 20.515625 
Q 56.78125 9.90625 50.3125 4.234375 
Q 43.84375 -1.421875 31.78125 -1.421875 
Q 19.734375 -1.421875 13.25 4.234375 
Q 6.78125 9.90625 6.78125 20.515625 
Q 6.78125 27.484375 10.78125 32.3125 
Q 14.796875 37.15625 21.921875 38.8125 
z
M 18.3125 54.390625 
Q 18.3125 48.734375 21.84375 45.5625 
Q 25.390625 42.390625 31.78125 42.390625 
Q 38.140625 42.390625 41.71875 45.5625 
Q 45.3125 48.734375 45.3125 54.390625 
Q 45.3125 60.0625 41.71875 63.234375 
Q 38.140625 66.40625 31.78125 66.40625 
Q 25.390625 66.40625 21.84375 63.234375 
Q 18.3125 60.0625 18.3125 54.390625 
z
" id="DejaVuSans-38"/>
      </defs>
      <g transform="translate(313.888438 266.598437)scale(0.1 -0.1)">
       <use xlink:href="#DejaVuSans-30"/>
       <use x="63.623047" xlink:href="#DejaVuSans-2e"/>
       <use x="95.410156" xlink:href="#DejaVuSans-38"/>
      </g>
     </g>
    </g>
    <g id="xtick_6">
     <g id="line2d_6">
      <g>
       <use style="stroke:#000000;stroke-width:0.8;" x="388.8" xlink:href="#m4ffe89d3c2" y="252"/>
      </g>
     </g>
     <g id="text_6">
      <!-- 1.0 -->
      <defs>
       <path d="M 12.40625 8.296875 
L 28.515625 8.296875 
L 28.515625 63.921875 
L 10.984375 60.40625 
L 10.984375 69.390625 
L 28.421875 72.90625 
L 38.28125 72.90625 
L 38.28125 8.296875 
L 54.390625 8.296875 
L 54.390625 0 
L 12.40625 0 
z
" id="DejaVuSans-31"/>
      </defs>
      <g transform="translate(380.848437 266.598437)scale(0.1 -0.1)">
       <use xlink:href="#DejaVuSans-31"/>
       <use x="63.623047" xlink:href="#DejaVuSans-2e"/>
       <use x="95.410156" xlink:href="#DejaVuSans-30"/>
      </g>
     </g>
    </g>
    <g id="text_7">
     <!-- False Positive Rate -->
     <defs>
      <path d="M 9.8125 72.90625 
L 51.703125 72.90625 
L 51.703125 64.59375 
L 19.671875 64.59375 
L 19.671875 43.109375 
L 48.578125 43.109375 
L 48.578125 34.8125 
L 19.671875 34.8125 
L 19.671875 0 
L 9.8125 0 
z
" id="DejaVuSans-46"/>
      <path d="M 34.28125 27.484375 
Q 23.390625 27.484375 19.1875 25 
Q 14.984375 22.515625 14.984375 16.5 
Q 14.984375 11.71875 18.140625 8.90625 
Q 21.296875 6.109375 26.703125 6.109375 
Q 34.1875 6.109375 38.703125 11.40625 
Q 43.21875 16.703125 43.21875 25.484375 
L 43.21875 27.484375 
z
M 52.203125 31.203125 
L 52.203125 0 
L 43.21875 0 
L 43.21875 8.296875 
Q 40.140625 3.328125 35.546875 0.953125 
Q 30.953125 -1.421875 24.3125 -1.421875 
Q 15.921875 -1.421875 10.953125 3.296875 
Q 6 8.015625 6 15.921875 
Q 6 25.140625 12.171875 29.828125 
Q 18.359375 34.515625 30.609375 34.515625 
L 43.21875 34.515625 
L 43.21875 35.40625 
Q 43.21875 41.609375 39.140625 45 
Q 35.0625 48.390625 27.6875 48.390625 
Q 23 48.390625 18.546875 47.265625 
Q 14.109375 46.140625 10.015625 43.890625 
L 10.015625 52.203125 
Q 14.9375 54.109375 19.578125 55.046875 
Q 24.21875 56 28.609375 56 
Q 40.484375 56 46.34375 49.84375 
Q 52.203125 43.703125 52.203125 31.203125 
z
" id="DejaVuSans-61"/>
      <path d="M 9.421875 75.984375 
L 18.40625 75.984375 
L 18.40625 0 
L 9.421875 0 
z
" id="DejaVuSans-6c"/>
      <path d="M 44.28125 53.078125 
L 44.28125 44.578125 
Q 40.484375 46.53125 36.375 47.5 
Q 32.28125 48.484375 27.875 48.484375 
Q 21.1875 48.484375 17.84375 46.4375 
Q 14.5 44.390625 14.5 40.28125 
Q 14.5 37.15625 16.890625 35.375 
Q 19.28125 33.59375 26.515625 31.984375 
L 29.59375 31.296875 
Q 39.15625 29.25 43.1875 25.515625 
Q 47.21875 21.78125 47.21875 15.09375 
Q 47.21875 7.46875 41.1875 3.015625 
Q 35.15625 -1.421875 24.609375 -1.421875 
Q 20.21875 -1.421875 15.453125 -0.5625 
Q 10.6875 0.296875 5.421875 2 
L 5.421875 11.28125 
Q 10.40625 8.6875 15.234375 7.390625 
Q 20.0625 6.109375 24.8125 6.109375 
Q 31.15625 6.109375 34.5625 8.28125 
Q 37.984375 10.453125 37.984375 14.40625 
Q 37.984375 18.0625 35.515625 20.015625 
Q 33.0625 21.96875 24.703125 23.78125 
L 21.578125 24.515625 
Q 13.234375 26.265625 9.515625 29.90625 
Q 5.8125 33.546875 5.8125 39.890625 
Q 5.8125 47.609375 11.28125 51.796875 
Q 16.75 56 26.8125 56 
Q 31.78125 56 36.171875 55.265625 
Q 40.578125 54.546875 44.28125 53.078125 
z
" id="DejaVuSans-73"/>
      <path d="M 56.203125 29.59375 
L 56.203125 25.203125 
L 14.890625 25.203125 
Q 15.484375 15.921875 20.484375 11.0625 
Q 25.484375 6.203125 34.421875 6.203125 
Q 39.59375 6.203125 44.453125 7.46875 
Q 49.3125 8.734375 54.109375 11.28125 
L 54.109375 2.78125 
Q 49.265625 0.734375 44.1875 -0.34375 
Q 39.109375 -1.421875 33.890625 -1.421875 
Q 20.796875 -1.421875 13.15625 6.1875 
Q 5.515625 13.8125 5.515625 26.8125 
Q 5.515625 40.234375 12.765625 48.109375 
Q 20.015625 56 32.328125 56 
Q 43.359375 56 49.78125 48.890625 
Q 56.203125 41.796875 56.203125 29.59375 
z
M 47.21875 32.234375 
Q 47.125 39.59375 43.09375 43.984375 
Q 39.0625 48.390625 32.421875 48.390625 
Q 24.90625 48.390625 20.390625 44.140625 
Q 15.875 39.890625 15.1875 32.171875 
z
" id="DejaVuSans-65"/>
      <path id="DejaVuSans-20"/>
      <path d="M 19.671875 64.796875 
L 19.671875 37.40625 
L 32.078125 37.40625 
Q 38.96875 37.40625 42.71875 40.96875 
Q 46.484375 44.53125 46.484375 51.125 
Q 46.484375 57.671875 42.71875 61.234375 
Q 38.96875 64.796875 32.078125 64.796875 
z
M 9.8125 72.90625 
L 32.078125 72.90625 
Q 44.34375 72.90625 50.609375 67.359375 
Q 56.890625 61.8125 56.890625 51.125 
Q 56.890625 40.328125 50.609375 34.8125 
Q 44.34375 29.296875 32.078125 29.296875 
L 19.671875 29.296875 
L 19.671875 0 
L 9.8125 0 
z
" id="DejaVuSans-50"/>
      <path d="M 30.609375 48.390625 
Q 23.390625 48.390625 19.1875 42.75 
Q 14.984375 37.109375 14.984375 27.296875 
Q 14.984375 17.484375 19.15625 11.84375 
Q 23.34375 6.203125 30.609375 6.203125 
Q 37.796875 6.203125 41.984375 11.859375 
Q 46.1875 17.53125 46.1875 27.296875 
Q 46.1875 37.015625 41.984375 42.703125 
Q 37.796875 48.390625 30.609375 48.390625 
z
M 30.609375 56 
Q 42.328125 56 49.015625 48.375 
Q 55.71875 40.765625 55.71875 27.296875 
Q 55.71875 13.875 49.015625 6.21875 
Q 42.328125 -1.421875 30.609375 -1.421875 
Q 18.84375 -1.421875 12.171875 6.21875 
Q 5.515625 13.875 5.515625 27.296875 
Q 5.515625 40.765625 12.171875 48.375 
Q 18.84375 56 30.609375 56 
z
" id="DejaVuSans-6f"/>
      <path d="M 9.421875 54.6875 
L 18.40625 54.6875 
L 18.40625 0 
L 9.421875 0 
z
M 9.421875 75.984375 
L 18.40625 75.984375 
L 18.40625 64.59375 
L 9.421875 64.59375 
z
" id="DejaVuSans-69"/>
      <path d="M 18.3125 70.21875 
L 18.3125 54.6875 
L 36.8125 54.6875 
L 36.8125 47.703125 
L 18.3125 47.703125 
L 18.3125 18.015625 
Q 18.3125 11.328125 20.140625 9.421875 
Q 21.96875 7.515625 27.59375 7.515625 
L 36.8125 7.515625 
L 36.8125 0 
L 27.59375 0 
Q 17.1875 0 13.234375 3.875 
Q 9.28125 7.765625 9.28125 18.015625 
L 9.28125 47.703125 
L 2.6875 47.703125 
L 2.6875 54.6875 
L 9.28125 54.6875 
L 9.28125 70.21875 
z
" id="DejaVuSans-74"/>
      <path d="M 2.984375 54.6875 
L 12.5 54.6875 
L 29.59375 8.796875 
L 46.6875 54.6875 
L 56.203125 54.6875 
L 35.6875 0 
L 23.484375 0 
z
" id="DejaVuSans-76"/>
      <path d="M 44.390625 34.1875 
Q 47.5625 33.109375 50.5625 29.59375 
Q 53.5625 26.078125 56.59375 19.921875 
L 66.609375 0 
L 56 0 
L 46.6875 18.703125 
Q 43.0625 26.03125 39.671875 28.421875 
Q 36.28125 30.8125 30.421875 30.8125 
L 19.671875 30.8125 
L 19.671875 0 
L 9.8125 0 
L 9.8125 72.90625 
L 32.078125 72.90625 
Q 44.578125 72.90625 50.734375 67.671875 
Q 56.890625 62.453125 56.890625 51.90625 
Q 56.890625 45.015625 53.6875 40.46875 
Q 50.484375 35.9375 44.390625 34.1875 
z
M 19.671875 64.796875 
L 19.671875 38.921875 
L 32.078125 38.921875 
Q 39.203125 38.921875 42.84375 42.21875 
Q 46.484375 45.515625 46.484375 51.90625 
Q 46.484375 58.296875 42.84375 61.546875 
Q 39.203125 64.796875 32.078125 64.796875 
z
" id="DejaVuSans-52"/>
     </defs>
     <g transform="translate(174.194531 280.276563)scale(0.1 -0.1)">
      <use xlink:href="#DejaVuSans-46"/>
      <use x="57.378906" xlink:href="#DejaVuSans-61"/>
      <use x="118.658203" xlink:href="#DejaVuSans-6c"/>
      <use x="146.441406" xlink:href="#DejaVuSans-73"/>
      <use x="198.541016" xlink:href="#DejaVuSans-65"/>
      <use x="260.064453" xlink:href="#DejaVuSans-20"/>
      <use x="291.851562" xlink:href="#DejaVuSans-50"/>
      <use x="352.107422" xlink:href="#DejaVuSans-6f"/>
      <use x="413.289062" xlink:href="#DejaVuSans-73"/>
      <use x="465.388672" xlink:href="#DejaVuSans-69"/>
      <use x="493.171875" xlink:href="#DejaVuSans-74"/>
      <use x="532.380859" xlink:href="#DejaVuSans-69"/>
      <use x="560.164062" xlink:href="#DejaVuSans-76"/>
      <use x="619.34375" xlink:href="#DejaVuSans-65"/>
      <use x="680.867188" xlink:href="#DejaVuSans-20"/>
      <use x="712.654297" xlink:href="#DejaVuSans-52"/>
      <use x="782.105469" xlink:href="#DejaVuSans-61"/>
      <use x="843.384766" xlink:href="#DejaVuSans-74"/>
      <use x="882.59375" xlink:href="#DejaVuSans-65"/>
     </g>
    </g>
   </g>
   <g id="matplotlib.axis_2">
    <g id="ytick_1">
     <g id="line2d_7">
      <defs>
       <path d="M 0 0 
L -3.5 0 
" id="m4448a5aa24" style="stroke:#000000;stroke-width:0.8;"/>
      </defs>
      <g>
       <use style="stroke:#000000;stroke-width:0.8;" x="54" xlink:href="#m4448a5aa24" y="252"/>
      </g>
     </g>
     <g id="text_8">
      <!-- 0.0 -->
      <g transform="translate(31.096875 255.799219)scale(0.1 -0.1)">
       <use xlink:href="#DejaVuSans-30"/>
       <use x="63.623047" xlink:href="#DejaVuSans-2e"/>
       <use x="95.410156" xlink:href="#DejaVuSans-30"/>
      </g>
     </g>
    </g>
    <g id="ytick_2">
     <g id="line2d_8">
      <g>
       <use style="stroke:#000000;stroke-width:0.8;" x="54" xlink:href="#m4448a5aa24" y="208.942574"/>
      </g>
     </g>
     <g id="text_9">
      <!-- 0.2 -->
      <g transform="translate(31.096875 212.741793)scale(0.1 -0.1)">
       <use xlink:href="#DejaVuSans-30"/>
       <use x="63.623047" xlink:href="#DejaVuSans-2e"/>
       <use x="95.410156" xlink:href="#DejaVuSans-32"/>
      </g>
     </g>
    </g>
    <g id="ytick_3">
     <g id="line2d_9">
      <g>
       <use style="stroke:#000000;stroke-width:0.8;" x="54" xlink:href="#m4448a5aa24" y="165.885149"/>
      </g>
     </g>
     <g id="text_10">
      <!-- 0.4 -->
      <g transform="translate(31.096875 169.684367)scale(0.1 -0.1)">
       <use xlink:href="#DejaVuSans-30"/>
       <use x="63.623047" xlink:href="#DejaVuSans-2e"/>
       <use x="95.410156" xlink:href="#DejaVuSans-34"/>
      </g>
     </g>
    </g>
    <g id="ytick_4">
     <g id="line2d_10">
      <g>
       <use style="stroke:#000000;stroke-width:0.8;" x="54" xlink:href="#m4448a5aa24" y="122.827723"/>
      </g>
     </g>
     <g id="text_11">
      <!-- 0.6 -->
      <g transform="translate(31.096875 126.626942)scale(0.1 -0.1)">
       <use xlink:href="#DejaVuSans-30"/>
       <use x="63.623047" xlink:href="#DejaVuSans-2e"/>
       <use x="95.410156" xlink:href="#DejaVuSans-36"/>
      </g>
     </g>
    </g>
    <g id="ytick_5">
     <g id="line2d_11">
      <g>
       <use style="stroke:#000000;stroke-width:0.8;" x="54" xlink:href="#m4448a5aa24" y="79.770297"/>
      </g>
     </g>
     <g id="text_12">
      <!-- 0.8 -->
      <g transform="translate(31.096875 83.569516)scale(0.1 -0.1)">
       <use xlink:href="#DejaVuSans-30"/>
       <use x="63.623047" xlink:href="#DejaVuSans-2e"/>
       <use x="95.410156" xlink:href="#DejaVuSans-38"/>
      </g>
     </g>
    </g>
    <g id="ytick_6">
     <g id="line2d_12">
      <g>
       <use style="stroke:#000000;stroke-width:0.8;" x="54" xlink:href="#m4448a5aa24" y="36.712871"/>
      </g>
     </g>
     <g id="text_13">
      <!-- 1.0 -->
      <g transform="translate(31.096875 40.51209)scale(0.1 -0.1)">
       <use xlink:href="#DejaVuSans-31"/>
       <use x="63.623047" xlink:href="#DejaVuSans-2e"/>
       <use x="95.410156" xlink:href="#DejaVuSans-30"/>
      </g>
     </g>
    </g>
    <g id="text_14">
     <!-- True Positive Rate -->
     <defs>
      <path d="M -0.296875 72.90625 
L 61.375 72.90625 
L 61.375 64.59375 
L 35.5 64.59375 
L 35.5 0 
L 25.59375 0 
L 25.59375 64.59375 
L -0.296875 64.59375 
z
" id="DejaVuSans-54"/>
      <path d="M 41.109375 46.296875 
Q 39.59375 47.171875 37.8125 47.578125 
Q 36.03125 48 33.890625 48 
Q 26.265625 48 22.1875 43.046875 
Q 18.109375 38.09375 18.109375 28.8125 
L 18.109375 0 
L 9.078125 0 
L 9.078125 54.6875 
L 18.109375 54.6875 
L 18.109375 46.1875 
Q 20.953125 51.171875 25.484375 53.578125 
Q 30.03125 56 36.53125 56 
Q 37.453125 56 38.578125 55.875 
Q 39.703125 55.765625 41.0625 55.515625 
z
" id="DejaVuSans-72"/>
      <path d="M 8.5 21.578125 
L 8.5 54.6875 
L 17.484375 54.6875 
L 17.484375 21.921875 
Q 17.484375 14.15625 20.5 10.265625 
Q 23.53125 6.390625 29.59375 6.390625 
Q 36.859375 6.390625 41.078125 11.03125 
Q 45.3125 15.671875 45.3125 23.6875 
L 45.3125 54.6875 
L 54.296875 54.6875 
L 54.296875 0 
L 45.3125 0 
L 45.3125 8.40625 
Q 42.046875 3.421875 37.71875 1 
Q 33.40625 -1.421875 27.6875 -1.421875 
Q 18.265625 -1.421875 13.375 4.4375 
Q 8.5 10.296875 8.5 21.578125 
z
M 31.109375 56 
z
" id="DejaVuSans-75"/>
     </defs>
     <g transform="translate(25.017187 188.826094)rotate(-90)scale(0.1 -0.1)">
      <use xlink:href="#DejaVuSans-54"/>
      <use x="60.865234" xlink:href="#DejaVuSans-72"/>
      <use x="101.978516" xlink:href="#DejaVuSans-75"/>
      <use x="165.357422" xlink:href="#DejaVuSans-65"/>
      <use x="226.880859" xlink:href="#DejaVuSans-20"/>
      <use x="258.667969" xlink:href="#DejaVuSans-50"/>
      <use x="318.923828" xlink:href="#DejaVuSans-6f"/>
      <use x="380.105469" xlink:href="#DejaVuSans-73"/>
      <use x="432.205078" xlink:href="#DejaVuSans-69"/>
      <use x="459.988281" xlink:href="#DejaVuSans-74"/>
      <use x="499.197266" xlink:href="#DejaVuSans-69"/>
      <use x="526.980469" xlink:href="#DejaVuSans-76"/>
      <use x="586.160156" xlink:href="#DejaVuSans-65"/>
      <use x="647.683594" xlink:href="#DejaVuSans-20"/>
      <use x="679.470703" xlink:href="#DejaVuSans-52"/>
      <use x="748.921875" xlink:href="#DejaVuSans-61"/>
      <use x="810.201172" xlink:href="#DejaVuSans-74"/>
      <use x="849.410156" xlink:href="#DejaVuSans-65"/>
     </g>
    </g>
   </g>
   <g id="line2d_13">
    <path clip-path="url(#p17a10d3bdc)" d="M 54 251.976564 
L 54.019585 251.976564 
L 54.097923 244.242539 
L 54.137093 244.242539 
L 54.235016 238.992776 
L 54.254601 238.992776 
L 54.352524 234.8914 
L 54.391693 234.844527 
L 54.470032 232.828993 
L 54.528786 232.78212 
L 54.62671 231.39937 
L 54.646294 231.39937 
L 54.744218 229.219781 
L 54.763802 229.219781 
L 54.861726 227.766722 
L 54.88131 227.766722 
L 54.979234 225.891807 
L 54.998818 225.891807 
L 55.096742 224.532493 
L 55.135911 224.509057 
L 55.233834 222.493523 
L 55.253419 222.493523 
L 55.351342 221.063901 
L 55.410097 220.970155 
L 55.50802 218.978057 
L 55.527605 218.978057 
L 55.625528 217.571871 
L 55.664697 217.524998 
L 55.762621 216.165685 
L 55.821375 216.071939 
L 55.919298 214.759498 
L 55.938883 214.759498 
L 56.036806 213.611113 
L 56.056391 213.611113 
L 56.154314 212.368982 
L 56.193483 212.345545 
L 56.291407 211.244033 
L 56.330576 211.220596 
L 56.4285 210.259702 
L 56.506838 210.236266 
L 56.585177 209.720664 
L 56.624346 209.720664 
L 56.72227 209.322245 
L 56.781024 209.322245 
L 56.878947 208.267605 
L 56.898532 208.267605 
L 56.996455 207.236401 
L 57.035624 207.142656 
L 57.133548 206.205198 
L 57.192302 206.111452 
L 57.290225 205.548978 
L 57.329395 205.455232 
L 57.427318 204.963067 
L 57.446903 204.963067 
L 57.544826 204.236537 
L 57.583995 204.166228 
L 57.681919 202.783478 
L 57.701503 202.783478 
L 57.799427 201.541347 
L 57.819011 201.541347 
L 57.877765 200.885127 
L 57.936519 200.885127 
L 58.014858 200.322652 
L 58.093197 200.322652 
L 58.19112 199.947669 
L 58.249874 199.924233 
L 58.347798 199.47894 
L 58.406552 199.385194 
L 58.504475 198.846156 
L 58.543644 198.82272 
L 58.641568 198.283682 
L 58.680737 198.236809 
L 58.77866 197.43997 
L 58.798245 197.43997 
L 58.896168 196.807186 
L 58.954922 196.736877 
L 59.033261 196.291584 
L 59.092015 196.197839 
L 59.189939 194.979144 
L 59.209523 194.979144 
L 59.287862 194.111996 
L 59.40537 194.065123 
L 59.503293 193.596394 
L 59.601217 193.502648 
L 59.69914 192.752682 
L 59.738309 192.752682 
L 59.836233 191.885534 
L 59.914572 191.791788 
L 60.012495 190.901204 
L 60.051664 190.807458 
L 60.149588 189.893437 
L 60.169172 189.893437 
L 60.267096 189.284089 
L 60.32585 189.190343 
L 60.423773 188.698178 
L 60.443358 188.698178 
L 60.541281 188.393505 
L 60.560866 188.393505 
L 60.658789 187.362301 
L 60.697958 187.315428 
L 60.795882 186.307661 
L 60.815467 186.307661 
L 60.91339 185.581132 
L 60.952559 185.487386 
L 61.050483 184.690547 
L 61.089652 184.620238 
L 61.187575 183.917145 
L 61.226745 183.823399 
L 61.324668 183.35467 
L 61.363837 183.35467 
L 61.461761 182.510958 
L 61.540099 182.464085 
L 61.638023 181.854738 
L 61.657607 181.854738 
L 61.755531 181.339136 
L 61.7947 181.339136 
L 61.892624 180.425115 
L 61.931793 180.425115 
L 62.029716 179.300166 
L 62.049301 179.300166 
L 62.147224 178.667382 
L 62.205978 178.573637 
L 62.284317 177.940853 
L 62.343071 177.940853 
L 62.440994 177.49556 
L 62.480164 177.401815 
L 62.578087 176.909649 
L 62.656426 176.862777 
L 62.754349 176.534666 
L 62.793519 176.464357 
L 62.891442 175.7847 
L 62.911027 175.7847 
L 63.00895 174.987861 
L 63.028535 174.987861 
L 63.126458 173.956658 
L 63.165627 173.886349 
L 63.263551 173.300438 
L 63.361474 173.206692 
L 63.459397 172.292671 
L 63.537736 172.269235 
L 63.63566 171.753633 
L 63.655244 171.753633 
L 63.753168 171.003667 
L 63.811922 170.933357 
L 63.89026 170.300574 
L 63.92943 170.300574 
L 64.027353 170.066209 
L 64.125276 170.019336 
L 64.2232 169.527171 
L 64.262369 169.433425 
L 64.360292 169.152188 
L 64.379877 169.152188 
L 64.477801 168.753769 
L 64.536555 168.753769 
L 64.634478 168.355349 
L 64.673647 168.28504 
L 64.751986 168.027239 
L 64.849909 167.980366 
L 64.947833 167.605383 
L 65.026171 167.535074 
L 65.124095 167.113218 
L 65.143679 167.113218 
L 65.241603 166.386688 
L 65.261187 166.386688 
L 65.339526 166.035142 
L 65.378696 166.035142 
L 65.476619 165.730468 
L 65.574542 165.636722 
L 65.672466 165.308612 
L 65.73122 165.238303 
L 65.829143 164.839883 
L 65.927066 164.746138 
L 66.02499 164.441464 
L 66.044574 164.441464 
L 66.142498 163.878989 
L 66.181667 163.832116 
L 66.279591 163.199333 
L 66.338345 163.105587 
L 66.436268 162.941532 
L 66.475437 162.941532 
L 66.573361 162.472803 
L 66.690869 162.379057 
L 66.769207 162.144693 
L 66.867131 162.074384 
L 66.965054 161.746273 
L 67.004223 161.746273 
L 67.102147 161.300981 
L 67.121732 161.300981 
L 67.219655 160.71507 
L 67.278409 160.668197 
L 67.376332 160.293214 
L 67.435086 160.222905 
L 67.53301 159.847922 
L 67.552594 159.847922 
L 67.650518 159.262011 
L 67.78761 159.168265 
L 67.885534 159.027646 
L 67.944288 158.980774 
L 68.042211 158.254244 
L 68.081381 158.183935 
L 68.179304 157.644897 
L 68.238058 157.598024 
L 68.316397 157.223041 
L 68.375151 157.199604 
L 68.473074 156.824621 
L 68.492659 156.824621 
L 68.590582 156.56682 
L 68.629751 156.543384 
L 68.727675 155.887164 
L 68.806013 155.816854 
L 68.903937 155.230943 
L 68.982276 155.137198 
L 69.060614 154.668469 
L 69.119368 154.668469 
L 69.217292 153.965376 
L 69.256461 153.895066 
L 69.3348 153.637265 
L 69.471892 153.566956 
L 69.569816 152.840427 
L 69.687324 152.770117 
L 69.785247 152.231079 
L 69.883171 152.137333 
L 69.981094 151.856096 
L 70.079017 151.76235 
L 70.176941 151.551422 
L 70.196525 151.551422 
L 70.294449 151.129567 
L 70.353203 151.035821 
L 70.451126 150.613965 
L 70.588219 150.520219 
L 70.686142 150.262418 
L 70.744896 150.168673 
L 70.80365 149.863999 
L 70.921158 149.770253 
L 70.960328 149.489016 
L 71.09742 149.418706 
L 71.195344 149.06716 
L 71.254098 148.973414 
L 71.352021 148.364067 
L 71.410775 148.34063 
L 71.489114 148.129702 
L 71.547868 148.035957 
L 71.645791 147.871901 
L 71.763299 147.778156 
L 71.861223 146.887571 
L 71.939561 146.793825 
L 72.037485 146.371969 
L 72.076654 146.348533 
L 72.174577 146.043859 
L 72.194162 146.043859 
L 72.292085 145.739186 
L 72.390009 145.64544 
L 72.487932 145.270457 
L 72.60544 145.176711 
L 72.683779 144.754855 
L 72.762118 144.731419 
L 72.860041 144.403309 
L 72.93838 144.309563 
L 73.036303 144.004889 
L 73.134226 143.93458 
L 73.212565 143.53616 
L 73.310488 143.489287 
L 73.408412 143.090868 
L 73.447581 142.997122 
L 73.545505 142.598703 
L 73.584674 142.504957 
L 73.682597 142.176847 
L 73.721767 142.083101 
L 73.81969 141.192516 
L 73.917613 141.098771 
L 73.995952 140.465987 
L 74.093875 140.372241 
L 74.191799 140.11444 
L 74.250553 140.044131 
L 74.289722 139.950385 
L 74.426815 139.856639 
L 74.524738 139.575402 
L 74.563908 139.551966 
L 74.642246 139.247292 
L 74.720585 139.153546 
L 74.818508 138.778563 
L 74.896847 138.755127 
L 74.99477 138.192652 
L 75.092694 138.098906 
L 75.190617 138.052034 
L 75.210202 138.052034 
L 75.308125 137.395813 
L 75.32771 137.395813 
L 75.406049 136.950521 
L 75.445218 136.950521 
L 75.523557 136.528665 
L 75.641065 136.434919 
L 75.738988 136.083373 
L 75.797742 136.013063 
L 75.895665 135.802135 
L 75.91525 135.802135 
L 76.013173 135.192788 
L 76.071927 135.169352 
L 76.150266 134.65375 
L 76.20902 134.560004 
L 76.287359 134.349076 
L 76.404867 134.302203 
L 76.483206 133.880347 
L 76.639883 133.786602 
L 76.737806 133.435055 
L 76.816145 133.364746 
L 76.914068 133.106945 
L 76.953238 133.083508 
L 76.992407 132.919453 
L 77.149085 132.825708 
L 77.227423 132.638216 
L 77.305762 132.591343 
L 77.403685 132.239797 
L 77.462439 132.169487 
L 77.560363 131.56014 
L 77.579947 131.56014 
L 77.677871 131.16172 
L 77.736625 131.091411 
L 77.814963 130.880483 
L 77.854133 130.880483 
L 77.932471 130.599246 
L 78.01081 130.5055 
L 78.069564 130.341445 
L 78.128318 130.341445 
L 78.187072 129.943026 
L 78.265411 129.919589 
L 78.34375 129.732098 
L 78.422088 129.638352 
L 78.480842 129.568043 
L 78.59835 129.497733 
L 78.696274 129.357115 
L 78.755028 129.333678 
L 78.833366 129.12275 
L 78.950875 129.029005 
L 79.048798 128.864949 
L 79.127137 128.818077 
L 79.205475 128.419657 
L 79.362153 128.325911 
L 79.440491 128.021238 
L 79.538415 127.927492 
L 79.636338 127.74 
L 79.793016 127.646255 
L 79.890939 127.552509 
L 79.988862 127.458763 
L 80.067201 127.271272 
L 80.165124 127.177526 
L 80.263048 126.872852 
L 80.302217 126.825979 
L 80.360971 126.615051 
L 80.478479 126.521306 
L 80.576402 126.404123 
L 80.713495 126.380687 
L 80.811419 125.911958 
L 80.850588 125.888522 
L 80.928927 125.677594 
L 81.007265 125.630721 
L 81.007265 125.466666 
L 81.301035 125.37292 
L 81.379374 125.138556 
L 81.61439 125.068246 
L 81.712314 124.64639 
L 81.829822 124.552645 
L 81.90816 124.31828 
L 81.966914 124.294844 
L 82.045253 124.154225 
L 82.162761 124.060479 
L 82.260684 123.966734 
L 82.358608 123.896424 
L 82.456531 123.357386 
L 82.4957 123.33395 
L 82.574039 122.865221 
L 82.671963 122.771475 
L 82.769886 122.419929 
L 82.809055 122.326183 
L 82.906979 122.091819 
L 83.004902 121.998073 
L 83.102825 121.740272 
L 83.220333 121.669963 
L 83.298672 121.529344 
L 83.435765 121.435598 
L 83.494519 121.29498 
L 83.612027 121.201234 
L 83.70995 121.060615 
L 83.768704 121.013742 
L 83.866628 120.826251 
L 83.925382 120.732505 
L 84.023305 120.56845 
L 84.062474 120.545014 
L 84.160398 120.170031 
L 84.33666 120.076285 
L 84.414999 119.959103 
L 84.473753 119.888793 
L 84.552091 119.795048 
L 84.591261 119.795048 
L 84.669599 119.560683 
L 84.806692 119.51381 
L 84.885031 119.373192 
L 85.041708 119.279446 
L 85.139631 119.138827 
L 85.198385 119.091954 
L 85.276724 118.974772 
L 85.355063 118.881026 
L 85.355063 118.85759 
L 85.629248 118.763844 
L 85.707587 118.365425 
L 85.825095 118.271679 
L 85.923018 118.060751 
L 86.001357 117.967005 
L 86.079696 117.87326 
L 86.373466 117.779514 
L 86.471389 117.521713 
L 86.530143 117.47484 
L 86.628067 117.193603 
L 86.902252 117.099857 
L 87.000175 116.912366 
L 87.039345 116.81862 
L 87.078514 116.74831 
L 87.333115 116.654565 
L 87.431038 116.467073 
L 87.6073 116.373327 
L 87.705224 115.904599 
L 87.763978 115.857726 
L 87.822732 115.506179 
L 87.94024 115.412433 
L 88.038163 115.271815 
L 88.136087 115.178069 
L 88.214425 114.896832 
L 88.410272 114.803086 
L 88.508195 114.662467 
L 88.586534 114.568722 
L 88.664873 114.404667 
L 88.762796 114.334357 
L 88.86072 114.05312 
L 88.919474 113.982811 
L 88.978228 113.912501 
L 89.11532 113.865628 
L 89.193659 113.584391 
L 89.330752 113.514082 
L 89.40909 113.279718 
L 89.604937 113.209408 
L 89.70286 112.951607 
L 89.761615 112.857862 
L 89.859538 112.787552 
L 89.898707 112.787552 
L 89.977046 112.34226 
L 90.231647 112.248514 
L 90.290401 112.131332 
L 90.427493 112.037586 
L 90.525417 111.850095 
L 90.603755 111.779785 
L 90.701679 111.35793 
L 90.740848 111.334493 
L 90.838772 111.029819 
L 90.897526 111.029819 
L 90.995449 110.584527 
L 91.073788 110.537654 
L 91.171711 110.30329 
L 91.25005 110.209544 
L 91.308804 110.139235 
L 91.465481 110.092362 
L 91.563405 109.998616 
L 91.700497 109.951743 
L 91.778836 109.647069 
L 91.857175 109.57676 
L 91.955098 109.436142 
L 92.013852 109.389269 
L 92.111775 109.178341 
L 92.190114 109.084595 
L 92.288037 108.779921 
L 92.42513 108.756485 
L 92.503469 108.59243 
L 92.601392 108.568993 
L 92.699316 108.170574 
L 92.875578 108.076828 
L 92.973501 107.936209 
L 93.169348 107.842464 
L 93.267271 107.514354 
L 93.365195 107.444044 
L 93.463118 107.115934 
L 93.502287 107.045625 
L 93.600211 106.787824 
L 93.698134 106.694078 
L 93.796057 106.506587 
L 93.952735 106.436277 
L 94.050658 106.225349 
L 94.148581 106.178477 
L 94.22692 105.990985 
L 94.383598 105.920676 
L 94.403182 105.780057 
L 94.677368 105.709748 
L 94.775291 105.522256 
L 94.85363 105.42851 
L 94.951553 105.311328 
L 95.10823 105.241019 
L 95.186569 105.1004 
L 95.362831 105.030091 
L 95.421585 104.936345 
L 95.676186 104.842599 
L 95.715355 104.77229 
L 95.930787 104.678544 
L 96.02871 104.514489 
L 96.126634 104.420744 
L 96.224557 104.186379 
L 96.32248 104.11607 
L 96.381234 103.975451 
L 96.557496 103.881705 
L 96.596666 103.71765 
L 96.753343 103.694214 
L 96.851266 103.45985 
L 96.94919 103.366104 
L 97.047113 103.202049 
L 97.223375 103.108303 
L 97.321299 102.967684 
L 97.497561 102.873939 
L 97.575899 102.73332 
L 97.752161 102.639574 
L 97.850085 102.475519 
L 98.045932 102.381773 
L 98.12427 102.311464 
L 98.202609 102.217718 
L 98.300532 102.053663 
L 98.359286 101.959917 
L 98.45721 101.795862 
L 98.594302 101.725553 
L 98.633472 101.631807 
L 98.790149 101.538062 
L 98.888073 101.303697 
L 98.927242 101.256824 
L 99.025165 100.999023 
L 99.240597 100.905278 
L 99.318935 100.858405 
L 99.495197 100.764659 
L 99.593121 100.553731 
L 99.730214 100.483422 
L 99.828137 100.36624 
L 99.984814 100.29593 
L 100.023984 99.991257 
L 100.161076 99.897511 
L 100.239415 99.756892 
L 100.435262 99.663146 
L 100.533185 99.545964 
L 100.572354 99.475655 
L 100.670278 99.3116 
L 100.689863 99.3116 
L 100.787786 99.100672 
L 100.885709 99.006926 
L 100.964048 98.866308 
L 101.218649 98.772562 
L 101.316572 98.631943 
L 101.532004 98.561634 
L 101.610342 98.421015 
L 101.747435 98.350706 
L 101.747435 98.303833 
L 101.982451 98.210087 
L 102.080374 97.881977 
L 102.158713 97.788231 
L 102.217467 97.60074 
L 102.432899 97.506994 
L 102.472068 97.366375 
L 102.589576 97.296066 
L 102.687499 97.108575 
L 102.844177 97.014829 
L 102.902931 96.87421 
L 102.9421 96.87421 
L 103.040023 96.780464 
L 103.098777 96.592973 
L 103.353378 96.499227 
L 103.412132 96.405481 
L 103.647148 96.311736 
L 103.745072 96.194553 
L 103.901749 96.100808 
L 103.940918 96.030498 
L 104.038842 95.936753 
L 104.11718 95.749261 
L 104.332612 95.678952 
L 104.371781 95.585206 
L 104.469705 95.538333 
L 104.469705 95.327405 
L 104.606797 95.303969 
L 104.685136 95.16335 
L 104.880983 95.116477 
L 104.959321 94.952422 
L 105.076829 94.858676 
L 105.155168 94.718058 
L 105.351015 94.624312 
L 105.390184 94.436821 
L 105.6252 94.343075 
L 105.683954 94.202456 
L 105.860216 94.132147 
L 105.95814 94.014965 
L 106.25191 93.921219 
L 106.330249 93.804037 
L 106.565265 93.733727 
L 106.643603 93.639982 
L 106.761111 93.546236 
L 106.83945 93.429054 
L 106.996128 93.335308 
L 107.054882 93.241562 
L 107.270313 93.147816 
L 107.368236 93.077507 
L 107.46616 93.007198 
L 107.524914 92.913452 
L 107.642422 92.843143 
L 107.740345 92.679088 
L 107.799099 92.608778 
L 107.897023 92.350977 
L 108.014531 92.280668 
L 108.092869 92.14005 
L 108.269131 92.046304 
L 108.367055 91.929122 
L 108.484563 91.858812 
L 108.582486 91.765067 
L 108.660825 91.694757 
L 108.758748 91.507266 
L 108.97418 91.41352 
L 109.072103 91.249465 
L 109.26795 91.179156 
L 109.365873 90.804173 
L 109.424627 90.7573 
L 109.502966 90.476062 
L 109.640058 90.382317 
L 109.737982 90.241698 
L 109.835905 90.194825 
L 109.85549 90.054206 
L 110.14926 89.983897 
L 110.208014 89.772969 
L 110.384276 89.679223 
L 110.482199 89.608914 
L 110.658462 89.515168 
L 110.697631 89.327677 
L 110.834724 89.233931 
L 110.893478 88.999567 
L 111.050155 88.905821 
L 111.128494 88.765202 
L 111.32434 88.671457 
L 111.402679 88.530838 
L 111.520187 88.437092 
L 111.618111 88.273037 
L 111.696449 88.273037 
L 111.794373 88.108982 
L 111.95105 88.038673 
L 112.048973 87.874618 
L 112.225235 87.780872 
L 112.323159 87.523071 
L 112.401498 87.476198 
L 112.460252 87.26527 
L 112.558175 87.171524 
L 112.636514 87.054342 
L 112.754022 86.984033 
L 112.83236 86.843414 
L 113.106546 86.749669 
L 113.204469 86.585613 
L 113.321977 86.515304 
L 113.419901 86.351249 
L 113.635332 86.28094 
L 113.733255 86.163758 
L 113.792009 86.140321 
L 113.870348 85.999703 
L 113.909517 85.999703 
L 113.968271 85.812211 
L 114.320796 85.718465 
L 114.418719 85.671592 
L 114.516642 85.577847 
L 114.614566 85.530974 
L 114.732074 85.437228 
L 114.732074 85.413792 
L 115.025844 85.320046 
L 115.104183 85.202864 
L 115.358783 85.109118 
L 115.397953 84.991936 
L 115.535045 84.921626 
L 115.613384 84.851317 
L 115.730892 84.757571 
L 115.828815 84.687262 
L 116.044247 84.593516 
L 116.044247 84.57008 
L 116.377186 84.523207 
L 116.455525 84.406025 
L 116.749295 84.312279 
L 116.788464 84.17166 
L 117.043065 84.077915 
L 117.140989 84.007605 
L 117.317251 83.960732 
L 117.336835 83.773241 
L 117.669775 83.679495 
L 117.767698 83.585749 
L 117.924376 83.538876 
L 118.002714 83.327948 
L 118.178976 83.234203 
L 118.257315 83.163893 
L 118.355238 83.140457 
L 118.453162 82.929529 
L 118.707763 82.835783 
L 118.707763 82.624855 
L 119.021117 82.53111 
L 119.099456 82.390491 
L 119.45198 82.320182 
L 119.530319 82.062381 
L 119.902428 81.968635 
L 120.000351 81.781143 
L 120.235367 81.687398 
L 120.313706 81.570216 
L 120.450798 81.499906 
L 120.470383 81.429597 
L 120.822907 81.335851 
L 120.822907 81.312415 
L 121.116677 81.242105 
L 121.195016 80.74994 
L 121.390863 80.656194 
L 121.430032 80.539012 
L 121.606294 80.445266 
L 121.645464 80.374957 
L 121.88048 80.281211 
L 121.978403 80.140593 
L 122.076326 80.046847 
L 122.115496 79.835919 
L 122.546359 79.742173 
L 122.605113 79.624991 
L 122.879298 79.531245 
L 122.918467 79.36719 
L 123.231822 79.273445 
L 123.310161 79.109389 
L 123.603931 79.015644 
L 123.701854 78.968771 
L 123.799778 78.898461 
L 123.838947 78.757843 
L 124.348149 78.664097 
L 124.348149 78.640661 
L 124.681088 78.546915 
L 124.700673 78.476606 
L 124.798596 78.476606 
L 124.85735 78.218805 
L 124.974858 78.195368 
L 125.072782 77.890695 
L 125.131536 77.796949 
L 125.15112 77.703203 
L 125.249044 77.703203 
L 125.327382 77.492275 
L 125.581983 77.398529 
L 125.679906 77.32822 
L 125.836584 77.281347 
L 125.934507 77.140729 
L 126.052015 77.046983 
L 126.110769 76.929801 
L 126.287031 76.882928 
L 126.345785 76.625127 
L 126.698309 76.531381 
L 126.796233 76.484508 
L 127.011664 76.414199 
L 127.090003 76.27358 
L 127.305434 76.179835 
L 127.383773 76.132962 
L 127.501281 76.039216 
L 127.560035 75.968907 
L 127.814636 75.875161 
L 127.892975 75.711106 
L 128.088821 75.640796 
L 128.147575 75.500178 
L 128.343422 75.406432 
L 128.343422 75.382996 
L 128.715531 75.28925 
L 128.813454 75.218941 
L 129.08764 75.125195 
L 129.185563 74.89083 
L 129.67518 74.797085 
L 129.773103 74.63303 
L 129.929781 74.56272 
L 129.96895 74.468975 
L 130.223551 74.375229 
L 130.321474 74.23461 
L 130.458567 74.140864 
L 130.55649 74.000246 
L 130.811091 73.953373 
L 130.909014 73.859627 
L 131.163615 73.812754 
L 131.222369 73.695572 
L 131.555309 73.601826 
L 131.614063 73.508081 
L 131.868663 73.414335 
L 131.868663 73.390898 
L 132.260357 73.297153 
L 132.279942 73.226843 
L 132.710804 73.133098 
L 132.808728 73.039352 
L 132.906651 73.015915 
L 133.004574 72.804987 
L 133.122082 72.711242 
L 133.200421 72.594059 
L 133.494191 72.500314 
L 133.513776 72.383131 
L 133.748792 72.289386 
L 133.846715 72.148767 
L 134.19924 72.055021 
L 134.277578 71.961276 
L 134.434256 71.86753 
L 134.49301 71.79722 
L 134.610518 71.750348 
L 134.669272 71.609729 
L 134.904288 71.515983 
L 135.002211 71.445674 
L 135.217643 71.351928 
L 135.315566 71.258182 
L 135.805183 71.21131 
L 135.844352 71.070691 
L 136.157707 70.976945 
L 136.25563 70.81289 
L 136.471062 70.719144 
L 136.5494 70.625399 
L 136.862755 70.531653 
L 136.960679 70.48478 
L 137.293618 70.391034 
L 137.313203 70.320725 
L 137.76365 70.226979 
L 137.841989 70.180106 
L 138.194513 70.08636 
L 138.272852 70.039488 
L 138.488283 69.945742 
L 138.488283 69.922305 
L 138.860392 69.875432 
L 138.860392 69.805123 
L 139.075823 69.75825 
L 139.154162 69.594195 
L 139.291255 69.500449 
L 139.369593 69.383267 
L 139.702533 69.289522 
L 139.800456 69.172339 
L 140.133396 69.078594 
L 140.211734 68.937975 
L 140.368412 68.844229 
L 140.368412 68.820793 
L 140.583843 68.77392 
L 140.623013 68.680174 
L 140.77969 68.586428 
L 140.877613 68.422373 
L 141.269307 68.328628 
L 141.36723 68.234882 
L 141.465154 68.164572 
L 141.563077 68.000517 
L 141.856847 67.906772 
L 141.95477 67.859899 
L 142.150617 67.766153 
L 142.170202 67.71928 
L 142.463972 67.625534 
L 142.561895 67.531789 
L 142.894835 67.438043 
L 142.894835 67.414606 
L 143.247359 67.344297 
L 143.345282 67.250551 
L 143.619468 67.156806 
L 143.717391 67.039623 
L 144.011161 66.945878 
L 144.109085 66.875568 
L 144.226593 66.828695 
L 144.285347 66.711513 
L 144.814133 66.617767 
L 144.912056 66.500585 
L 145.088318 66.40684 
L 145.147072 66.242784 
L 145.460427 66.149039 
L 145.538766 66.031856 
L 145.852121 65.938111 
L 145.89129 65.891238 
L 146.126306 65.797492 
L 146.126306 65.750619 
L 146.302568 65.727183 
L 146.322153 65.610001 
L 146.498415 65.539691 
L 146.517999 65.445946 
L 146.909693 65.3522 
L 146.948862 65.28189 
L 147.262217 65.188145 
L 147.262217 65.164708 
L 148.026019 65.070962 
L 148.123943 64.95378 
L 148.182697 64.95378 
L 148.182697 64.836598 
L 148.731068 64.742852 
L 148.731068 64.695979 
L 148.985668 64.62567 
L 149.083592 64.508488 
L 149.671132 64.414742 
L 149.729886 64.320996 
L 150.08241 64.227251 
L 150.101995 64.180378 
L 150.317426 64.110068 
L 150.317426 64.063196 
L 150.689535 63.96945 
L 150.787458 63.899141 
L 150.904966 63.899141 
L 150.904966 63.758522 
L 151.335829 63.664776 
L 151.394583 63.594467 
L 151.649184 63.500721 
L 151.668769 63.360102 
L 152.158385 63.266357 
L 152.158385 63.196047 
L 152.941772 63.102302 
L 153.000526 63.055429 
L 153.411805 62.961683 
L 153.490143 62.821064 
L 153.744744 62.727319 
L 153.744744 62.703882 
L 154.01893 62.633573 
L 154.097268 62.563264 
L 154.332284 62.469518 
L 154.371454 62.422645 
L 154.704393 62.328899 
L 154.763147 62.282026 
L 154.998163 62.18828 
L 155.017748 62.117971 
L 155.272349 62.047662 
L 155.370272 61.836734 
L 155.722796 61.742988 
L 155.801135 61.672679 
L 156.329921 61.60237 
L 156.40826 61.53206 
L 156.506183 61.508624 
L 156.604106 61.274259 
L 156.780369 61.180514 
L 156.780369 61.157077 
L 157.250401 61.063331 
L 157.250401 61.039895 
L 158.131711 60.946149 
L 158.131711 60.922713 
L 158.562574 60.828967 
L 158.601743 60.758658 
L 159.150114 60.664912 
L 159.248037 60.594603 
L 159.659316 60.500857 
L 159.71807 60.453984 
L 160.070594 60.383675 
L 160.090178 60.289929 
L 160.364364 60.196183 
L 160.462287 60.125874 
L 160.853981 60.032128 
L 160.912735 59.961819 
L 161.128166 59.868073 
L 161.226089 59.774327 
L 161.617783 59.680582 
L 161.617783 59.657145 
L 162.1074 59.563399 
L 162.205323 59.49309 
L 162.675355 59.399344 
L 162.675355 59.352471 
L 162.969125 59.258726 
L 162.98871 59.211853 
L 163.262896 59.141543 
L 163.262896 59.071234 
L 163.517496 59.000925 
L 163.61542 58.883743 
L 164.300883 58.789997 
L 164.320468 58.649378 
L 164.751331 58.555632 
L 164.829669 58.461887 
L 165.338871 58.368141 
L 165.338871 58.344704 
L 165.691395 58.250959 
L 165.691395 58.204086 
L 166.024335 58.180649 
L 166.063504 58.063467 
L 166.416028 57.969721 
L 166.435613 57.922849 
L 166.846891 57.852539 
L 166.92523 57.735357 
L 167.414846 57.641611 
L 167.51277 57.571302 
L 168.041556 57.477556 
L 168.10031 57.38381 
L 168.550758 57.290065 
L 168.570342 57.219755 
L 168.903282 57.149446 
L 168.903282 57.102573 
L 169.353729 57.008827 
L 169.451653 56.961955 
L 169.862931 56.868209 
L 169.960854 56.7979 
L 170.391717 56.704154 
L 170.391717 56.680717 
L 170.861749 56.586972 
L 170.900918 56.540099 
L 171.194689 56.446353 
L 171.273027 56.376044 
L 171.566797 56.305734 
L 171.605967 56.188552 
L 171.958491 56.118243 
L 172.056414 56.024497 
L 172.389354 55.954188 
L 172.408938 55.883878 
L 172.663539 55.790133 
L 172.741878 55.67295 
L 173.055233 55.579205 
L 173.094402 55.508895 
L 173.760281 55.41515 
L 173.838619 55.34484 
L 174.308652 55.251095 
L 174.38699 55.204222 
L 174.896192 55.110476 
L 174.896192 55.087039 
L 175.464147 55.01673 
L 175.562071 54.876112 
L 176.051688 54.782366 
L 176.130026 54.712056 
L 176.795905 54.618311 
L 176.854659 54.571438 
L 177.579292 54.477692 
L 177.579292 54.430819 
L 178.166832 54.337073 
L 178.166832 54.290201 
L 178.852296 54.196455 
L 178.852296 54.173018 
L 179.146066 54.079273 
L 179.224405 54.0324 
L 179.361498 53.96209 
L 179.361498 53.915218 
L 180.379901 53.821472 
L 180.379901 53.774599 
L 181.554981 53.680853 
L 181.652904 53.63398 
L 182.005428 53.563671 
L 182.064183 53.493362 
L 182.51463 53.399616 
L 182.553799 53.352743 
L 182.984662 53.258997 
L 183.023832 53.212124 
L 183.298017 53.141815 
L 183.356771 53.071506 
L 183.630956 52.97776 
L 183.630956 52.954324 
L 184.179327 52.860578 
L 184.257666 52.813705 
L 184.708113 52.719959 
L 184.766868 52.64965 
L 185.511085 52.555904 
L 185.550254 52.485595 
L 186.11821 52.391849 
L 186.216133 52.32154 
L 187.097444 52.227794 
L 187.097444 52.204357 
L 187.665399 52.134048 
L 187.665399 52.087175 
L 188.076677 51.99343 
L 188.096262 51.876247 
L 188.468371 51.782502 
L 188.468371 51.759065 
L 189.702205 51.665319 
L 189.702205 51.641883 
L 190.955624 51.548137 
L 191.053548 51.477828 
L 191.366903 51.384082 
L 191.386487 51.337209 
L 191.974027 51.243463 
L 192.052366 51.079408 
L 192.365721 50.985663 
L 192.463644 50.891917 
L 193.090354 50.821608 
L 193.090354 50.774735 
L 193.638725 50.680989 
L 193.677894 50.634116 
L 194.617958 50.54037 
L 194.696297 50.493497 
L 195.518853 50.399752 
L 195.518853 50.352879 
L 196.204317 50.259133 
L 196.243486 50.21226 
L 196.909365 50.141951 
L 196.987704 50.048205 
L 197.55566 49.954459 
L 197.55566 49.931023 
L 198.182369 49.860714 
L 198.182369 49.813841 
L 198.711155 49.720095 
L 198.711155 49.696658 
L 199.083264 49.626349 
L 199.102849 49.55604 
L 200.140837 49.462294 
L 200.140837 49.438858 
L 200.885054 49.345112 
L 200.943808 49.298239 
L 201.903457 49.204493 
L 201.903457 49.181057 
L 202.255981 49.087311 
L 202.255981 49.063875 
L 202.882691 48.993565 
L 202.882691 48.946692 
L 203.5094 48.876383 
L 203.528985 48.806074 
L 203.84234 48.712328 
L 203.920679 48.665455 
L 204.527803 48.571709 
L 204.606142 48.524837 
L 205.604961 48.431091 
L 205.702884 48.243599 
L 206.055408 48.17329 
L 206.055408 48.126417 
L 206.407932 48.032671 
L 206.407932 48.009235 
L 207.269658 47.938926 
L 207.269658 47.892053 
L 208.405569 47.798307 
L 208.405569 47.77487 
L 209.54148 47.681125 
L 209.54148 47.657688 
L 210.089851 47.563943 
L 210.089851 47.540506 
L 210.657806 47.44676 
L 210.71656 47.399887 
L 211.245347 47.306142 
L 211.245347 47.282705 
L 212.146242 47.18896 
L 212.204996 47.11865 
L 212.812121 47.024904 
L 212.890459 46.978032 
L 213.223399 46.884286 
L 213.223399 46.860849 
L 213.928447 46.767104 
L 213.928447 46.696794 
L 215.24062 46.603049 
L 215.279789 46.532739 
L 215.808576 46.438993 
L 215.808576 46.415557 
L 216.533209 46.321811 
L 216.533209 46.298375 
L 217.512442 46.204629 
L 217.532027 46.157756 
L 218.432922 46.087447 
L 218.491676 45.993701 
L 219.040047 45.899955 
L 219.13797 45.829646 
L 219.627587 45.7359 
L 219.627587 45.712464 
L 220.410974 45.618718 
L 220.450143 45.571845 
L 222.212764 45.478099 
L 222.251933 45.431227 
L 223.152828 45.337481 
L 223.250752 45.267172 
L 223.975385 45.173426 
L 223.975385 45.149989 
L 225.777175 45.056244 
L 225.777175 45.032807 
L 226.247207 44.985934 
L 226.286376 44.892189 
L 226.599731 44.798443 
L 226.599731 44.775006 
L 227.539795 44.681261 
L 227.637719 44.587515 
L 228.166505 44.493769 
L 228.225259 44.42346 
L 228.73446 44.329714 
L 228.73446 44.306278 
L 229.557017 44.212532 
L 229.557017 44.189095 
L 230.86919 44.09535 
L 230.947529 44.02504 
L 232.514302 43.931295 
L 232.514302 43.907858 
L 233.376028 43.814112 
L 233.415197 43.743803 
L 234.335677 43.650057 
L 234.335677 43.626621 
L 235.530342 43.532875 
L 235.530342 43.509439 
L 236.744592 43.415693 
L 236.822931 43.321947 
L 237.762995 43.228201 
L 237.841334 43.181328 
L 239.2906 43.087583 
L 239.388523 42.970401 
L 241.09239 42.876655 
L 241.09239 42.853218 
L 241.914946 42.759473 
L 241.914946 42.736036 
L 243.246704 42.64229 
L 243.246704 42.618854 
L 244.108429 42.525108 
L 244.167183 42.478235 
L 246.282328 42.38449 
L 246.301913 42.337617 
L 246.75236 42.243871 
L 246.75236 42.196998 
L 248.123288 42.103252 
L 248.123288 42.079816 
L 249.494215 42.009507 
L 249.494215 41.962634 
L 250.865142 41.868888 
L 250.865142 41.845451 
L 252.275238 41.751706 
L 252.275238 41.728269 
L 252.999871 41.634523 
L 253.07821 41.564214 
L 254.135782 41.470468 
L 254.135782 41.447032 
L 255.722141 41.353286 
L 255.722141 41.32985 
L 256.348851 41.236104 
L 256.348851 41.212668 
L 257.151822 41.118922 
L 257.151822 41.095485 
L 258.542334 41.00174 
L 258.542334 40.978303 
L 259.266967 40.884557 
L 259.345306 40.837685 
L 260.481217 40.743939 
L 260.481217 40.720502 
L 262.08716 40.626757 
L 262.08716 40.60332 
L 263.967289 40.509574 
L 264.026043 40.439265 
L 265.06403 40.345519 
L 265.122784 40.27521 
L 267.002913 40.181464 
L 267.002913 40.158028 
L 270.528154 40.064282 
L 270.528154 40.040846 
L 272.075344 39.9471 
L 272.075344 39.923663 
L 273.270009 39.829918 
L 273.270009 39.806481 
L 276.403557 39.712735 
L 276.462311 39.642426 
L 279.282504 39.54868 
L 279.282504 39.525244 
L 280.751354 39.431498 
L 280.751354 39.408062 
L 282.611898 39.314316 
L 282.670652 39.267443 
L 284.198257 39.173697 
L 284.198257 39.150261 
L 286.156724 39.056515 
L 286.235063 39.009642 
L 287.410143 38.915897 
L 287.410143 38.89246 
L 288.428546 38.798714 
L 288.428546 38.751841 
L 290.876631 38.658096 
L 290.876631 38.634659 
L 294.166856 38.540914 
L 294.166856 38.517477 
L 297.672512 38.423731 
L 297.672512 38.400295 
L 298.925932 38.306549 
L 298.925932 38.283113 
L 302.764528 38.189367 
L 302.764528 38.165931 
L 308.463668 38.072185 
L 308.463668 38.048748 
L 310.950921 37.955003 
L 310.950921 37.931566 
L 313.183574 37.83782 
L 313.222743 37.790947 
L 315.55332 37.697202 
L 315.55332 37.673765 
L 318.686868 37.58002 
L 318.686868 37.556583 
L 320.95869 37.462837 
L 320.95869 37.439401 
L 327.676233 37.345655 
L 327.676233 37.322219 
L 332.572401 37.228473 
L 332.572401 37.205037 
L 336.626429 37.111291 
L 336.626429 37.087854 
L 347.887616 36.994109 
L 347.887616 36.970672 
L 355.329792 36.876926 
L 355.329792 36.85349 
L 378.263445 36.759744 
L 378.263445 36.736308 
L 388.8 36.712871 
L 388.8 36.712871 
" style="fill:none;stroke:#000080;stroke-linecap:square;stroke-width:2;"/>
   </g>
   <g id="line2d_14">
    <path clip-path="url(#p17a10d3bdc)" d="M 54 252 
L 388.8 36.712871 
" style="fill:none;stroke:#add8e6;stroke-dasharray:7.4,3.2;stroke-dashoffset:0;stroke-width:2;"/>
   </g>
   <g id="patch_3">
    <path d="M 54 252 
L 54 34.56 
" style="fill:none;stroke:#000000;stroke-linecap:square;stroke-linejoin:miter;stroke-width:0.8;"/>
   </g>
   <g id="patch_4">
    <path d="M 388.8 252 
L 388.8 34.56 
" style="fill:none;stroke:#000000;stroke-linecap:square;stroke-linejoin:miter;stroke-width:0.8;"/>
   </g>
   <g id="patch_5">
    <path d="M 54 252 
L 388.8 252 
" style="fill:none;stroke:#000000;stroke-linecap:square;stroke-linejoin:miter;stroke-width:0.8;"/>
   </g>
   <g id="patch_6">
    <path d="M 54 34.56 
L 388.8 34.56 
" style="fill:none;stroke:#000000;stroke-linecap:square;stroke-linejoin:miter;stroke-width:0.8;"/>
   </g>
   <g id="text_15">
    <!-- ROC -->
    <defs>
     <path d="M 39.40625 66.21875 
Q 28.65625 66.21875 22.328125 58.203125 
Q 16.015625 50.203125 16.015625 36.375 
Q 16.015625 22.609375 22.328125 14.59375 
Q 28.65625 6.59375 39.40625 6.59375 
Q 50.140625 6.59375 56.421875 14.59375 
Q 62.703125 22.609375 62.703125 36.375 
Q 62.703125 50.203125 56.421875 58.203125 
Q 50.140625 66.21875 39.40625 66.21875 
z
M 39.40625 74.21875 
Q 54.734375 74.21875 63.90625 63.9375 
Q 73.09375 53.65625 73.09375 36.375 
Q 73.09375 19.140625 63.90625 8.859375 
Q 54.734375 -1.421875 39.40625 -1.421875 
Q 24.03125 -1.421875 14.8125 8.828125 
Q 5.609375 19.09375 5.609375 36.375 
Q 5.609375 53.65625 14.8125 63.9375 
Q 24.03125 74.21875 39.40625 74.21875 
z
" id="DejaVuSans-4f"/>
     <path d="M 64.40625 67.28125 
L 64.40625 56.890625 
Q 59.421875 61.53125 53.78125 63.8125 
Q 48.140625 66.109375 41.796875 66.109375 
Q 29.296875 66.109375 22.65625 58.46875 
Q 16.015625 50.828125 16.015625 36.375 
Q 16.015625 21.96875 22.65625 14.328125 
Q 29.296875 6.6875 41.796875 6.6875 
Q 48.140625 6.6875 53.78125 8.984375 
Q 59.421875 11.28125 64.40625 15.921875 
L 64.40625 5.609375 
Q 59.234375 2.09375 53.4375 0.328125 
Q 47.65625 -1.421875 41.21875 -1.421875 
Q 24.65625 -1.421875 15.125 8.703125 
Q 5.609375 18.84375 5.609375 36.375 
Q 5.609375 53.953125 15.125 64.078125 
Q 24.65625 74.21875 41.21875 74.21875 
Q 47.75 74.21875 53.53125 72.484375 
Q 59.328125 70.75 64.40625 67.28125 
z
" id="DejaVuSans-43"/>
    </defs>
    <g transform="translate(208.318125 28.56)scale(0.12 -0.12)">
     <use xlink:href="#DejaVuSans-52"/>
     <use x="69.482422" xlink:href="#DejaVuSans-4f"/>
     <use x="148.193359" xlink:href="#DejaVuSans-43"/>
    </g>
   </g>
   <g id="legend_1">
    <g id="patch_7">
     <path d="M 226.3 247 
L 381.8 247 
Q 383.8 247 383.8 245 
L 383.8 231.321875 
Q 383.8 229.321875 381.8 229.321875 
L 226.3 229.321875 
Q 224.3 229.321875 224.3 231.321875 
L 224.3 245 
Q 224.3 247 226.3 247 
z
" style="fill:#ffffff;opacity:0.8;stroke:#cccccc;stroke-linejoin:miter;"/>
    </g>
    <g id="line2d_15">
     <path d="M 228.3 237.420312 
L 248.3 237.420312 
" style="fill:none;stroke:#000080;stroke-linecap:square;stroke-width:2;"/>
    </g>
    <g id="line2d_16"/>
    <g id="text_16">
     <!-- ROC curve (area = 0.89) -->
     <defs>
      <path d="M 48.78125 52.59375 
L 48.78125 44.1875 
Q 44.96875 46.296875 41.140625 47.34375 
Q 37.3125 48.390625 33.40625 48.390625 
Q 24.65625 48.390625 19.8125 42.84375 
Q 14.984375 37.3125 14.984375 27.296875 
Q 14.984375 17.28125 19.8125 11.734375 
Q 24.65625 6.203125 33.40625 6.203125 
Q 37.3125 6.203125 41.140625 7.25 
Q 44.96875 8.296875 48.78125 10.40625 
L 48.78125 2.09375 
Q 45.015625 0.34375 40.984375 -0.53125 
Q 36.96875 -1.421875 32.421875 -1.421875 
Q 20.0625 -1.421875 12.78125 6.34375 
Q 5.515625 14.109375 5.515625 27.296875 
Q 5.515625 40.671875 12.859375 48.328125 
Q 20.21875 56 33.015625 56 
Q 37.15625 56 41.109375 55.140625 
Q 45.0625 54.296875 48.78125 52.59375 
z
" id="DejaVuSans-63"/>
      <path d="M 31 75.875 
Q 24.46875 64.65625 21.28125 53.65625 
Q 18.109375 42.671875 18.109375 31.390625 
Q 18.109375 20.125 21.3125 9.0625 
Q 24.515625 -2 31 -13.1875 
L 23.1875 -13.1875 
Q 15.875 -1.703125 12.234375 9.375 
Q 8.59375 20.453125 8.59375 31.390625 
Q 8.59375 42.28125 12.203125 53.3125 
Q 15.828125 64.359375 23.1875 75.875 
z
" id="DejaVuSans-28"/>
      <path d="M 10.59375 45.40625 
L 73.1875 45.40625 
L 73.1875 37.203125 
L 10.59375 37.203125 
z
M 10.59375 25.484375 
L 73.1875 25.484375 
L 73.1875 17.1875 
L 10.59375 17.1875 
z
" id="DejaVuSans-3d"/>
      <path d="M 10.984375 1.515625 
L 10.984375 10.5 
Q 14.703125 8.734375 18.5 7.8125 
Q 22.3125 6.890625 25.984375 6.890625 
Q 35.75 6.890625 40.890625 13.453125 
Q 46.046875 20.015625 46.78125 33.40625 
Q 43.953125 29.203125 39.59375 26.953125 
Q 35.25 24.703125 29.984375 24.703125 
Q 19.046875 24.703125 12.671875 31.3125 
Q 6.296875 37.9375 6.296875 49.421875 
Q 6.296875 60.640625 12.9375 67.421875 
Q 19.578125 74.21875 30.609375 74.21875 
Q 43.265625 74.21875 49.921875 64.515625 
Q 56.59375 54.828125 56.59375 36.375 
Q 56.59375 19.140625 48.40625 8.859375 
Q 40.234375 -1.421875 26.421875 -1.421875 
Q 22.703125 -1.421875 18.890625 -0.6875 
Q 15.09375 0.046875 10.984375 1.515625 
z
M 30.609375 32.421875 
Q 37.25 32.421875 41.125 36.953125 
Q 45.015625 41.5 45.015625 49.421875 
Q 45.015625 57.28125 41.125 61.84375 
Q 37.25 66.40625 30.609375 66.40625 
Q 23.96875 66.40625 20.09375 61.84375 
Q 16.21875 57.28125 16.21875 49.421875 
Q 16.21875 41.5 20.09375 36.953125 
Q 23.96875 32.421875 30.609375 32.421875 
z
" id="DejaVuSans-39"/>
      <path d="M 8.015625 75.875 
L 15.828125 75.875 
Q 23.140625 64.359375 26.78125 53.3125 
Q 30.421875 42.28125 30.421875 31.390625 
Q 30.421875 20.453125 26.78125 9.375 
Q 23.140625 -1.703125 15.828125 -13.1875 
L 8.015625 -13.1875 
Q 14.5 -2 17.703125 9.0625 
Q 20.90625 20.125 20.90625 31.390625 
Q 20.90625 42.671875 17.703125 53.65625 
Q 14.5 64.65625 8.015625 75.875 
z
" id="DejaVuSans-29"/>
     </defs>
     <g transform="translate(256.3 240.920312)scale(0.1 -0.1)">
      <use xlink:href="#DejaVuSans-52"/>
      <use x="69.482422" xlink:href="#DejaVuSans-4f"/>
      <use x="148.193359" xlink:href="#DejaVuSans-43"/>
      <use x="218.017578" xlink:href="#DejaVuSans-20"/>
      <use x="249.804688" xlink:href="#DejaVuSans-63"/>
      <use x="304.785156" xlink:href="#DejaVuSans-75"/>
      <use x="368.164062" xlink:href="#DejaVuSans-72"/>
      <use x="409.277344" xlink:href="#DejaVuSans-76"/>
      <use x="468.457031" xlink:href="#DejaVuSans-65"/>
      <use x="529.980469" xlink:href="#DejaVuSans-20"/>
      <use x="561.767578" xlink:href="#DejaVuSans-28"/>
      <use x="600.78125" xlink:href="#DejaVuSans-61"/>
      <use x="662.060547" xlink:href="#DejaVuSans-72"/>
      <use x="703.142578" xlink:href="#DejaVuSans-65"/>
      <use x="764.666016" xlink:href="#DejaVuSans-61"/>
      <use x="825.945312" xlink:href="#DejaVuSans-20"/>
      <use x="857.732422" xlink:href="#DejaVuSans-3d"/>
      <use x="941.521484" xlink:href="#DejaVuSans-20"/>
      <use x="973.308594" xlink:href="#DejaVuSans-30"/>
      <use x="1036.931641" xlink:href="#DejaVuSans-2e"/>
      <use x="1068.71875" xlink:href="#DejaVuSans-38"/>
      <use x="1132.341797" xlink:href="#DejaVuSans-39"/>
      <use x="1195.964844" xlink:href="#DejaVuSans-29"/>
     </g>
    </g>
   </g>
  </g>
 </g>
 <defs>
  <clipPath id="p17a10d3bdc">
   <rect height="217.44" width="334.8" x="54" y="34.56"/>
  </clipPath>
 </defs>
</svg>
