<?xml version="1.0" encoding="utf-8" standalone="no"?>
<!DOCTYPE svg PUBLIC "-//W3C//DTD SVG 1.1//EN"
  "http://www.w3.org/Graphics/SVG/1.1/DTD/svg11.dtd">
<!-- Created with matplotlib (http://matplotlib.org/) -->
<svg height="288pt" version="1.1" viewBox="0 0 432 288" width="432pt" xmlns="http://www.w3.org/2000/svg" xmlns:xlink="http://www.w3.org/1999/xlink">
 <defs>
  <style type="text/css">
*{stroke-linecap:butt;stroke-linejoin:round;}
  </style>
 </defs>
 <g id="figure_1">
  <g id="patch_1">
   <path d="M 0 288 
L 432 288 
L 432 0 
L 0 0 
z
" style="fill:#ffffff;"/>
  </g>
  <g id="axes_1">
   <g id="patch_2">
    <path d="M 54 252 
L 388.8 252 
L 388.8 34.56 
L 54 34.56 
z
" style="fill:#ffffff;"/>
   </g>
   <g id="matplotlib.axis_1">
    <g id="xtick_1">
     <g id="line2d_1">
      <defs>
       <path d="M 0 0 
L 0 3.5 
" id="mfc5a564748" style="stroke:#000000;stroke-width:0.8;"/>
      </defs>
      <g>
       <use style="stroke:#000000;stroke-width:0.8;" x="54" xlink:href="#mfc5a564748" y="252"/>
      </g>
     </g>
     <g id="text_1">
      <!-- 0.0 -->
      <defs>
       <path d="M 31.78125 66.40625 
Q 24.171875 66.40625 20.328125 58.90625 
Q 16.5 51.421875 16.5 36.375 
Q 16.5 21.390625 20.328125 13.890625 
Q 24.171875 6.390625 31.78125 6.390625 
Q 39.453125 6.390625 43.28125 13.890625 
Q 47.125 21.390625 47.125 36.375 
Q 47.125 51.421875 43.28125 58.90625 
Q 39.453125 66.40625 31.78125 66.40625 
z
M 31.78125 74.21875 
Q 44.046875 74.21875 50.515625 64.515625 
Q 56.984375 54.828125 56.984375 36.375 
Q 56.984375 17.96875 50.515625 8.265625 
Q 44.046875 -1.421875 31.78125 -1.421875 
Q 19.53125 -1.421875 13.0625 8.265625 
Q 6.59375 17.96875 6.59375 36.375 
Q 6.59375 54.828125 13.0625 64.515625 
Q 19.53125 74.21875 31.78125 74.21875 
z
" id="DejaVuSans-30"/>
       <path d="M 10.6875 12.40625 
L 21 12.40625 
L 21 0 
L 10.6875 0 
z
" id="DejaVuSans-2e"/>
      </defs>
      <g transform="translate(46.048437 266.598437)scale(0.1 -0.1)">
       <use xlink:href="#DejaVuSans-30"/>
       <use x="63.623047" xlink:href="#DejaVuSans-2e"/>
       <use x="95.410156" xlink:href="#DejaVuSans-30"/>
      </g>
     </g>
    </g>
    <g id="xtick_2">
     <g id="line2d_2">
      <g>
       <use style="stroke:#000000;stroke-width:0.8;" x="120.96" xlink:href="#mfc5a564748" y="252"/>
      </g>
     </g>
     <g id="text_2">
      <!-- 0.2 -->
      <defs>
       <path d="M 19.1875 8.296875 
L 53.609375 8.296875 
L 53.609375 0 
L 7.328125 0 
L 7.328125 8.296875 
Q 12.9375 14.109375 22.625 23.890625 
Q 32.328125 33.6875 34.8125 36.53125 
Q 39.546875 41.84375 41.421875 45.53125 
Q 43.3125 49.21875 43.3125 52.78125 
Q 43.3125 58.59375 39.234375 62.25 
Q 35.15625 65.921875 28.609375 65.921875 
Q 23.96875 65.921875 18.8125 64.3125 
Q 13.671875 62.703125 7.8125 59.421875 
L 7.8125 69.390625 
Q 13.765625 71.78125 18.9375 73 
Q 24.125 74.21875 28.421875 74.21875 
Q 39.75 74.21875 46.484375 68.546875 
Q 53.21875 62.890625 53.21875 53.421875 
Q 53.21875 48.921875 51.53125 44.890625 
Q 49.859375 40.875 45.40625 35.40625 
Q 44.1875 33.984375 37.640625 27.21875 
Q 31.109375 20.453125 19.1875 8.296875 
z
" id="DejaVuSans-32"/>
      </defs>
      <g transform="translate(113.008438 266.598437)scale(0.1 -0.1)">
       <use xlink:href="#DejaVuSans-30"/>
       <use x="63.623047" xlink:href="#DejaVuSans-2e"/>
       <use x="95.410156" xlink:href="#DejaVuSans-32"/>
      </g>
     </g>
    </g>
    <g id="xtick_3">
     <g id="line2d_3">
      <g>
       <use style="stroke:#000000;stroke-width:0.8;" x="187.92" xlink:href="#mfc5a564748" y="252"/>
      </g>
     </g>
     <g id="text_3">
      <!-- 0.4 -->
      <defs>
       <path d="M 37.796875 64.3125 
L 12.890625 25.390625 
L 37.796875 25.390625 
z
M 35.203125 72.90625 
L 47.609375 72.90625 
L 47.609375 25.390625 
L 58.015625 25.390625 
L 58.015625 17.1875 
L 47.609375 17.1875 
L 47.609375 0 
L 37.796875 0 
L 37.796875 17.1875 
L 4.890625 17.1875 
L 4.890625 26.703125 
z
" id="DejaVuSans-34"/>
      </defs>
      <g transform="translate(179.968438 266.598437)scale(0.1 -0.1)">
       <use xlink:href="#DejaVuSans-30"/>
       <use x="63.623047" xlink:href="#DejaVuSans-2e"/>
       <use x="95.410156" xlink:href="#DejaVuSans-34"/>
      </g>
     </g>
    </g>
    <g id="xtick_4">
     <g id="line2d_4">
      <g>
       <use style="stroke:#000000;stroke-width:0.8;" x="254.88" xlink:href="#mfc5a564748" y="252"/>
      </g>
     </g>
     <g id="text_4">
      <!-- 0.6 -->
      <defs>
       <path d="M 33.015625 40.375 
Q 26.375 40.375 22.484375 35.828125 
Q 18.609375 31.296875 18.609375 23.390625 
Q 18.609375 15.53125 22.484375 10.953125 
Q 26.375 6.390625 33.015625 6.390625 
Q 39.65625 6.390625 43.53125 10.953125 
Q 47.40625 15.53125 47.40625 23.390625 
Q 47.40625 31.296875 43.53125 35.828125 
Q 39.65625 40.375 33.015625 40.375 
z
M 52.59375 71.296875 
L 52.59375 62.3125 
Q 48.875 64.0625 45.09375 64.984375 
Q 41.3125 65.921875 37.59375 65.921875 
Q 27.828125 65.921875 22.671875 59.328125 
Q 17.53125 52.734375 16.796875 39.40625 
Q 19.671875 43.65625 24.015625 45.921875 
Q 28.375 48.1875 33.59375 48.1875 
Q 44.578125 48.1875 50.953125 41.515625 
Q 57.328125 34.859375 57.328125 23.390625 
Q 57.328125 12.15625 50.6875 5.359375 
Q 44.046875 -1.421875 33.015625 -1.421875 
Q 20.359375 -1.421875 13.671875 8.265625 
Q 6.984375 17.96875 6.984375 36.375 
Q 6.984375 53.65625 15.1875 63.9375 
Q 23.390625 74.21875 37.203125 74.21875 
Q 40.921875 74.21875 44.703125 73.484375 
Q 48.484375 72.75 52.59375 71.296875 
z
" id="DejaVuSans-36"/>
      </defs>
      <g transform="translate(246.928438 266.598437)scale(0.1 -0.1)">
       <use xlink:href="#DejaVuSans-30"/>
       <use x="63.623047" xlink:href="#DejaVuSans-2e"/>
       <use x="95.410156" xlink:href="#DejaVuSans-36"/>
      </g>
     </g>
    </g>
    <g id="xtick_5">
     <g id="line2d_5">
      <g>
       <use style="stroke:#000000;stroke-width:0.8;" x="321.84" xlink:href="#mfc5a564748" y="252"/>
      </g>
     </g>
     <g id="text_5">
      <!-- 0.8 -->
      <defs>
       <path d="M 31.78125 34.625 
Q 24.75 34.625 20.71875 30.859375 
Q 16.703125 27.09375 16.703125 20.515625 
Q 16.703125 13.921875 20.71875 10.15625 
Q 24.75 6.390625 31.78125 6.390625 
Q 38.8125 6.390625 42.859375 10.171875 
Q 46.921875 13.96875 46.921875 20.515625 
Q 46.921875 27.09375 42.890625 30.859375 
Q 38.875 34.625 31.78125 34.625 
z
M 21.921875 38.8125 
Q 15.578125 40.375 12.03125 44.71875 
Q 8.5 49.078125 8.5 55.328125 
Q 8.5 64.0625 14.71875 69.140625 
Q 20.953125 74.21875 31.78125 74.21875 
Q 42.671875 74.21875 48.875 69.140625 
Q 55.078125 64.0625 55.078125 55.328125 
Q 55.078125 49.078125 51.53125 44.71875 
Q 48 40.375 41.703125 38.8125 
Q 48.828125 37.15625 52.796875 32.3125 
Q 56.78125 27.484375 56.78125 20.515625 
Q 56.78125 9.90625 50.3125 4.234375 
Q 43.84375 -1.421875 31.78125 -1.421875 
Q 19.734375 -1.421875 13.25 4.234375 
Q 6.78125 9.90625 6.78125 20.515625 
Q 6.78125 27.484375 10.78125 32.3125 
Q 14.796875 37.15625 21.921875 38.8125 
z
M 18.3125 54.390625 
Q 18.3125 48.734375 21.84375 45.5625 
Q 25.390625 42.390625 31.78125 42.390625 
Q 38.140625 42.390625 41.71875 45.5625 
Q 45.3125 48.734375 45.3125 54.390625 
Q 45.3125 60.0625 41.71875 63.234375 
Q 38.140625 66.40625 31.78125 66.40625 
Q 25.390625 66.40625 21.84375 63.234375 
Q 18.3125 60.0625 18.3125 54.390625 
z
" id="DejaVuSans-38"/>
      </defs>
      <g transform="translate(313.888438 266.598437)scale(0.1 -0.1)">
       <use xlink:href="#DejaVuSans-30"/>
       <use x="63.623047" xlink:href="#DejaVuSans-2e"/>
       <use x="95.410156" xlink:href="#DejaVuSans-38"/>
      </g>
     </g>
    </g>
    <g id="xtick_6">
     <g id="line2d_6">
      <g>
       <use style="stroke:#000000;stroke-width:0.8;" x="388.8" xlink:href="#mfc5a564748" y="252"/>
      </g>
     </g>
     <g id="text_6">
      <!-- 1.0 -->
      <defs>
       <path d="M 12.40625 8.296875 
L 28.515625 8.296875 
L 28.515625 63.921875 
L 10.984375 60.40625 
L 10.984375 69.390625 
L 28.421875 72.90625 
L 38.28125 72.90625 
L 38.28125 8.296875 
L 54.390625 8.296875 
L 54.390625 0 
L 12.40625 0 
z
" id="DejaVuSans-31"/>
      </defs>
      <g transform="translate(380.848437 266.598437)scale(0.1 -0.1)">
       <use xlink:href="#DejaVuSans-31"/>
       <use x="63.623047" xlink:href="#DejaVuSans-2e"/>
       <use x="95.410156" xlink:href="#DejaVuSans-30"/>
      </g>
     </g>
    </g>
    <g id="text_7">
     <!-- False Positive Rate -->
     <defs>
      <path d="M 9.8125 72.90625 
L 51.703125 72.90625 
L 51.703125 64.59375 
L 19.671875 64.59375 
L 19.671875 43.109375 
L 48.578125 43.109375 
L 48.578125 34.8125 
L 19.671875 34.8125 
L 19.671875 0 
L 9.8125 0 
z
" id="DejaVuSans-46"/>
      <path d="M 34.28125 27.484375 
Q 23.390625 27.484375 19.1875 25 
Q 14.984375 22.515625 14.984375 16.5 
Q 14.984375 11.71875 18.140625 8.90625 
Q 21.296875 6.109375 26.703125 6.109375 
Q 34.1875 6.109375 38.703125 11.40625 
Q 43.21875 16.703125 43.21875 25.484375 
L 43.21875 27.484375 
z
M 52.203125 31.203125 
L 52.203125 0 
L 43.21875 0 
L 43.21875 8.296875 
Q 40.140625 3.328125 35.546875 0.953125 
Q 30.953125 -1.421875 24.3125 -1.421875 
Q 15.921875 -1.421875 10.953125 3.296875 
Q 6 8.015625 6 15.921875 
Q 6 25.140625 12.171875 29.828125 
Q 18.359375 34.515625 30.609375 34.515625 
L 43.21875 34.515625 
L 43.21875 35.40625 
Q 43.21875 41.609375 39.140625 45 
Q 35.0625 48.390625 27.6875 48.390625 
Q 23 48.390625 18.546875 47.265625 
Q 14.109375 46.140625 10.015625 43.890625 
L 10.015625 52.203125 
Q 14.9375 54.109375 19.578125 55.046875 
Q 24.21875 56 28.609375 56 
Q 40.484375 56 46.34375 49.84375 
Q 52.203125 43.703125 52.203125 31.203125 
z
" id="DejaVuSans-61"/>
      <path d="M 9.421875 75.984375 
L 18.40625 75.984375 
L 18.40625 0 
L 9.421875 0 
z
" id="DejaVuSans-6c"/>
      <path d="M 44.28125 53.078125 
L 44.28125 44.578125 
Q 40.484375 46.53125 36.375 47.5 
Q 32.28125 48.484375 27.875 48.484375 
Q 21.1875 48.484375 17.84375 46.4375 
Q 14.5 44.390625 14.5 40.28125 
Q 14.5 37.15625 16.890625 35.375 
Q 19.28125 33.59375 26.515625 31.984375 
L 29.59375 31.296875 
Q 39.15625 29.25 43.1875 25.515625 
Q 47.21875 21.78125 47.21875 15.09375 
Q 47.21875 7.46875 41.1875 3.015625 
Q 35.15625 -1.421875 24.609375 -1.421875 
Q 20.21875 -1.421875 15.453125 -0.5625 
Q 10.6875 0.296875 5.421875 2 
L 5.421875 11.28125 
Q 10.40625 8.6875 15.234375 7.390625 
Q 20.0625 6.109375 24.8125 6.109375 
Q 31.15625 6.109375 34.5625 8.28125 
Q 37.984375 10.453125 37.984375 14.40625 
Q 37.984375 18.0625 35.515625 20.015625 
Q 33.0625 21.96875 24.703125 23.78125 
L 21.578125 24.515625 
Q 13.234375 26.265625 9.515625 29.90625 
Q 5.8125 33.546875 5.8125 39.890625 
Q 5.8125 47.609375 11.28125 51.796875 
Q 16.75 56 26.8125 56 
Q 31.78125 56 36.171875 55.265625 
Q 40.578125 54.546875 44.28125 53.078125 
z
" id="DejaVuSans-73"/>
      <path d="M 56.203125 29.59375 
L 56.203125 25.203125 
L 14.890625 25.203125 
Q 15.484375 15.921875 20.484375 11.0625 
Q 25.484375 6.203125 34.421875 6.203125 
Q 39.59375 6.203125 44.453125 7.46875 
Q 49.3125 8.734375 54.109375 11.28125 
L 54.109375 2.78125 
Q 49.265625 0.734375 44.1875 -0.34375 
Q 39.109375 -1.421875 33.890625 -1.421875 
Q 20.796875 -1.421875 13.15625 6.1875 
Q 5.515625 13.8125 5.515625 26.8125 
Q 5.515625 40.234375 12.765625 48.109375 
Q 20.015625 56 32.328125 56 
Q 43.359375 56 49.78125 48.890625 
Q 56.203125 41.796875 56.203125 29.59375 
z
M 47.21875 32.234375 
Q 47.125 39.59375 43.09375 43.984375 
Q 39.0625 48.390625 32.421875 48.390625 
Q 24.90625 48.390625 20.390625 44.140625 
Q 15.875 39.890625 15.1875 32.171875 
z
" id="DejaVuSans-65"/>
      <path id="DejaVuSans-20"/>
      <path d="M 19.671875 64.796875 
L 19.671875 37.40625 
L 32.078125 37.40625 
Q 38.96875 37.40625 42.71875 40.96875 
Q 46.484375 44.53125 46.484375 51.125 
Q 46.484375 57.671875 42.71875 61.234375 
Q 38.96875 64.796875 32.078125 64.796875 
z
M 9.8125 72.90625 
L 32.078125 72.90625 
Q 44.34375 72.90625 50.609375 67.359375 
Q 56.890625 61.8125 56.890625 51.125 
Q 56.890625 40.328125 50.609375 34.8125 
Q 44.34375 29.296875 32.078125 29.296875 
L 19.671875 29.296875 
L 19.671875 0 
L 9.8125 0 
z
" id="DejaVuSans-50"/>
      <path d="M 30.609375 48.390625 
Q 23.390625 48.390625 19.1875 42.75 
Q 14.984375 37.109375 14.984375 27.296875 
Q 14.984375 17.484375 19.15625 11.84375 
Q 23.34375 6.203125 30.609375 6.203125 
Q 37.796875 6.203125 41.984375 11.859375 
Q 46.1875 17.53125 46.1875 27.296875 
Q 46.1875 37.015625 41.984375 42.703125 
Q 37.796875 48.390625 30.609375 48.390625 
z
M 30.609375 56 
Q 42.328125 56 49.015625 48.375 
Q 55.71875 40.765625 55.71875 27.296875 
Q 55.71875 13.875 49.015625 6.21875 
Q 42.328125 -1.421875 30.609375 -1.421875 
Q 18.84375 -1.421875 12.171875 6.21875 
Q 5.515625 13.875 5.515625 27.296875 
Q 5.515625 40.765625 12.171875 48.375 
Q 18.84375 56 30.609375 56 
z
" id="DejaVuSans-6f"/>
      <path d="M 9.421875 54.6875 
L 18.40625 54.6875 
L 18.40625 0 
L 9.421875 0 
z
M 9.421875 75.984375 
L 18.40625 75.984375 
L 18.40625 64.59375 
L 9.421875 64.59375 
z
" id="DejaVuSans-69"/>
      <path d="M 18.3125 70.21875 
L 18.3125 54.6875 
L 36.8125 54.6875 
L 36.8125 47.703125 
L 18.3125 47.703125 
L 18.3125 18.015625 
Q 18.3125 11.328125 20.140625 9.421875 
Q 21.96875 7.515625 27.59375 7.515625 
L 36.8125 7.515625 
L 36.8125 0 
L 27.59375 0 
Q 17.1875 0 13.234375 3.875 
Q 9.28125 7.765625 9.28125 18.015625 
L 9.28125 47.703125 
L 2.6875 47.703125 
L 2.6875 54.6875 
L 9.28125 54.6875 
L 9.28125 70.21875 
z
" id="DejaVuSans-74"/>
      <path d="M 2.984375 54.6875 
L 12.5 54.6875 
L 29.59375 8.796875 
L 46.6875 54.6875 
L 56.203125 54.6875 
L 35.6875 0 
L 23.484375 0 
z
" id="DejaVuSans-76"/>
      <path d="M 44.390625 34.1875 
Q 47.5625 33.109375 50.5625 29.59375 
Q 53.5625 26.078125 56.59375 19.921875 
L 66.609375 0 
L 56 0 
L 46.6875 18.703125 
Q 43.0625 26.03125 39.671875 28.421875 
Q 36.28125 30.8125 30.421875 30.8125 
L 19.671875 30.8125 
L 19.671875 0 
L 9.8125 0 
L 9.8125 72.90625 
L 32.078125 72.90625 
Q 44.578125 72.90625 50.734375 67.671875 
Q 56.890625 62.453125 56.890625 51.90625 
Q 56.890625 45.015625 53.6875 40.46875 
Q 50.484375 35.9375 44.390625 34.1875 
z
M 19.671875 64.796875 
L 19.671875 38.921875 
L 32.078125 38.921875 
Q 39.203125 38.921875 42.84375 42.21875 
Q 46.484375 45.515625 46.484375 51.90625 
Q 46.484375 58.296875 42.84375 61.546875 
Q 39.203125 64.796875 32.078125 64.796875 
z
" id="DejaVuSans-52"/>
     </defs>
     <g transform="translate(174.194531 280.276563)scale(0.1 -0.1)">
      <use xlink:href="#DejaVuSans-46"/>
      <use x="57.378906" xlink:href="#DejaVuSans-61"/>
      <use x="118.658203" xlink:href="#DejaVuSans-6c"/>
      <use x="146.441406" xlink:href="#DejaVuSans-73"/>
      <use x="198.541016" xlink:href="#DejaVuSans-65"/>
      <use x="260.064453" xlink:href="#DejaVuSans-20"/>
      <use x="291.851562" xlink:href="#DejaVuSans-50"/>
      <use x="352.107422" xlink:href="#DejaVuSans-6f"/>
      <use x="413.289062" xlink:href="#DejaVuSans-73"/>
      <use x="465.388672" xlink:href="#DejaVuSans-69"/>
      <use x="493.171875" xlink:href="#DejaVuSans-74"/>
      <use x="532.380859" xlink:href="#DejaVuSans-69"/>
      <use x="560.164062" xlink:href="#DejaVuSans-76"/>
      <use x="619.34375" xlink:href="#DejaVuSans-65"/>
      <use x="680.867188" xlink:href="#DejaVuSans-20"/>
      <use x="712.654297" xlink:href="#DejaVuSans-52"/>
      <use x="782.105469" xlink:href="#DejaVuSans-61"/>
      <use x="843.384766" xlink:href="#DejaVuSans-74"/>
      <use x="882.59375" xlink:href="#DejaVuSans-65"/>
     </g>
    </g>
   </g>
   <g id="matplotlib.axis_2">
    <g id="ytick_1">
     <g id="line2d_7">
      <defs>
       <path d="M 0 0 
L -3.5 0 
" id="mbcea00f702" style="stroke:#000000;stroke-width:0.8;"/>
      </defs>
      <g>
       <use style="stroke:#000000;stroke-width:0.8;" x="54" xlink:href="#mbcea00f702" y="252"/>
      </g>
     </g>
     <g id="text_8">
      <!-- 0.0 -->
      <g transform="translate(31.096875 255.799219)scale(0.1 -0.1)">
       <use xlink:href="#DejaVuSans-30"/>
       <use x="63.623047" xlink:href="#DejaVuSans-2e"/>
       <use x="95.410156" xlink:href="#DejaVuSans-30"/>
      </g>
     </g>
    </g>
    <g id="ytick_2">
     <g id="line2d_8">
      <g>
       <use style="stroke:#000000;stroke-width:0.8;" x="54" xlink:href="#mbcea00f702" y="208.942574"/>
      </g>
     </g>
     <g id="text_9">
      <!-- 0.2 -->
      <g transform="translate(31.096875 212.741793)scale(0.1 -0.1)">
       <use xlink:href="#DejaVuSans-30"/>
       <use x="63.623047" xlink:href="#DejaVuSans-2e"/>
       <use x="95.410156" xlink:href="#DejaVuSans-32"/>
      </g>
     </g>
    </g>
    <g id="ytick_3">
     <g id="line2d_9">
      <g>
       <use style="stroke:#000000;stroke-width:0.8;" x="54" xlink:href="#mbcea00f702" y="165.885149"/>
      </g>
     </g>
     <g id="text_10">
      <!-- 0.4 -->
      <g transform="translate(31.096875 169.684367)scale(0.1 -0.1)">
       <use xlink:href="#DejaVuSans-30"/>
       <use x="63.623047" xlink:href="#DejaVuSans-2e"/>
       <use x="95.410156" xlink:href="#DejaVuSans-34"/>
      </g>
     </g>
    </g>
    <g id="ytick_4">
     <g id="line2d_10">
      <g>
       <use style="stroke:#000000;stroke-width:0.8;" x="54" xlink:href="#mbcea00f702" y="122.827723"/>
      </g>
     </g>
     <g id="text_11">
      <!-- 0.6 -->
      <g transform="translate(31.096875 126.626942)scale(0.1 -0.1)">
       <use xlink:href="#DejaVuSans-30"/>
       <use x="63.623047" xlink:href="#DejaVuSans-2e"/>
       <use x="95.410156" xlink:href="#DejaVuSans-36"/>
      </g>
     </g>
    </g>
    <g id="ytick_5">
     <g id="line2d_11">
      <g>
       <use style="stroke:#000000;stroke-width:0.8;" x="54" xlink:href="#mbcea00f702" y="79.770297"/>
      </g>
     </g>
     <g id="text_12">
      <!-- 0.8 -->
      <g transform="translate(31.096875 83.569516)scale(0.1 -0.1)">
       <use xlink:href="#DejaVuSans-30"/>
       <use x="63.623047" xlink:href="#DejaVuSans-2e"/>
       <use x="95.410156" xlink:href="#DejaVuSans-38"/>
      </g>
     </g>
    </g>
    <g id="ytick_6">
     <g id="line2d_12">
      <g>
       <use style="stroke:#000000;stroke-width:0.8;" x="54" xlink:href="#mbcea00f702" y="36.712871"/>
      </g>
     </g>
     <g id="text_13">
      <!-- 1.0 -->
      <g transform="translate(31.096875 40.51209)scale(0.1 -0.1)">
       <use xlink:href="#DejaVuSans-31"/>
       <use x="63.623047" xlink:href="#DejaVuSans-2e"/>
       <use x="95.410156" xlink:href="#DejaVuSans-30"/>
      </g>
     </g>
    </g>
    <g id="text_14">
     <!-- True Positive Rate -->
     <defs>
      <path d="M -0.296875 72.90625 
L 61.375 72.90625 
L 61.375 64.59375 
L 35.5 64.59375 
L 35.5 0 
L 25.59375 0 
L 25.59375 64.59375 
L -0.296875 64.59375 
z
" id="DejaVuSans-54"/>
      <path d="M 41.109375 46.296875 
Q 39.59375 47.171875 37.8125 47.578125 
Q 36.03125 48 33.890625 48 
Q 26.265625 48 22.1875 43.046875 
Q 18.109375 38.09375 18.109375 28.8125 
L 18.109375 0 
L 9.078125 0 
L 9.078125 54.6875 
L 18.109375 54.6875 
L 18.109375 46.1875 
Q 20.953125 51.171875 25.484375 53.578125 
Q 30.03125 56 36.53125 56 
Q 37.453125 56 38.578125 55.875 
Q 39.703125 55.765625 41.0625 55.515625 
z
" id="DejaVuSans-72"/>
      <path d="M 8.5 21.578125 
L 8.5 54.6875 
L 17.484375 54.6875 
L 17.484375 21.921875 
Q 17.484375 14.15625 20.5 10.265625 
Q 23.53125 6.390625 29.59375 6.390625 
Q 36.859375 6.390625 41.078125 11.03125 
Q 45.3125 15.671875 45.3125 23.6875 
L 45.3125 54.6875 
L 54.296875 54.6875 
L 54.296875 0 
L 45.3125 0 
L 45.3125 8.40625 
Q 42.046875 3.421875 37.71875 1 
Q 33.40625 -1.421875 27.6875 -1.421875 
Q 18.265625 -1.421875 13.375 4.4375 
Q 8.5 10.296875 8.5 21.578125 
z
M 31.109375 56 
z
" id="DejaVuSans-75"/>
     </defs>
     <g transform="translate(25.017187 188.826094)rotate(-90)scale(0.1 -0.1)">
      <use xlink:href="#DejaVuSans-54"/>
      <use x="60.865234" xlink:href="#DejaVuSans-72"/>
      <use x="101.978516" xlink:href="#DejaVuSans-75"/>
      <use x="165.357422" xlink:href="#DejaVuSans-65"/>
      <use x="226.880859" xlink:href="#DejaVuSans-20"/>
      <use x="258.667969" xlink:href="#DejaVuSans-50"/>
      <use x="318.923828" xlink:href="#DejaVuSans-6f"/>
      <use x="380.105469" xlink:href="#DejaVuSans-73"/>
      <use x="432.205078" xlink:href="#DejaVuSans-69"/>
      <use x="459.988281" xlink:href="#DejaVuSans-74"/>
      <use x="499.197266" xlink:href="#DejaVuSans-69"/>
      <use x="526.980469" xlink:href="#DejaVuSans-76"/>
      <use x="586.160156" xlink:href="#DejaVuSans-65"/>
      <use x="647.683594" xlink:href="#DejaVuSans-20"/>
      <use x="679.470703" xlink:href="#DejaVuSans-52"/>
      <use x="748.921875" xlink:href="#DejaVuSans-61"/>
      <use x="810.201172" xlink:href="#DejaVuSans-74"/>
      <use x="849.410156" xlink:href="#DejaVuSans-65"/>
     </g>
    </g>
   </g>
   <g id="line2d_13">
    <path clip-path="url(#p67ab468c8d)" d="M 54 251.982585 
L 54.096214 181.955927 
L 54.120267 181.955927 
L 54.216481 177.793686 
L 54.240535 177.793686 
L 54.336748 171.837676 
L 54.360802 171.837676 
L 54.457016 170.339965 
L 54.481069 170.339965 
L 54.577283 167.675435 
L 54.601336 167.675435 
L 54.69755 164.871582 
L 54.721604 164.871582 
L 54.817817 162.328958 
L 54.841871 162.328958 
L 54.938085 161.249213 
L 54.962138 161.249213 
L 55.058352 159.246461 
L 55.082405 159.246461 
L 55.178619 158.253793 
L 55.202673 158.253793 
L 55.298886 156.860574 
L 55.371047 156.825744 
L 55.467261 155.519601 
L 55.491314 155.519601 
L 55.587528 154.021891 
L 55.611581 154.021891 
L 55.707795 152.942146 
L 55.731849 152.942146 
L 55.828062 151.583758 
L 55.852116 151.583758 
L 55.94833 149.476515 
L 55.972383 149.476515 
L 56.068597 147.247365 
L 56.116704 147.247365 
L 56.212918 145.453595 
L 56.261024 145.418765 
L 56.357238 144.008131 
L 56.405345 143.955885 
L 56.501559 142.684573 
L 56.597773 142.580082 
L 56.693987 141.813811 
L 56.742094 141.813811 
L 56.838307 140.61216 
L 56.862361 140.61216 
L 56.934521 139.776229 
L 57.006682 139.776229 
L 57.102895 139.027374 
L 57.175056 138.992543 
L 57.271269 137.825723 
L 57.319376 137.738647 
L 57.41559 136.467334 
L 57.463697 136.432504 
L 57.559911 135.666234 
L 57.608018 135.596573 
L 57.704232 135.335344 
L 57.752339 135.317929 
L 57.848552 134.62132 
L 57.920713 134.534243 
L 57.992873 134.151108 
L 58.04098 134.151108 
L 58.137194 133.680897 
L 58.209354 133.628651 
L 58.305568 132.914627 
L 58.329621 132.914627 
L 58.425835 131.730391 
L 58.449889 131.730391 
L 58.546102 130.737722 
L 58.594209 130.702892 
L 58.690423 130.389418 
L 58.762584 130.337172 
L 58.858797 129.170351 
L 58.906904 129.170351 
L 59.003118 128.438911 
L 59.051225 128.36925 
L 59.123385 128.020946 
L 59.171492 128.020946 
L 59.267706 127.428828 
L 59.291759 127.428828 
L 59.387973 126.488405 
L 59.412027 126.488405 
L 59.484187 125.77438 
L 59.556347 125.722135 
L 59.652561 125.164847 
L 59.700668 125.095186 
L 59.796882 124.137348 
L 59.844989 124.137348 
L 59.941203 123.771628 
L 59.98931 123.754213 
L 60.085523 123.214341 
L 60.109577 123.214341 
L 60.205791 122.761545 
L 60.253898 122.709299 
L 60.326058 122.482901 
L 60.398218 122.465486 
L 60.470379 122.221673 
L 60.614699 122.134596 
L 60.68686 121.943029 
L 60.807127 121.838537 
L 60.879287 121.472818 
L 60.975501 121.385741 
L 61.071715 121.107098 
L 61.095768 121.107098 
L 61.191982 120.689132 
L 61.288196 120.602056 
L 61.360356 120.480149 
L 61.408463 120.480149 
L 61.504677 119.539727 
L 61.552784 119.435235 
L 61.648998 118.808287 
L 61.697105 118.738626 
L 61.793318 118.198753 
L 61.841425 118.181338 
L 61.913586 117.763373 
L 61.961693 117.763373 
L 62.057906 117.310576 
L 62.106013 117.258331 
L 62.202227 116.85778 
L 62.250334 116.840365 
L 62.346548 115.917358 
L 62.418708 115.865112 
L 62.514922 115.516807 
L 62.563029 115.499392 
L 62.659243 114.907274 
L 62.731403 114.802783 
L 62.827617 114.62863 
L 62.875724 114.62863 
L 62.971938 114.036512 
L 63.020045 114.001682 
L 63.116258 113.235412 
L 63.164365 113.235412 
L 63.260579 112.991598 
L 63.356793 112.904522 
L 63.453007 112.608463 
L 63.501114 112.556217 
L 63.597327 112.068591 
L 63.645434 112.051176 
L 63.741648 111.720286 
L 63.765702 111.720286 
L 63.837862 111.26749 
L 63.885969 111.26749 
L 63.982183 110.86694 
L 64.054343 110.86694 
L 64.150557 110.396728 
L 64.246771 110.309652 
L 64.342984 110.083254 
L 64.415145 109.978763 
L 64.463252 109.613043 
L 64.559465 109.613043 
L 64.655679 109.247323 
L 64.751893 109.142832 
L 64.824053 108.811942 
L 64.944321 108.742281 
L 65.040535 108.446222 
L 65.112695 108.446222 
L 65.208909 107.749613 
L 65.305122 107.714782 
L 65.401336 107.488384 
L 65.449443 107.470969 
L 65.545657 107.17491 
L 65.689978 107.122664 
L 65.786192 106.565377 
L 65.930512 106.495716 
L 66.026726 106.234487 
L 66.12294 106.164826 
L 66.219154 106.04292 
L 66.243207 106.04292 
L 66.339421 105.781691 
L 66.363474 105.781691 
L 66.459688 105.537878 
L 66.555902 105.433387 
L 66.652116 105.154743 
L 66.700223 105.102497 
L 66.772383 104.893514 
L 66.82049 104.893514 
L 66.916704 104.510379 
L 67.036971 104.405888 
L 67.133185 104.005337 
L 67.253452 103.900846 
L 67.325612 103.744109 
L 67.44588 103.657033 
L 67.51804 103.273897 
L 67.5902 103.186821 
L 67.686414 102.855932 
L 67.782628 102.75144 
L 67.854788 102.490212 
L 67.926949 102.455381 
L 67.999109 102.31606 
L 68.191537 102.228983 
L 68.263697 102.089662 
L 68.359911 102.072246 
L 68.432071 101.689111 
L 68.480178 101.689111 
L 68.552339 101.2189 
L 68.696659 101.114408 
L 68.792873 100.766104 
L 68.961247 100.679028 
L 69.057461 100.348138 
L 69.225835 100.243647 
L 69.297996 100.034664 
L 69.442316 99.965003 
L 69.53853 99.529622 
L 69.586637 99.477376 
L 69.658797 99.250978 
L 69.706904 99.250978 
L 69.803118 98.954919 
L 69.923385 98.885258 
L 70.019599 98.763352 
L 70.043653 98.763352 
L 70.043653 98.641445 
L 70.187973 98.536954 
L 70.260134 98.362801 
L 70.404454 98.25831 
L 70.500668 97.735853 
L 70.572829 97.631362 
L 70.669042 97.457209 
L 70.885523 97.352718 
L 70.981737 97.12632 
L 71.029844 97.039244 
L 71.102004 96.847676 
L 71.198218 96.743185 
L 71.294432 96.621278 
L 71.510913 96.534202 
L 71.607127 96.42971 
L 71.823608 96.377465 
L 71.919822 96.168482 
L 72.112249 96.06399 
L 72.208463 95.69827 
L 72.352784 95.62861 
L 72.424944 95.29772 
L 72.545212 95.29772 
L 72.617372 94.984246 
L 72.665479 94.984246 
L 72.761693 94.670772 
L 72.906013 94.601111 
L 73.002227 94.305052 
L 73.122494 94.217976 
L 73.218708 94.078654 
L 73.290869 94.043823 
L 73.387082 93.747764 
L 73.459243 93.660688 
L 73.555457 93.364629 
L 73.627617 93.294968 
L 73.723831 93.03374 
L 73.795991 92.929248 
L 73.892205 92.755096 
L 73.916258 92.755096 
L 74.012472 92.546113 
L 74.156793 92.441622 
L 74.253007 92.250054 
L 74.34922 92.145563 
L 74.445434 92.006241 
L 74.517595 91.97141 
L 74.613808 91.762427 
L 74.661915 91.710182 
L 74.758129 91.379292 
L 74.806236 91.361877 
L 74.878396 91.118064 
L 74.998664 91.013572 
L 75.094878 90.787174 
L 75.118931 90.787174 
L 75.215145 90.282133 
L 75.287305 90.177641 
L 75.335412 90.090565 
L 75.479733 90.055735 
L 75.575947 89.864167 
L 75.648107 89.759676 
L 75.720267 89.690015 
L 75.768374 89.690015 
L 75.864588 89.306879 
L 76.008909 89.202388 
L 76.105122 88.993405 
L 76.153229 88.923744 
L 76.249443 88.57544 
L 76.29755 88.470948 
L 76.393764 88.349042 
L 76.489978 88.331626 
L 76.586192 88.018152 
L 76.682405 88.018152 
L 76.754566 87.704678 
L 76.898886 87.617602 
L 76.9951 87.51311 
L 77.091314 87.408619 
L 77.187528 87.286712 
L 77.283742 87.182221 
L 77.379955 86.973238 
L 77.428062 86.920992 
L 77.524276 86.78167 
L 77.596437 86.712009 
L 77.69265 86.468196 
L 77.812918 86.433366 
L 77.909131 86.259213 
L 78.149666 86.172137 
L 78.149666 86.137307 
L 78.3902 86.102476 
L 78.438307 85.858663 
L 78.606682 85.771587 
L 78.654788 85.719341 
L 78.823163 85.632265 
L 78.919376 85.179469 
L 79.039644 85.092393 
L 79.135857 84.953071 
L 79.232071 84.900825 
L 79.328285 84.744088 
L 79.400445 84.639597 
L 79.496659 84.430614 
L 79.64098 84.343538 
L 79.737194 84.273877 
L 79.809354 84.1868 
L 79.905568 84.047479 
L 79.929621 84.047479 
L 80.025835 83.75142 
L 80.218263 83.664343 
L 80.314477 83.403115 
L 80.362584 83.298624 
L 80.458797 83.072225 
L 80.530958 82.967734 
L 80.627171 82.828412 
L 80.699332 82.758751 
L 80.795546 82.602014 
L 80.915813 82.497523 
L 80.939866 82.28854 
L 81.108241 82.218879 
L 81.204454 81.992481 
L 81.372829 81.88799 
L 81.469042 81.696422 
L 81.541203 81.609346 
L 81.637416 81.382948 
L 81.757684 81.313287 
L 81.853898 81.104304 
L 81.950111 81.104304 
L 81.998218 80.947567 
L 82.28686 80.877906 
L 82.35902 80.721169 
L 82.551448 80.651508 
L 82.623608 80.42511 
L 82.719822 80.338034 
L 82.816036 80.024559 
L 82.936303 79.920068 
L 83.032517 79.763331 
L 83.176837 79.676255 
L 83.273051 79.554348 
L 83.489532 79.449857 
L 83.585746 79.258289 
L 83.706013 79.153798 
L 83.706013 79.136382 
L 83.970601 79.031891 
L 84.066815 78.735832 
L 84.114922 78.666171 
L 84.211136 78.457188 
L 84.37951 78.370112 
L 84.45167 78.126299 
L 84.547884 78.091468 
L 84.644098 77.83024 
L 84.812472 77.777994 
L 84.884633 77.586427 
L 85.101114 77.481935 
L 85.197327 77.360029 
L 85.221381 77.360029 
L 85.269488 77.116215 
L 85.437862 77.06397 
L 85.485969 76.907232 
L 85.726503 76.837572 
L 85.750557 76.767911 
L 85.942984 76.663419 
L 85.967038 76.541513 
L 86.135412 76.454436 
L 86.207572 76.33253 
L 86.375947 76.262869 
L 86.448107 76.106132 
L 86.520267 76.071301 
L 86.616481 75.897149 
L 86.857016 75.792657 
L 86.953229 75.705581 
L 87.193764 75.60109 
L 87.265924 75.496598 
L 87.506459 75.461768 
L 87.602673 75.357277 
L 87.674833 75.2702 
L 87.674833 75.165709 
L 87.987528 75.061218 
L 88.059688 74.817404 
L 88.300223 74.747743 
L 88.396437 74.660667 
L 88.661024 74.556176 
L 88.757238 74.416854 
L 88.853452 74.329778 
L 88.949666 74.155625 
L 89.093987 74.051134 
L 89.1902 73.755075 
L 89.502895 73.650584 
L 89.575056 73.511262 
L 89.671269 73.511262 
L 89.719376 73.162957 
L 89.863697 73.075881 
L 89.959911 73.00622 
L 90.128285 72.919144 
L 90.200445 72.832068 
L 90.392873 72.744991 
L 90.465033 72.60567 
L 90.753675 72.501178 
L 90.825835 72.448932 
L 91.114477 72.344441 
L 91.21069 72.187704 
L 91.499332 72.118043 
L 91.571492 71.839399 
L 91.812027 71.734908 
L 91.860134 71.700077 
L 92.004454 71.613001 
L 92.100668 71.50851 
L 92.38931 71.404018 
L 92.485523 71.369188 
L 92.677951 71.282112 
L 92.774165 71.160205 
L 93.110913 71.055714 
L 93.183073 70.916392 
L 93.375501 70.8119 
L 93.447661 70.585502 
L 93.832517 70.481011 
L 93.832517 70.463596 
L 93.976837 70.41135 
L 94.073051 70.289443 
L 94.313586 70.219782 
L 94.4098 70.097876 
L 94.650334 69.993384 
L 94.746548 69.784402 
L 94.987082 69.697325 
L 95.083296 69.540588 
L 95.155457 69.436097 
L 95.227617 69.349021 
L 95.395991 69.27936 
L 95.395991 69.227114 
L 95.564365 69.140038 
L 95.660579 68.983301 
L 95.973274 68.91364 
L 96.069488 68.809148 
L 96.165702 68.704657 
L 96.261915 68.54792 
L 96.454343 68.443429 
L 96.526503 68.338937 
L 96.863252 68.269276 
L 96.935412 68.1822 
L 97.103786 68.112539 
L 97.2 68.008048 
L 97.464588 67.903556 
L 97.488641 67.868726 
L 97.753229 67.764234 
L 97.849443 67.677158 
L 97.945657 67.572667 
L 98.041871 67.520421 
L 98.162138 67.468175 
L 98.210245 67.363684 
L 98.45078 67.276608 
L 98.546993 67.154701 
L 98.739421 67.067625 
L 98.811581 66.980549 
L 99.100223 66.876057 
L 99.196437 66.632244 
L 99.461024 66.527753 
L 99.557238 66.475507 
L 99.869933 66.371016 
L 99.966147 66.231694 
L 100.182628 66.127202 
L 100.230735 66.040126 
L 100.567483 65.935635 
L 100.663697 65.778898 
L 100.832071 65.674406 
L 100.904232 65.622161 
L 101.096659 65.517669 
L 101.192873 65.378347 
L 101.553675 65.273856 
L 101.553675 65.22161 
L 102.082851 65.117119 
L 102.155011 65.064873 
L 102.467706 64.960382 
L 102.56392 64.751399 
L 102.804454 64.646907 
L 102.900668 64.577246 
L 103.18931 64.49017 
L 103.285523 64.368264 
L 103.429844 64.263772 
L 103.526058 64.194111 
L 103.814699 64.08962 
L 103.814699 64.072205 
L 104.103341 63.967713 
L 104.199555 63.863222 
L 104.367929 63.75873 
L 104.464143 63.671654 
L 104.704677 63.584578 
L 104.776837 63.480087 
L 105.065479 63.375595 
L 105.137639 63.305934 
L 105.257906 63.271104 
L 105.330067 63.166612 
L 105.618708 63.062121 
L 105.666815 62.975045 
L 106.147884 62.870553 
L 106.220045 62.818308 
L 106.436526 62.731232 
L 106.436526 62.678986 
L 106.773274 62.574494 
L 106.869488 62.400342 
L 107.350557 62.295851 
L 107.446771 62.243605 
L 107.807572 62.139114 
L 107.903786 61.999792 
L 108.048107 61.8953 
L 108.120267 61.773394 
L 108.553229 61.668902 
L 108.577283 61.599241 
L 109.010245 61.49475 
L 109.082405 61.390259 
L 109.346993 61.285767 
L 109.419154 61.233521 
L 109.804009 61.146445 
L 109.900223 61.076784 
L 110.09265 61.007123 
L 110.188864 60.902632 
L 110.405345 60.832971 
L 110.501559 60.676234 
L 110.886414 60.571743 
L 110.982628 60.536912 
L 111.271269 60.449836 
L 111.271269 60.39759 
L 111.752339 60.310514 
L 111.824499 60.188607 
L 112.016927 60.084116 
L 112.089087 60.014455 
L 112.401782 59.909964 
L 112.473942 59.857718 
L 112.73853 59.770642 
L 112.834744 59.648735 
L 113.412027 59.596489 
L 113.412027 59.457168 
L 113.652561 59.352676 
L 113.724722 59.2656 
L 114.109577 59.178524 
L 114.205791 59.074032 
L 114.470379 58.969541 
L 114.470379 58.952126 
L 114.807127 58.847634 
L 114.903341 58.760558 
L 115.408463 58.656067 
L 115.45657 58.568991 
L 115.913586 58.464499 
L 115.961693 58.412253 
L 116.346548 58.307762 
L 116.418708 58.272932 
L 117.092205 58.16844 
L 117.188419 58.046534 
L 117.669488 57.942042 
L 117.717595 57.872381 
L 118.054343 57.76789 
L 118.10245 57.733059 
L 118.631626 57.628568 
L 118.703786 57.454416 
L 119.016481 57.367339 
L 119.016481 57.332509 
L 119.377283 57.228018 
L 119.473497 57.140941 
L 119.906459 57.03645 
L 119.930512 56.966789 
L 120.387528 56.862298 
L 120.411581 56.827467 
L 120.772383 56.722976 
L 120.844543 56.601069 
L 121.157238 56.496578 
L 121.157238 56.479162 
L 121.566147 56.374671 
L 121.566147 56.339841 
L 122.119376 56.252764 
L 122.119376 56.183103 
L 122.263697 56.165688 
L 122.359911 56.026366 
L 122.576392 55.921875 
L 122.672606 55.799968 
L 123.057461 55.695477 
L 123.057461 55.678062 
L 123.61069 55.590985 
L 123.658797 55.503909 
L 124.23608 55.399418 
L 124.332294 55.364587 
L 124.93363 55.260096 
L 125.005791 55.155605 
L 125.390646 55.051113 
L 125.462806 54.964037 
L 125.775501 54.876961 
L 125.871715 54.789885 
L 126.18441 54.685393 
L 126.232517 54.633148 
L 126.641425 54.528656 
L 126.737639 54.424165 
L 127.122494 54.319673 
L 127.218708 54.267428 
L 127.627617 54.162936 
L 127.723831 54.128106 
L 128.108686 54.023614 
L 128.2049 53.971369 
L 128.421381 53.866877 
L 128.517595 53.779801 
L 128.782183 53.67531 
L 128.854343 53.640479 
L 129.118931 53.535988 
L 129.191091 53.483742 
L 129.551893 53.396666 
L 129.575947 53.327005 
L 129.960802 53.222514 
L 130.008909 53.187683 
L 130.874833 53.083192 
L 130.946993 53.048361 
L 131.211581 52.94387 
L 131.235635 52.874209 
L 132.342094 52.769717 
L 132.342094 52.717472 
L 132.871269 52.61298 
L 132.94343 52.57815 
L 133.56882 52.473658 
L 133.64098 52.421413 
L 134.025835 52.369167 
L 134.122049 52.264676 
L 134.482851 52.160184 
L 134.482851 52.142769 
L 135.252561 52.038278 
L 135.348775 51.968617 
L 135.493096 51.933786 
L 135.565256 51.794464 
L 135.998218 51.689973 
L 136.094432 51.655142 
L 136.695768 51.550651 
L 136.695768 51.515821 
L 137.393318 51.411329 
L 137.489532 51.341668 
L 138.042762 51.237177 
L 138.138976 51.150101 
L 138.788419 51.045609 
L 138.884633 50.923703 
L 139.173274 50.819211 
L 139.245434 50.766966 
L 139.534076 50.662474 
L 139.606236 50.575398 
L 140.183519 50.470907 
L 140.183519 50.436076 
L 141.121604 50.331585 
L 141.121604 50.314169 
L 141.530512 50.209678 
L 141.626726 50.140017 
L 141.987528 50.035526 
L 142.059688 49.965865 
L 142.372383 49.861373 
L 142.468597 49.809128 
L 143.238307 49.704636 
L 143.334521 49.565314 
L 144.344766 49.460823 
L 144.416927 49.425992 
L 144.849889 49.321501 
L 144.946102 49.25184 
L 145.306904 49.147349 
L 145.379065 49.077688 
L 146.100668 48.973196 
L 146.148775 48.938366 
L 146.365256 48.85129 
L 146.46147 48.746798 
L 147.062806 48.642307 
L 147.15902 48.555231 
L 147.832517 48.468155 
L 147.832517 48.398494 
L 148.337639 48.294002 
L 148.337639 48.276587 
L 148.818708 48.172096 
L 148.914922 48.102435 
L 149.395991 48.015358 
L 149.492205 47.945698 
L 150.310022 47.841206 
L 150.310022 47.806376 
L 150.815145 47.701884 
L 150.839198 47.649639 
L 151.512695 47.545147 
L 151.512695 47.527732 
L 152.546993 47.42324 
L 152.5951 47.38841 
L 152.811581 47.301334 
L 152.811581 47.266503 
L 153.340757 47.162012 
L 153.364811 47.092351 
L 154.038307 46.98786 
L 154.134521 46.935614 
L 154.54343 46.831123 
L 154.61559 46.761462 
L 155.649889 46.65697 
L 155.697996 46.604724 
L 156.347439 46.500233 
L 156.371492 46.447987 
L 156.972829 46.343496 
L 156.996882 46.308665 
L 157.598218 46.204174 
L 157.622272 46.169344 
L 158.151448 46.082267 
L 158.247661 46.012607 
L 158.632517 45.908115 
L 158.632517 45.8907 
L 159.378174 45.786208 
L 159.378174 45.733963 
L 160.123831 45.629471 
L 160.123831 45.612056 
L 160.628953 45.507565 
L 160.628953 45.490149 
L 161.350557 45.403073 
L 161.446771 45.315997 
L 163.010245 45.211506 
L 163.082405 45.176675 
L 163.346993 45.072184 
L 163.346993 45.054769 
L 164.236971 44.950277 
L 164.236971 44.932862 
L 165.199109 44.828371 
L 165.199109 44.810955 
L 166.065033 44.706464 
L 166.065033 44.689049 
L 167.412027 44.584557 
L 167.412027 44.549727 
L 168.277951 44.445235 
L 168.277951 44.42782 
L 168.68686 44.340744 
L 168.68686 44.305914 
L 169.528731 44.201422 
L 169.600891 44.149176 
L 170.370601 44.044685 
L 170.370601 44.02727 
L 171.020045 43.922778 
L 171.020045 43.905363 
L 172.006236 43.800872 
L 172.006236 43.766041 
L 172.87216 43.66155 
L 172.944321 43.626719 
L 173.858352 43.522228 
L 173.906459 43.487398 
L 174.387528 43.400321 
L 174.387528 43.365491 
L 174.724276 43.260999 
L 174.724276 43.243584 
L 175.51804 43.156508 
L 175.51804 43.104262 
L 176.504232 42.999771 
L 176.528285 42.947525 
L 178.115813 42.843034 
L 178.212027 42.808203 
L 179.174165 42.738542 
L 179.198218 42.668881 
L 180.016036 42.56439 
L 180.016036 42.52956 
L 181.483296 42.425068 
L 181.483296 42.407653 
L 182.301114 42.320577 
L 182.301114 42.285746 
L 183.407572 42.233501 
L 183.407572 42.16384 
L 184.008909 42.059348 
L 184.081069 42.024518 
L 184.730512 41.920026 
L 184.730512 41.902611 
L 185.957238 41.79812 
L 185.957238 41.780705 
L 187.111804 41.676213 
L 187.111804 41.641383 
L 188.771492 41.536891 
L 188.819599 41.502061 
L 191.080624 41.397569 
L 191.080624 41.380154 
L 192.090869 41.275663 
L 192.163029 41.223417 
L 192.980846 41.118926 
L 193.028953 41.049265 
L 194.47216 40.944773 
L 194.568374 40.857697 
L 195.482405 40.753206 
L 195.530512 40.718375 
L 197.093987 40.613884 
L 197.166147 40.561638 
L 198.873942 40.457147 
L 198.970156 40.422316 
L 200.629844 40.317825 
L 200.629844 40.30041 
L 202.024944 40.195918 
L 202.024944 40.178503 
L 203.371938 40.074012 
L 203.371938 40.056596 
L 204.791091 39.952105 
L 204.791091 39.93469 
L 205.416481 39.830198 
L 205.416481 39.812783 
L 207.076169 39.708292 
L 207.124276 39.656046 
L 208.567483 39.551555 
L 208.567483 39.534139 
L 210.684187 39.429648 
L 210.684187 39.412233 
L 212.824944 39.307741 
L 212.824944 39.290326 
L 215.158129 39.185835 
L 215.158129 39.168419 
L 217.852116 39.063928 
L 217.876169 39.029097 
L 219.680178 38.924606 
L 219.680178 38.907191 
L 221.748775 38.802699 
L 221.748775 38.785284 
L 224.85167 38.680793 
L 224.85167 38.663378 
L 229.710468 38.558886 
L 229.710468 38.541471 
L 232.981737 38.43698 
L 232.981737 38.419564 
L 235.459243 38.315073 
L 235.459243 38.297658 
L 238.610245 38.193166 
L 238.634298 38.158336 
L 241.232071 38.053844 
L 241.328285 38.019014 
L 243.324722 37.914522 
L 243.324722 37.879692 
L 245.730067 37.775201 
L 245.730067 37.757785 
L 249.939421 37.653294 
L 249.939421 37.618463 
L 252.320713 37.513972 
L 252.320713 37.496557 
L 259.151893 37.392065 
L 259.151893 37.37465 
L 262.182628 37.270159 
L 262.182628 37.252744 
L 271.346993 37.148252 
L 271.346993 37.130837 
L 277.023608 37.026346 
L 277.023608 37.00893 
L 296.001782 36.904439 
L 296.001782 36.887024 
L 312.50245 36.782532 
L 312.50245 36.765117 
L 388.8 36.712871 
L 388.8 36.712871 
" style="fill:none;stroke:#000080;stroke-linecap:square;stroke-width:2;"/>
   </g>
   <g id="line2d_14">
    <path clip-path="url(#p67ab468c8d)" d="M 54 252 
L 388.8 36.712871 
" style="fill:none;stroke:#add8e6;stroke-dasharray:7.4,3.2;stroke-dashoffset:0;stroke-width:2;"/>
   </g>
   <g id="patch_3">
    <path d="M 54 252 
L 54 34.56 
" style="fill:none;stroke:#000000;stroke-linecap:square;stroke-linejoin:miter;stroke-width:0.8;"/>
   </g>
   <g id="patch_4">
    <path d="M 388.8 252 
L 388.8 34.56 
" style="fill:none;stroke:#000000;stroke-linecap:square;stroke-linejoin:miter;stroke-width:0.8;"/>
   </g>
   <g id="patch_5">
    <path d="M 54 252 
L 388.8 252 
" style="fill:none;stroke:#000000;stroke-linecap:square;stroke-linejoin:miter;stroke-width:0.8;"/>
   </g>
   <g id="patch_6">
    <path d="M 54 34.56 
L 388.8 34.56 
" style="fill:none;stroke:#000000;stroke-linecap:square;stroke-linejoin:miter;stroke-width:0.8;"/>
   </g>
   <g id="text_15">
    <!-- ROC -->
    <defs>
     <path d="M 39.40625 66.21875 
Q 28.65625 66.21875 22.328125 58.203125 
Q 16.015625 50.203125 16.015625 36.375 
Q 16.015625 22.609375 22.328125 14.59375 
Q 28.65625 6.59375 39.40625 6.59375 
Q 50.140625 6.59375 56.421875 14.59375 
Q 62.703125 22.609375 62.703125 36.375 
Q 62.703125 50.203125 56.421875 58.203125 
Q 50.140625 66.21875 39.40625 66.21875 
z
M 39.40625 74.21875 
Q 54.734375 74.21875 63.90625 63.9375 
Q 73.09375 53.65625 73.09375 36.375 
Q 73.09375 19.140625 63.90625 8.859375 
Q 54.734375 -1.421875 39.40625 -1.421875 
Q 24.03125 -1.421875 14.8125 8.828125 
Q 5.609375 19.09375 5.609375 36.375 
Q 5.609375 53.65625 14.8125 63.9375 
Q 24.03125 74.21875 39.40625 74.21875 
z
" id="DejaVuSans-4f"/>
     <path d="M 64.40625 67.28125 
L 64.40625 56.890625 
Q 59.421875 61.53125 53.78125 63.8125 
Q 48.140625 66.109375 41.796875 66.109375 
Q 29.296875 66.109375 22.65625 58.46875 
Q 16.015625 50.828125 16.015625 36.375 
Q 16.015625 21.96875 22.65625 14.328125 
Q 29.296875 6.6875 41.796875 6.6875 
Q 48.140625 6.6875 53.78125 8.984375 
Q 59.421875 11.28125 64.40625 15.921875 
L 64.40625 5.609375 
Q 59.234375 2.09375 53.4375 0.328125 
Q 47.65625 -1.421875 41.21875 -1.421875 
Q 24.65625 -1.421875 15.125 8.703125 
Q 5.609375 18.84375 5.609375 36.375 
Q 5.609375 53.953125 15.125 64.078125 
Q 24.65625 74.21875 41.21875 74.21875 
Q 47.75 74.21875 53.53125 72.484375 
Q 59.328125 70.75 64.40625 67.28125 
z
" id="DejaVuSans-43"/>
    </defs>
    <g transform="translate(208.318125 28.56)scale(0.12 -0.12)">
     <use xlink:href="#DejaVuSans-52"/>
     <use x="69.482422" xlink:href="#DejaVuSans-4f"/>
     <use x="148.193359" xlink:href="#DejaVuSans-43"/>
    </g>
   </g>
   <g id="legend_1">
    <g id="patch_7">
     <path d="M 226.3 247 
L 381.8 247 
Q 383.8 247 383.8 245 
L 383.8 231.321875 
Q 383.8 229.321875 381.8 229.321875 
L 226.3 229.321875 
Q 224.3 229.321875 224.3 231.321875 
L 224.3 245 
Q 224.3 247 226.3 247 
z
" style="fill:#ffffff;opacity:0.8;stroke:#cccccc;stroke-linejoin:miter;"/>
    </g>
    <g id="line2d_15">
     <path d="M 228.3 237.420312 
L 248.3 237.420312 
" style="fill:none;stroke:#000080;stroke-linecap:square;stroke-width:2;"/>
    </g>
    <g id="line2d_16"/>
    <g id="text_16">
     <!-- ROC curve (area = 0.94) -->
     <defs>
      <path d="M 48.78125 52.59375 
L 48.78125 44.1875 
Q 44.96875 46.296875 41.140625 47.34375 
Q 37.3125 48.390625 33.40625 48.390625 
Q 24.65625 48.390625 19.8125 42.84375 
Q 14.984375 37.3125 14.984375 27.296875 
Q 14.984375 17.28125 19.8125 11.734375 
Q 24.65625 6.203125 33.40625 6.203125 
Q 37.3125 6.203125 41.140625 7.25 
Q 44.96875 8.296875 48.78125 10.40625 
L 48.78125 2.09375 
Q 45.015625 0.34375 40.984375 -0.53125 
Q 36.96875 -1.421875 32.421875 -1.421875 
Q 20.0625 -1.421875 12.78125 6.34375 
Q 5.515625 14.109375 5.515625 27.296875 
Q 5.515625 40.671875 12.859375 48.328125 
Q 20.21875 56 33.015625 56 
Q 37.15625 56 41.109375 55.140625 
Q 45.0625 54.296875 48.78125 52.59375 
z
" id="DejaVuSans-63"/>
      <path d="M 31 75.875 
Q 24.46875 64.65625 21.28125 53.65625 
Q 18.109375 42.671875 18.109375 31.390625 
Q 18.109375 20.125 21.3125 9.0625 
Q 24.515625 -2 31 -13.1875 
L 23.1875 -13.1875 
Q 15.875 -1.703125 12.234375 9.375 
Q 8.59375 20.453125 8.59375 31.390625 
Q 8.59375 42.28125 12.203125 53.3125 
Q 15.828125 64.359375 23.1875 75.875 
z
" id="DejaVuSans-28"/>
      <path d="M 10.59375 45.40625 
L 73.1875 45.40625 
L 73.1875 37.203125 
L 10.59375 37.203125 
z
M 10.59375 25.484375 
L 73.1875 25.484375 
L 73.1875 17.1875 
L 10.59375 17.1875 
z
" id="DejaVuSans-3d"/>
      <path d="M 10.984375 1.515625 
L 10.984375 10.5 
Q 14.703125 8.734375 18.5 7.8125 
Q 22.3125 6.890625 25.984375 6.890625 
Q 35.75 6.890625 40.890625 13.453125 
Q 46.046875 20.015625 46.78125 33.40625 
Q 43.953125 29.203125 39.59375 26.953125 
Q 35.25 24.703125 29.984375 24.703125 
Q 19.046875 24.703125 12.671875 31.3125 
Q 6.296875 37.9375 6.296875 49.421875 
Q 6.296875 60.640625 12.9375 67.421875 
Q 19.578125 74.21875 30.609375 74.21875 
Q 43.265625 74.21875 49.921875 64.515625 
Q 56.59375 54.828125 56.59375 36.375 
Q 56.59375 19.140625 48.40625 8.859375 
Q 40.234375 -1.421875 26.421875 -1.421875 
Q 22.703125 -1.421875 18.890625 -0.6875 
Q 15.09375 0.046875 10.984375 1.515625 
z
M 30.609375 32.421875 
Q 37.25 32.421875 41.125 36.953125 
Q 45.015625 41.5 45.015625 49.421875 
Q 45.015625 57.28125 41.125 61.84375 
Q 37.25 66.40625 30.609375 66.40625 
Q 23.96875 66.40625 20.09375 61.84375 
Q 16.21875 57.28125 16.21875 49.421875 
Q 16.21875 41.5 20.09375 36.953125 
Q 23.96875 32.421875 30.609375 32.421875 
z
" id="DejaVuSans-39"/>
      <path d="M 8.015625 75.875 
L 15.828125 75.875 
Q 23.140625 64.359375 26.78125 53.3125 
Q 30.421875 42.28125 30.421875 31.390625 
Q 30.421875 20.453125 26.78125 9.375 
Q 23.140625 -1.703125 15.828125 -13.1875 
L 8.015625 -13.1875 
Q 14.5 -2 17.703125 9.0625 
Q 20.90625 20.125 20.90625 31.390625 
Q 20.90625 42.671875 17.703125 53.65625 
Q 14.5 64.65625 8.015625 75.875 
z
" id="DejaVuSans-29"/>
     </defs>
     <g transform="translate(256.3 240.920312)scale(0.1 -0.1)">
      <use xlink:href="#DejaVuSans-52"/>
      <use x="69.482422" xlink:href="#DejaVuSans-4f"/>
      <use x="148.193359" xlink:href="#DejaVuSans-43"/>
      <use x="218.017578" xlink:href="#DejaVuSans-20"/>
      <use x="249.804688" xlink:href="#DejaVuSans-63"/>
      <use x="304.785156" xlink:href="#DejaVuSans-75"/>
      <use x="368.164062" xlink:href="#DejaVuSans-72"/>
      <use x="409.277344" xlink:href="#DejaVuSans-76"/>
      <use x="468.457031" xlink:href="#DejaVuSans-65"/>
      <use x="529.980469" xlink:href="#DejaVuSans-20"/>
      <use x="561.767578" xlink:href="#DejaVuSans-28"/>
      <use x="600.78125" xlink:href="#DejaVuSans-61"/>
      <use x="662.060547" xlink:href="#DejaVuSans-72"/>
      <use x="703.142578" xlink:href="#DejaVuSans-65"/>
      <use x="764.666016" xlink:href="#DejaVuSans-61"/>
      <use x="825.945312" xlink:href="#DejaVuSans-20"/>
      <use x="857.732422" xlink:href="#DejaVuSans-3d"/>
      <use x="941.521484" xlink:href="#DejaVuSans-20"/>
      <use x="973.308594" xlink:href="#DejaVuSans-30"/>
      <use x="1036.931641" xlink:href="#DejaVuSans-2e"/>
      <use x="1068.71875" xlink:href="#DejaVuSans-39"/>
      <use x="1132.341797" xlink:href="#DejaVuSans-34"/>
      <use x="1195.964844" xlink:href="#DejaVuSans-29"/>
     </g>
    </g>
   </g>
  </g>
 </g>
 <defs>
  <clipPath id="p67ab468c8d">
   <rect height="217.44" width="334.8" x="54" y="34.56"/>
  </clipPath>
 </defs>
</svg>
