<?xml version="1.0" encoding="utf-8" standalone="no"?>
<!DOCTYPE svg PUBLIC "-//W3C//DTD SVG 1.1//EN"
  "http://www.w3.org/Graphics/SVG/1.1/DTD/svg11.dtd">
<!-- Created with matplotlib (http://matplotlib.org/) -->
<svg height="288pt" version="1.1" viewBox="0 0 432 288" width="432pt" xmlns="http://www.w3.org/2000/svg" xmlns:xlink="http://www.w3.org/1999/xlink">
 <defs>
  <style type="text/css">
*{stroke-linecap:butt;stroke-linejoin:round;}
  </style>
 </defs>
 <g id="figure_1">
  <g id="patch_1">
   <path d="M 0 288 
L 432 288 
L 432 0 
L 0 0 
z
" style="fill:#ffffff;"/>
  </g>
  <g id="axes_1">
   <g id="patch_2">
    <path d="M 54 252 
L 388.8 252 
L 388.8 34.56 
L 54 34.56 
z
" style="fill:#ffffff;"/>
   </g>
   <g id="matplotlib.axis_1">
    <g id="xtick_1">
     <g id="line2d_1">
      <defs>
       <path d="M 0 0 
L 0 3.5 
" id="m1e7dca821d" style="stroke:#000000;stroke-width:0.8;"/>
      </defs>
      <g>
       <use style="stroke:#000000;stroke-width:0.8;" x="54" xlink:href="#m1e7dca821d" y="252"/>
      </g>
     </g>
     <g id="text_1">
      <!-- 0.0 -->
      <defs>
       <path d="M 31.78125 66.40625 
Q 24.171875 66.40625 20.328125 58.90625 
Q 16.5 51.421875 16.5 36.375 
Q 16.5 21.390625 20.328125 13.890625 
Q 24.171875 6.390625 31.78125 6.390625 
Q 39.453125 6.390625 43.28125 13.890625 
Q 47.125 21.390625 47.125 36.375 
Q 47.125 51.421875 43.28125 58.90625 
Q 39.453125 66.40625 31.78125 66.40625 
z
M 31.78125 74.21875 
Q 44.046875 74.21875 50.515625 64.515625 
Q 56.984375 54.828125 56.984375 36.375 
Q 56.984375 17.96875 50.515625 8.265625 
Q 44.046875 -1.421875 31.78125 -1.421875 
Q 19.53125 -1.421875 13.0625 8.265625 
Q 6.59375 17.96875 6.59375 36.375 
Q 6.59375 54.828125 13.0625 64.515625 
Q 19.53125 74.21875 31.78125 74.21875 
z
" id="DejaVuSans-30"/>
       <path d="M 10.6875 12.40625 
L 21 12.40625 
L 21 0 
L 10.6875 0 
z
" id="DejaVuSans-2e"/>
      </defs>
      <g transform="translate(46.048437 266.598437)scale(0.1 -0.1)">
       <use xlink:href="#DejaVuSans-30"/>
       <use x="63.623047" xlink:href="#DejaVuSans-2e"/>
       <use x="95.410156" xlink:href="#DejaVuSans-30"/>
      </g>
     </g>
    </g>
    <g id="xtick_2">
     <g id="line2d_2">
      <g>
       <use style="stroke:#000000;stroke-width:0.8;" x="120.96" xlink:href="#m1e7dca821d" y="252"/>
      </g>
     </g>
     <g id="text_2">
      <!-- 0.2 -->
      <defs>
       <path d="M 19.1875 8.296875 
L 53.609375 8.296875 
L 53.609375 0 
L 7.328125 0 
L 7.328125 8.296875 
Q 12.9375 14.109375 22.625 23.890625 
Q 32.328125 33.6875 34.8125 36.53125 
Q 39.546875 41.84375 41.421875 45.53125 
Q 43.3125 49.21875 43.3125 52.78125 
Q 43.3125 58.59375 39.234375 62.25 
Q 35.15625 65.921875 28.609375 65.921875 
Q 23.96875 65.921875 18.8125 64.3125 
Q 13.671875 62.703125 7.8125 59.421875 
L 7.8125 69.390625 
Q 13.765625 71.78125 18.9375 73 
Q 24.125 74.21875 28.421875 74.21875 
Q 39.75 74.21875 46.484375 68.546875 
Q 53.21875 62.890625 53.21875 53.421875 
Q 53.21875 48.921875 51.53125 44.890625 
Q 49.859375 40.875 45.40625 35.40625 
Q 44.1875 33.984375 37.640625 27.21875 
Q 31.109375 20.453125 19.1875 8.296875 
z
" id="DejaVuSans-32"/>
      </defs>
      <g transform="translate(113.008438 266.598437)scale(0.1 -0.1)">
       <use xlink:href="#DejaVuSans-30"/>
       <use x="63.623047" xlink:href="#DejaVuSans-2e"/>
       <use x="95.410156" xlink:href="#DejaVuSans-32"/>
      </g>
     </g>
    </g>
    <g id="xtick_3">
     <g id="line2d_3">
      <g>
       <use style="stroke:#000000;stroke-width:0.8;" x="187.92" xlink:href="#m1e7dca821d" y="252"/>
      </g>
     </g>
     <g id="text_3">
      <!-- 0.4 -->
      <defs>
       <path d="M 37.796875 64.3125 
L 12.890625 25.390625 
L 37.796875 25.390625 
z
M 35.203125 72.90625 
L 47.609375 72.90625 
L 47.609375 25.390625 
L 58.015625 25.390625 
L 58.015625 17.1875 
L 47.609375 17.1875 
L 47.609375 0 
L 37.796875 0 
L 37.796875 17.1875 
L 4.890625 17.1875 
L 4.890625 26.703125 
z
" id="DejaVuSans-34"/>
      </defs>
      <g transform="translate(179.968438 266.598437)scale(0.1 -0.1)">
       <use xlink:href="#DejaVuSans-30"/>
       <use x="63.623047" xlink:href="#DejaVuSans-2e"/>
       <use x="95.410156" xlink:href="#DejaVuSans-34"/>
      </g>
     </g>
    </g>
    <g id="xtick_4">
     <g id="line2d_4">
      <g>
       <use style="stroke:#000000;stroke-width:0.8;" x="254.88" xlink:href="#m1e7dca821d" y="252"/>
      </g>
     </g>
     <g id="text_4">
      <!-- 0.6 -->
      <defs>
       <path d="M 33.015625 40.375 
Q 26.375 40.375 22.484375 35.828125 
Q 18.609375 31.296875 18.609375 23.390625 
Q 18.609375 15.53125 22.484375 10.953125 
Q 26.375 6.390625 33.015625 6.390625 
Q 39.65625 6.390625 43.53125 10.953125 
Q 47.40625 15.53125 47.40625 23.390625 
Q 47.40625 31.296875 43.53125 35.828125 
Q 39.65625 40.375 33.015625 40.375 
z
M 52.59375 71.296875 
L 52.59375 62.3125 
Q 48.875 64.0625 45.09375 64.984375 
Q 41.3125 65.921875 37.59375 65.921875 
Q 27.828125 65.921875 22.671875 59.328125 
Q 17.53125 52.734375 16.796875 39.40625 
Q 19.671875 43.65625 24.015625 45.921875 
Q 28.375 48.1875 33.59375 48.1875 
Q 44.578125 48.1875 50.953125 41.515625 
Q 57.328125 34.859375 57.328125 23.390625 
Q 57.328125 12.15625 50.6875 5.359375 
Q 44.046875 -1.421875 33.015625 -1.421875 
Q 20.359375 -1.421875 13.671875 8.265625 
Q 6.984375 17.96875 6.984375 36.375 
Q 6.984375 53.65625 15.1875 63.9375 
Q 23.390625 74.21875 37.203125 74.21875 
Q 40.921875 74.21875 44.703125 73.484375 
Q 48.484375 72.75 52.59375 71.296875 
z
" id="DejaVuSans-36"/>
      </defs>
      <g transform="translate(246.928438 266.598437)scale(0.1 -0.1)">
       <use xlink:href="#DejaVuSans-30"/>
       <use x="63.623047" xlink:href="#DejaVuSans-2e"/>
       <use x="95.410156" xlink:href="#DejaVuSans-36"/>
      </g>
     </g>
    </g>
    <g id="xtick_5">
     <g id="line2d_5">
      <g>
       <use style="stroke:#000000;stroke-width:0.8;" x="321.84" xlink:href="#m1e7dca821d" y="252"/>
      </g>
     </g>
     <g id="text_5">
      <!-- 0.8 -->
      <defs>
       <path d="M 31.78125 34.625 
Q 24.75 34.625 20.71875 30.859375 
Q 16.703125 27.09375 16.703125 20.515625 
Q 16.703125 13.921875 20.71875 10.15625 
Q 24.75 6.390625 31.78125 6.390625 
Q 38.8125 6.390625 42.859375 10.171875 
Q 46.921875 13.96875 46.921875 20.515625 
Q 46.921875 27.09375 42.890625 30.859375 
Q 38.875 34.625 31.78125 34.625 
z
M 21.921875 38.8125 
Q 15.578125 40.375 12.03125 44.71875 
Q 8.5 49.078125 8.5 55.328125 
Q 8.5 64.0625 14.71875 69.140625 
Q 20.953125 74.21875 31.78125 74.21875 
Q 42.671875 74.21875 48.875 69.140625 
Q 55.078125 64.0625 55.078125 55.328125 
Q 55.078125 49.078125 51.53125 44.71875 
Q 48 40.375 41.703125 38.8125 
Q 48.828125 37.15625 52.796875 32.3125 
Q 56.78125 27.484375 56.78125 20.515625 
Q 56.78125 9.90625 50.3125 4.234375 
Q 43.84375 -1.421875 31.78125 -1.421875 
Q 19.734375 -1.421875 13.25 4.234375 
Q 6.78125 9.90625 6.78125 20.515625 
Q 6.78125 27.484375 10.78125 32.3125 
Q 14.796875 37.15625 21.921875 38.8125 
z
M 18.3125 54.390625 
Q 18.3125 48.734375 21.84375 45.5625 
Q 25.390625 42.390625 31.78125 42.390625 
Q 38.140625 42.390625 41.71875 45.5625 
Q 45.3125 48.734375 45.3125 54.390625 
Q 45.3125 60.0625 41.71875 63.234375 
Q 38.140625 66.40625 31.78125 66.40625 
Q 25.390625 66.40625 21.84375 63.234375 
Q 18.3125 60.0625 18.3125 54.390625 
z
" id="DejaVuSans-38"/>
      </defs>
      <g transform="translate(313.888438 266.598437)scale(0.1 -0.1)">
       <use xlink:href="#DejaVuSans-30"/>
       <use x="63.623047" xlink:href="#DejaVuSans-2e"/>
       <use x="95.410156" xlink:href="#DejaVuSans-38"/>
      </g>
     </g>
    </g>
    <g id="xtick_6">
     <g id="line2d_6">
      <g>
       <use style="stroke:#000000;stroke-width:0.8;" x="388.8" xlink:href="#m1e7dca821d" y="252"/>
      </g>
     </g>
     <g id="text_6">
      <!-- 1.0 -->
      <defs>
       <path d="M 12.40625 8.296875 
L 28.515625 8.296875 
L 28.515625 63.921875 
L 10.984375 60.40625 
L 10.984375 69.390625 
L 28.421875 72.90625 
L 38.28125 72.90625 
L 38.28125 8.296875 
L 54.390625 8.296875 
L 54.390625 0 
L 12.40625 0 
z
" id="DejaVuSans-31"/>
      </defs>
      <g transform="translate(380.848437 266.598437)scale(0.1 -0.1)">
       <use xlink:href="#DejaVuSans-31"/>
       <use x="63.623047" xlink:href="#DejaVuSans-2e"/>
       <use x="95.410156" xlink:href="#DejaVuSans-30"/>
      </g>
     </g>
    </g>
    <g id="text_7">
     <!-- False Positive Rate -->
     <defs>
      <path d="M 9.8125 72.90625 
L 51.703125 72.90625 
L 51.703125 64.59375 
L 19.671875 64.59375 
L 19.671875 43.109375 
L 48.578125 43.109375 
L 48.578125 34.8125 
L 19.671875 34.8125 
L 19.671875 0 
L 9.8125 0 
z
" id="DejaVuSans-46"/>
      <path d="M 34.28125 27.484375 
Q 23.390625 27.484375 19.1875 25 
Q 14.984375 22.515625 14.984375 16.5 
Q 14.984375 11.71875 18.140625 8.90625 
Q 21.296875 6.109375 26.703125 6.109375 
Q 34.1875 6.109375 38.703125 11.40625 
Q 43.21875 16.703125 43.21875 25.484375 
L 43.21875 27.484375 
z
M 52.203125 31.203125 
L 52.203125 0 
L 43.21875 0 
L 43.21875 8.296875 
Q 40.140625 3.328125 35.546875 0.953125 
Q 30.953125 -1.421875 24.3125 -1.421875 
Q 15.921875 -1.421875 10.953125 3.296875 
Q 6 8.015625 6 15.921875 
Q 6 25.140625 12.171875 29.828125 
Q 18.359375 34.515625 30.609375 34.515625 
L 43.21875 34.515625 
L 43.21875 35.40625 
Q 43.21875 41.609375 39.140625 45 
Q 35.0625 48.390625 27.6875 48.390625 
Q 23 48.390625 18.546875 47.265625 
Q 14.109375 46.140625 10.015625 43.890625 
L 10.015625 52.203125 
Q 14.9375 54.109375 19.578125 55.046875 
Q 24.21875 56 28.609375 56 
Q 40.484375 56 46.34375 49.84375 
Q 52.203125 43.703125 52.203125 31.203125 
z
" id="DejaVuSans-61"/>
      <path d="M 9.421875 75.984375 
L 18.40625 75.984375 
L 18.40625 0 
L 9.421875 0 
z
" id="DejaVuSans-6c"/>
      <path d="M 44.28125 53.078125 
L 44.28125 44.578125 
Q 40.484375 46.53125 36.375 47.5 
Q 32.28125 48.484375 27.875 48.484375 
Q 21.1875 48.484375 17.84375 46.4375 
Q 14.5 44.390625 14.5 40.28125 
Q 14.5 37.15625 16.890625 35.375 
Q 19.28125 33.59375 26.515625 31.984375 
L 29.59375 31.296875 
Q 39.15625 29.25 43.1875 25.515625 
Q 47.21875 21.78125 47.21875 15.09375 
Q 47.21875 7.46875 41.1875 3.015625 
Q 35.15625 -1.421875 24.609375 -1.421875 
Q 20.21875 -1.421875 15.453125 -0.5625 
Q 10.6875 0.296875 5.421875 2 
L 5.421875 11.28125 
Q 10.40625 8.6875 15.234375 7.390625 
Q 20.0625 6.109375 24.8125 6.109375 
Q 31.15625 6.109375 34.5625 8.28125 
Q 37.984375 10.453125 37.984375 14.40625 
Q 37.984375 18.0625 35.515625 20.015625 
Q 33.0625 21.96875 24.703125 23.78125 
L 21.578125 24.515625 
Q 13.234375 26.265625 9.515625 29.90625 
Q 5.8125 33.546875 5.8125 39.890625 
Q 5.8125 47.609375 11.28125 51.796875 
Q 16.75 56 26.8125 56 
Q 31.78125 56 36.171875 55.265625 
Q 40.578125 54.546875 44.28125 53.078125 
z
" id="DejaVuSans-73"/>
      <path d="M 56.203125 29.59375 
L 56.203125 25.203125 
L 14.890625 25.203125 
Q 15.484375 15.921875 20.484375 11.0625 
Q 25.484375 6.203125 34.421875 6.203125 
Q 39.59375 6.203125 44.453125 7.46875 
Q 49.3125 8.734375 54.109375 11.28125 
L 54.109375 2.78125 
Q 49.265625 0.734375 44.1875 -0.34375 
Q 39.109375 -1.421875 33.890625 -1.421875 
Q 20.796875 -1.421875 13.15625 6.1875 
Q 5.515625 13.8125 5.515625 26.8125 
Q 5.515625 40.234375 12.765625 48.109375 
Q 20.015625 56 32.328125 56 
Q 43.359375 56 49.78125 48.890625 
Q 56.203125 41.796875 56.203125 29.59375 
z
M 47.21875 32.234375 
Q 47.125 39.59375 43.09375 43.984375 
Q 39.0625 48.390625 32.421875 48.390625 
Q 24.90625 48.390625 20.390625 44.140625 
Q 15.875 39.890625 15.1875 32.171875 
z
" id="DejaVuSans-65"/>
      <path id="DejaVuSans-20"/>
      <path d="M 19.671875 64.796875 
L 19.671875 37.40625 
L 32.078125 37.40625 
Q 38.96875 37.40625 42.71875 40.96875 
Q 46.484375 44.53125 46.484375 51.125 
Q 46.484375 57.671875 42.71875 61.234375 
Q 38.96875 64.796875 32.078125 64.796875 
z
M 9.8125 72.90625 
L 32.078125 72.90625 
Q 44.34375 72.90625 50.609375 67.359375 
Q 56.890625 61.8125 56.890625 51.125 
Q 56.890625 40.328125 50.609375 34.8125 
Q 44.34375 29.296875 32.078125 29.296875 
L 19.671875 29.296875 
L 19.671875 0 
L 9.8125 0 
z
" id="DejaVuSans-50"/>
      <path d="M 30.609375 48.390625 
Q 23.390625 48.390625 19.1875 42.75 
Q 14.984375 37.109375 14.984375 27.296875 
Q 14.984375 17.484375 19.15625 11.84375 
Q 23.34375 6.203125 30.609375 6.203125 
Q 37.796875 6.203125 41.984375 11.859375 
Q 46.1875 17.53125 46.1875 27.296875 
Q 46.1875 37.015625 41.984375 42.703125 
Q 37.796875 48.390625 30.609375 48.390625 
z
M 30.609375 56 
Q 42.328125 56 49.015625 48.375 
Q 55.71875 40.765625 55.71875 27.296875 
Q 55.71875 13.875 49.015625 6.21875 
Q 42.328125 -1.421875 30.609375 -1.421875 
Q 18.84375 -1.421875 12.171875 6.21875 
Q 5.515625 13.875 5.515625 27.296875 
Q 5.515625 40.765625 12.171875 48.375 
Q 18.84375 56 30.609375 56 
z
" id="DejaVuSans-6f"/>
      <path d="M 9.421875 54.6875 
L 18.40625 54.6875 
L 18.40625 0 
L 9.421875 0 
z
M 9.421875 75.984375 
L 18.40625 75.984375 
L 18.40625 64.59375 
L 9.421875 64.59375 
z
" id="DejaVuSans-69"/>
      <path d="M 18.3125 70.21875 
L 18.3125 54.6875 
L 36.8125 54.6875 
L 36.8125 47.703125 
L 18.3125 47.703125 
L 18.3125 18.015625 
Q 18.3125 11.328125 20.140625 9.421875 
Q 21.96875 7.515625 27.59375 7.515625 
L 36.8125 7.515625 
L 36.8125 0 
L 27.59375 0 
Q 17.1875 0 13.234375 3.875 
Q 9.28125 7.765625 9.28125 18.015625 
L 9.28125 47.703125 
L 2.6875 47.703125 
L 2.6875 54.6875 
L 9.28125 54.6875 
L 9.28125 70.21875 
z
" id="DejaVuSans-74"/>
      <path d="M 2.984375 54.6875 
L 12.5 54.6875 
L 29.59375 8.796875 
L 46.6875 54.6875 
L 56.203125 54.6875 
L 35.6875 0 
L 23.484375 0 
z
" id="DejaVuSans-76"/>
      <path d="M 44.390625 34.1875 
Q 47.5625 33.109375 50.5625 29.59375 
Q 53.5625 26.078125 56.59375 19.921875 
L 66.609375 0 
L 56 0 
L 46.6875 18.703125 
Q 43.0625 26.03125 39.671875 28.421875 
Q 36.28125 30.8125 30.421875 30.8125 
L 19.671875 30.8125 
L 19.671875 0 
L 9.8125 0 
L 9.8125 72.90625 
L 32.078125 72.90625 
Q 44.578125 72.90625 50.734375 67.671875 
Q 56.890625 62.453125 56.890625 51.90625 
Q 56.890625 45.015625 53.6875 40.46875 
Q 50.484375 35.9375 44.390625 34.1875 
z
M 19.671875 64.796875 
L 19.671875 38.921875 
L 32.078125 38.921875 
Q 39.203125 38.921875 42.84375 42.21875 
Q 46.484375 45.515625 46.484375 51.90625 
Q 46.484375 58.296875 42.84375 61.546875 
Q 39.203125 64.796875 32.078125 64.796875 
z
" id="DejaVuSans-52"/>
     </defs>
     <g transform="translate(174.194531 280.276563)scale(0.1 -0.1)">
      <use xlink:href="#DejaVuSans-46"/>
      <use x="57.378906" xlink:href="#DejaVuSans-61"/>
      <use x="118.658203" xlink:href="#DejaVuSans-6c"/>
      <use x="146.441406" xlink:href="#DejaVuSans-73"/>
      <use x="198.541016" xlink:href="#DejaVuSans-65"/>
      <use x="260.064453" xlink:href="#DejaVuSans-20"/>
      <use x="291.851562" xlink:href="#DejaVuSans-50"/>
      <use x="352.107422" xlink:href="#DejaVuSans-6f"/>
      <use x="413.289062" xlink:href="#DejaVuSans-73"/>
      <use x="465.388672" xlink:href="#DejaVuSans-69"/>
      <use x="493.171875" xlink:href="#DejaVuSans-74"/>
      <use x="532.380859" xlink:href="#DejaVuSans-69"/>
      <use x="560.164062" xlink:href="#DejaVuSans-76"/>
      <use x="619.34375" xlink:href="#DejaVuSans-65"/>
      <use x="680.867188" xlink:href="#DejaVuSans-20"/>
      <use x="712.654297" xlink:href="#DejaVuSans-52"/>
      <use x="782.105469" xlink:href="#DejaVuSans-61"/>
      <use x="843.384766" xlink:href="#DejaVuSans-74"/>
      <use x="882.59375" xlink:href="#DejaVuSans-65"/>
     </g>
    </g>
   </g>
   <g id="matplotlib.axis_2">
    <g id="ytick_1">
     <g id="line2d_7">
      <defs>
       <path d="M 0 0 
L -3.5 0 
" id="mff783251be" style="stroke:#000000;stroke-width:0.8;"/>
      </defs>
      <g>
       <use style="stroke:#000000;stroke-width:0.8;" x="54" xlink:href="#mff783251be" y="252"/>
      </g>
     </g>
     <g id="text_8">
      <!-- 0.0 -->
      <g transform="translate(31.096875 255.799219)scale(0.1 -0.1)">
       <use xlink:href="#DejaVuSans-30"/>
       <use x="63.623047" xlink:href="#DejaVuSans-2e"/>
       <use x="95.410156" xlink:href="#DejaVuSans-30"/>
      </g>
     </g>
    </g>
    <g id="ytick_2">
     <g id="line2d_8">
      <g>
       <use style="stroke:#000000;stroke-width:0.8;" x="54" xlink:href="#mff783251be" y="208.942574"/>
      </g>
     </g>
     <g id="text_9">
      <!-- 0.2 -->
      <g transform="translate(31.096875 212.741793)scale(0.1 -0.1)">
       <use xlink:href="#DejaVuSans-30"/>
       <use x="63.623047" xlink:href="#DejaVuSans-2e"/>
       <use x="95.410156" xlink:href="#DejaVuSans-32"/>
      </g>
     </g>
    </g>
    <g id="ytick_3">
     <g id="line2d_9">
      <g>
       <use style="stroke:#000000;stroke-width:0.8;" x="54" xlink:href="#mff783251be" y="165.885149"/>
      </g>
     </g>
     <g id="text_10">
      <!-- 0.4 -->
      <g transform="translate(31.096875 169.684367)scale(0.1 -0.1)">
       <use xlink:href="#DejaVuSans-30"/>
       <use x="63.623047" xlink:href="#DejaVuSans-2e"/>
       <use x="95.410156" xlink:href="#DejaVuSans-34"/>
      </g>
     </g>
    </g>
    <g id="ytick_4">
     <g id="line2d_10">
      <g>
       <use style="stroke:#000000;stroke-width:0.8;" x="54" xlink:href="#mff783251be" y="122.827723"/>
      </g>
     </g>
     <g id="text_11">
      <!-- 0.6 -->
      <g transform="translate(31.096875 126.626942)scale(0.1 -0.1)">
       <use xlink:href="#DejaVuSans-30"/>
       <use x="63.623047" xlink:href="#DejaVuSans-2e"/>
       <use x="95.410156" xlink:href="#DejaVuSans-36"/>
      </g>
     </g>
    </g>
    <g id="ytick_5">
     <g id="line2d_11">
      <g>
       <use style="stroke:#000000;stroke-width:0.8;" x="54" xlink:href="#mff783251be" y="79.770297"/>
      </g>
     </g>
     <g id="text_12">
      <!-- 0.8 -->
      <g transform="translate(31.096875 83.569516)scale(0.1 -0.1)">
       <use xlink:href="#DejaVuSans-30"/>
       <use x="63.623047" xlink:href="#DejaVuSans-2e"/>
       <use x="95.410156" xlink:href="#DejaVuSans-38"/>
      </g>
     </g>
    </g>
    <g id="ytick_6">
     <g id="line2d_12">
      <g>
       <use style="stroke:#000000;stroke-width:0.8;" x="54" xlink:href="#mff783251be" y="36.712871"/>
      </g>
     </g>
     <g id="text_13">
      <!-- 1.0 -->
      <g transform="translate(31.096875 40.51209)scale(0.1 -0.1)">
       <use xlink:href="#DejaVuSans-31"/>
       <use x="63.623047" xlink:href="#DejaVuSans-2e"/>
       <use x="95.410156" xlink:href="#DejaVuSans-30"/>
      </g>
     </g>
    </g>
    <g id="text_14">
     <!-- True Positive Rate -->
     <defs>
      <path d="M -0.296875 72.90625 
L 61.375 72.90625 
L 61.375 64.59375 
L 35.5 64.59375 
L 35.5 0 
L 25.59375 0 
L 25.59375 64.59375 
L -0.296875 64.59375 
z
" id="DejaVuSans-54"/>
      <path d="M 41.109375 46.296875 
Q 39.59375 47.171875 37.8125 47.578125 
Q 36.03125 48 33.890625 48 
Q 26.265625 48 22.1875 43.046875 
Q 18.109375 38.09375 18.109375 28.8125 
L 18.109375 0 
L 9.078125 0 
L 9.078125 54.6875 
L 18.109375 54.6875 
L 18.109375 46.1875 
Q 20.953125 51.171875 25.484375 53.578125 
Q 30.03125 56 36.53125 56 
Q 37.453125 56 38.578125 55.875 
Q 39.703125 55.765625 41.0625 55.515625 
z
" id="DejaVuSans-72"/>
      <path d="M 8.5 21.578125 
L 8.5 54.6875 
L 17.484375 54.6875 
L 17.484375 21.921875 
Q 17.484375 14.15625 20.5 10.265625 
Q 23.53125 6.390625 29.59375 6.390625 
Q 36.859375 6.390625 41.078125 11.03125 
Q 45.3125 15.671875 45.3125 23.6875 
L 45.3125 54.6875 
L 54.296875 54.6875 
L 54.296875 0 
L 45.3125 0 
L 45.3125 8.40625 
Q 42.046875 3.421875 37.71875 1 
Q 33.40625 -1.421875 27.6875 -1.421875 
Q 18.265625 -1.421875 13.375 4.4375 
Q 8.5 10.296875 8.5 21.578125 
z
M 31.109375 56 
z
" id="DejaVuSans-75"/>
     </defs>
     <g transform="translate(25.017187 188.826094)rotate(-90)scale(0.1 -0.1)">
      <use xlink:href="#DejaVuSans-54"/>
      <use x="60.865234" xlink:href="#DejaVuSans-72"/>
      <use x="101.978516" xlink:href="#DejaVuSans-75"/>
      <use x="165.357422" xlink:href="#DejaVuSans-65"/>
      <use x="226.880859" xlink:href="#DejaVuSans-20"/>
      <use x="258.667969" xlink:href="#DejaVuSans-50"/>
      <use x="318.923828" xlink:href="#DejaVuSans-6f"/>
      <use x="380.105469" xlink:href="#DejaVuSans-73"/>
      <use x="432.205078" xlink:href="#DejaVuSans-69"/>
      <use x="459.988281" xlink:href="#DejaVuSans-74"/>
      <use x="499.197266" xlink:href="#DejaVuSans-69"/>
      <use x="526.980469" xlink:href="#DejaVuSans-76"/>
      <use x="586.160156" xlink:href="#DejaVuSans-65"/>
      <use x="647.683594" xlink:href="#DejaVuSans-20"/>
      <use x="679.470703" xlink:href="#DejaVuSans-52"/>
      <use x="748.921875" xlink:href="#DejaVuSans-61"/>
      <use x="810.201172" xlink:href="#DejaVuSans-74"/>
      <use x="849.410156" xlink:href="#DejaVuSans-65"/>
     </g>
    </g>
   </g>
   <g id="line2d_13">
    <path clip-path="url(#p162cb79ccf)" d="M 54 251.972232 
L 54.094656 246.918413 
L 54.118321 246.918413 
L 54.212977 243.280774 
L 54.236641 243.280774 
L 54.331298 238.449101 
L 54.354962 238.449101 
L 54.425954 235.616741 
L 54.473282 235.616741 
L 54.567939 231.979102 
L 54.591603 231.979102 
L 54.68626 230.063094 
L 54.733588 230.063094 
L 54.828244 229.257815 
L 54.851908 229.257815 
L 54.946565 227.952708 
L 54.970229 227.952708 
L 55.064885 226.286614 
L 55.08855 226.286614 
L 55.183206 225.175885 
L 55.20687 225.175885 
L 55.301527 223.981851 
L 55.325191 223.981851 
L 55.419847 222.454598 
L 55.443511 222.454598 
L 55.514504 221.649319 
L 55.561832 221.649319 
L 55.656489 220.621894 
L 55.680153 220.621894 
L 55.774809 219.483396 
L 55.798473 219.483396 
L 55.89313 219.011336 
L 55.940458 219.011336 
L 56.035115 217.345242 
L 56.058779 217.345242 
L 56.153435 215.873526 
L 56.177099 215.873526 
L 56.271756 213.735372 
L 56.29542 213.735372 
L 56.390076 212.791252 
L 56.41374 212.791252 
L 56.508397 211.40284 
L 56.532061 211.40284 
L 56.626718 209.597905 
L 56.650382 209.597905 
L 56.745038 208.459407 
L 56.816031 208.40387 
L 56.887023 207.265373 
L 56.934351 207.265373 
L 57.029008 206.932154 
L 57.052672 206.932154 
L 57.147328 206.071339 
L 57.170992 206.071339 
L 57.265649 205.404901 
L 57.289313 205.404901 
L 57.383969 205.071682 
L 57.431298 204.960609 
L 57.525954 203.599966 
L 57.549618 203.599966 
L 57.644275 202.628078 
L 57.667939 202.628078 
L 57.762595 202.26709 
L 57.78626 202.26709 
L 57.880916 201.01752 
L 57.928244 200.989752 
L 58.022901 200.0734 
L 58.070229 199.990095 
L 58.164885 199.157048 
L 58.212214 199.073743 
L 58.30687 198.240696 
L 58.377863 198.212928 
L 58.472519 197.657563 
L 58.519847 197.574259 
L 58.614504 196.907821 
L 58.638168 196.907821 
L 58.732824 196.324688 
L 58.803817 196.213615 
L 58.898473 195.491641 
L 58.969466 195.380568 
L 59.064122 194.380912 
L 59.11145 194.353143 
L 59.206107 193.29795 
L 59.277099 193.242414 
L 59.371756 192.159453 
L 59.419084 192.159453 
L 59.51374 191.909539 
L 59.632061 191.826234 
L 59.726718 190.965419 
L 59.750382 190.965419 
L 59.845038 189.910226 
L 59.868702 189.910226 
L 59.963359 188.521814 
L 59.987023 188.521814 
L 60.081679 187.63323 
L 60.176336 187.605462 
L 60.270992 185.74499 
L 60.318321 185.689454 
L 60.365649 184.662029 
L 60.460305 184.662029 
L 60.554962 184.106665 
L 60.60229 184.02336 
L 60.696947 183.301386 
L 60.767939 183.218081 
L 60.862595 182.385034 
L 60.909924 182.385034 
L 61.00458 181.524219 
L 61.028244 181.524219 
L 61.122901 180.71894 
L 61.170229 180.663403 
L 61.264885 179.858125 
L 61.28855 179.858125 
L 61.383206 179.191687 
L 61.40687 179.191687 
L 61.501527 178.386408 
L 61.548855 178.330872 
L 61.643511 177.442288 
L 61.667176 177.442288 
L 61.761832 176.720314 
L 61.80916 176.692546 
L 61.903817 176.164949 
L 61.951145 176.137181 
L 61.998473 175.52628 
L 62.116794 175.52628 
L 62.21145 175.220829 
L 62.235115 175.220829 
L 62.329771 174.804306 
L 62.400763 174.721001 
L 62.49542 173.999027 
L 62.519084 173.999027 
L 62.61374 173.054907 
L 62.637405 173.054907 
L 62.732061 172.416237 
L 62.755725 172.416237 
L 62.850382 171.638727 
L 62.874046 171.638727 
L 62.968702 170.916753 
L 63.016031 170.916753 
L 63.110687 170.222547 
L 63.205344 170.139242 
L 63.3 169.556109 
L 63.370992 169.445036 
L 63.465649 168.667526 
L 63.536641 168.556453 
L 63.607634 168.028856 
L 63.749618 167.917783 
L 63.796947 167.667869 
L 63.938931 167.584565 
L 64.033588 167.195809 
L 64.175573 167.084736 
L 64.199237 167.001432 
L 64.341221 166.918127 
L 64.412214 166.584908 
L 64.530534 166.501603 
L 64.625191 165.807397 
L 64.672519 165.807397 
L 64.767176 165.61302 
L 64.79084 165.61302 
L 64.885496 165.057655 
L 64.932824 164.97435 
L 65.027481 164.335681 
L 65.074809 164.224608 
L 65.169466 163.530402 
L 65.216794 163.474866 
L 65.264122 163.25272 
L 65.358779 163.224952 
L 65.453435 162.586282 
L 65.571756 162.502977 
L 65.642748 161.753235 
L 65.71374 161.753235 
L 65.808397 160.89242 
L 65.879389 160.781347 
L 65.974046 159.670617 
L 66.116031 159.559545 
L 66.210687 159.198557 
L 66.258015 159.115253 
L 66.352672 158.754266 
L 66.541985 158.643193 
L 66.589313 158.587656 
L 66.683969 158.504352 
L 66.731298 158.226669 
L 66.80229 158.226669 
L 66.896947 157.837914 
L 66.967939 157.782377 
L 67.062595 157.42139 
L 67.109924 157.393622 
L 67.180916 156.754953 
L 67.346565 156.64388 
L 67.417557 156.505039 
L 67.464885 156.505039 
L 67.559542 155.921906 
L 67.60687 155.838601 
L 67.701527 155.422077 
L 67.748855 155.422077 
L 67.819847 154.922249 
L 67.867176 154.922249 
L 67.961832 154.11697 
L 68.056489 154.005897 
L 68.151145 153.64491 
L 68.198473 153.64491 
L 68.29313 153.061777 
L 68.340458 152.950704 
L 68.41145 152.728559 
L 68.458779 152.728559 
L 68.506107 152.089889 
L 68.600763 151.978816 
L 68.69542 151.340147 
L 68.742748 151.312379 
L 68.81374 150.840319 
L 68.932061 150.729246 
L 69.026718 150.479332 
L 69.121374 150.423795 
L 69.192366 150.118344 
L 69.263359 150.118344 
L 69.334351 149.757357 
L 69.381679 149.757357 
L 69.476336 149.285297 
L 69.570992 149.174224 
L 69.665649 148.424482 
L 69.736641 148.313409 
L 69.831298 147.730276 
L 69.878626 147.702508 
L 69.949618 147.174912 
L 69.996947 147.174912 
L 70.091603 146.619547 
L 70.115267 146.619547 
L 70.18626 146.036414 
L 70.233588 146.036414 
L 70.328244 145.175599 
L 70.446565 145.092294 
L 70.541221 144.398088 
L 70.564885 144.398088 
L 70.659542 143.842723 
L 70.70687 143.759419 
L 70.801527 143.398432 
L 70.943511 143.287359 
L 71.038168 142.620921 
L 71.180153 142.537616 
L 71.251145 142.398775 
L 71.39313 142.343239 
L 71.487786 141.926715 
L 71.535115 141.871179 
L 71.558779 141.732337 
L 71.724427 141.704569 
L 71.819084 141.426887 
L 71.890076 141.37135 
L 71.984733 140.815986 
L 72.079389 140.704913 
L 72.150382 140.205084 
L 72.268702 140.12178 
L 72.339695 139.816329 
L 72.434351 139.788561 
L 72.505344 139.427574 
L 72.6 139.344269 
L 72.694656 138.788904 
L 72.765649 138.677832 
L 72.860305 138.122467 
L 72.883969 138.122467 
L 72.978626 137.76148 
L 73.073282 137.678175 
L 73.167939 137.428261 
L 73.215267 137.317188 
L 73.309924 137.095042 
L 73.40458 136.983969 
L 73.499237 136.567446 
L 73.641221 136.456373 
L 73.735878 136.095386 
L 73.80687 136.012081 
L 73.901527 135.762167 
L 73.925191 135.762167 
L 74.019847 135.23457 
L 74.138168 135.123497 
L 74.138168 135.012424 
L 74.327481 134.901352 
L 74.422137 134.790279 
L 74.469466 134.734742 
L 74.564122 134.373755 
L 74.61145 134.373755 
L 74.706107 134.123841 
L 74.777099 134.040536 
L 74.824427 133.790622 
L 74.942748 133.707317 
L 75.037405 133.401867 
L 75.155725 133.290794 
L 75.226718 132.56882 
L 75.368702 132.457747 
L 75.416031 132.263369 
L 75.534351 132.263369 
L 75.581679 131.93015 
L 75.723664 131.874614 
L 75.818321 131.402554 
L 75.912977 131.319249 
L 75.983969 131.097103 
L 76.078626 131.013799 
L 76.173282 130.264056 
L 76.291603 130.180751 
L 76.362595 129.958606 
L 76.599237 129.847533 
L 76.670229 129.73646 
L 76.78855 129.625387 
L 76.883206 129.375473 
L 76.954198 129.319936 
L 77.048855 128.681267 
L 77.19084 128.597962 
L 77.285496 128.403584 
L 77.380153 128.292511 
L 77.427481 128.209207 
L 77.522137 128.15367 
L 77.616794 127.737147 
L 77.640458 127.737147 
L 77.71145 127.37616 
L 77.758779 127.37616 
L 77.758779 127.237319 
L 77.948092 127.237319 
L 78.042748 127.015173 
L 78.137405 126.9041 
L 78.208397 126.820795 
L 78.279389 126.73749 
L 78.350382 126.570881 
L 78.445038 126.487576 
L 78.492366 126.320967 
L 78.610687 126.209894 
L 78.705344 125.904443 
L 78.8 125.821139 
L 78.870992 125.598993 
L 79.060305 125.48792 
L 79.154962 125.154701 
L 79.273282 125.099164 
L 79.344275 124.627104 
L 79.48626 124.5438 
L 79.580916 124.293886 
L 79.60458 124.293886 
L 79.651908 124.07174 
L 79.935878 123.960667 
L 80.030534 123.794057 
L 80.148855 123.682984 
L 80.243511 123.377534 
L 80.338168 123.349766 
L 80.40916 123.099851 
L 80.480153 123.016547 
L 80.574809 122.766633 
L 80.645802 122.65556 
L 80.740458 122.405646 
L 80.858779 122.322341 
L 80.953435 121.961354 
L 81.024427 121.933586 
L 81.119084 121.461526 
L 81.142748 121.461526 
L 81.21374 121.156075 
L 81.379389 121.07277 
L 81.474046 120.795088 
L 81.616031 120.739551 
L 81.710687 120.434101 
L 81.876336 120.323028 
L 81.970992 120.184187 
L 81.994656 120.184187 
L 82.089313 119.684359 
L 82.325954 119.601054 
L 82.396947 119.434444 
L 82.491603 119.323371 
L 82.58626 119.073457 
L 82.775573 118.962384 
L 82.870229 118.518093 
L 83.083206 118.40702 
L 83.10687 118.268179 
L 83.319847 118.157106 
L 83.414504 117.823887 
L 83.461832 117.796119 
L 83.556489 117.546204 
L 83.722137 117.435131 
L 83.79313 117.379595 
L 83.887786 117.268522 
L 83.935115 117.185217 
L 84.077099 117.157449 
L 84.171756 116.796462 
L 84.219084 116.796462 
L 84.31374 116.546548 
L 84.432061 116.435475 
L 84.526718 116.268866 
L 84.645038 116.157793 
L 84.692366 115.935647 
L 85.118321 115.852342 
L 85.212977 115.630196 
L 85.307634 115.519123 
L 85.40229 115.324746 
L 85.496947 115.324746 
L 85.591603 115.047063 
L 85.733588 114.963759 
L 85.80458 114.852686 
L 86.08855 114.741613 
L 86.183206 114.491699 
L 86.277863 114.436162 
L 86.277863 114.352857 
L 86.49084 114.241784 
L 86.561832 114.019639 
L 86.60916 114.019639 
L 86.703817 113.658651 
L 86.845802 113.603115 
L 86.940458 113.353201 
L 87.035115 113.269896 
L 87.082443 113.131055 
L 87.224427 113.04775 
L 87.319084 112.797836 
L 87.366412 112.686763 
L 87.461069 112.353544 
L 87.555725 112.298008 
L 87.626718 111.964789 
L 87.816031 111.909253 
L 87.910687 111.548266 
L 88.076336 111.437193 
L 88.170992 111.215047 
L 88.218321 111.103974 
L 88.312977 110.992901 
L 88.431298 110.937364 
L 88.50229 110.715219 
L 88.573282 110.604146 
L 88.644275 110.382 
L 88.809924 110.326463 
L 88.90458 110.104317 
L 89.022901 110.048781 
L 89.046565 109.576721 
L 89.259542 109.465648 
L 89.30687 109.299039 
L 89.543511 109.215734 
L 89.567176 109.049124 
L 89.70916 108.938051 
L 89.780153 108.743674 
L 89.898473 108.632601 
L 89.969466 108.410455 
L 90.158779 108.32715 
L 90.229771 108.105004 
L 90.466412 108.0217 
L 90.537405 107.744017 
L 90.608397 107.716249 
L 90.655725 107.54964 
L 90.845038 107.466335 
L 90.845038 107.410799 
L 91.034351 107.299726 
L 91.034351 107.271957 
L 91.247328 107.216421 
L 91.341985 106.994275 
L 91.436641 106.994275 
L 91.507634 106.744361 
L 91.60229 106.633288 
L 91.696947 106.522215 
L 91.815267 106.43891 
L 91.909924 106.216764 
L 91.980916 106.13346 
L 92.075573 105.911314 
L 92.264885 105.828009 
L 92.28855 105.716936 
L 92.430534 105.605863 
L 92.525191 105.439254 
L 92.619847 105.355949 
L 92.714504 104.883889 
L 92.80916 104.800584 
L 92.903817 104.606207 
L 92.998473 104.55067 
L 93.09313 104.411829 
L 93.140458 104.328524 
L 93.235115 104.161915 
L 93.377099 104.07861 
L 93.471756 103.800928 
L 93.779389 103.689855 
L 93.874046 103.60655 
L 94.087023 103.495477 
L 94.134351 103.439941 
L 94.276336 103.384404 
L 94.370992 103.051186 
L 94.512977 102.967881 
L 94.607634 102.690198 
L 94.820611 102.579126 
L 94.891603 102.495821 
L 95.151908 102.384748 
L 95.151908 102.35698 
L 95.341221 102.329211 
L 95.435878 101.940456 
L 95.483206 101.912688 
L 95.577863 101.690542 
L 95.838168 101.579469 
L 95.90916 101.385091 
L 96.19313 101.274018 
L 96.287786 101.162946 
L 96.382443 101.079641 
L 96.453435 100.968568 
L 96.619084 100.857495 
L 96.71374 100.77419 
L 96.855725 100.690886 
L 96.950382 100.46874 
L 97.139695 100.357667 
L 97.210687 100.135521 
L 97.376336 100.052216 
L 97.447328 99.968911 
L 97.636641 99.857838 
L 97.636641 99.746766 
L 97.896947 99.635693 
L 97.991603 99.413547 
L 98.180916 99.302474 
L 98.275573 99.135864 
L 98.346565 99.024791 
L 98.417557 98.858182 
L 98.748855 98.747109 
L 98.843511 98.552731 
L 98.985496 98.441658 
L 98.985496 98.275049 
L 99.316794 98.163976 
L 99.41145 97.914062 
L 99.624427 97.802989 
L 99.719084 97.664148 
L 99.861069 97.580843 
L 99.884733 97.46977 
L 100.168702 97.358697 
L 100.216031 97.275393 
L 100.405344 97.192088 
L 100.429008 96.914406 
L 100.547328 96.914406 
L 100.641985 96.69226 
L 100.807634 96.581187 
L 100.878626 96.470114 
L 100.996947 96.359041 
L 101.091603 96.192431 
L 101.280916 96.136895 
L 101.351908 95.942517 
L 101.564885 95.831444 
L 101.635878 95.692603 
L 101.777863 95.58153 
L 101.777863 95.525994 
L 101.967176 95.414921 
L 102.038168 95.220543 
L 102.227481 95.10947 
L 102.322137 94.915093 
L 102.440458 94.887324 
L 102.535115 94.665178 
L 102.771756 94.554106 
L 102.866412 94.415264 
L 103.079389 94.33196 
L 103.174046 94.16535 
L 103.339695 94.082046 
L 103.434351 93.887668 
L 103.576336 93.776595 
L 103.670992 93.609986 
L 103.883969 93.498913 
L 103.883969 93.443376 
L 104.191603 93.332303 
L 104.28626 93.22123 
L 104.40458 93.110157 
L 104.499237 92.832475 
L 104.759542 92.721402 
L 104.854198 92.554793 
L 105.185496 92.471488 
L 105.256489 92.249342 
L 105.49313 92.193806 
L 105.587786 92.054964 
L 105.729771 91.943891 
L 105.800763 91.721746 
L 105.871756 91.693977 
L 105.966412 91.416295 
L 106.108397 91.33299 
L 106.155725 91.221917 
L 106.534351 91.110844 
L 106.558015 90.999771 
L 106.676336 90.999771 
L 106.723664 90.833162 
L 107.007634 90.722089 
L 107.10229 90.499943 
L 107.457252 90.444407 
L 107.551908 90.305566 
L 107.764885 90.194493 
L 107.78855 90.055651 
L 108.001527 89.944578 
L 108.072519 89.805737 
L 108.214504 89.694664 
L 108.285496 89.555823 
L 108.380153 89.500287 
L 108.474809 89.305909 
L 108.59313 89.222604 
L 108.616794 89.111531 
L 108.758779 89.111531 
L 108.853435 88.861617 
L 108.948092 88.750544 
L 109.042748 88.611703 
L 109.279389 88.50063 
L 109.374046 88.361789 
L 109.468702 88.250716 
L 109.563359 88.167411 
L 109.847328 88.084107 
L 109.941985 87.861961 
L 110.036641 87.778656 
L 110.131298 87.55651 
L 110.367939 87.445437 
L 110.391603 87.389901 
L 110.557252 87.306596 
L 110.60458 87.112218 
L 110.912214 87.001146 
L 110.959542 86.945609 
L 111.314504 86.834536 
L 111.314504 86.723463 
L 111.740458 86.61239 
L 111.787786 86.473549 
L 111.953435 86.418013 
L 112.000763 86.251403 
L 112.119084 86.223635 
L 112.21374 86.001489 
L 112.521374 85.890416 
L 112.545038 85.751575 
L 113.065649 85.640502 
L 113.112977 85.557197 
L 113.30229 85.501661 
L 113.396947 85.335051 
L 113.538931 85.223978 
L 113.633588 84.862991 
L 113.822901 84.807455 
L 113.822901 84.72415 
L 114.343511 84.613077 
L 114.438168 84.4187 
L 114.722137 84.307627 
L 114.722137 84.279858 
L 115.124427 84.168786 
L 115.219084 84.029944 
L 115.479389 83.918871 
L 115.503053 83.835567 
L 115.668702 83.724494 
L 115.739695 83.613421 
L 115.834351 83.502348 
L 115.858015 83.419043 
L 116.070992 83.30797 
L 116.165649 83.196897 
L 116.354962 83.085824 
L 116.425954 83.00252 
L 116.709924 82.891447 
L 116.780916 82.752606 
L 117.017557 82.641533 
L 117.017557 82.558228 
L 117.60916 82.447155 
L 117.703817 82.280546 
L 117.964122 82.225009 
L 117.964122 81.975095 
L 118.153435 81.89179 
L 118.153435 81.808486 
L 118.603053 81.725181 
L 118.69771 81.614108 
L 118.981679 81.558571 
L 118.981679 81.447498 
L 119.241985 81.336426 
L 119.265649 81.280889 
L 119.525954 81.169816 
L 119.620611 80.919902 
L 119.78626 80.836597 
L 119.833588 80.697756 
L 120.046565 80.586683 
L 120.046565 80.558915 
L 120.259542 80.47561 
L 120.259542 80.392306 
L 120.59084 80.281233 
L 120.685496 80.142391 
L 120.969466 80.059087 
L 121.016794 79.948014 
L 121.135115 79.864709 
L 121.135115 79.809173 
L 121.703053 79.6981 
L 121.774046 79.503722 
L 122.105344 79.392649 
L 122.152672 79.337113 
L 122.389313 79.22604 
L 122.460305 79.170503 
L 122.673282 79.05943 
L 122.744275 78.865053 
L 122.933588 78.809516 
L 122.933588 78.726211 
L 123.170229 78.615138 
L 123.264885 78.559602 
L 123.430534 78.448529 
L 123.525191 78.254151 
L 123.974809 78.143078 
L 124.045802 78.032005 
L 124.164122 77.948701 
L 124.187786 77.865396 
L 124.471756 77.754323 
L 124.519084 77.698787 
L 124.732061 77.615482 
L 124.779389 77.504409 
L 125.134351 77.393336 
L 125.134351 77.3378 
L 125.678626 77.254495 
L 125.725954 77.143422 
L 126.009924 77.032349 
L 126.057252 76.86574 
L 126.483206 76.754667 
L 126.483206 76.69913 
L 126.743511 76.615825 
L 126.814504 76.476984 
L 127.003817 76.365911 
L 127.051145 76.282607 
L 127.335115 76.199302 
L 127.382443 76.088229 
L 127.784733 76.004924 
L 127.855725 75.92162 
L 128.163359 75.810547 
L 128.234351 75.727242 
L 128.494656 75.671705 
L 128.494656 75.588401 
L 128.731298 75.532864 
L 128.825954 75.421791 
L 129.133588 75.310718 
L 129.20458 75.171877 
L 129.867176 75.088573 
L 129.961832 74.9775 
L 130.174809 74.894195 
L 130.269466 74.672049 
L 130.506107 74.560976 
L 130.553435 74.449903 
L 131.026718 74.394367 
L 131.09771 74.227757 
L 131.168702 74.199989 
L 131.168702 74.088916 
L 131.429008 74.005611 
L 131.523664 73.86677 
L 131.594656 73.811234 
L 131.665649 73.644624 
L 131.831298 73.533551 
L 131.831298 73.505783 
L 132.233588 73.422478 
L 132.233588 73.366942 
L 132.470229 73.311405 
L 132.564885 73.144796 
L 132.919847 73.061491 
L 132.99084 72.950418 
L 133.203817 72.867114 
L 133.251145 72.783809 
L 133.606107 72.672736 
L 133.677099 72.589431 
L 133.79542 72.478358 
L 133.866412 72.339517 
L 134.245038 72.256213 
L 134.292366 72.117371 
L 134.552672 72.034067 
L 134.623664 71.950762 
L 135.28626 71.839689 
L 135.28626 71.811921 
L 135.499237 71.700848 
L 135.570229 71.589775 
L 135.901527 71.478702 
L 135.948855 71.284324 
L 136.232824 71.173251 
L 136.327481 71.117715 
L 136.422137 71.03441 
L 136.516794 70.923337 
L 136.682443 70.867801 
L 136.753435 70.701191 
L 137.084733 70.590118 
L 137.155725 70.479045 
L 137.274046 70.395741 
L 137.368702 70.312436 
L 137.676336 70.201363 
L 137.7 70.145827 
L 137.983969 70.034754 
L 138.054962 69.951449 
L 138.267939 69.840376 
L 138.315267 69.729303 
L 138.670229 69.61823 
L 138.764885 69.479389 
L 138.812214 69.368316 
L 138.835878 69.31278 
L 139.119847 69.229475 
L 139.167176 69.14617 
L 139.261832 69.118402 
L 139.356489 68.951793 
L 139.498473 68.84072 
L 139.569466 68.757415 
L 139.877099 68.646342 
L 139.948092 68.563037 
L 140.39771 68.451964 
L 140.492366 68.313123 
L 140.894656 68.257587 
L 140.989313 68.090977 
L 141.509924 67.979904 
L 141.509924 67.952136 
L 141.841221 67.841063 
L 141.935878 67.674454 
L 142.29084 67.563381 
L 142.338168 67.452308 
L 142.669466 67.369003 
L 142.764122 67.202394 
L 142.858779 67.091321 
L 142.906107 67.008016 
L 143.545038 66.896943 
L 143.616031 66.702565 
L 143.829008 66.591493 
L 143.829008 66.535956 
L 144.018321 66.452651 
L 144.089313 66.31381 
L 144.467939 66.230505 
L 144.562595 65.952823 
L 145.319847 65.84175 
L 145.39084 65.786214 
L 145.722137 65.702909 
L 145.769466 65.619604 
L 145.958779 65.508531 
L 146.006107 65.425227 
L 146.31374 65.341922 
L 146.31374 65.258617 
L 147.023664 65.175313 
L 147.070992 65.092008 
L 147.354962 64.980935 
L 147.354962 64.953167 
L 147.709924 64.89763 
L 147.733588 64.758789 
L 148.017557 64.647716 
L 148.064885 64.564411 
L 148.135878 64.564411 
L 148.135878 64.42557 
L 148.727481 64.314497 
L 148.822137 64.12012 
L 149.106107 64.009047 
L 149.153435 63.897974 
L 149.366412 63.786901 
L 149.437405 63.703596 
L 149.674046 63.592523 
L 149.674046 63.48145 
L 150.076336 63.370377 
L 150.170992 63.287073 
L 150.218321 63.259304 
L 150.218321 63.148231 
L 150.454962 63.064927 
L 150.525954 62.926085 
L 150.857252 62.815013 
L 150.928244 62.759476 
L 151.874809 62.648403 
L 151.945802 62.565098 
L 152.371756 62.454025 
L 152.371756 62.398489 
L 152.916031 62.287416 
L 152.963359 62.204111 
L 153.223664 62.093038 
L 153.223664 62.06527 
L 153.60229 61.954197 
L 153.696947 61.75982 
L 153.88626 61.648747 
L 153.88626 61.59321 
L 154.525191 61.482137 
L 154.548855 61.343296 
L 154.998473 61.232223 
L 155.045802 61.176687 
L 155.424427 61.065614 
L 155.519084 61.010077 
L 155.874046 60.899004 
L 155.945038 60.760163 
L 156.134351 60.64909 
L 156.205344 60.538017 
L 156.370992 60.426944 
L 156.370992 60.371408 
L 156.844275 60.260335 
L 156.844275 60.232567 
L 157.530534 60.121494 
L 157.625191 60.038189 
L 157.90916 59.927116 
L 157.90916 59.87158 
L 158.335115 59.816043 
L 158.406107 59.70497 
L 159.305344 59.593897 
L 159.352672 59.538361 
L 159.778626 59.455056 
L 159.825954 59.371751 
L 160.299237 59.260678 
L 160.299237 59.23291 
L 160.654198 59.121837 
L 160.748855 59.066301 
L 161.245802 58.955228 
L 161.316794 58.899691 
L 161.624427 58.871923 
L 161.719084 58.705314 
L 161.932061 58.594241 
L 161.955725 58.538704 
L 162.429008 58.427631 
L 162.5 58.344327 
L 162.996947 58.233254 
L 163.020611 58.177717 
L 163.399237 58.066644 
L 163.399237 58.038876 
L 163.848855 57.927803 
L 163.872519 57.872267 
L 164.203817 57.761194 
L 164.274809 57.677889 
L 164.984733 57.594584 
L 164.984733 57.539048 
L 166.00229 57.427975 
L 166.00229 57.400207 
L 167.043511 57.289134 
L 167.09084 57.205829 
L 167.327481 57.122524 
L 167.422137 57.011451 
L 167.706107 56.900378 
L 167.753435 56.817074 
L 168.510687 56.733769 
L 168.605344 56.650464 
L 169.599237 56.539391 
L 169.599237 56.456087 
L 169.90687 56.40055 
L 169.90687 56.317245 
L 170.474809 56.206173 
L 170.522137 56.150636 
L 170.735115 56.0951 
L 170.735115 55.984027 
L 171.279389 55.872954 
L 171.350382 55.789649 
L 171.492366 55.706344 
L 171.492366 55.650808 
L 171.729008 55.539735 
L 171.729008 55.484198 
L 172.367939 55.373125 
L 172.367939 55.345357 
L 173.030534 55.234284 
L 173.125191 55.15098 
L 173.267176 55.067675 
L 173.338168 54.98437 
L 173.645802 54.873297 
L 173.645802 54.817761 
L 174.710687 54.706688 
L 174.710687 54.67892 
L 175.58626 54.567847 
L 175.633588 54.484542 
L 176.201527 54.401237 
L 176.248855 54.317933 
L 176.745802 54.20686 
L 176.816794 54.151323 
L 177.100763 54.04025 
L 177.100763 54.012482 
L 178 53.901409 
L 178.047328 53.818104 
L 178.567939 53.707031 
L 178.567939 53.679263 
L 178.828244 53.56819 
L 178.875573 53.512654 
L 179.561832 53.401581 
L 179.561832 53.373813 
L 179.869466 53.26274 
L 179.869466 53.179435 
L 180.816031 53.068362 
L 180.887023 52.901752 
L 181.289313 52.79068 
L 181.289313 52.762911 
L 181.691603 52.651838 
L 181.762595 52.596302 
L 181.975573 52.485229 
L 181.999237 52.401924 
L 182.401527 52.290851 
L 182.496183 52.207547 
L 182.969466 52.096474 
L 182.969466 52.068705 
L 183.537405 51.957632 
L 183.608397 51.902096 
L 183.750382 51.791023 
L 183.750382 51.763255 
L 184.176336 51.652182 
L 184.176336 51.624414 
L 184.838931 51.513341 
L 184.838931 51.485572 
L 185.193893 51.3745 
L 185.28855 51.318963 
L 185.69084 51.20789 
L 185.69084 51.180122 
L 186.542748 51.069049 
L 186.542748 51.041281 
L 187.654962 50.930208 
L 187.678626 50.846903 
L 187.938931 50.763598 
L 187.98626 50.680294 
L 188.719847 50.569221 
L 188.719847 50.541452 
L 189.690076 50.43038 
L 189.690076 50.374843 
L 190.4 50.26377 
L 190.4 50.236002 
L 190.754962 50.152697 
L 190.754962 50.097161 
L 191.60687 50.013856 
L 191.701527 49.902783 
L 192.387786 49.79171 
L 192.458779 49.736174 
L 192.955725 49.625101 
L 192.955725 49.597332 
L 193.287023 49.48626 
L 193.381679 49.430723 
L 194.115267 49.31965 
L 194.18626 49.236345 
L 195.322137 49.125272 
L 195.322137 49.069736 
L 196.339695 48.958663 
L 196.339695 48.930895 
L 196.907634 48.819822 
L 196.907634 48.792054 
L 197.712214 48.680981 
L 197.783206 48.625444 
L 199.321374 48.514371 
L 199.392366 48.431067 
L 201.167176 48.319994 
L 201.214504 48.208921 
L 201.829771 48.125616 
L 201.900763 48.014543 
L 203.533588 47.90347 
L 203.533588 47.875702 
L 204.267176 47.764629 
L 204.361832 47.653556 
L 205.024427 47.570251 
L 205.119084 47.43141 
L 206.112977 47.320337 
L 206.112977 47.292569 
L 206.657252 47.181496 
L 206.657252 47.153728 
L 207.580153 47.042655 
L 207.580153 47.014887 
L 208.31374 46.903814 
L 208.31374 46.876045 
L 208.905344 46.764972 
L 209 46.681668 
L 210.135878 46.570595 
L 210.135878 46.542827 
L 210.751145 46.431754 
L 210.751145 46.403985 
L 211.816031 46.292912 
L 211.816031 46.265144 
L 212.312977 46.154071 
L 212.312977 46.126303 
L 213.401527 46.01523 
L 213.401527 45.987462 
L 215.034351 45.876389 
L 215.129008 45.737548 
L 215.649618 45.626475 
L 215.673282 45.570938 
L 216.40687 45.459865 
L 216.40687 45.404329 
L 217.755725 45.321024 
L 217.803053 45.209951 
L 218.039695 45.126647 
L 218.039695 45.07111 
L 218.773282 44.960037 
L 218.867939 44.904501 
L 219.625191 44.793428 
L 219.625191 44.737891 
L 220.19313 44.626818 
L 220.216794 44.571282 
L 222.038931 44.460209 
L 222.038931 44.432441 
L 222.819847 44.321368 
L 222.89084 44.238063 
L 224.121374 44.12699 
L 224.168702 44.043685 
L 225.257252 43.932612 
L 225.30458 43.877076 
L 226.937405 43.766003 
L 226.937405 43.738235 
L 228.28626 43.627162 
L 228.357252 43.516089 
L 229.800763 43.405016 
L 229.848092 43.34948 
L 231.078626 43.238407 
L 231.078626 43.210638 
L 231.930534 43.099565 
L 231.930534 43.071797 
L 233.39771 42.960724 
L 233.421374 42.905188 
L 235.574809 42.794115 
L 235.574809 42.766347 
L 236.190076 42.655274 
L 236.21374 42.599737 
L 236.9 42.488664 
L 236.9 42.460896 
L 238.296183 42.377591 
L 238.296183 42.294287 
L 239.787023 42.183214 
L 239.787023 42.155445 
L 240.544275 42.044372 
L 240.544275 42.016604 
L 241.585496 41.905531 
L 241.585496 41.877763 
L 242.674046 41.76669 
L 242.674046 41.738922 
L 244.922137 41.627849 
L 244.969466 41.572312 
L 247.69084 41.46124 
L 247.69084 41.433471 
L 249.678626 41.322398 
L 249.749618 41.266862 
L 250.719847 41.155789 
L 250.719847 41.128021 
L 252.045038 41.016948 
L 252.116031 40.961411 
L 253.535878 40.850338 
L 253.535878 40.82257 
L 254.529771 40.711497 
L 254.529771 40.683729 
L 255.831298 40.572656 
L 255.90229 40.51712 
L 257.298473 40.406047 
L 257.298473 40.378278 
L 259.262595 40.267205 
L 259.28626 40.211669 
L 260.682443 40.100596 
L 260.706107 40.04506 
L 264.137405 39.933987 
L 264.137405 39.906218 
L 267.379389 39.795145 
L 267.379389 39.767377 
L 268.491603 39.684072 
L 268.491603 39.628536 
L 270.787023 39.517463 
L 270.834351 39.461927 
L 272.041221 39.350854 
L 272.041221 39.323085 
L 276.087786 39.212012 
L 276.087786 39.184244 
L 278.217557 39.073171 
L 278.217557 39.045403 
L 279.21145 38.93433 
L 279.21145 38.906562 
L 280.773282 38.795489 
L 280.773282 38.767721 
L 282.808397 38.656648 
L 282.808397 38.62888 
L 286.452672 38.517807 
L 286.452672 38.490038 
L 289.245038 38.378965 
L 289.292366 38.323429 
L 291.161832 38.212356 
L 291.161832 38.184588 
L 293.575573 38.073515 
L 293.575573 38.017978 
L 296.20229 37.906905 
L 296.20229 37.879137 
L 299.657252 37.768064 
L 299.657252 37.740296 
L 303.467176 37.629223 
L 303.467176 37.601455 
L 305.525954 37.51815 
L 305.525954 37.462614 
L 314.116031 37.351541 
L 314.116031 37.296004 
L 317.405344 37.184931 
L 317.405344 37.129395 
L 325.545802 37.018322 
L 325.545802 36.990554 
L 335.603053 36.879481 
L 335.603053 36.851712 
L 346.512214 36.74064 
L 346.512214 36.712871 
L 388.8 36.712871 
L 388.8 36.712871 
" style="fill:none;stroke:#ff8c00;stroke-linecap:square;stroke-width:2;"/>
   </g>
   <g id="line2d_14">
    <path clip-path="url(#p162cb79ccf)" d="M 54 252 
L 388.8 36.712871 
" style="fill:none;stroke:#000080;stroke-dasharray:7.4,3.2;stroke-dashoffset:0;stroke-width:2;"/>
   </g>
   <g id="patch_3">
    <path d="M 54 252 
L 54 34.56 
" style="fill:none;stroke:#000000;stroke-linecap:square;stroke-linejoin:miter;stroke-width:0.8;"/>
   </g>
   <g id="patch_4">
    <path d="M 388.8 252 
L 388.8 34.56 
" style="fill:none;stroke:#000000;stroke-linecap:square;stroke-linejoin:miter;stroke-width:0.8;"/>
   </g>
   <g id="patch_5">
    <path d="M 54 252 
L 388.8 252 
" style="fill:none;stroke:#000000;stroke-linecap:square;stroke-linejoin:miter;stroke-width:0.8;"/>
   </g>
   <g id="patch_6">
    <path d="M 54 34.56 
L 388.8 34.56 
" style="fill:none;stroke:#000000;stroke-linecap:square;stroke-linejoin:miter;stroke-width:0.8;"/>
   </g>
   <g id="text_15">
    <!-- ROC -->
    <defs>
     <path d="M 39.40625 66.21875 
Q 28.65625 66.21875 22.328125 58.203125 
Q 16.015625 50.203125 16.015625 36.375 
Q 16.015625 22.609375 22.328125 14.59375 
Q 28.65625 6.59375 39.40625 6.59375 
Q 50.140625 6.59375 56.421875 14.59375 
Q 62.703125 22.609375 62.703125 36.375 
Q 62.703125 50.203125 56.421875 58.203125 
Q 50.140625 66.21875 39.40625 66.21875 
z
M 39.40625 74.21875 
Q 54.734375 74.21875 63.90625 63.9375 
Q 73.09375 53.65625 73.09375 36.375 
Q 73.09375 19.140625 63.90625 8.859375 
Q 54.734375 -1.421875 39.40625 -1.421875 
Q 24.03125 -1.421875 14.8125 8.828125 
Q 5.609375 19.09375 5.609375 36.375 
Q 5.609375 53.65625 14.8125 63.9375 
Q 24.03125 74.21875 39.40625 74.21875 
z
" id="DejaVuSans-4f"/>
     <path d="M 64.40625 67.28125 
L 64.40625 56.890625 
Q 59.421875 61.53125 53.78125 63.8125 
Q 48.140625 66.109375 41.796875 66.109375 
Q 29.296875 66.109375 22.65625 58.46875 
Q 16.015625 50.828125 16.015625 36.375 
Q 16.015625 21.96875 22.65625 14.328125 
Q 29.296875 6.6875 41.796875 6.6875 
Q 48.140625 6.6875 53.78125 8.984375 
Q 59.421875 11.28125 64.40625 15.921875 
L 64.40625 5.609375 
Q 59.234375 2.09375 53.4375 0.328125 
Q 47.65625 -1.421875 41.21875 -1.421875 
Q 24.65625 -1.421875 15.125 8.703125 
Q 5.609375 18.84375 5.609375 36.375 
Q 5.609375 53.953125 15.125 64.078125 
Q 24.65625 74.21875 41.21875 74.21875 
Q 47.75 74.21875 53.53125 72.484375 
Q 59.328125 70.75 64.40625 67.28125 
z
" id="DejaVuSans-43"/>
    </defs>
    <g transform="translate(208.318125 28.56)scale(0.12 -0.12)">
     <use xlink:href="#DejaVuSans-52"/>
     <use x="69.482422" xlink:href="#DejaVuSans-4f"/>
     <use x="148.193359" xlink:href="#DejaVuSans-43"/>
    </g>
   </g>
   <g id="legend_1">
    <g id="patch_7">
     <path d="M 226.3 247 
L 381.8 247 
Q 383.8 247 383.8 245 
L 383.8 231.321875 
Q 383.8 229.321875 381.8 229.321875 
L 226.3 229.321875 
Q 224.3 229.321875 224.3 231.321875 
L 224.3 245 
Q 224.3 247 226.3 247 
z
" style="fill:#ffffff;opacity:0.8;stroke:#cccccc;stroke-linejoin:miter;"/>
    </g>
    <g id="line2d_15">
     <path d="M 228.3 237.420312 
L 248.3 237.420312 
" style="fill:none;stroke:#ff8c00;stroke-linecap:square;stroke-width:2;"/>
    </g>
    <g id="line2d_16"/>
    <g id="text_16">
     <!-- ROC curve (area = 0.89) -->
     <defs>
      <path d="M 48.78125 52.59375 
L 48.78125 44.1875 
Q 44.96875 46.296875 41.140625 47.34375 
Q 37.3125 48.390625 33.40625 48.390625 
Q 24.65625 48.390625 19.8125 42.84375 
Q 14.984375 37.3125 14.984375 27.296875 
Q 14.984375 17.28125 19.8125 11.734375 
Q 24.65625 6.203125 33.40625 6.203125 
Q 37.3125 6.203125 41.140625 7.25 
Q 44.96875 8.296875 48.78125 10.40625 
L 48.78125 2.09375 
Q 45.015625 0.34375 40.984375 -0.53125 
Q 36.96875 -1.421875 32.421875 -1.421875 
Q 20.0625 -1.421875 12.78125 6.34375 
Q 5.515625 14.109375 5.515625 27.296875 
Q 5.515625 40.671875 12.859375 48.328125 
Q 20.21875 56 33.015625 56 
Q 37.15625 56 41.109375 55.140625 
Q 45.0625 54.296875 48.78125 52.59375 
z
" id="DejaVuSans-63"/>
      <path d="M 31 75.875 
Q 24.46875 64.65625 21.28125 53.65625 
Q 18.109375 42.671875 18.109375 31.390625 
Q 18.109375 20.125 21.3125 9.0625 
Q 24.515625 -2 31 -13.1875 
L 23.1875 -13.1875 
Q 15.875 -1.703125 12.234375 9.375 
Q 8.59375 20.453125 8.59375 31.390625 
Q 8.59375 42.28125 12.203125 53.3125 
Q 15.828125 64.359375 23.1875 75.875 
z
" id="DejaVuSans-28"/>
      <path d="M 10.59375 45.40625 
L 73.1875 45.40625 
L 73.1875 37.203125 
L 10.59375 37.203125 
z
M 10.59375 25.484375 
L 73.1875 25.484375 
L 73.1875 17.1875 
L 10.59375 17.1875 
z
" id="DejaVuSans-3d"/>
      <path d="M 10.984375 1.515625 
L 10.984375 10.5 
Q 14.703125 8.734375 18.5 7.8125 
Q 22.3125 6.890625 25.984375 6.890625 
Q 35.75 6.890625 40.890625 13.453125 
Q 46.046875 20.015625 46.78125 33.40625 
Q 43.953125 29.203125 39.59375 26.953125 
Q 35.25 24.703125 29.984375 24.703125 
Q 19.046875 24.703125 12.671875 31.3125 
Q 6.296875 37.9375 6.296875 49.421875 
Q 6.296875 60.640625 12.9375 67.421875 
Q 19.578125 74.21875 30.609375 74.21875 
Q 43.265625 74.21875 49.921875 64.515625 
Q 56.59375 54.828125 56.59375 36.375 
Q 56.59375 19.140625 48.40625 8.859375 
Q 40.234375 -1.421875 26.421875 -1.421875 
Q 22.703125 -1.421875 18.890625 -0.6875 
Q 15.09375 0.046875 10.984375 1.515625 
z
M 30.609375 32.421875 
Q 37.25 32.421875 41.125 36.953125 
Q 45.015625 41.5 45.015625 49.421875 
Q 45.015625 57.28125 41.125 61.84375 
Q 37.25 66.40625 30.609375 66.40625 
Q 23.96875 66.40625 20.09375 61.84375 
Q 16.21875 57.28125 16.21875 49.421875 
Q 16.21875 41.5 20.09375 36.953125 
Q 23.96875 32.421875 30.609375 32.421875 
z
" id="DejaVuSans-39"/>
      <path d="M 8.015625 75.875 
L 15.828125 75.875 
Q 23.140625 64.359375 26.78125 53.3125 
Q 30.421875 42.28125 30.421875 31.390625 
Q 30.421875 20.453125 26.78125 9.375 
Q 23.140625 -1.703125 15.828125 -13.1875 
L 8.015625 -13.1875 
Q 14.5 -2 17.703125 9.0625 
Q 20.90625 20.125 20.90625 31.390625 
Q 20.90625 42.671875 17.703125 53.65625 
Q 14.5 64.65625 8.015625 75.875 
z
" id="DejaVuSans-29"/>
     </defs>
     <g transform="translate(256.3 240.920312)scale(0.1 -0.1)">
      <use xlink:href="#DejaVuSans-52"/>
      <use x="69.482422" xlink:href="#DejaVuSans-4f"/>
      <use x="148.193359" xlink:href="#DejaVuSans-43"/>
      <use x="218.017578" xlink:href="#DejaVuSans-20"/>
      <use x="249.804688" xlink:href="#DejaVuSans-63"/>
      <use x="304.785156" xlink:href="#DejaVuSans-75"/>
      <use x="368.164062" xlink:href="#DejaVuSans-72"/>
      <use x="409.277344" xlink:href="#DejaVuSans-76"/>
      <use x="468.457031" xlink:href="#DejaVuSans-65"/>
      <use x="529.980469" xlink:href="#DejaVuSans-20"/>
      <use x="561.767578" xlink:href="#DejaVuSans-28"/>
      <use x="600.78125" xlink:href="#DejaVuSans-61"/>
      <use x="662.060547" xlink:href="#DejaVuSans-72"/>
      <use x="703.142578" xlink:href="#DejaVuSans-65"/>
      <use x="764.666016" xlink:href="#DejaVuSans-61"/>
      <use x="825.945312" xlink:href="#DejaVuSans-20"/>
      <use x="857.732422" xlink:href="#DejaVuSans-3d"/>
      <use x="941.521484" xlink:href="#DejaVuSans-20"/>
      <use x="973.308594" xlink:href="#DejaVuSans-30"/>
      <use x="1036.931641" xlink:href="#DejaVuSans-2e"/>
      <use x="1068.71875" xlink:href="#DejaVuSans-38"/>
      <use x="1132.341797" xlink:href="#DejaVuSans-39"/>
      <use x="1195.964844" xlink:href="#DejaVuSans-29"/>
     </g>
    </g>
   </g>
  </g>
 </g>
 <defs>
  <clipPath id="p162cb79ccf">
   <rect height="217.44" width="334.8" x="54" y="34.56"/>
  </clipPath>
 </defs>
</svg>
